%TF.GenerationSoftware,KiCad,Pcbnew,9.0.0*%
%TF.CreationDate,2025-03-27T23:27:48+02:00*%
%TF.ProjectId,EEE3088F Design project,45454533-3038-4384-9620-44657369676e,rev?*%
%TF.SameCoordinates,Original*%
%TF.FileFunction,Copper,L2,Bot*%
%TF.FilePolarity,Positive*%
%FSLAX46Y46*%
G04 Gerber Fmt 4.6, Leading zero omitted, Abs format (unit mm)*
G04 Created by KiCad (PCBNEW 9.0.0) date 2025-03-27 23:27:48*
%MOMM*%
%LPD*%
G01*
G04 APERTURE LIST*
%TA.AperFunction,HeatsinkPad*%
%ADD10C,0.500000*%
%TD*%
%TA.AperFunction,HeatsinkPad*%
%ADD11R,2.000000X3.500000*%
%TD*%
%TA.AperFunction,HeatsinkPad*%
%ADD12O,1.000000X1.700000*%
%TD*%
%TA.AperFunction,ComponentPad*%
%ADD13R,1.700000X1.700000*%
%TD*%
%TA.AperFunction,ComponentPad*%
%ADD14O,1.700000X1.700000*%
%TD*%
%TA.AperFunction,HeatsinkPad*%
%ADD15R,1.900000X2.900000*%
%TD*%
%TA.AperFunction,ViaPad*%
%ADD16C,0.600000*%
%TD*%
%TA.AperFunction,Conductor*%
%ADD17C,0.200000*%
%TD*%
G04 APERTURE END LIST*
D10*
%TO.P,U2,17,EXP*%
%TO.N,unconnected-(U2-EXP-Pad17)*%
X161887500Y-74225000D03*
X161887500Y-75725000D03*
X161887500Y-77225000D03*
D11*
X162637500Y-75725000D03*
D10*
X163387500Y-74225000D03*
X163387500Y-75725000D03*
X163387500Y-77225000D03*
%TD*%
%TO.P,U1,17,EXP*%
%TO.N,unconnected-(U1-EXP-Pad17)*%
X161887500Y-67585000D03*
X161887500Y-69085000D03*
X161887500Y-70585000D03*
D11*
X162637500Y-69085000D03*
D10*
X163387500Y-67585000D03*
X163387500Y-69085000D03*
X163387500Y-70585000D03*
%TD*%
D12*
%TO.P,J2,S1*%
%TO.N,N/C*%
X89185000Y-97245000D03*
X89185000Y-101045000D03*
X97825000Y-97245000D03*
X97825000Y-101045000D03*
%TD*%
D13*
%TO.P,J1,1,Pin_1*%
%TO.N,MOTOR2_B_OUT*%
X109900000Y-135000000D03*
D14*
%TO.P,J1,2,Pin_2*%
%TO.N,MOTOR2_A_OUT*%
X109900000Y-132460000D03*
%TO.P,J1,3,Pin_3*%
%TO.N,MOTOR4_A_OUT*%
X112440000Y-135000000D03*
%TO.P,J1,4,Pin_4*%
%TO.N,MOTOR2_CTRL1*%
X112440000Y-132460000D03*
%TO.P,J1,5,Pin_5*%
%TO.N,MOTOR4_B_OUT*%
X114980000Y-135000000D03*
%TO.P,J1,6,Pin_6*%
%TO.N,MOTOR2_CTRL2*%
X114980000Y-132460000D03*
%TO.P,J1,7,Pin_7*%
%TO.N,CTRL_EXT_LOAD2*%
X117520000Y-135000000D03*
%TO.P,J1,8,Pin_8*%
%TO.N,MOTOR4_CTRL1*%
X117520000Y-132460000D03*
%TO.P,J1,9,Pin_9*%
%TO.N,USART2_RX*%
X120060000Y-135000000D03*
%TO.P,J1,10,Pin_10*%
%TO.N,MOTOR4_CTRL2*%
X120060000Y-132460000D03*
%TO.P,J1,11,Pin_11*%
%TO.N,EXT_LOAD2_OUT*%
X122600000Y-135000000D03*
%TO.P,J1,12,Pin_12*%
%TO.N,USART2_TX*%
X122600000Y-132460000D03*
%TO.P,J1,13,Pin_13*%
%TO.N,FAST_CHARGE_CTRL*%
X125140000Y-135000000D03*
%TO.P,J1,14,Pin_14*%
%TO.N,Battery*%
X125140000Y-132460000D03*
%TO.P,J1,15,Pin_15*%
%TO.N,RESV*%
X127680000Y-135000000D03*
%TO.P,J1,16,Pin_16*%
%TO.N,I2C1_SCL*%
X127680000Y-132460000D03*
%TO.P,J1,17,Pin_17*%
%TO.N,I2C1_SDA*%
X130220000Y-135000000D03*
%TO.P,J1,18,Pin_18*%
%TO.N,3V3_Out*%
X130220000Y-132460000D03*
%TO.P,J1,19,Pin_19*%
%TO.N,GND*%
X132760000Y-135000000D03*
%TO.P,J1,20,Pin_20*%
%TO.N,5V_Out*%
X132760000Y-132460000D03*
%TO.P,J1,21,Pin_21*%
%TO.N,EXT_LOAD1_OUT*%
X135300000Y-135000000D03*
%TO.P,J1,22,Pin_22*%
%TO.N,HV*%
X135300000Y-132460000D03*
%TO.P,J1,23,Pin_23*%
%TO.N,GND*%
X137840000Y-135000000D03*
%TO.P,J1,24,Pin_24*%
%TO.N,MOTOR3_CTRL1*%
X137840000Y-132460000D03*
%TO.P,J1,25,Pin_25*%
%TO.N,CTRL_EXT_LOAD1*%
X140380000Y-135000000D03*
%TO.P,J1,26,Pin_26*%
%TO.N,MOTOR3_CTRL2*%
X140380000Y-132460000D03*
%TO.P,J1,27,Pin_27*%
%TO.N,MOTOR3_A_OUT*%
X142920000Y-135000000D03*
%TO.P,J1,28,Pin_28*%
%TO.N,MOTOR1_CTRL1*%
X142920000Y-132460000D03*
%TO.P,J1,29,Pin_29*%
%TO.N,MOTOR3_B_OUT*%
X145460000Y-135000000D03*
%TO.P,J1,30,Pin_30*%
%TO.N,MOTOR1_CTRL2*%
X145460000Y-132460000D03*
%TO.P,J1,31,Pin_31*%
%TO.N,MOTOR1_B_OUT*%
X148000000Y-135000000D03*
%TO.P,J1,32,Pin_32*%
%TO.N,MOTOR1_A_OUT*%
X148000000Y-132460000D03*
%TD*%
D10*
%TO.P,U8,9,EPAD*%
%TO.N,unconnected-(U8-EPAD-Pad9)*%
X121410000Y-107720000D03*
X121410000Y-108920000D03*
X121410000Y-110120000D03*
D15*
X122110000Y-108920000D03*
D10*
X122810000Y-107720000D03*
X122810000Y-108920000D03*
X122810000Y-110120000D03*
%TD*%
D16*
%TO.N,Net-(U2-~{NFAULT})*%
X147310200Y-74736600D03*
X147310200Y-77960800D03*
%TO.N,Net-(U1-BISEN)*%
X101587500Y-70060000D03*
X96557200Y-81068000D03*
%TO.N,Net-(Q1-G)*%
X137225100Y-124220000D03*
X134039900Y-105165200D03*
%TO.N,Net-(J2-CC2)*%
X93688100Y-105870000D03*
X94824200Y-95745000D03*
%TO.N,MOTOR1_A_OUT*%
X148000000Y-89793900D03*
X152414900Y-67467600D03*
%TO.N,MOTOR3_A_OUT*%
X156578700Y-74100000D03*
X91147700Y-78312300D03*
X91147700Y-87101800D03*
%TO.N,MOTOR4_CTRL2*%
X120060000Y-79203800D03*
X120060000Y-88187800D03*
%TO.N,MOTOR4_CTRL1*%
X117520000Y-78571700D03*
%TO.N,FAST_CHARGE_CTRL*%
X123868500Y-115845900D03*
%TO.N,MOTOR3_B_OUT*%
X146611700Y-75441400D03*
%TO.N,MOTOR4_B_OUT*%
X109795400Y-92565800D03*
X109797000Y-76050000D03*
%TO.N,MOTOR3_CTRL1*%
X137840000Y-72694800D03*
%TO.N,I2C1_SDA*%
X109481800Y-101388800D03*
X110594200Y-131029900D03*
%TO.N,I2C1_SCL*%
X122361100Y-103610000D03*
%TO.N,MOTOR2_CTRL2*%
X90546000Y-133674800D03*
X90546000Y-84115600D03*
X96843400Y-71586500D03*
%TO.N,MOTOR4_A_OUT*%
X116792400Y-77350000D03*
%TO.N,MOTOR3_CTRL2*%
X166583600Y-131287800D03*
X166797900Y-74100000D03*
%TO.N,MOTOR1_B_OUT*%
X156522500Y-68760000D03*
%TO.N,MOTOR2_B_OUT*%
X92235000Y-87451300D03*
X102407900Y-69410000D03*
%TO.N,MOTOR2_A_OUT*%
X108880100Y-70336400D03*
%TO.N,MOTOR1_CTRL1*%
X142920000Y-68683300D03*
%TO.N,Battery*%
X125140000Y-111627600D03*
X120915700Y-101070000D03*
%TO.N,Net-(U8-PROG)*%
X125965200Y-106360000D03*
X126768700Y-101401300D03*
%TO.N,3V3_Out*%
X113696000Y-119635000D03*
X111200800Y-102077100D03*
X157864500Y-66865900D03*
X157807900Y-73380500D03*
X113518400Y-73380500D03*
%TO.N,HV*%
X128780500Y-108353200D03*
X126013300Y-98599600D03*
%TO.N,5V_Out*%
X114258100Y-117649100D03*
X110405500Y-89405000D03*
X165671600Y-79450300D03*
X167529000Y-70451000D03*
X165144400Y-80665900D03*
%TO.N,/USB C/CC1*%
X122962800Y-104799600D03*
X122962800Y-93083500D03*
%TO.N,MOTOR1_CTRL2*%
X145460000Y-65798000D03*
X145460000Y-75358600D03*
%TO.N,Net-(U1-VCP)*%
X138473700Y-86082600D03*
X138473700Y-72112000D03*
%TO.N,Net-(U2-AISEN)*%
X163729400Y-106787500D03*
X158485200Y-74769900D03*
%TO.N,GND*%
X99510100Y-89715500D03*
X99679000Y-95799900D03*
X99472600Y-116247600D03*
X166820800Y-69043600D03*
X167187700Y-76066000D03*
X169254600Y-105863300D03*
%TD*%
D17*
%TO.N,unconnected-(U2-EXP-Pad17)*%
X162637500Y-75725000D02*
X163387500Y-75725000D01*
X163387500Y-77225000D02*
X163387500Y-75725000D01*
X163387500Y-75725000D02*
X163387500Y-74225000D01*
%TO.N,unconnected-(U1-EXP-Pad17)*%
X162637500Y-69085000D02*
X161887500Y-69085000D01*
X163387500Y-70585000D02*
X163387500Y-69085000D01*
X163387500Y-69085000D02*
X163387500Y-67585000D01*
%TO.N,Net-(U2-~{NFAULT})*%
X147310200Y-77960800D02*
X147310200Y-74736600D01*
%TO.N,Net-(U1-BISEN)*%
X101587500Y-76037700D02*
X96557200Y-81068000D01*
X101587500Y-70060000D02*
X101587500Y-76037700D01*
%TO.N,Net-(Q1-G)*%
X137225100Y-108350400D02*
X137225100Y-124220000D01*
X134039900Y-105165200D02*
X137225100Y-108350400D01*
%TO.N,Net-(J2-CC2)*%
X93688100Y-96881100D02*
X94824200Y-95745000D01*
X93688100Y-105870000D02*
X93688100Y-96881100D01*
%TO.N,MOTOR1_A_OUT*%
X148000000Y-71882500D02*
X148000000Y-89793900D01*
X152414900Y-67467600D02*
X148000000Y-71882500D01*
X148000000Y-132460000D02*
X148000000Y-89793900D01*
%TO.N,MOTOR3_A_OUT*%
X142920000Y-135000000D02*
X144071700Y-135000000D01*
X156578700Y-128073700D02*
X156578700Y-74100000D01*
X148451900Y-136200500D02*
X156578700Y-128073700D01*
X144984300Y-136200500D02*
X148451900Y-136200500D01*
X144071700Y-135287900D02*
X144984300Y-136200500D01*
X144071700Y-135000000D02*
X144071700Y-135287900D01*
X91147700Y-87101800D02*
X91147700Y-78312300D01*
%TO.N,MOTOR4_CTRL2*%
X120060000Y-132460000D02*
X120060000Y-131308300D01*
X120060000Y-131308300D02*
X120060000Y-88187800D01*
X120060000Y-88187800D02*
X120060000Y-79203800D01*
%TO.N,MOTOR4_CTRL1*%
X117520000Y-132460000D02*
X117520000Y-131308300D01*
X117520000Y-131308300D02*
X117520000Y-78571700D01*
%TO.N,FAST_CHARGE_CTRL*%
X125140000Y-135000000D02*
X125140000Y-133848300D01*
X123868500Y-132864700D02*
X123868500Y-115845900D01*
X124852100Y-133848300D02*
X123868500Y-132864700D01*
X125140000Y-133848300D02*
X124852100Y-133848300D01*
%TO.N,MOTOR3_B_OUT*%
X145460000Y-135000000D02*
X145460000Y-133848300D01*
X146611700Y-132984600D02*
X146611700Y-75441400D01*
X145748000Y-133848300D02*
X146611700Y-132984600D01*
X145460000Y-133848300D02*
X145748000Y-133848300D01*
%TO.N,MOTOR4_B_OUT*%
X114980000Y-135000000D02*
X113828300Y-135000000D01*
X109393700Y-76453300D02*
X109797000Y-76050000D01*
X109393700Y-92164100D02*
X109393700Y-76453300D01*
X109795400Y-92565800D02*
X109393700Y-92164100D01*
X110083500Y-92853900D02*
X109795400Y-92565800D01*
X110083500Y-124202900D02*
X110083500Y-92853900D01*
X111288300Y-125407700D02*
X110083500Y-124202900D01*
X111288300Y-135557800D02*
X111288300Y-125407700D01*
X111902900Y-136172400D02*
X111288300Y-135557800D01*
X112943800Y-136172400D02*
X111902900Y-136172400D01*
X113828300Y-135287900D02*
X112943800Y-136172400D01*
X113828300Y-135000000D02*
X113828300Y-135287900D01*
%TO.N,MOTOR3_CTRL1*%
X137840000Y-132460000D02*
X137840000Y-72694800D01*
%TO.N,I2C1_SDA*%
X109481800Y-129917500D02*
X110594200Y-131029900D01*
X109481800Y-101388800D02*
X109481800Y-129917500D01*
%TO.N,I2C1_SCL*%
X127680000Y-132460000D02*
X127680000Y-131308300D01*
X122361100Y-105048700D02*
X122361100Y-103610000D01*
X127680000Y-110367600D02*
X122361100Y-105048700D01*
X127680000Y-131308300D02*
X127680000Y-110367600D01*
%TO.N,MOTOR2_CTRL2*%
X90546000Y-133674800D02*
X90546000Y-84115600D01*
X90546000Y-77883900D02*
X96843400Y-71586500D01*
X90546000Y-84115600D02*
X90546000Y-77883900D01*
%TO.N,MOTOR4_A_OUT*%
X112440000Y-135000000D02*
X112440000Y-133848300D01*
X116792400Y-128886000D02*
X116792400Y-77350000D01*
X113591700Y-132086700D02*
X116792400Y-128886000D01*
X113591700Y-132984600D02*
X113591700Y-132086700D01*
X112728000Y-133848300D02*
X113591700Y-132984600D01*
X112440000Y-133848300D02*
X112728000Y-133848300D01*
%TO.N,MOTOR3_CTRL2*%
X166583600Y-74314300D02*
X166583600Y-131287800D01*
X166797900Y-74100000D02*
X166583600Y-74314300D01*
%TO.N,MOTOR1_B_OUT*%
X148000000Y-135000000D02*
X148000000Y-133848300D01*
X149553400Y-75729100D02*
X156522500Y-68760000D01*
X149553400Y-132582900D02*
X149553400Y-75729100D01*
X148288000Y-133848300D02*
X149553400Y-132582900D01*
X148000000Y-133848300D02*
X148288000Y-133848300D01*
%TO.N,MOTOR2_B_OUT*%
X109900000Y-135000000D02*
X109900000Y-133848300D01*
X92235000Y-116471200D02*
X92235000Y-87451300D01*
X109612100Y-133848300D02*
X92235000Y-116471200D01*
X109900000Y-133848300D02*
X109612100Y-133848300D01*
X102407900Y-77278400D02*
X102407900Y-69410000D01*
X92235000Y-87451300D02*
X102407900Y-77278400D01*
%TO.N,MOTOR2_A_OUT*%
X109900000Y-132460000D02*
X109900000Y-131308300D01*
X108880100Y-130288400D02*
X108880100Y-70336400D01*
X109900000Y-131308300D02*
X108880100Y-130288400D01*
%TO.N,MOTOR1_CTRL1*%
X142920000Y-132460000D02*
X142920000Y-68683300D01*
%TO.N,Battery*%
X125140000Y-132460000D02*
X125140000Y-111627600D01*
X120915700Y-104842600D02*
X120915700Y-101070000D01*
X125140000Y-109066900D02*
X120915700Y-104842600D01*
X125140000Y-111627600D02*
X125140000Y-109066900D01*
%TO.N,unconnected-(U8-EPAD-Pad9)*%
X122810000Y-110120000D02*
X122810000Y-108920000D01*
X122810000Y-107720000D02*
X122810000Y-108920000D01*
X122110000Y-108920000D02*
X122810000Y-108920000D01*
X121410000Y-110120000D02*
X121410000Y-108920000D01*
X121410000Y-108920000D02*
X121410000Y-107720000D01*
%TO.N,Net-(U8-PROG)*%
X125965200Y-102204800D02*
X125965200Y-106360000D01*
X126768700Y-101401300D02*
X125965200Y-102204800D01*
%TO.N,3V3_Out*%
X111200800Y-117139800D02*
X111200800Y-102077100D01*
X113696000Y-119635000D02*
X111200800Y-117139800D01*
X157864500Y-73323900D02*
X157807900Y-73380500D01*
X157864500Y-66865900D02*
X157864500Y-73323900D01*
X109795400Y-77103500D02*
X113518400Y-73380500D01*
X109795400Y-89705000D02*
X109795400Y-77103500D01*
X111200800Y-91110400D02*
X109795400Y-89705000D01*
X111200800Y-102077100D02*
X111200800Y-91110400D01*
%TO.N,HV*%
X135300000Y-132460000D02*
X135300000Y-131308300D01*
X128780500Y-124788800D02*
X128780500Y-108353200D01*
X135300000Y-131308300D02*
X128780500Y-124788800D01*
X128780500Y-101366800D02*
X126013300Y-98599600D01*
X128780500Y-108353200D02*
X128780500Y-101366800D01*
%TO.N,5V_Out*%
X114258100Y-93257600D02*
X114258100Y-117649100D01*
X110405500Y-89405000D02*
X114258100Y-93257600D01*
X165144400Y-79977500D02*
X165144400Y-80665900D01*
X165671600Y-79450300D02*
X165144400Y-79977500D01*
X165671600Y-72308400D02*
X167529000Y-70451000D01*
X165671600Y-79450300D02*
X165671600Y-72308400D01*
%TO.N,/USB C/CC1*%
X122962800Y-104799600D02*
X122962800Y-93083500D01*
%TO.N,MOTOR1_CTRL2*%
X145460000Y-132460000D02*
X145460000Y-75358600D01*
X145460000Y-75358600D02*
X145460000Y-65798000D01*
%TO.N,Net-(U1-VCP)*%
X138473700Y-86082600D02*
X138473700Y-72112000D01*
%TO.N,Net-(U2-AISEN)*%
X163729400Y-80014100D02*
X163729400Y-106787500D01*
X158485200Y-74769900D02*
X163729400Y-80014100D01*
%TO.N,GND*%
X99679000Y-89884400D02*
X99679000Y-95799900D01*
X99510100Y-89715500D02*
X99679000Y-89884400D01*
X99679000Y-116041200D02*
X99472600Y-116247600D01*
X99679000Y-95799900D02*
X99679000Y-116041200D01*
X169254600Y-78132900D02*
X169254600Y-105863300D01*
X167187700Y-76066000D02*
X169254600Y-78132900D01*
X167042000Y-69043600D02*
X166820800Y-69043600D01*
X168138200Y-70139800D02*
X167042000Y-69043600D01*
X168138200Y-75115500D02*
X168138200Y-70139800D01*
X167187700Y-76066000D02*
X168138200Y-75115500D01*
%TD*%
M02*
