%TF.GenerationSoftware,KiCad,Pcbnew,9.0.0*%
%TF.CreationDate,2025-03-27T23:27:48+02:00*%
%TF.ProjectId,EEE3088F Design project,45454533-3038-4384-9620-44657369676e,rev?*%
%TF.SameCoordinates,Original*%
%TF.FileFunction,Soldermask,Top*%
%TF.FilePolarity,Negative*%
%FSLAX46Y46*%
G04 Gerber Fmt 4.6, Leading zero omitted, Abs format (unit mm)*
G04 Created by KiCad (PCBNEW 9.0.0) date 2025-03-27 23:27:48*
%MOMM*%
%LPD*%
G01*
G04 APERTURE LIST*
G04 Aperture macros list*
%AMRoundRect*
0 Rectangle with rounded corners*
0 $1 Rounding radius*
0 $2 $3 $4 $5 $6 $7 $8 $9 X,Y pos of 4 corners*
0 Add a 4 corners polygon primitive as box body*
4,1,4,$2,$3,$4,$5,$6,$7,$8,$9,$2,$3,0*
0 Add four circle primitives for the rounded corners*
1,1,$1+$1,$2,$3*
1,1,$1+$1,$4,$5*
1,1,$1+$1,$6,$7*
1,1,$1+$1,$8,$9*
0 Add four rect primitives between the rounded corners*
20,1,$1+$1,$2,$3,$4,$5,0*
20,1,$1+$1,$4,$5,$6,$7,0*
20,1,$1+$1,$6,$7,$8,$9,0*
20,1,$1+$1,$8,$9,$2,$3,0*%
G04 Aperture macros list end*
%ADD10R,2.460000X2.310000*%
%ADD11RoundRect,0.100000X-0.687500X-0.100000X0.687500X-0.100000X0.687500X0.100000X-0.687500X0.100000X0*%
%ADD12RoundRect,0.150000X-0.825000X-0.150000X0.825000X-0.150000X0.825000X0.150000X-0.825000X0.150000X0*%
%ADD13R,1.000000X1.000000*%
%ADD14RoundRect,0.250000X-0.350000X-0.450000X0.350000X-0.450000X0.350000X0.450000X-0.350000X0.450000X0*%
%ADD15RoundRect,0.250000X-0.400000X-0.625000X0.400000X-0.625000X0.400000X0.625000X-0.400000X0.625000X0*%
%ADD16R,0.650000X0.350000*%
%ADD17R,1.000000X1.600000*%
%ADD18RoundRect,0.175000X-0.175000X-0.625000X0.175000X-0.625000X0.175000X0.625000X-0.175000X0.625000X0*%
%ADD19RoundRect,0.200000X-0.200000X-0.600000X0.200000X-0.600000X0.200000X0.600000X-0.200000X0.600000X0*%
%ADD20RoundRect,0.225000X-0.225000X-0.575000X0.225000X-0.575000X0.225000X0.575000X-0.225000X0.575000X0*%
%ADD21O,1.000000X1.700000*%
%ADD22R,1.700000X1.700000*%
%ADD23O,1.700000X1.700000*%
%ADD24RoundRect,0.155000X-0.212500X-0.155000X0.212500X-0.155000X0.212500X0.155000X-0.212500X0.155000X0*%
%ADD25RoundRect,0.250000X-0.412500X-0.650000X0.412500X-0.650000X0.412500X0.650000X-0.412500X0.650000X0*%
%ADD26RoundRect,0.237500X-0.300000X-0.237500X0.300000X-0.237500X0.300000X0.237500X-0.300000X0.237500X0*%
%ADD27RoundRect,0.250000X-0.337500X-0.475000X0.337500X-0.475000X0.337500X0.475000X-0.337500X0.475000X0*%
%ADD28RoundRect,0.250000X-0.412500X-1.100000X0.412500X-1.100000X0.412500X1.100000X-0.412500X1.100000X0*%
%ADD29RoundRect,0.225000X-0.225000X-0.375000X0.225000X-0.375000X0.225000X0.375000X-0.225000X0.375000X0*%
%ADD30RoundRect,0.150000X-0.587500X-0.150000X0.587500X-0.150000X0.587500X0.150000X-0.587500X0.150000X0*%
%ADD31RoundRect,0.237500X-0.287500X-0.237500X0.287500X-0.237500X0.287500X0.237500X-0.287500X0.237500X0*%
%ADD32R,2.410000X3.300000*%
%ADD33RoundRect,0.250000X-0.275000X-0.350000X0.275000X-0.350000X0.275000X0.350000X-0.275000X0.350000X0*%
G04 APERTURE END LIST*
D10*
%TO.C,U2*%
X162637500Y-75725000D03*
D11*
X159775000Y-73450000D03*
X159775000Y-74100000D03*
X159775000Y-74750000D03*
X159775000Y-75400000D03*
X159775000Y-76050000D03*
X159775000Y-76700000D03*
X159775000Y-77350000D03*
X159775000Y-78000000D03*
X165500000Y-78000000D03*
X165500000Y-77350000D03*
X165500000Y-76700000D03*
X165500000Y-76050000D03*
X165500000Y-75400000D03*
X165500000Y-74750000D03*
X165500000Y-74100000D03*
X165500000Y-73450000D03*
%TD*%
D10*
%TO.C,U1*%
X162637500Y-69085000D03*
D11*
X159775000Y-66810000D03*
X159775000Y-67460000D03*
X159775000Y-68110000D03*
X159775000Y-68760000D03*
X159775000Y-69410000D03*
X159775000Y-70060000D03*
X159775000Y-70710000D03*
X159775000Y-71360000D03*
X165500000Y-71360000D03*
X165500000Y-70710000D03*
X165500000Y-70060000D03*
X165500000Y-69410000D03*
X165500000Y-68760000D03*
X165500000Y-68110000D03*
X165500000Y-67460000D03*
X165500000Y-66810000D03*
%TD*%
D12*
%TO.C,U5*%
X109050000Y-96690000D03*
X109050000Y-97960000D03*
X109050000Y-99230000D03*
X109050000Y-100500000D03*
X114000000Y-100500000D03*
X114000000Y-99230000D03*
X114000000Y-97960000D03*
X114000000Y-96690000D03*
%TD*%
D13*
%TO.C,TP10*%
X92235000Y-89495000D03*
%TD*%
%TO.C,TP9*%
X92235000Y-86445000D03*
%TD*%
%TO.C,TP8*%
X92235000Y-83395000D03*
%TD*%
%TO.C,TP7*%
X92235000Y-80345000D03*
%TD*%
%TO.C,TP6*%
X92235000Y-77295000D03*
%TD*%
%TO.C,TP5*%
X89185000Y-89495000D03*
%TD*%
%TO.C,TP4*%
X89185000Y-86445000D03*
%TD*%
%TO.C,TP3*%
X89185000Y-83395000D03*
%TD*%
%TO.C,TP2*%
X89185000Y-80345000D03*
%TD*%
%TO.C,TP1*%
X89185000Y-77295000D03*
%TD*%
D14*
%TO.C,R19*%
X146090000Y-124220000D03*
X148090000Y-124220000D03*
%TD*%
%TO.C,R18*%
X102725000Y-108585000D03*
X104725000Y-108585000D03*
%TD*%
D15*
%TO.C,R17*%
X89085000Y-109605000D03*
X92185000Y-109605000D03*
%TD*%
%TO.C,R8*%
X89085000Y-106315000D03*
X92185000Y-106315000D03*
%TD*%
%TO.C,R7*%
X102775000Y-103465000D03*
X105875000Y-103465000D03*
%TD*%
%TO.C,R6*%
X102775000Y-100175000D03*
X105875000Y-100175000D03*
%TD*%
%TO.C,R5*%
X102775000Y-96885000D03*
X105875000Y-96885000D03*
%TD*%
%TO.C,R4*%
X95185000Y-83995000D03*
X98285000Y-83995000D03*
%TD*%
%TO.C,R2*%
X95185000Y-80705000D03*
X98285000Y-80705000D03*
%TD*%
%TO.C,R1*%
X95185000Y-77415000D03*
X98285000Y-77415000D03*
%TD*%
D16*
%TO.C,J3*%
X94960000Y-105870000D03*
X94960000Y-106520000D03*
X94960000Y-107170000D03*
X97060000Y-107170000D03*
X97060000Y-106520000D03*
X97060000Y-105870000D03*
D17*
X96010000Y-106520000D03*
%TD*%
D18*
%TO.C,J2*%
X93005000Y-97065000D03*
D19*
X95025000Y-97065000D03*
D20*
X96255000Y-97065000D03*
D18*
X94005000Y-97065000D03*
D19*
X91985000Y-97065000D03*
D20*
X90755000Y-97065000D03*
D21*
X89185000Y-97245000D03*
X89185000Y-101045000D03*
X97825000Y-97245000D03*
X97825000Y-101045000D03*
%TD*%
D22*
%TO.C,J1*%
X109900000Y-135000000D03*
D23*
X109900000Y-132460000D03*
X112440000Y-135000000D03*
X112440000Y-132460000D03*
X114980000Y-135000000D03*
X114980000Y-132460000D03*
X117520000Y-135000000D03*
X117520000Y-132460000D03*
X120060000Y-135000000D03*
X120060000Y-132460000D03*
X122600000Y-135000000D03*
X122600000Y-132460000D03*
X125140000Y-135000000D03*
X125140000Y-132460000D03*
X127680000Y-135000000D03*
X127680000Y-132460000D03*
X130220000Y-135000000D03*
X130220000Y-132460000D03*
X132760000Y-135000000D03*
X132760000Y-132460000D03*
X135300000Y-135000000D03*
X135300000Y-132460000D03*
X137840000Y-135000000D03*
X137840000Y-132460000D03*
X140380000Y-135000000D03*
X140380000Y-132460000D03*
X142920000Y-135000000D03*
X142920000Y-132460000D03*
X145460000Y-135000000D03*
X145460000Y-132460000D03*
X148000000Y-135000000D03*
X148000000Y-132460000D03*
%TD*%
D24*
%TO.C,C7*%
X108337500Y-102805000D03*
X109472500Y-102805000D03*
%TD*%
D25*
%TO.C,C6*%
X95202500Y-87315000D03*
X98327500Y-87315000D03*
%TD*%
D26*
%TO.C,C5*%
X101082500Y-89405000D03*
X102807500Y-89405000D03*
%TD*%
D27*
%TO.C,C4*%
X101077500Y-80285000D03*
X103152500Y-80285000D03*
%TD*%
D26*
%TO.C,C3*%
X101082500Y-86895000D03*
X102807500Y-86895000D03*
%TD*%
D27*
%TO.C,C2*%
X101077500Y-77275000D03*
X103152500Y-77275000D03*
%TD*%
D28*
%TO.C,C1*%
X95202500Y-91115000D03*
X98327500Y-91115000D03*
%TD*%
D12*
%TO.C,U7*%
X119635000Y-100435000D03*
X119635000Y-101705000D03*
X119635000Y-102975000D03*
X119635000Y-104245000D03*
X124585000Y-104245000D03*
X124585000Y-102975000D03*
X124585000Y-101705000D03*
X124585000Y-100435000D03*
%TD*%
D29*
%TO.C,D1*%
X122055000Y-123900000D03*
X125355000Y-123900000D03*
%TD*%
D15*
%TO.C,R9*%
X146900000Y-91500000D03*
X150000000Y-91500000D03*
%TD*%
D30*
%TO.C,Q1*%
X132592500Y-103185000D03*
X132592500Y-105085000D03*
X134467500Y-104135000D03*
%TD*%
D31*
%TO.C,L1*%
X122085000Y-126830000D03*
X123835000Y-126830000D03*
%TD*%
D15*
%TO.C,R10*%
X167450000Y-102630000D03*
X170550000Y-102630000D03*
%TD*%
%TO.C,R11*%
X167450000Y-105920000D03*
X170550000Y-105920000D03*
%TD*%
D31*
%TO.C,L2*%
X119185000Y-113400000D03*
X120935000Y-113400000D03*
%TD*%
D25*
%TO.C,C9*%
X127777500Y-109510000D03*
X130902500Y-109510000D03*
%TD*%
D12*
%TO.C,U8*%
X119635000Y-107015000D03*
X119635000Y-108285000D03*
X119635000Y-109555000D03*
X119635000Y-110825000D03*
X124585000Y-110825000D03*
X124585000Y-109555000D03*
X124585000Y-108285000D03*
X124585000Y-107015000D03*
D32*
X122110000Y-108920000D03*
%TD*%
D15*
%TO.C,R3*%
X155400000Y-108000000D03*
X158500000Y-108000000D03*
%TD*%
%TO.C,R13*%
X167450000Y-112500000D03*
X170550000Y-112500000D03*
%TD*%
D14*
%TO.C,R14*%
X127710000Y-100460000D03*
X129710000Y-100460000D03*
%TD*%
D15*
%TO.C,R12*%
X167450000Y-109210000D03*
X170550000Y-109210000D03*
%TD*%
D33*
%TO.C,L3*%
X132380000Y-100360000D03*
X134680000Y-100360000D03*
%TD*%
D14*
%TO.C,R16*%
X127710000Y-106360000D03*
X129710000Y-106360000D03*
%TD*%
D29*
%TO.C,D2*%
X127605000Y-112860000D03*
X130905000Y-112860000D03*
%TD*%
D25*
%TO.C,C8*%
X116217500Y-123900000D03*
X119342500Y-123900000D03*
%TD*%
D12*
%TO.C,U4*%
X116525000Y-117095000D03*
X116525000Y-118365000D03*
X116525000Y-119635000D03*
X116525000Y-120905000D03*
X121475000Y-120905000D03*
X121475000Y-119635000D03*
X121475000Y-118365000D03*
X121475000Y-117095000D03*
%TD*%
D14*
%TO.C,R15*%
X127710000Y-103410000D03*
X129710000Y-103410000D03*
%TD*%
M02*
