M48
; DRILL file {KiCad 9.0.0} date 2025-04-16T10:09:12+0200
; FORMAT={-:-/ absolute / inch / decimal}
; #@! TF.CreationDate,2025-04-16T10:09:12+02:00
; #@! TF.GenerationSoftware,Kicad,Pcbnew,9.0.0
; #@! TF.FileFunction,Plated,1,2,PTH
FMAT,2
INCH
; #@! TA.AperFunction,Plated,PTH,ViaDrill
T1C0.0118
; #@! TA.AperFunction,Plated,PTH,ComponentDrill
T2C0.0197
; #@! TA.AperFunction,Plated,PTH,ComponentDrill
T3C0.0295
; #@! TA.AperFunction,Plated,PTH,ComponentDrill
T4C0.0394
; #@! TA.AperFunction,Plated,PTH,ComponentDrill
T5C0.0512
; #@! TA.AperFunction,Plated,PTH,ViaDrill
T6C0.1260
%
G90
G05
T1
X4.463Y-3.7451
X4.5079Y-3.0709
X4.5418Y-4.0463
X4.5499Y-2.891
X4.5508Y-3.3278
X4.5669Y-3.9961
X4.5764Y-3.3022
X4.5804Y-3.3533
X4.5866Y-3.0118
X4.626Y-2.5
X4.626Y-2.9173
X4.6494Y-3.4301
X4.6495Y-3.381
X4.6654Y-2.8701
X4.6654Y-4.0945
X4.805Y-4.4205
X4.8684Y-4.0713
X4.902Y-3.5715
X4.9259Y-3.4834
X4.9259Y-4.1044
X4.9489Y-4.1885
X4.9607Y-3.482
X4.9682Y-3.2484
X4.9765Y-3.3314
X4.9772Y-4.2122
X4.98Y-2.9339
X5.0048Y-3.1498
X5.0127Y-3.3005
X5.0197Y-4.7047
X5.0292Y-3.5703
X5.0507Y-3.3942
X5.0946Y-3.2334
X5.111Y-3.1696
X5.1276Y-3.4692
X5.1378Y-2.5197
X5.1454Y-3.2081
X5.2266Y-4.1572
X5.3188Y-3.5692
X5.3511Y-3.2018
X5.3511Y-3.5548
X5.3694Y-4.0239
X5.3812Y-3.1699
X5.4059Y-3.2618
X5.4134Y-2.5787
X5.4134Y-2.7559
X5.4518Y-3.3136
X5.4921Y-3.3858
X5.4989Y-4.5159
X5.5902Y-2.7775
X5.6299Y-4.0551
X5.6843Y-3.3975
X5.7247Y-3.385
X5.7539Y-3.4169
X5.878Y-4.1331
X5.8858Y-3.6276
X5.9897Y-3.373
X6.0003Y-3.8744
X6.0687Y-4.1685
X6.0952Y-3.4368
X6.0989Y-3.9396
X6.1022Y-4.034
X6.1951Y-4.1055
X6.2595Y-3.2262
X6.2832Y-2.7191
X6.2832Y-2.999
X6.2838Y-3.1154
X6.2947Y-3.5168
X6.2951Y-4.1696
X6.3248Y-3.5917
X6.3267Y-3.4615
X6.3951Y-4.2258
X6.41Y-2.864
X6.4981Y-2.9082
X6.5245Y-3.35
X6.5789Y-3.4124
X6.5968Y-4.332
X6.6336Y-3.1102
X6.6336Y-3.2835
X6.6572Y-2.8112
X6.6572Y-3.2212
X6.6795Y-3.3835
X6.7107Y-3.423
X6.7653Y-3.0224
X6.7724Y-3.2533
X6.8101Y-2.9048
X6.8879Y-3.3756
X6.888Y-2.7191
X6.9861Y-3.423
X7.0751Y-4.1772
X7.1421Y-3.8028
X7.1515Y-4.1282
X7.1524Y-3.5131
X7.1748Y-3.1901
X7.185Y-3.7795
X7.2022Y-3.423
X7.2025Y-3.2834
X7.2035Y-3.0524
X7.2265Y-3.1102
X7.2372Y-2.9605
X7.2418Y-3.0342
X7.3203Y-2.9867
X7.3203Y-3.5917
X7.4562Y-4.0701
T3
X5.5315Y-3.9764
X5.5315Y-4.0551
T4
X5.1451Y-4.4659
X5.1451Y-4.5659
X5.2451Y-4.4659
X5.2451Y-4.5659
X5.3451Y-4.4659
X5.3451Y-4.5659
X5.4451Y-4.4659
X5.4451Y-4.5659
X5.5451Y-4.4659
X5.5451Y-4.5659
X5.6451Y-4.4659
X5.6451Y-4.5659
X5.7451Y-4.4659
X5.7451Y-4.5659
X5.8451Y-4.4659
X5.8451Y-4.5659
X5.9451Y-4.4659
X5.9451Y-4.5659
X6.0451Y-4.4659
X6.0451Y-4.5659
X6.1451Y-4.4659
X6.1451Y-4.5659
X6.2451Y-4.4659
X6.2451Y-4.5659
X6.3451Y-4.4659
X6.3451Y-4.5659
X6.4451Y-4.4659
X6.4451Y-4.5659
X6.5451Y-4.4659
X6.5451Y-4.5659
X6.6451Y-4.4659
X6.6451Y-4.5659
T5
X6.3543Y-2.5962
X6.5433Y-2.5962
X6.7323Y-2.5962
T6
X5.9055Y-2.6972
X5.9055Y-3.0909
X5.9055Y-3.4846
T2
G00X6.7748Y-3.6952
M15
G01X6.7748Y-3.7227
M16
G05
G00X6.7748Y-3.8448
M15
G01X6.7748Y-3.8723
M16
G05
G00X7.115Y-3.6952
M15
G01X7.115Y-3.7227
M16
G05
G00X7.115Y-3.8448
M15
G01X7.115Y-3.8723
M16
G05
M30
