%TF.GenerationSoftware,KiCad,Pcbnew,9.0.0*%
%TF.CreationDate,2025-04-16T10:09:12+02:00*%
%TF.ProjectId,EEE3088F Design project,45454533-3038-4384-9620-44657369676e,rev?*%
%TF.SameCoordinates,Original*%
%TF.FileFunction,Copper,L2,Bot*%
%TF.FilePolarity,Positive*%
%FSLAX46Y46*%
G04 Gerber Fmt 4.6, Leading zero omitted, Abs format (unit mm)*
G04 Created by KiCad (PCBNEW 9.0.0) date 2025-04-16 10:09:12*
%MOMM*%
%LPD*%
G01*
G04 APERTURE LIST*
G04 Aperture macros list*
%AMRoundRect*
0 Rectangle with rounded corners*
0 $1 Rounding radius*
0 $2 $3 $4 $5 $6 $7 $8 $9 X,Y pos of 4 corners*
0 Add a 4 corners polygon primitive as box body*
4,1,4,$2,$3,$4,$5,$6,$7,$8,$9,$2,$3,0*
0 Add four circle primitives for the rounded corners*
1,1,$1+$1,$2,$3*
1,1,$1+$1,$4,$5*
1,1,$1+$1,$6,$7*
1,1,$1+$1,$8,$9*
0 Add four rect primitives between the rounded corners*
20,1,$1+$1,$2,$3,$4,$5,0*
20,1,$1+$1,$4,$5,$6,$7,0*
20,1,$1+$1,$6,$7,$8,$9,0*
20,1,$1+$1,$8,$9,$2,$3,0*%
G04 Aperture macros list end*
%TA.AperFunction,ComponentPad*%
%ADD10C,3.000000*%
%TD*%
%TA.AperFunction,ComponentPad*%
%ADD11RoundRect,0.250000X-0.625000X0.350000X-0.625000X-0.350000X0.625000X-0.350000X0.625000X0.350000X0*%
%TD*%
%TA.AperFunction,ComponentPad*%
%ADD12O,1.750000X1.200000*%
%TD*%
%TA.AperFunction,HeatsinkPad*%
%ADD13O,1.000000X1.700000*%
%TD*%
%TA.AperFunction,ComponentPad*%
%ADD14R,1.700000X1.700000*%
%TD*%
%TA.AperFunction,ComponentPad*%
%ADD15O,1.700000X1.700000*%
%TD*%
%TA.AperFunction,ViaPad*%
%ADD16C,0.600000*%
%TD*%
%TA.AperFunction,ViaPad*%
%ADD17C,4.200000*%
%TD*%
%TA.AperFunction,Conductor*%
%ADD18C,0.200000*%
%TD*%
%TA.AperFunction,Conductor*%
%ADD19C,0.350000*%
%TD*%
%TA.AperFunction,Conductor*%
%ADD20C,0.500000*%
%TD*%
G04 APERTURE END LIST*
D10*
%TO.P,SW1,1,A*%
%TO.N,Net-(SW1-A)*%
X161400000Y-65944700D03*
%TO.P,SW1,2,B*%
%TO.N,VCC*%
X166200000Y-65944700D03*
%TO.P,SW1,3,C*%
%TO.N,unconnected-(SW1-C-Pad3)*%
X171000000Y-65944700D03*
%TD*%
D11*
%TO.P,J4,1,Pin_1*%
%TO.N,GND*%
X140500000Y-101000000D03*
D12*
%TO.P,J4,2,Pin_2*%
%TO.N,Battery*%
X140500000Y-103000000D03*
%TD*%
D13*
%TO.P,J2,S1,EH*%
%TO.N,GND*%
X172080000Y-94207300D03*
X172080000Y-98007300D03*
X180720000Y-94207300D03*
X180720000Y-98007300D03*
%TD*%
D14*
%TO.P,J1,1,Pin_1*%
%TO.N,MOTOR2_B_OUT*%
X168785000Y-115975000D03*
D15*
%TO.P,J1,2,Pin_2*%
%TO.N,MOTOR2_A_OUT*%
X168785000Y-113435000D03*
%TO.P,J1,3,Pin_3*%
%TO.N,MOTOR4_A_OUT*%
X166245000Y-115975000D03*
%TO.P,J1,4,Pin_4*%
%TO.N,MOTOR2_CTRL1*%
X166245000Y-113435000D03*
%TO.P,J1,5,Pin_5*%
%TO.N,MOTOR4_B_OUT*%
X163705000Y-115975000D03*
%TO.P,J1,6,Pin_6*%
%TO.N,MOTOR2_CTRL2*%
X163705000Y-113435000D03*
%TO.P,J1,7,Pin_7*%
%TO.N,CTRL_EXT_LOAD2*%
X161165000Y-115975000D03*
%TO.P,J1,8,Pin_8*%
%TO.N,MOTOR4_CTRL1*%
X161165000Y-113435000D03*
%TO.P,J1,9,Pin_9*%
%TO.N,USART2_RX*%
X158625000Y-115975000D03*
%TO.P,J1,10,Pin_10*%
%TO.N,MOTOR4_CTRL2*%
X158625000Y-113435000D03*
%TO.P,J1,11,Pin_11*%
%TO.N,EXT_LOAD2_OUT*%
X156085000Y-115975000D03*
%TO.P,J1,12,Pin_12*%
%TO.N,USART2_TX*%
X156085000Y-113435000D03*
%TO.P,J1,13,Pin_13*%
%TO.N,FAST_CHARGE_CTRL*%
X153545000Y-115975000D03*
%TO.P,J1,14,Pin_14*%
%TO.N,Battery*%
X153545000Y-113435000D03*
%TO.P,J1,15,Pin_15*%
%TO.N,RESV*%
X151005000Y-115975000D03*
%TO.P,J1,16,Pin_16*%
%TO.N,I2C1_SCL*%
X151005000Y-113435000D03*
%TO.P,J1,17,Pin_17*%
%TO.N,I2C1_SDA*%
X148465000Y-115975000D03*
%TO.P,J1,18,Pin_18*%
%TO.N,3V3_Out*%
X148465000Y-113435000D03*
%TO.P,J1,19,Pin_19*%
%TO.N,GND*%
X145925000Y-115975000D03*
%TO.P,J1,20,Pin_20*%
%TO.N,5V_Out*%
X145925000Y-113435000D03*
%TO.P,J1,21,Pin_21*%
%TO.N,EXT_LOAD1_OUT*%
X143385000Y-115975000D03*
%TO.P,J1,22,Pin_22*%
%TO.N,HV*%
X143385000Y-113435000D03*
%TO.P,J1,23,Pin_23*%
%TO.N,GND*%
X140845000Y-115975000D03*
%TO.P,J1,24,Pin_24*%
%TO.N,MOTOR3_CTRL1*%
X140845000Y-113435000D03*
%TO.P,J1,25,Pin_25*%
%TO.N,CTRL_EXT_LOAD1*%
X138305000Y-115975000D03*
%TO.P,J1,26,Pin_26*%
%TO.N,MOTOR3_CTRL2*%
X138305000Y-113435000D03*
%TO.P,J1,27,Pin_27*%
%TO.N,MOTOR3_A_OUT*%
X135765000Y-115975000D03*
%TO.P,J1,28,Pin_28*%
%TO.N,MOTOR1_CTRL1*%
X135765000Y-113435000D03*
%TO.P,J1,29,Pin_29*%
%TO.N,MOTOR3_B_OUT*%
X133225000Y-115975000D03*
%TO.P,J1,30,Pin_30*%
%TO.N,MOTOR1_CTRL2*%
X133225000Y-113435000D03*
%TO.P,J1,31,Pin_31*%
%TO.N,MOTOR1_B_OUT*%
X130685000Y-115975000D03*
%TO.P,J1,32,Pin_32*%
%TO.N,MOTOR1_A_OUT*%
X130685000Y-113435000D03*
%TD*%
D16*
%TO.N,GND*%
X115568687Y-73431302D03*
X143000000Y-103000000D03*
X137500000Y-70000000D03*
X137500000Y-65500000D03*
X116500000Y-76500000D03*
X138475000Y-84166484D03*
D17*
X150000000Y-88510000D03*
X150000000Y-68510000D03*
D16*
X182239400Y-81029300D03*
D17*
X150000000Y-78510000D03*
D16*
%TO.N,Net-(U2-AISEN)*%
X135097000Y-90657700D03*
X130692000Y-81486700D03*
%TO.N,Net-(U1-VINT)*%
X126404000Y-84616300D03*
X127742000Y-90686100D03*
%TO.N,5V_Out*%
X172977800Y-73781600D03*
X167104000Y-86675000D03*
X169093000Y-71404200D03*
X177446300Y-86944700D03*
X169093000Y-81817300D03*
X144382000Y-86297600D03*
%TO.N,HV*%
X182500000Y-96000000D03*
X189387000Y-103381000D03*
X149500000Y-92141100D03*
X141990000Y-70549700D03*
%TO.N,Net-(D1-K)*%
X165051000Y-73868700D03*
X165723000Y-85090500D03*
%TO.N,3V3_Out*%
X135918000Y-81325100D03*
X149301000Y-104981000D03*
X152408000Y-98408900D03*
X174952000Y-85741300D03*
X135918000Y-90291400D03*
X171838000Y-76769200D03*
%TO.N,CTRL_EXT_LOAD1*%
X136384000Y-102207000D03*
%TO.N,Net-(Q2-G)*%
X118500000Y-104000000D03*
X116000000Y-101500000D03*
%TO.N,Net-(U8-PROG)*%
X114500000Y-78000000D03*
X118500000Y-72900000D03*
%TO.N,Battery*%
X126492000Y-74521000D03*
X154146000Y-105880000D03*
%TO.N,MOTOR1_CTRL1*%
X126193000Y-82510300D03*
%TO.N,EXT_LOAD1_OUT*%
X139671000Y-114705000D03*
X113359000Y-95125800D03*
X122048000Y-112281000D03*
%TO.N,MOTOR2_A_OUT*%
X118095000Y-87125000D03*
X125703000Y-106388000D03*
%TO.N,MOTOR2_CTRL1*%
X167558000Y-110033000D03*
X125118000Y-88479300D03*
X125118000Y-104253000D03*
%TO.N,MOTOR1_B_OUT*%
X116343000Y-85175000D03*
%TO.N,MOTOR3_CTRL2*%
X136682000Y-80515800D03*
%TO.N,MOTOR4_A_OUT*%
X154819000Y-87294700D03*
%TO.N,I2C1_SCL*%
X154912000Y-100067000D03*
%TO.N,EXT_LOAD2_OUT*%
X115361000Y-102776000D03*
X127500000Y-119500000D03*
%TO.N,I2C1_SDA*%
X154997000Y-102463000D03*
%TO.N,MOTOR3_CTRL1*%
X137311000Y-82850000D03*
%TO.N,MOTOR4_B_OUT*%
X132756000Y-105594000D03*
X128287037Y-86212952D03*
X162435000Y-107335000D03*
%TO.N,MOTOR3_B_OUT*%
X129819000Y-80508100D03*
%TO.N,MOTOR4_CTRL1*%
X152139000Y-85674700D03*
%TO.N,MOTOR3_A_OUT*%
X129402000Y-82127800D03*
%TO.N,MOTOR1_A_OUT*%
X116240000Y-83875000D03*
%TO.N,/USB C/CC2*%
X181410000Y-96590000D03*
X181648000Y-104856000D03*
%TO.N,Net-(Q1-G)*%
X139500000Y-86000000D03*
X130500000Y-64000000D03*
%TO.N,Net-(U1-AISEN)*%
X124512000Y-90715600D03*
X115590000Y-84525000D03*
%TO.N,Net-(SW1-A)*%
X160699000Y-87922100D03*
X172019700Y-82632800D03*
X170451800Y-86944700D03*
%TO.N,Net-(U9-SW_4)*%
X183552200Y-79000000D03*
X181670000Y-89231600D03*
X159609300Y-79132300D03*
X159884500Y-89327400D03*
%TO.N,Net-(U9-SS)*%
X168493000Y-83400000D03*
X168493000Y-79000000D03*
%TO.N,VCC*%
X179707700Y-106099700D03*
X157355000Y-104280000D03*
X182934700Y-86944700D03*
X159895000Y-105909100D03*
X183942300Y-77068000D03*
%TO.N,Net-(U9-FSW)*%
X160650600Y-91228700D03*
X185935700Y-91228700D03*
X185935700Y-75862300D03*
X158991900Y-81944700D03*
%TO.N,Net-(U9-COMP)*%
X183824500Y-75195500D03*
X174955500Y-69066000D03*
X159594100Y-76174700D03*
X159594100Y-69066000D03*
%TO.N,Net-(U9-ILIM)*%
X182943100Y-83399500D03*
X182968700Y-77530000D03*
%TO.N,/3V3 5V output/FB*%
X162814500Y-72745200D03*
X169658600Y-85942100D03*
%TO.N,/battery/5V*%
X117500000Y-74100000D03*
X117500000Y-63500000D03*
%TO.N,FAST_CHARGE_CTRL*%
X145408000Y-85978500D03*
%TO.N,MOTOR2_CTRL2*%
X126422000Y-106990000D03*
X126002806Y-88441611D03*
%TO.N,MOTOR2_B_OUT*%
X118098000Y-85876900D03*
X123658000Y-103410000D03*
%TO.N,MOTOR4_CTRL2*%
X146150000Y-86788900D03*
%TO.N,MOTOR1_CTRL2*%
X127322000Y-83832200D03*
%TO.N,Net-(U2-~{NFAULT})*%
X130242000Y-88118700D03*
X127121000Y-80004700D03*
%TD*%
D18*
%TO.N,GND*%
X138481000Y-93792500D02*
X140500000Y-95811200D01*
X116500000Y-74362615D02*
X115568687Y-73431302D01*
X180720000Y-94207300D02*
X180720000Y-93055600D01*
X142036000Y-102536000D02*
X142036000Y-113901000D01*
X140500000Y-101000000D02*
X142036000Y-102536000D01*
X180720000Y-94207300D02*
X180720000Y-98007300D01*
X172080000Y-94207300D02*
X172080000Y-98007300D01*
X140500000Y-95811200D02*
X140500000Y-101000000D01*
X150000000Y-88510000D02*
X150000000Y-78510000D01*
X141114000Y-114823000D02*
X140845000Y-114823000D01*
X140845000Y-114823000D02*
X140845000Y-115975000D01*
X143000000Y-103000000D02*
X142036000Y-103000000D01*
X137500000Y-65500000D02*
X137500000Y-70000000D01*
X138481000Y-84172484D02*
X138481000Y-93792500D01*
X116500000Y-76500000D02*
X116500000Y-74362615D01*
X180720000Y-82548700D02*
X180720000Y-93055600D01*
X172080000Y-98007300D02*
X172080000Y-98480000D01*
X150000000Y-78510000D02*
X150000000Y-68510000D01*
X138475000Y-84166484D02*
X138481000Y-84172484D01*
X142036000Y-113901000D02*
X141114000Y-114823000D01*
X182239400Y-81029300D02*
X180720000Y-82548700D01*
%TO.N,Net-(U2-AISEN)*%
X130692000Y-81486700D02*
X130692000Y-85897700D01*
X135097000Y-90303200D02*
X135097000Y-90657700D01*
X130692000Y-85897700D02*
X135097000Y-90303200D01*
%TO.N,Net-(U1-VINT)*%
X127742000Y-86885800D02*
X127742000Y-90686100D01*
X126404000Y-85547700D02*
X127742000Y-86885800D01*
X126404000Y-84616300D02*
X126404000Y-85547700D01*
%TO.N,5V_Out*%
X172977800Y-73781600D02*
X177446300Y-78250100D01*
X169198100Y-73781600D02*
X172977800Y-73781600D01*
X177446300Y-78250100D02*
X177446300Y-86944700D01*
X169093000Y-84685900D02*
X169093000Y-81817300D01*
D19*
X144500000Y-86415600D02*
X144382000Y-86297600D01*
D18*
X167104000Y-86675000D02*
X169093000Y-84685900D01*
X169093000Y-73886700D02*
X169198100Y-73781600D01*
X169093000Y-73886700D02*
X169093000Y-81817300D01*
X145925000Y-113435000D02*
X145925000Y-112283000D01*
D19*
X145925000Y-112283000D02*
X144500000Y-110858000D01*
X144500000Y-110858000D02*
X144500000Y-86415600D01*
D18*
X169093000Y-71404200D02*
X169093000Y-73886700D01*
D20*
%TO.N,HV*%
X147200000Y-90229000D02*
X147200000Y-85700000D01*
X143500000Y-86000000D02*
X143500000Y-102437925D01*
X143500000Y-113320000D02*
X143385000Y-113435000D01*
X143751000Y-102688925D02*
X143751000Y-103311075D01*
X189387000Y-103381000D02*
X182500000Y-96493200D01*
X147200000Y-85700000D02*
X146500000Y-85000000D01*
X143500000Y-103562075D02*
X143500000Y-113320000D01*
D18*
X144424000Y-72983400D02*
X145527000Y-74086400D01*
D20*
X145527000Y-83973000D02*
X143500000Y-86000000D01*
X147229000Y-90229000D02*
X147200000Y-90229000D01*
X149141100Y-92141100D02*
X147229000Y-90229000D01*
X146500000Y-85000000D02*
X144500000Y-85000000D01*
X145527000Y-74086400D02*
X145527000Y-83973000D01*
X143751000Y-103311075D02*
X143500000Y-103562075D01*
X149500000Y-92141100D02*
X149141100Y-92141100D01*
X141990000Y-70549700D02*
X144424000Y-72983400D01*
X182500000Y-96493200D02*
X182500000Y-96000000D01*
X143500000Y-102437925D02*
X143751000Y-102688925D01*
D18*
%TO.N,Net-(D1-K)*%
X165723000Y-85090500D02*
X165955000Y-84858500D01*
X165955000Y-74772700D02*
X165051000Y-73868700D01*
X165955000Y-84858500D02*
X165955000Y-74772700D01*
%TO.N,3V3_Out*%
X148465000Y-113435000D02*
X148465000Y-105817000D01*
X152408000Y-101874000D02*
X152408000Y-98408900D01*
X148465000Y-105817000D02*
X149301000Y-104981000D01*
X149301000Y-104981000D02*
X152408000Y-101874000D01*
X171838000Y-76769200D02*
X174952000Y-79883200D01*
X174952000Y-79883200D02*
X174952000Y-85741300D01*
X135918000Y-81325100D02*
X135918000Y-90291400D01*
%TO.N,CTRL_EXT_LOAD1*%
X137153000Y-110977000D02*
X136384000Y-110207000D01*
X138305000Y-115975000D02*
X138305000Y-114823000D01*
X138305000Y-114823000D02*
X138017000Y-114823000D01*
X137153000Y-113960000D02*
X137153000Y-110977000D01*
X136384000Y-110207000D02*
X136384000Y-102207000D01*
X138017000Y-114823000D02*
X137153000Y-113960000D01*
%TO.N,Net-(Q2-G)*%
X118500000Y-104000000D02*
X116000000Y-101500000D01*
%TO.N,Net-(U8-PROG)*%
X114500000Y-78000000D02*
X116500000Y-78000000D01*
X116500000Y-78000000D02*
X118500000Y-76000000D01*
X118500000Y-76000000D02*
X118500000Y-72900000D01*
%TO.N,Battery*%
X139824000Y-102098000D02*
X140500000Y-102098000D01*
X138277000Y-100551000D02*
X139824000Y-102098000D01*
X137964000Y-80877400D02*
X137964000Y-83690700D01*
X126492000Y-74521000D02*
X131608000Y-74521000D01*
X138277000Y-94256200D02*
X138277000Y-100551000D01*
X137875000Y-83780000D02*
X137875000Y-93854500D01*
X153545000Y-106481000D02*
X154146000Y-105880000D01*
X140500000Y-102098000D02*
X140500000Y-103000000D01*
X153545000Y-113435000D02*
X153545000Y-106481000D01*
X137964000Y-83690700D02*
X137875000Y-83780000D01*
X131608000Y-74521000D02*
X137964000Y-80877400D01*
X137875000Y-93854500D02*
X138277000Y-94256200D01*
%TO.N,MOTOR1_CTRL1*%
X130095000Y-81968800D02*
X127512000Y-79386600D01*
X134259000Y-90091900D02*
X130095000Y-85927300D01*
X126824000Y-79386600D02*
X126262000Y-79949000D01*
X126262000Y-79949000D02*
X126262000Y-82441600D01*
X127512000Y-79386600D02*
X126824000Y-79386600D01*
X135765000Y-92176800D02*
X134259000Y-90671100D01*
X135765000Y-113435000D02*
X135765000Y-92176800D01*
X126262000Y-82441600D02*
X126193000Y-82510300D01*
X130095000Y-85927300D02*
X130095000Y-81968800D01*
X134259000Y-90671100D02*
X134259000Y-90091900D01*
%TO.N,EXT_LOAD1_OUT*%
X139671000Y-116509000D02*
X139671000Y-114705000D01*
X141362000Y-117134000D02*
X140296000Y-117134000D01*
X142233000Y-116263000D02*
X141362000Y-117134000D01*
X122048000Y-112281000D02*
X113359000Y-103591000D01*
X140296000Y-117134000D02*
X139671000Y-116509000D01*
X143385000Y-115975000D02*
X142233000Y-115975000D01*
X113359000Y-103591000D02*
X113359000Y-95125800D01*
X142233000Y-115975000D02*
X142233000Y-116263000D01*
%TO.N,MOTOR2_A_OUT*%
X118095000Y-98780000D02*
X118095000Y-87125000D01*
X125703000Y-106388000D02*
X118095000Y-98780000D01*
%TO.N,MOTOR2_CTRL1*%
X166245000Y-111346000D02*
X167558000Y-110033000D01*
X166245000Y-113435000D02*
X166245000Y-111346000D01*
X125118000Y-88479300D02*
X125118000Y-104253000D01*
%TO.N,MOTOR1_B_OUT*%
X130685000Y-114823000D02*
X130397000Y-114823000D01*
X116343000Y-100770000D02*
X116343000Y-85175000D01*
X130685000Y-115975000D02*
X130685000Y-114823000D01*
X130397000Y-114823000D02*
X116343000Y-100770000D01*
%TO.N,MOTOR3_CTRL2*%
X136682000Y-93797800D02*
X137309000Y-94424400D01*
X137309000Y-109313000D02*
X138305000Y-110309000D01*
X137309000Y-94424400D02*
X137309000Y-109313000D01*
X136682000Y-80515800D02*
X136682000Y-93797800D01*
X138305000Y-110309000D02*
X138305000Y-113435000D01*
%TO.N,MOTOR4_A_OUT*%
X164975000Y-97450700D02*
X154819000Y-87294700D01*
X165957000Y-114823000D02*
X164975000Y-113841000D01*
X164975000Y-113841000D02*
X164975000Y-97450700D01*
X166245000Y-115975000D02*
X166245000Y-114823000D01*
X166245000Y-114823000D02*
X165957000Y-114823000D01*
%TO.N,I2C1_SCL*%
X151005000Y-107363000D02*
X155600000Y-102768000D01*
X155600000Y-100755000D02*
X154912000Y-100067000D01*
X155600000Y-102768000D02*
X155600000Y-100755000D01*
X151005000Y-113435000D02*
X151005000Y-107363000D01*
%TO.N,EXT_LOAD2_OUT*%
X127494000Y-119494000D02*
X127500000Y-119500000D01*
X127494000Y-114909076D02*
X127494000Y-119494000D01*
X115361000Y-102776076D02*
X127494000Y-114909076D01*
X115361000Y-102776000D02*
X115361000Y-102776076D01*
%TO.N,I2C1_SDA*%
X148465000Y-115975000D02*
X148465000Y-114823000D01*
X148753000Y-114823000D02*
X149617000Y-113960000D01*
X148465000Y-114823000D02*
X148753000Y-114823000D01*
X149617000Y-107843000D02*
X154997000Y-102463000D01*
X149617000Y-113960000D02*
X149617000Y-107843000D01*
%TO.N,MOTOR3_CTRL1*%
X137473000Y-83012800D02*
X137473000Y-94020800D01*
X137311000Y-82850000D02*
X137473000Y-83012800D01*
X137711000Y-108581000D02*
X140845000Y-111715000D01*
X137473000Y-94020800D02*
X137711000Y-94258100D01*
X137711000Y-94258100D02*
X137711000Y-108581000D01*
X140845000Y-111715000D02*
X140845000Y-113435000D01*
%TO.N,MOTOR4_B_OUT*%
X162435000Y-113822000D02*
X162435000Y-107335000D01*
X163705000Y-115975000D02*
X163705000Y-114823000D01*
X129000000Y-88525500D02*
X132756000Y-92281500D01*
X163436000Y-114823000D02*
X162435000Y-113822000D01*
X128287037Y-86787037D02*
X128287037Y-86212952D01*
X129000000Y-87500000D02*
X128287037Y-86787037D01*
X163705000Y-114823000D02*
X163436000Y-114823000D01*
X129000000Y-87500000D02*
X129000000Y-88525500D01*
X132756000Y-92281500D02*
X132756000Y-105594000D01*
%TO.N,MOTOR3_B_OUT*%
X132937000Y-114823000D02*
X132073000Y-113960000D01*
X125592000Y-85608400D02*
X125592000Y-80051400D01*
X128296000Y-78984900D02*
X129819000Y-80508100D01*
X133225000Y-114823000D02*
X132937000Y-114823000D01*
X127022000Y-87038900D02*
X125592000Y-85608400D01*
X133225000Y-115975000D02*
X133225000Y-114823000D01*
X125592000Y-80051400D02*
X126658000Y-78984900D01*
X132073000Y-98153900D02*
X127022000Y-93102600D01*
X126658000Y-78984900D02*
X128296000Y-78984900D01*
X132073000Y-113960000D02*
X132073000Y-98153900D01*
X127022000Y-93102600D02*
X127022000Y-87038900D01*
%TO.N,MOTOR4_CTRL1*%
X161165000Y-113435000D02*
X161165000Y-94701000D01*
X161165000Y-94701000D02*
X152139000Y-85674700D01*
%TO.N,MOTOR3_A_OUT*%
X134613000Y-113960000D02*
X134613000Y-91793000D01*
X133858000Y-91037300D02*
X133858000Y-90258200D01*
X134613000Y-91793000D02*
X133858000Y-91037300D01*
X133858000Y-90258200D02*
X129693000Y-86093600D01*
X129693000Y-82418500D02*
X129402000Y-82127800D01*
X135765000Y-115975000D02*
X135765000Y-114823000D01*
X135765000Y-114823000D02*
X135477000Y-114823000D01*
X129693000Y-86093600D02*
X129693000Y-82418500D01*
X135477000Y-114823000D02*
X134613000Y-113960000D01*
%TO.N,MOTOR1_A_OUT*%
X130685000Y-113435000D02*
X130685000Y-112283000D01*
X117073000Y-98671300D02*
X117073000Y-84708500D01*
X117073000Y-84708500D02*
X116240000Y-83875000D01*
X130685000Y-112283000D02*
X117073000Y-98671300D01*
%TO.N,/USB C/CC2*%
X181648000Y-96828000D02*
X181648000Y-104856000D01*
X181410000Y-96590000D02*
X181648000Y-96828000D01*
%TO.N,Net-(Q1-G)*%
X139500000Y-86000000D02*
X139901000Y-85599000D01*
X138000000Y-64000000D02*
X130500000Y-64000000D01*
X139901000Y-85599000D02*
X139901000Y-65901000D01*
X139901000Y-65901000D02*
X138000000Y-64000000D01*
%TO.N,Net-(U1-AISEN)*%
X115900000Y-83273300D02*
X117070000Y-83273300D01*
X115590000Y-83583700D02*
X115900000Y-83273300D01*
X115590000Y-84525000D02*
X115590000Y-83583700D01*
X117070000Y-83273300D02*
X124512000Y-90715600D01*
%TO.N,Net-(SW1-A)*%
X172019700Y-85376800D02*
X170451800Y-86944700D01*
X161400000Y-65944700D02*
X161400000Y-87221400D01*
X161400000Y-87221400D02*
X160699000Y-87922100D01*
X172019700Y-82632800D02*
X172019700Y-85376800D01*
%TO.N,Net-(U9-SW_4)*%
X159609300Y-89052200D02*
X159884500Y-89327400D01*
X183552200Y-83989600D02*
X181670000Y-85871800D01*
X183552200Y-79000000D02*
X183552200Y-83989600D01*
X181670000Y-85871800D02*
X181670000Y-89231600D01*
X159609300Y-79132300D02*
X159609300Y-89052200D01*
%TO.N,Net-(U9-SS)*%
X168493000Y-83400000D02*
X168493000Y-79000000D01*
%TO.N,VCC*%
X183942300Y-77068000D02*
X183802600Y-76928300D01*
X179612200Y-106004200D02*
X179707700Y-106099700D01*
X183802600Y-76928300D02*
X179615400Y-76928300D01*
X159895000Y-113853300D02*
X159103200Y-114645100D01*
X179615400Y-76928300D02*
X179612200Y-76931500D01*
X159103200Y-114645100D02*
X158146700Y-114645100D01*
X179612200Y-76931500D02*
X179612200Y-106004200D01*
X184153900Y-77279600D02*
X183942300Y-77068000D01*
X177186800Y-76931500D02*
X166200000Y-65944700D01*
X157355000Y-113853400D02*
X157355000Y-104280000D01*
X158146700Y-114645100D02*
X157355000Y-113853400D01*
X182934700Y-86944700D02*
X184153900Y-85725500D01*
X159895000Y-105909100D02*
X159895000Y-113853300D01*
X179612200Y-76931500D02*
X177186800Y-76931500D01*
X184153900Y-85725500D02*
X184153900Y-77279600D01*
%TO.N,Net-(U9-FSW)*%
X158991900Y-89570000D02*
X158991900Y-81944700D01*
X160650600Y-91228700D02*
X158991900Y-89570000D01*
X185935700Y-91228700D02*
X185935700Y-75862300D01*
%TO.N,Net-(U9-COMP)*%
X174955500Y-69066000D02*
X181085000Y-75195500D01*
X159594100Y-76174700D02*
X159594100Y-69066000D01*
X181085000Y-75195500D02*
X183824500Y-75195500D01*
%TO.N,Net-(U9-ILIM)*%
X182968700Y-77530000D02*
X182943100Y-77555600D01*
X182943100Y-77555600D02*
X182943100Y-83399500D01*
%TO.N,/3V3 5V output/FB*%
X168324000Y-87276700D02*
X166838200Y-87276700D01*
X166838200Y-87276700D02*
X162814500Y-83253000D01*
X162814500Y-83253000D02*
X162814500Y-72745200D01*
X169658600Y-85942100D02*
X168324000Y-87276700D01*
%TO.N,/battery/5V*%
X117500000Y-74100000D02*
X117500000Y-63500000D01*
%TO.N,FAST_CHARGE_CTRL*%
X152393000Y-116263000D02*
X151506000Y-117150000D01*
X147195000Y-116365000D02*
X147195000Y-104898000D01*
X147980000Y-117150000D02*
X147195000Y-116365000D01*
X152393000Y-115975000D02*
X152393000Y-116263000D01*
X151506000Y-117150000D02*
X147980000Y-117150000D01*
X145000000Y-102703000D02*
X145000000Y-86386500D01*
X153545000Y-115975000D02*
X152393000Y-115975000D01*
X147195000Y-104898000D02*
X145000000Y-102703000D01*
X145000000Y-86386500D02*
X145408000Y-85978500D01*
%TO.N,MOTOR2_CTRL2*%
X126002806Y-88608564D02*
X126422000Y-89027758D01*
X126422000Y-89027758D02*
X126422000Y-106990000D01*
X126002806Y-88441611D02*
X126002806Y-88608564D01*
%TO.N,MOTOR2_B_OUT*%
X118098000Y-85876900D02*
X123658000Y-91437400D01*
X123658000Y-91437400D02*
X123658000Y-103410000D01*
%TO.N,MOTOR4_CTRL2*%
X146150000Y-90558600D02*
X146150000Y-86788900D01*
X155513000Y-99818057D02*
X155160943Y-99466000D01*
X158625000Y-103033800D02*
X155513000Y-99921800D01*
X148742800Y-92742800D02*
X148334000Y-92742800D01*
X155513000Y-99921800D02*
X155513000Y-99818057D01*
X155160943Y-99160943D02*
X148742800Y-92742800D01*
X148334000Y-92742800D02*
X146150000Y-90558600D01*
X155160943Y-99466000D02*
X155160943Y-99160943D01*
X158625000Y-113435000D02*
X158625000Y-103033800D01*
%TO.N,MOTOR1_CTRL2*%
X133225000Y-90193600D02*
X129291000Y-86259900D01*
X133225000Y-105212000D02*
X133225000Y-90193600D01*
X133357000Y-112151000D02*
X133357000Y-105345000D01*
X133225000Y-113435000D02*
X133225000Y-112283000D01*
X129291000Y-85801300D02*
X127322000Y-83832200D01*
X133225000Y-112283000D02*
X133357000Y-112151000D01*
X133357000Y-105345000D02*
X133225000Y-105212000D01*
X129291000Y-86259900D02*
X129291000Y-85801300D01*
%TO.N,Net-(U2-~{NFAULT})*%
X128890000Y-86093809D02*
X128890000Y-85967394D01*
X130242000Y-88118700D02*
X129500000Y-87376700D01*
X129124909Y-86660900D02*
X129124900Y-86660900D01*
X128890000Y-86426000D02*
X128890000Y-86272692D01*
X126720000Y-83720000D02*
X126720000Y-82834800D01*
X128890000Y-86272692D02*
X128889997Y-86203819D01*
X129124900Y-86660900D02*
X129007994Y-86543994D01*
X127121000Y-82433100D02*
X127121000Y-80004700D01*
X129500000Y-87035962D02*
X129124909Y-86660900D01*
X128890006Y-86426015D02*
X128890006Y-86426006D01*
X126721000Y-83721000D02*
X126720000Y-83720000D01*
X127073057Y-84433200D02*
X126721000Y-84081143D01*
X128890000Y-85967394D02*
X127355884Y-84433200D01*
X127355884Y-84433200D02*
X127073057Y-84433200D01*
X126721000Y-84081143D02*
X126721000Y-83721000D01*
X129007994Y-86543994D02*
X128890006Y-86426015D01*
X128889997Y-86203819D02*
X128889993Y-86093816D01*
X128890006Y-86426006D02*
X128890000Y-86426000D01*
X129500000Y-87376700D02*
X129500000Y-87035962D01*
X128889993Y-86093816D02*
X128890000Y-86093809D01*
X126720000Y-82834800D02*
X127121000Y-82433100D01*
%TD*%
%TA.AperFunction,Conductor*%
%TO.N,GND*%
G36*
X117264849Y-62520185D02*
G01*
X117310604Y-62572989D01*
X117320548Y-62642147D01*
X117291523Y-62705703D01*
X117245262Y-62739061D01*
X117120827Y-62790602D01*
X117120814Y-62790609D01*
X116989711Y-62878210D01*
X116989707Y-62878213D01*
X116878213Y-62989707D01*
X116878210Y-62989711D01*
X116790609Y-63120814D01*
X116790602Y-63120827D01*
X116730264Y-63266498D01*
X116730261Y-63266510D01*
X116699500Y-63421153D01*
X116699500Y-63578846D01*
X116730261Y-63733489D01*
X116730264Y-63733501D01*
X116790602Y-63879172D01*
X116790609Y-63879185D01*
X116878602Y-64010874D01*
X116899480Y-64077551D01*
X116899500Y-64079765D01*
X116899500Y-73520234D01*
X116879815Y-73587273D01*
X116878602Y-73589125D01*
X116790609Y-73720814D01*
X116790602Y-73720827D01*
X116730264Y-73866498D01*
X116730261Y-73866510D01*
X116699500Y-74021153D01*
X116699500Y-74178846D01*
X116730261Y-74333489D01*
X116730264Y-74333501D01*
X116790602Y-74479172D01*
X116790609Y-74479185D01*
X116878210Y-74610288D01*
X116878213Y-74610292D01*
X116989707Y-74721786D01*
X116989711Y-74721789D01*
X117120814Y-74809390D01*
X117120827Y-74809397D01*
X117266498Y-74869735D01*
X117266503Y-74869737D01*
X117396982Y-74895691D01*
X117421153Y-74900499D01*
X117421156Y-74900500D01*
X117421158Y-74900500D01*
X117578844Y-74900500D01*
X117578845Y-74900499D01*
X117733497Y-74869737D01*
X117733509Y-74869731D01*
X117739324Y-74867969D01*
X117740158Y-74870720D01*
X117797359Y-74864497D01*
X117859878Y-74895691D01*
X117895608Y-74955734D01*
X117899500Y-74986555D01*
X117899500Y-75699903D01*
X117879815Y-75766942D01*
X117863181Y-75787584D01*
X116287584Y-77363181D01*
X116226261Y-77396666D01*
X116199903Y-77399500D01*
X115079766Y-77399500D01*
X115012727Y-77379815D01*
X115010875Y-77378602D01*
X114879185Y-77290609D01*
X114879172Y-77290602D01*
X114733501Y-77230264D01*
X114733489Y-77230261D01*
X114578845Y-77199500D01*
X114578842Y-77199500D01*
X114421158Y-77199500D01*
X114421155Y-77199500D01*
X114266510Y-77230261D01*
X114266498Y-77230264D01*
X114120827Y-77290602D01*
X114120814Y-77290609D01*
X113989711Y-77378210D01*
X113989707Y-77378213D01*
X113878213Y-77489707D01*
X113878210Y-77489711D01*
X113790609Y-77620814D01*
X113790602Y-77620827D01*
X113730264Y-77766498D01*
X113730261Y-77766510D01*
X113699500Y-77921153D01*
X113699500Y-78078846D01*
X113730261Y-78233489D01*
X113730264Y-78233501D01*
X113790602Y-78379172D01*
X113790609Y-78379185D01*
X113878210Y-78510288D01*
X113878213Y-78510292D01*
X113989707Y-78621786D01*
X113989711Y-78621789D01*
X114120814Y-78709390D01*
X114120827Y-78709397D01*
X114258683Y-78766498D01*
X114266503Y-78769737D01*
X114421153Y-78800499D01*
X114421156Y-78800500D01*
X114421158Y-78800500D01*
X114578844Y-78800500D01*
X114578845Y-78800499D01*
X114733497Y-78769737D01*
X114879179Y-78709394D01*
X115009348Y-78622418D01*
X115010875Y-78621398D01*
X115077553Y-78600520D01*
X115079766Y-78600500D01*
X116413331Y-78600500D01*
X116413347Y-78600501D01*
X116420943Y-78600501D01*
X116579054Y-78600501D01*
X116579057Y-78600501D01*
X116731785Y-78559577D01*
X116781904Y-78530639D01*
X116868716Y-78480520D01*
X116980520Y-78368716D01*
X116980520Y-78368714D01*
X116990728Y-78358507D01*
X116990730Y-78358504D01*
X118858506Y-76490728D01*
X118858511Y-76490724D01*
X118868714Y-76480520D01*
X118868716Y-76480520D01*
X118980520Y-76368716D01*
X119041021Y-76263924D01*
X119059577Y-76231785D01*
X119100500Y-76079057D01*
X119100500Y-75920943D01*
X119100500Y-73479765D01*
X119120185Y-73412726D01*
X119121398Y-73410874D01*
X119152223Y-73364742D01*
X119209394Y-73279179D01*
X119269737Y-73133497D01*
X119300500Y-72978842D01*
X119300500Y-72821158D01*
X119300500Y-72821155D01*
X119300499Y-72821153D01*
X119269737Y-72666503D01*
X119253730Y-72627858D01*
X119209397Y-72520827D01*
X119209390Y-72520814D01*
X119121789Y-72389711D01*
X119121786Y-72389707D01*
X119010292Y-72278213D01*
X119010288Y-72278210D01*
X118879185Y-72190609D01*
X118879172Y-72190602D01*
X118733501Y-72130264D01*
X118733489Y-72130261D01*
X118578845Y-72099500D01*
X118578842Y-72099500D01*
X118421158Y-72099500D01*
X118421155Y-72099500D01*
X118266510Y-72130261D01*
X118260676Y-72132031D01*
X118259873Y-72129385D01*
X118202056Y-72135396D01*
X118139687Y-72103902D01*
X118104245Y-72043689D01*
X118100500Y-72013444D01*
X118100500Y-64079765D01*
X118120185Y-64012726D01*
X118121398Y-64010874D01*
X118143077Y-63978430D01*
X118209394Y-63879179D01*
X118269737Y-63733497D01*
X118300500Y-63578842D01*
X118300500Y-63421158D01*
X118300500Y-63421155D01*
X118300499Y-63421153D01*
X118274531Y-63290606D01*
X118269737Y-63266503D01*
X118269735Y-63266498D01*
X118209397Y-63120827D01*
X118209390Y-63120814D01*
X118121789Y-62989711D01*
X118121786Y-62989707D01*
X118010292Y-62878213D01*
X118010288Y-62878210D01*
X117879185Y-62790609D01*
X117879172Y-62790602D01*
X117754738Y-62739061D01*
X117700334Y-62695221D01*
X117678269Y-62628926D01*
X117695548Y-62561227D01*
X117746685Y-62513616D01*
X117802190Y-62500500D01*
X190375500Y-62500500D01*
X190442539Y-62520185D01*
X190488294Y-62572989D01*
X190499500Y-62624500D01*
X190499500Y-105699849D01*
X190479815Y-105766888D01*
X190452962Y-105796677D01*
X170858399Y-121472328D01*
X170793753Y-121498836D01*
X170780937Y-121499500D01*
X129219063Y-121499500D01*
X129152024Y-121479815D01*
X129141601Y-121472328D01*
X127834673Y-120426785D01*
X127794622Y-120369536D01*
X127791879Y-120299721D01*
X127827318Y-120239505D01*
X127864686Y-120215397D01*
X127879179Y-120209394D01*
X128010289Y-120121789D01*
X128121789Y-120010289D01*
X128209394Y-119879179D01*
X128269737Y-119733497D01*
X128300500Y-119578842D01*
X128300500Y-119421158D01*
X128300500Y-119421155D01*
X128300499Y-119421153D01*
X128269737Y-119266503D01*
X128269735Y-119266498D01*
X128209397Y-119120827D01*
X128209390Y-119120814D01*
X128118405Y-118984646D01*
X128119685Y-118983790D01*
X128095332Y-118926429D01*
X128094500Y-118912090D01*
X128094500Y-114830021D01*
X128094500Y-114830019D01*
X128071343Y-114743595D01*
X128053577Y-114677291D01*
X128003694Y-114590892D01*
X127974520Y-114540360D01*
X127862716Y-114428556D01*
X127862715Y-114428555D01*
X127858385Y-114424225D01*
X127858374Y-114424215D01*
X118446340Y-105012181D01*
X118412855Y-104950858D01*
X118417839Y-104881166D01*
X118459711Y-104825233D01*
X118525175Y-104800816D01*
X118534021Y-104800500D01*
X118578844Y-104800500D01*
X118578845Y-104800499D01*
X118733497Y-104769737D01*
X118879179Y-104709394D01*
X119010289Y-104621789D01*
X119090361Y-104541716D01*
X119151682Y-104508233D01*
X119221374Y-104513217D01*
X119265716Y-104541713D01*
X129554755Y-114830019D01*
X129649873Y-114925130D01*
X129683360Y-114986452D01*
X129678378Y-115056143D01*
X129657726Y-115091243D01*
X129657759Y-115091267D01*
X129657513Y-115091604D01*
X129656498Y-115093331D01*
X129654897Y-115095205D01*
X129529951Y-115267180D01*
X129433444Y-115456585D01*
X129367753Y-115658760D01*
X129366291Y-115667993D01*
X129334500Y-115868713D01*
X129334500Y-116081287D01*
X129344534Y-116144644D01*
X129367753Y-116291239D01*
X129433444Y-116493414D01*
X129529951Y-116682820D01*
X129654890Y-116854786D01*
X129805213Y-117005109D01*
X129977179Y-117130048D01*
X129977181Y-117130049D01*
X129977184Y-117130051D01*
X130166588Y-117226557D01*
X130368757Y-117292246D01*
X130578713Y-117325500D01*
X130578714Y-117325500D01*
X130791286Y-117325500D01*
X130791287Y-117325500D01*
X131001243Y-117292246D01*
X131203412Y-117226557D01*
X131392816Y-117130051D01*
X131479138Y-117067335D01*
X131564786Y-117005109D01*
X131564788Y-117005106D01*
X131564792Y-117005104D01*
X131715104Y-116854792D01*
X131715106Y-116854788D01*
X131715109Y-116854786D01*
X131840048Y-116682820D01*
X131840047Y-116682820D01*
X131840051Y-116682816D01*
X131844514Y-116674054D01*
X131892488Y-116623259D01*
X131960308Y-116606463D01*
X132026444Y-116628999D01*
X132065486Y-116674056D01*
X132069951Y-116682820D01*
X132194890Y-116854786D01*
X132345213Y-117005109D01*
X132517179Y-117130048D01*
X132517181Y-117130049D01*
X132517184Y-117130051D01*
X132706588Y-117226557D01*
X132908757Y-117292246D01*
X133118713Y-117325500D01*
X133118714Y-117325500D01*
X133331286Y-117325500D01*
X133331287Y-117325500D01*
X133541243Y-117292246D01*
X133743412Y-117226557D01*
X133932816Y-117130051D01*
X134019138Y-117067335D01*
X134104786Y-117005109D01*
X134104788Y-117005106D01*
X134104792Y-117005104D01*
X134255104Y-116854792D01*
X134255106Y-116854788D01*
X134255109Y-116854786D01*
X134380048Y-116682820D01*
X134380047Y-116682820D01*
X134380051Y-116682816D01*
X134384514Y-116674054D01*
X134432488Y-116623259D01*
X134500308Y-116606463D01*
X134566444Y-116628999D01*
X134605486Y-116674056D01*
X134609951Y-116682820D01*
X134734890Y-116854786D01*
X134885213Y-117005109D01*
X135057179Y-117130048D01*
X135057181Y-117130049D01*
X135057184Y-117130051D01*
X135246588Y-117226557D01*
X135448757Y-117292246D01*
X135658713Y-117325500D01*
X135658714Y-117325500D01*
X135871286Y-117325500D01*
X135871287Y-117325500D01*
X136081243Y-117292246D01*
X136283412Y-117226557D01*
X136472816Y-117130051D01*
X136559138Y-117067335D01*
X136644786Y-117005109D01*
X136644788Y-117005106D01*
X136644792Y-117005104D01*
X136795104Y-116854792D01*
X136795106Y-116854788D01*
X136795109Y-116854786D01*
X136920048Y-116682820D01*
X136920047Y-116682820D01*
X136920051Y-116682816D01*
X136924514Y-116674054D01*
X136972488Y-116623259D01*
X137040308Y-116606463D01*
X137106444Y-116628999D01*
X137145486Y-116674056D01*
X137149951Y-116682820D01*
X137274890Y-116854786D01*
X137425213Y-117005109D01*
X137597179Y-117130048D01*
X137597181Y-117130049D01*
X137597184Y-117130051D01*
X137786588Y-117226557D01*
X137988757Y-117292246D01*
X138198713Y-117325500D01*
X138198714Y-117325500D01*
X138411286Y-117325500D01*
X138411287Y-117325500D01*
X138621243Y-117292246D01*
X138823412Y-117226557D01*
X139012816Y-117130051D01*
X139176190Y-117011354D01*
X139241996Y-116987874D01*
X139310050Y-117003700D01*
X139336756Y-117023991D01*
X139811139Y-117498374D01*
X139811149Y-117498385D01*
X139815479Y-117502715D01*
X139815480Y-117502716D01*
X139927284Y-117614520D01*
X139927286Y-117614521D01*
X139927290Y-117614524D01*
X140041812Y-117680642D01*
X140064216Y-117693577D01*
X140176019Y-117723534D01*
X140216942Y-117734500D01*
X140216943Y-117734500D01*
X141275331Y-117734500D01*
X141275347Y-117734501D01*
X141282943Y-117734501D01*
X141441054Y-117734501D01*
X141441057Y-117734501D01*
X141593785Y-117693577D01*
X141643904Y-117664639D01*
X141730716Y-117614520D01*
X141842520Y-117502716D01*
X141842520Y-117502714D01*
X141852728Y-117492507D01*
X141852730Y-117492504D01*
X142335123Y-117010110D01*
X142396444Y-116976627D01*
X142466136Y-116981611D01*
X142501241Y-117002274D01*
X142501266Y-117002241D01*
X142501613Y-117002493D01*
X142503344Y-117003512D01*
X142505212Y-117005108D01*
X142677179Y-117130048D01*
X142677181Y-117130049D01*
X142677184Y-117130051D01*
X142866588Y-117226557D01*
X143068757Y-117292246D01*
X143278713Y-117325500D01*
X143278714Y-117325500D01*
X143491286Y-117325500D01*
X143491287Y-117325500D01*
X143701243Y-117292246D01*
X143903412Y-117226557D01*
X144092816Y-117130051D01*
X144179138Y-117067335D01*
X144264786Y-117005109D01*
X144264788Y-117005106D01*
X144264792Y-117005104D01*
X144415104Y-116854792D01*
X144415106Y-116854788D01*
X144415109Y-116854786D01*
X144540048Y-116682820D01*
X144540051Y-116682816D01*
X144544793Y-116673508D01*
X144592763Y-116622711D01*
X144660583Y-116605911D01*
X144726719Y-116628445D01*
X144765763Y-116673500D01*
X144770377Y-116682555D01*
X144895272Y-116854459D01*
X144895276Y-116854464D01*
X145045535Y-117004723D01*
X145045540Y-117004727D01*
X145217442Y-117129620D01*
X145406782Y-117226095D01*
X145608871Y-117291757D01*
X145675000Y-117302231D01*
X145675000Y-116408012D01*
X145732007Y-116440925D01*
X145859174Y-116475000D01*
X145990826Y-116475000D01*
X146117993Y-116440925D01*
X146175000Y-116408012D01*
X146175000Y-117302230D01*
X146241126Y-117291757D01*
X146241129Y-117291757D01*
X146443217Y-117226095D01*
X146632557Y-117129620D01*
X146804466Y-117004721D01*
X146804468Y-117004720D01*
X146807288Y-117001900D01*
X146868608Y-116968410D01*
X146938300Y-116973389D01*
X146982657Y-117001893D01*
X147249557Y-117268793D01*
X147611284Y-117630520D01*
X147611286Y-117630521D01*
X147611290Y-117630524D01*
X147720496Y-117693573D01*
X147748216Y-117709577D01*
X147900943Y-117750501D01*
X147900945Y-117750501D01*
X148066654Y-117750501D01*
X148066670Y-117750500D01*
X151419331Y-117750500D01*
X151419347Y-117750501D01*
X151426943Y-117750501D01*
X151585054Y-117750501D01*
X151585057Y-117750501D01*
X151737785Y-117709577D01*
X151787904Y-117680639D01*
X151874716Y-117630520D01*
X151986520Y-117518716D01*
X151986520Y-117518714D01*
X151996728Y-117508507D01*
X151996730Y-117508504D01*
X152495123Y-117010110D01*
X152556444Y-116976627D01*
X152626136Y-116981611D01*
X152661241Y-117002274D01*
X152661266Y-117002241D01*
X152661613Y-117002493D01*
X152663344Y-117003512D01*
X152665212Y-117005108D01*
X152837179Y-117130048D01*
X152837181Y-117130049D01*
X152837184Y-117130051D01*
X153026588Y-117226557D01*
X153228757Y-117292246D01*
X153438713Y-117325500D01*
X153438714Y-117325500D01*
X153651286Y-117325500D01*
X153651287Y-117325500D01*
X153861243Y-117292246D01*
X154063412Y-117226557D01*
X154252816Y-117130051D01*
X154339138Y-117067335D01*
X154424786Y-117005109D01*
X154424788Y-117005106D01*
X154424792Y-117005104D01*
X154575104Y-116854792D01*
X154575106Y-116854788D01*
X154575109Y-116854786D01*
X154700048Y-116682820D01*
X154700047Y-116682820D01*
X154700051Y-116682816D01*
X154704514Y-116674054D01*
X154752488Y-116623259D01*
X154820308Y-116606463D01*
X154886444Y-116628999D01*
X154925486Y-116674056D01*
X154929951Y-116682820D01*
X155054890Y-116854786D01*
X155205213Y-117005109D01*
X155377179Y-117130048D01*
X155377181Y-117130049D01*
X155377184Y-117130051D01*
X155566588Y-117226557D01*
X155768757Y-117292246D01*
X155978713Y-117325500D01*
X155978714Y-117325500D01*
X156191286Y-117325500D01*
X156191287Y-117325500D01*
X156401243Y-117292246D01*
X156603412Y-117226557D01*
X156792816Y-117130051D01*
X156879138Y-117067335D01*
X156964786Y-117005109D01*
X156964788Y-117005106D01*
X156964792Y-117005104D01*
X157115104Y-116854792D01*
X157115106Y-116854788D01*
X157115109Y-116854786D01*
X157240048Y-116682820D01*
X157240047Y-116682820D01*
X157240051Y-116682816D01*
X157244514Y-116674054D01*
X157292488Y-116623259D01*
X157360308Y-116606463D01*
X157426444Y-116628999D01*
X157465486Y-116674056D01*
X157469951Y-116682820D01*
X157594890Y-116854786D01*
X157745213Y-117005109D01*
X157917179Y-117130048D01*
X157917181Y-117130049D01*
X157917184Y-117130051D01*
X158106588Y-117226557D01*
X158308757Y-117292246D01*
X158518713Y-117325500D01*
X158518714Y-117325500D01*
X158731286Y-117325500D01*
X158731287Y-117325500D01*
X158941243Y-117292246D01*
X159143412Y-117226557D01*
X159332816Y-117130051D01*
X159419138Y-117067335D01*
X159504786Y-117005109D01*
X159504788Y-117005106D01*
X159504792Y-117005104D01*
X159655104Y-116854792D01*
X159655106Y-116854788D01*
X159655109Y-116854786D01*
X159780048Y-116682820D01*
X159780047Y-116682820D01*
X159780051Y-116682816D01*
X159784514Y-116674054D01*
X159832488Y-116623259D01*
X159900308Y-116606463D01*
X159966444Y-116628999D01*
X160005486Y-116674056D01*
X160009951Y-116682820D01*
X160134890Y-116854786D01*
X160285213Y-117005109D01*
X160457179Y-117130048D01*
X160457181Y-117130049D01*
X160457184Y-117130051D01*
X160646588Y-117226557D01*
X160848757Y-117292246D01*
X161058713Y-117325500D01*
X161058714Y-117325500D01*
X161271286Y-117325500D01*
X161271287Y-117325500D01*
X161481243Y-117292246D01*
X161683412Y-117226557D01*
X161872816Y-117130051D01*
X161959138Y-117067335D01*
X162044786Y-117005109D01*
X162044788Y-117005106D01*
X162044792Y-117005104D01*
X162195104Y-116854792D01*
X162195106Y-116854788D01*
X162195109Y-116854786D01*
X162320048Y-116682820D01*
X162320047Y-116682820D01*
X162320051Y-116682816D01*
X162324514Y-116674054D01*
X162372488Y-116623259D01*
X162440308Y-116606463D01*
X162506444Y-116628999D01*
X162545486Y-116674056D01*
X162549951Y-116682820D01*
X162674890Y-116854786D01*
X162825213Y-117005109D01*
X162997179Y-117130048D01*
X162997181Y-117130049D01*
X162997184Y-117130051D01*
X163186588Y-117226557D01*
X163388757Y-117292246D01*
X163598713Y-117325500D01*
X163598714Y-117325500D01*
X163811286Y-117325500D01*
X163811287Y-117325500D01*
X164021243Y-117292246D01*
X164223412Y-117226557D01*
X164412816Y-117130051D01*
X164499138Y-117067335D01*
X164584786Y-117005109D01*
X164584788Y-117005106D01*
X164584792Y-117005104D01*
X164735104Y-116854792D01*
X164735106Y-116854788D01*
X164735109Y-116854786D01*
X164860048Y-116682820D01*
X164860047Y-116682820D01*
X164860051Y-116682816D01*
X164864514Y-116674054D01*
X164912488Y-116623259D01*
X164980308Y-116606463D01*
X165046444Y-116628999D01*
X165085486Y-116674056D01*
X165089951Y-116682820D01*
X165214890Y-116854786D01*
X165365213Y-117005109D01*
X165537179Y-117130048D01*
X165537181Y-117130049D01*
X165537184Y-117130051D01*
X165726588Y-117226557D01*
X165928757Y-117292246D01*
X166138713Y-117325500D01*
X166138714Y-117325500D01*
X166351286Y-117325500D01*
X166351287Y-117325500D01*
X166561243Y-117292246D01*
X166763412Y-117226557D01*
X166952816Y-117130051D01*
X167124792Y-117005104D01*
X167238329Y-116891566D01*
X167299648Y-116858084D01*
X167369340Y-116863068D01*
X167425274Y-116904939D01*
X167442189Y-116935917D01*
X167491202Y-117067328D01*
X167491206Y-117067335D01*
X167577452Y-117182544D01*
X167577455Y-117182547D01*
X167692664Y-117268793D01*
X167692671Y-117268797D01*
X167827517Y-117319091D01*
X167827516Y-117319091D01*
X167834444Y-117319835D01*
X167887127Y-117325500D01*
X169682872Y-117325499D01*
X169742483Y-117319091D01*
X169877331Y-117268796D01*
X169992546Y-117182546D01*
X170078796Y-117067331D01*
X170129091Y-116932483D01*
X170135500Y-116872873D01*
X170135499Y-115077128D01*
X170130052Y-115026461D01*
X170129091Y-115017516D01*
X170078797Y-114882671D01*
X170078793Y-114882664D01*
X169992547Y-114767455D01*
X169992544Y-114767452D01*
X169877335Y-114681206D01*
X169877328Y-114681202D01*
X169745917Y-114632189D01*
X169689983Y-114590318D01*
X169665566Y-114524853D01*
X169680418Y-114456580D01*
X169701563Y-114428332D01*
X169815104Y-114314792D01*
X169940051Y-114142816D01*
X170036557Y-113953412D01*
X170102246Y-113751243D01*
X170135500Y-113541287D01*
X170135500Y-113328713D01*
X170102246Y-113118757D01*
X170036557Y-112916588D01*
X169940051Y-112727184D01*
X169940049Y-112727181D01*
X169940048Y-112727179D01*
X169815109Y-112555213D01*
X169664786Y-112404890D01*
X169492820Y-112279951D01*
X169303414Y-112183444D01*
X169303413Y-112183443D01*
X169303412Y-112183443D01*
X169101243Y-112117754D01*
X169101241Y-112117753D01*
X169101240Y-112117753D01*
X168937775Y-112091863D01*
X168891287Y-112084500D01*
X168678713Y-112084500D01*
X168632225Y-112091863D01*
X168468760Y-112117753D01*
X168468757Y-112117754D01*
X168271679Y-112181789D01*
X168266585Y-112183444D01*
X168077179Y-112279951D01*
X167905213Y-112404890D01*
X167754890Y-112555213D01*
X167629949Y-112727182D01*
X167625484Y-112735946D01*
X167577509Y-112786742D01*
X167509688Y-112803536D01*
X167443553Y-112780998D01*
X167404516Y-112735946D01*
X167400050Y-112727182D01*
X167275109Y-112555213D01*
X167124786Y-112404890D01*
X166952815Y-112279948D01*
X166952814Y-112279947D01*
X166913205Y-112259765D01*
X166862409Y-112211791D01*
X166845500Y-112149281D01*
X166845500Y-111646097D01*
X166865185Y-111579058D01*
X166881819Y-111558416D01*
X167214728Y-111225507D01*
X167572662Y-110867572D01*
X167633983Y-110834089D01*
X167636150Y-110833638D01*
X167694085Y-110822113D01*
X167791497Y-110802737D01*
X167937179Y-110742394D01*
X168068289Y-110654789D01*
X168179789Y-110543289D01*
X168267394Y-110412179D01*
X168327737Y-110266497D01*
X168358500Y-110111842D01*
X168358500Y-109954158D01*
X168358500Y-109954155D01*
X168358499Y-109954153D01*
X168327738Y-109799510D01*
X168327738Y-109799508D01*
X168327737Y-109799503D01*
X168327735Y-109799498D01*
X168267397Y-109653827D01*
X168267390Y-109653814D01*
X168179789Y-109522711D01*
X168179786Y-109522707D01*
X168068292Y-109411213D01*
X168068288Y-109411210D01*
X167937185Y-109323609D01*
X167937172Y-109323602D01*
X167791501Y-109263264D01*
X167791489Y-109263261D01*
X167636845Y-109232500D01*
X167636842Y-109232500D01*
X167479158Y-109232500D01*
X167479155Y-109232500D01*
X167324510Y-109263261D01*
X167324498Y-109263264D01*
X167178827Y-109323602D01*
X167178814Y-109323609D01*
X167047711Y-109411210D01*
X167047707Y-109411213D01*
X166936213Y-109522707D01*
X166936210Y-109522711D01*
X166848609Y-109653814D01*
X166848602Y-109653827D01*
X166788264Y-109799498D01*
X166788261Y-109799508D01*
X166757361Y-109954850D01*
X166724976Y-110016761D01*
X166723425Y-110018339D01*
X165787181Y-110954583D01*
X165725858Y-110988068D01*
X165656166Y-110983084D01*
X165600233Y-110941212D01*
X165575816Y-110875748D01*
X165575500Y-110866902D01*
X165575500Y-97558804D01*
X171080000Y-97558804D01*
X171080000Y-97757300D01*
X171830000Y-97757300D01*
X171830000Y-98257300D01*
X171080000Y-98257300D01*
X171080000Y-98455795D01*
X171118427Y-98648981D01*
X171118430Y-98648993D01*
X171193807Y-98830971D01*
X171193814Y-98830984D01*
X171303248Y-98994762D01*
X171303251Y-98994766D01*
X171442533Y-99134048D01*
X171442537Y-99134051D01*
X171606315Y-99243485D01*
X171606328Y-99243492D01*
X171788308Y-99318869D01*
X171830000Y-99327162D01*
X171830000Y-98407028D01*
X171868060Y-98498914D01*
X171938386Y-98569240D01*
X172030272Y-98607300D01*
X172129728Y-98607300D01*
X172221614Y-98569240D01*
X172291940Y-98498914D01*
X172330000Y-98407028D01*
X172330000Y-99327162D01*
X172371690Y-99318869D01*
X172371692Y-99318869D01*
X172553671Y-99243492D01*
X172553684Y-99243485D01*
X172717462Y-99134051D01*
X172717466Y-99134048D01*
X172856748Y-98994766D01*
X172856751Y-98994762D01*
X172966185Y-98830984D01*
X172966192Y-98830971D01*
X173041569Y-98648993D01*
X173041572Y-98648981D01*
X173079999Y-98455795D01*
X173080000Y-98455792D01*
X173080000Y-98257300D01*
X172330000Y-98257300D01*
X172330000Y-97757300D01*
X173080000Y-97757300D01*
X173080000Y-97558808D01*
X173079999Y-97558804D01*
X173041572Y-97365618D01*
X173041569Y-97365606D01*
X172966192Y-97183628D01*
X172966185Y-97183615D01*
X172856751Y-97019837D01*
X172856748Y-97019833D01*
X172717466Y-96880551D01*
X172717462Y-96880548D01*
X172553684Y-96771114D01*
X172553671Y-96771107D01*
X172371691Y-96695729D01*
X172371683Y-96695727D01*
X172330000Y-96687435D01*
X172330000Y-97607572D01*
X172291940Y-97515686D01*
X172221614Y-97445360D01*
X172129728Y-97407300D01*
X172030272Y-97407300D01*
X171938386Y-97445360D01*
X171868060Y-97515686D01*
X171830000Y-97607572D01*
X171830000Y-96687436D01*
X171829999Y-96687435D01*
X171788316Y-96695727D01*
X171788308Y-96695729D01*
X171606328Y-96771107D01*
X171606315Y-96771114D01*
X171442537Y-96880548D01*
X171442533Y-96880551D01*
X171303251Y-97019833D01*
X171303248Y-97019837D01*
X171193814Y-97183615D01*
X171193807Y-97183628D01*
X171118430Y-97365606D01*
X171118427Y-97365618D01*
X171080000Y-97558804D01*
X165575500Y-97558804D01*
X165575500Y-97539759D01*
X165575501Y-97539746D01*
X165575501Y-97371645D01*
X165575501Y-97371643D01*
X165534577Y-97218915D01*
X165466088Y-97100289D01*
X165455520Y-97081984D01*
X165343716Y-96970180D01*
X165343713Y-96970178D01*
X162132339Y-93758804D01*
X171080000Y-93758804D01*
X171080000Y-93957300D01*
X171830000Y-93957300D01*
X171830000Y-94457300D01*
X171080000Y-94457300D01*
X171080000Y-94655795D01*
X171118427Y-94848981D01*
X171118430Y-94848993D01*
X171193807Y-95030971D01*
X171193814Y-95030984D01*
X171303248Y-95194762D01*
X171303251Y-95194766D01*
X171442533Y-95334048D01*
X171442537Y-95334051D01*
X171606315Y-95443485D01*
X171606328Y-95443492D01*
X171788308Y-95518869D01*
X171830000Y-95527162D01*
X171830000Y-94607028D01*
X171868060Y-94698914D01*
X171938386Y-94769240D01*
X172030272Y-94807300D01*
X172129728Y-94807300D01*
X172221614Y-94769240D01*
X172291940Y-94698914D01*
X172330000Y-94607028D01*
X172330000Y-95527162D01*
X172371690Y-95518869D01*
X172371692Y-95518869D01*
X172553671Y-95443492D01*
X172553684Y-95443485D01*
X172717462Y-95334051D01*
X172717466Y-95334048D01*
X172856748Y-95194766D01*
X172856751Y-95194762D01*
X172966185Y-95030984D01*
X172966192Y-95030971D01*
X173041569Y-94848993D01*
X173041572Y-94848981D01*
X173079999Y-94655795D01*
X173080000Y-94655792D01*
X173080000Y-94457300D01*
X172330000Y-94457300D01*
X172330000Y-93957300D01*
X173080000Y-93957300D01*
X173080000Y-93758808D01*
X173079999Y-93758804D01*
X173041572Y-93565618D01*
X173041569Y-93565606D01*
X172966192Y-93383628D01*
X172966185Y-93383615D01*
X172856751Y-93219837D01*
X172856748Y-93219833D01*
X172717466Y-93080551D01*
X172717462Y-93080548D01*
X172553684Y-92971114D01*
X172553671Y-92971107D01*
X172371691Y-92895729D01*
X172371683Y-92895727D01*
X172330000Y-92887435D01*
X172330000Y-93807572D01*
X172291940Y-93715686D01*
X172221614Y-93645360D01*
X172129728Y-93607300D01*
X172030272Y-93607300D01*
X171938386Y-93645360D01*
X171868060Y-93715686D01*
X171830000Y-93807572D01*
X171830000Y-92887436D01*
X171829999Y-92887435D01*
X171788316Y-92895727D01*
X171788308Y-92895729D01*
X171606328Y-92971107D01*
X171606315Y-92971114D01*
X171442537Y-93080548D01*
X171442533Y-93080551D01*
X171303251Y-93219833D01*
X171303248Y-93219837D01*
X171193814Y-93383615D01*
X171193807Y-93383628D01*
X171118430Y-93565606D01*
X171118427Y-93565618D01*
X171080000Y-93758804D01*
X162132339Y-93758804D01*
X160614416Y-92240881D01*
X160580931Y-92179558D01*
X160585915Y-92109866D01*
X160627787Y-92053933D01*
X160693251Y-92029516D01*
X160702097Y-92029200D01*
X160729444Y-92029200D01*
X160729445Y-92029199D01*
X160884097Y-91998437D01*
X161029779Y-91938094D01*
X161160889Y-91850489D01*
X161272389Y-91738989D01*
X161359994Y-91607879D01*
X161420337Y-91462197D01*
X161451100Y-91307542D01*
X161451100Y-91149858D01*
X161451100Y-91149855D01*
X161451099Y-91149853D01*
X161420337Y-90995203D01*
X161419252Y-90992583D01*
X161359997Y-90849527D01*
X161359990Y-90849514D01*
X161272389Y-90718411D01*
X161272386Y-90718407D01*
X161160892Y-90606913D01*
X161160888Y-90606910D01*
X161029785Y-90519309D01*
X161029772Y-90519302D01*
X160884101Y-90458964D01*
X160884091Y-90458961D01*
X160728749Y-90428061D01*
X160666838Y-90395676D01*
X160665260Y-90394125D01*
X160395238Y-90124103D01*
X160361753Y-90062780D01*
X160366737Y-89993088D01*
X160395238Y-89948741D01*
X160506286Y-89837692D01*
X160506289Y-89837689D01*
X160593894Y-89706579D01*
X160654237Y-89560897D01*
X160685000Y-89406242D01*
X160685000Y-89248558D01*
X160685000Y-89248555D01*
X160684999Y-89248553D01*
X160654238Y-89093910D01*
X160654237Y-89093903D01*
X160629710Y-89034688D01*
X160593897Y-88948227D01*
X160593890Y-88948214D01*
X160572025Y-88915491D01*
X160551147Y-88848814D01*
X160569631Y-88781434D01*
X160621610Y-88734743D01*
X160675127Y-88722600D01*
X160777844Y-88722600D01*
X160777845Y-88722599D01*
X160932497Y-88691837D01*
X161078179Y-88631494D01*
X161209289Y-88543889D01*
X161320789Y-88432389D01*
X161408394Y-88301279D01*
X161468737Y-88155597D01*
X161499500Y-88000942D01*
X161499500Y-88000941D01*
X161499594Y-88000469D01*
X161531979Y-87938558D01*
X161533519Y-87936990D01*
X161768657Y-87701953D01*
X161768716Y-87701920D01*
X161826719Y-87643916D01*
X161880441Y-87590218D01*
X161880443Y-87590213D01*
X161880464Y-87590193D01*
X161880504Y-87590140D01*
X161880515Y-87590120D01*
X161880520Y-87590116D01*
X161921374Y-87519355D01*
X161959527Y-87453304D01*
X161959528Y-87453297D01*
X161959548Y-87453264D01*
X161959564Y-87453226D01*
X161959573Y-87453189D01*
X161959577Y-87453184D01*
X161979600Y-87378453D01*
X162000484Y-87300586D01*
X162000484Y-87300576D01*
X162000500Y-87300461D01*
X162000500Y-87226178D01*
X162000513Y-87163453D01*
X162000518Y-87142471D01*
X162000517Y-87142468D01*
X162000519Y-87134612D01*
X162000500Y-87134304D01*
X162000500Y-83477139D01*
X162003969Y-83465324D01*
X162002860Y-83453062D01*
X162013628Y-83432427D01*
X162020185Y-83410100D01*
X162029488Y-83402038D01*
X162035187Y-83391120D01*
X162055404Y-83379582D01*
X162072989Y-83364345D01*
X162085174Y-83362592D01*
X162095870Y-83356489D01*
X162119111Y-83357713D01*
X162142147Y-83354401D01*
X162153348Y-83359516D01*
X162165643Y-83360164D01*
X162184531Y-83373757D01*
X162205703Y-83383426D01*
X162213747Y-83394783D01*
X162222354Y-83400977D01*
X162232307Y-83420986D01*
X162239847Y-83431631D01*
X162242443Y-83438213D01*
X162254923Y-83484785D01*
X162268950Y-83509080D01*
X162273539Y-83517029D01*
X162273541Y-83517033D01*
X162333975Y-83621709D01*
X162333981Y-83621717D01*
X162452849Y-83740585D01*
X162452855Y-83740590D01*
X166353339Y-87641074D01*
X166353349Y-87641085D01*
X166357679Y-87645415D01*
X166357680Y-87645416D01*
X166469484Y-87757220D01*
X166543540Y-87799976D01*
X166593126Y-87828604D01*
X166606411Y-87836275D01*
X166606415Y-87836277D01*
X166759143Y-87877200D01*
X166917257Y-87877200D01*
X168237331Y-87877200D01*
X168237347Y-87877201D01*
X168244943Y-87877201D01*
X168403054Y-87877201D01*
X168403057Y-87877201D01*
X168555785Y-87836277D01*
X168618660Y-87799976D01*
X168692716Y-87757220D01*
X168804520Y-87645416D01*
X168804520Y-87645414D01*
X168814724Y-87635211D01*
X168814728Y-87635206D01*
X169449947Y-86999986D01*
X169511268Y-86966503D01*
X169580960Y-86971487D01*
X169636893Y-87013359D01*
X169659243Y-87063477D01*
X169682061Y-87178191D01*
X169682064Y-87178201D01*
X169742402Y-87323872D01*
X169742409Y-87323885D01*
X169830010Y-87454988D01*
X169830013Y-87454992D01*
X169941507Y-87566486D01*
X169941511Y-87566489D01*
X170072614Y-87654090D01*
X170072627Y-87654097D01*
X170206531Y-87709561D01*
X170218303Y-87714437D01*
X170307709Y-87732221D01*
X170372953Y-87745199D01*
X170372956Y-87745200D01*
X170372958Y-87745200D01*
X170530644Y-87745200D01*
X170530645Y-87745199D01*
X170685297Y-87714437D01*
X170830979Y-87654094D01*
X170962089Y-87566489D01*
X171073589Y-87454989D01*
X171161194Y-87323879D01*
X171221537Y-87178197D01*
X171244810Y-87061198D01*
X171252438Y-87022850D01*
X171284823Y-86960939D01*
X171286320Y-86959414D01*
X172378206Y-85867527D01*
X172378211Y-85867524D01*
X172388414Y-85857320D01*
X172388416Y-85857320D01*
X172500220Y-85745516D01*
X172579277Y-85608584D01*
X172615547Y-85473224D01*
X172620200Y-85455858D01*
X172620200Y-85297743D01*
X172620200Y-83212565D01*
X172639885Y-83145526D01*
X172641098Y-83143674D01*
X172729090Y-83011985D01*
X172729090Y-83011984D01*
X172729094Y-83011979D01*
X172789437Y-82866297D01*
X172820200Y-82711642D01*
X172820200Y-82553958D01*
X172820200Y-82553955D01*
X172820199Y-82553953D01*
X172811781Y-82511634D01*
X172789437Y-82399303D01*
X172773691Y-82361289D01*
X172729097Y-82253627D01*
X172729090Y-82253614D01*
X172641489Y-82122511D01*
X172641486Y-82122507D01*
X172529992Y-82011013D01*
X172529988Y-82011010D01*
X172398885Y-81923409D01*
X172398872Y-81923402D01*
X172253201Y-81863064D01*
X172253189Y-81863061D01*
X172098545Y-81832300D01*
X172098542Y-81832300D01*
X171940858Y-81832300D01*
X171940855Y-81832300D01*
X171786210Y-81863061D01*
X171786198Y-81863064D01*
X171640527Y-81923402D01*
X171640514Y-81923409D01*
X171509411Y-82011010D01*
X171509407Y-82011013D01*
X171397913Y-82122507D01*
X171397910Y-82122511D01*
X171310309Y-82253614D01*
X171310302Y-82253627D01*
X171249964Y-82399298D01*
X171249961Y-82399310D01*
X171219200Y-82553953D01*
X171219200Y-82711646D01*
X171249961Y-82866289D01*
X171249964Y-82866301D01*
X171310302Y-83011972D01*
X171310309Y-83011985D01*
X171398302Y-83143674D01*
X171419180Y-83210351D01*
X171419200Y-83212565D01*
X171419200Y-85076702D01*
X171399515Y-85143741D01*
X171382881Y-85164383D01*
X170660454Y-85886809D01*
X170599131Y-85920294D01*
X170529439Y-85915310D01*
X170473506Y-85873438D01*
X170451156Y-85823319D01*
X170435680Y-85745517D01*
X170428337Y-85708603D01*
X170419535Y-85687352D01*
X170367997Y-85562927D01*
X170367990Y-85562914D01*
X170280389Y-85431811D01*
X170280386Y-85431807D01*
X170168892Y-85320313D01*
X170168888Y-85320310D01*
X170037785Y-85232709D01*
X170037772Y-85232702D01*
X169892101Y-85172364D01*
X169892089Y-85172361D01*
X169737446Y-85141600D01*
X169731382Y-85141003D01*
X169731476Y-85140039D01*
X169726291Y-85141039D01*
X169699113Y-85130159D01*
X169671035Y-85121915D01*
X169667061Y-85117329D01*
X169661425Y-85115073D01*
X169644441Y-85091224D01*
X169625280Y-85069111D01*
X169624416Y-85063104D01*
X169620895Y-85058160D01*
X169619501Y-85028920D01*
X169615336Y-84999953D01*
X169617783Y-84992882D01*
X169617568Y-84988370D01*
X169630685Y-84955604D01*
X169648869Y-84924106D01*
X169651291Y-84920437D01*
X169652400Y-84918349D01*
X169653258Y-84915148D01*
X169653258Y-84915147D01*
X169655987Y-84904964D01*
X169675234Y-84833127D01*
X169693290Y-84765737D01*
X169693490Y-84765014D01*
X169693495Y-84764973D01*
X169693500Y-84764957D01*
X169693500Y-84764950D01*
X169693502Y-84764943D01*
X169693500Y-84669724D01*
X169693500Y-82397065D01*
X169713185Y-82330026D01*
X169714398Y-82328174D01*
X169802390Y-82196485D01*
X169802390Y-82196484D01*
X169802394Y-82196479D01*
X169862737Y-82050797D01*
X169893500Y-81896142D01*
X169893500Y-81738458D01*
X169893500Y-81738455D01*
X169893499Y-81738453D01*
X169888078Y-81711198D01*
X169862737Y-81583803D01*
X169855167Y-81565527D01*
X169802397Y-81438127D01*
X169802390Y-81438114D01*
X169714398Y-81306425D01*
X169693520Y-81239747D01*
X169693500Y-81237534D01*
X169693500Y-76690353D01*
X171037500Y-76690353D01*
X171037500Y-76848046D01*
X171068261Y-77002689D01*
X171068264Y-77002701D01*
X171128602Y-77148372D01*
X171128609Y-77148385D01*
X171216210Y-77279488D01*
X171216213Y-77279492D01*
X171327707Y-77390986D01*
X171327711Y-77390989D01*
X171458814Y-77478590D01*
X171458827Y-77478597D01*
X171580030Y-77528800D01*
X171604503Y-77538937D01*
X171652504Y-77548485D01*
X171759849Y-77569838D01*
X171821760Y-77602223D01*
X171823339Y-77603774D01*
X174315181Y-80095616D01*
X174348666Y-80156939D01*
X174351500Y-80183297D01*
X174351500Y-85161534D01*
X174331815Y-85228573D01*
X174330602Y-85230425D01*
X174242609Y-85362114D01*
X174242602Y-85362127D01*
X174182264Y-85507798D01*
X174182261Y-85507810D01*
X174151500Y-85662453D01*
X174151500Y-85820146D01*
X174182261Y-85974789D01*
X174182264Y-85974801D01*
X174242602Y-86120472D01*
X174242609Y-86120485D01*
X174330210Y-86251588D01*
X174330213Y-86251592D01*
X174441707Y-86363086D01*
X174441711Y-86363089D01*
X174572814Y-86450690D01*
X174572827Y-86450697D01*
X174714239Y-86509271D01*
X174718503Y-86511037D01*
X174873153Y-86541799D01*
X174873156Y-86541800D01*
X174873158Y-86541800D01*
X175030844Y-86541800D01*
X175030845Y-86541799D01*
X175185497Y-86511037D01*
X175331179Y-86450694D01*
X175462289Y-86363089D01*
X175573789Y-86251589D01*
X175661394Y-86120479D01*
X175721737Y-85974797D01*
X175752500Y-85820142D01*
X175752500Y-85662458D01*
X175752500Y-85662455D01*
X175752499Y-85662453D01*
X175734782Y-85573383D01*
X175721737Y-85507803D01*
X175714243Y-85489711D01*
X175661397Y-85362127D01*
X175661390Y-85362114D01*
X175573398Y-85230425D01*
X175552520Y-85163747D01*
X175552500Y-85161534D01*
X175552500Y-79972259D01*
X175552501Y-79972246D01*
X175552501Y-79804145D01*
X175552501Y-79804143D01*
X175511577Y-79651415D01*
X175465080Y-79570880D01*
X175432520Y-79514484D01*
X175320716Y-79402680D01*
X175320715Y-79402679D01*
X175316385Y-79398349D01*
X175316374Y-79398339D01*
X172672574Y-76754539D01*
X172639089Y-76693216D01*
X172638638Y-76691049D01*
X172620595Y-76600347D01*
X172607737Y-76535703D01*
X172584880Y-76480520D01*
X172547397Y-76390027D01*
X172547390Y-76390014D01*
X172459789Y-76258911D01*
X172459786Y-76258907D01*
X172348292Y-76147413D01*
X172348288Y-76147410D01*
X172217185Y-76059809D01*
X172217172Y-76059802D01*
X172071501Y-75999464D01*
X172071489Y-75999461D01*
X171916845Y-75968700D01*
X171916842Y-75968700D01*
X171759158Y-75968700D01*
X171759155Y-75968700D01*
X171604510Y-75999461D01*
X171604498Y-75999464D01*
X171458827Y-76059802D01*
X171458814Y-76059809D01*
X171327711Y-76147410D01*
X171327707Y-76147413D01*
X171216213Y-76258907D01*
X171216210Y-76258911D01*
X171128609Y-76390014D01*
X171128602Y-76390027D01*
X171068264Y-76535698D01*
X171068261Y-76535710D01*
X171037500Y-76690353D01*
X169693500Y-76690353D01*
X169693500Y-74506100D01*
X169713185Y-74439061D01*
X169765989Y-74393306D01*
X169817500Y-74382100D01*
X172398034Y-74382100D01*
X172465073Y-74401785D01*
X172466925Y-74402998D01*
X172598614Y-74490990D01*
X172598627Y-74490997D01*
X172719139Y-74540914D01*
X172744303Y-74551337D01*
X172781224Y-74558681D01*
X172899649Y-74582238D01*
X172961560Y-74614623D01*
X172963139Y-74616174D01*
X176809481Y-78462516D01*
X176842966Y-78523839D01*
X176845800Y-78550197D01*
X176845800Y-86364934D01*
X176826115Y-86431973D01*
X176824902Y-86433825D01*
X176736909Y-86565514D01*
X176736902Y-86565527D01*
X176676564Y-86711198D01*
X176676561Y-86711210D01*
X176645800Y-86865853D01*
X176645800Y-87023546D01*
X176676561Y-87178189D01*
X176676564Y-87178201D01*
X176736902Y-87323872D01*
X176736909Y-87323885D01*
X176824510Y-87454988D01*
X176824513Y-87454992D01*
X176936007Y-87566486D01*
X176936011Y-87566489D01*
X177067114Y-87654090D01*
X177067127Y-87654097D01*
X177201031Y-87709561D01*
X177212803Y-87714437D01*
X177302209Y-87732221D01*
X177367453Y-87745199D01*
X177367456Y-87745200D01*
X177367458Y-87745200D01*
X177525144Y-87745200D01*
X177525145Y-87745199D01*
X177679797Y-87714437D01*
X177825479Y-87654094D01*
X177956589Y-87566489D01*
X178068089Y-87454989D01*
X178155694Y-87323879D01*
X178216037Y-87178197D01*
X178246800Y-87023542D01*
X178246800Y-86865858D01*
X178246800Y-86865855D01*
X178246799Y-86865853D01*
X178227680Y-86769735D01*
X178216037Y-86711203D01*
X178215286Y-86709390D01*
X178155697Y-86565527D01*
X178155690Y-86565514D01*
X178067698Y-86433825D01*
X178046820Y-86367147D01*
X178046800Y-86364934D01*
X178046800Y-78171044D01*
X178046800Y-78171043D01*
X178042797Y-78156101D01*
X178005877Y-78018315D01*
X177958312Y-77935931D01*
X177926820Y-77881384D01*
X177815016Y-77769580D01*
X177815015Y-77769579D01*
X177810685Y-77765249D01*
X177810674Y-77765239D01*
X177789116Y-77743681D01*
X177755631Y-77682358D01*
X177760615Y-77612666D01*
X177802487Y-77556733D01*
X177867951Y-77532316D01*
X177876797Y-77532000D01*
X178887700Y-77532000D01*
X178954739Y-77551685D01*
X179000494Y-77604489D01*
X179011700Y-77656000D01*
X179011700Y-105664402D01*
X178999204Y-105714299D01*
X179000637Y-105714893D01*
X178937964Y-105866198D01*
X178937961Y-105866210D01*
X178907200Y-106020853D01*
X178907200Y-106178546D01*
X178937961Y-106333189D01*
X178937964Y-106333201D01*
X178998302Y-106478872D01*
X178998309Y-106478885D01*
X179085910Y-106609988D01*
X179085913Y-106609992D01*
X179197407Y-106721486D01*
X179197411Y-106721489D01*
X179328514Y-106809090D01*
X179328527Y-106809097D01*
X179474198Y-106869435D01*
X179474203Y-106869437D01*
X179628853Y-106900199D01*
X179628856Y-106900200D01*
X179628858Y-106900200D01*
X179786544Y-106900200D01*
X179786545Y-106900199D01*
X179941197Y-106869437D01*
X180086879Y-106809094D01*
X180217989Y-106721489D01*
X180329489Y-106609989D01*
X180417094Y-106478879D01*
X180477437Y-106333197D01*
X180508200Y-106178542D01*
X180508200Y-106020858D01*
X180508200Y-106020855D01*
X180508199Y-106020853D01*
X180477437Y-105866203D01*
X180450495Y-105801158D01*
X180417097Y-105720527D01*
X180417090Y-105720514D01*
X180329489Y-105589411D01*
X180329486Y-105589407D01*
X180249019Y-105508940D01*
X180215534Y-105447617D01*
X180212700Y-105421259D01*
X180212700Y-99415140D01*
X180232385Y-99348101D01*
X180285189Y-99302346D01*
X180354347Y-99292402D01*
X180384154Y-99300579D01*
X180428312Y-99318870D01*
X180470000Y-99327162D01*
X180470000Y-98407028D01*
X180508060Y-98498914D01*
X180578386Y-98569240D01*
X180670272Y-98607300D01*
X180769728Y-98607300D01*
X180861614Y-98569240D01*
X180931940Y-98498914D01*
X180970000Y-98407028D01*
X180970000Y-99327163D01*
X181002166Y-99353562D01*
X181041500Y-99411308D01*
X181047500Y-99449414D01*
X181047500Y-104276234D01*
X181027815Y-104343273D01*
X181026602Y-104345125D01*
X180938609Y-104476814D01*
X180938602Y-104476827D01*
X180878264Y-104622498D01*
X180878261Y-104622510D01*
X180847500Y-104777153D01*
X180847500Y-104934846D01*
X180878261Y-105089489D01*
X180878264Y-105089501D01*
X180938602Y-105235172D01*
X180938609Y-105235185D01*
X181026210Y-105366288D01*
X181026213Y-105366292D01*
X181137707Y-105477786D01*
X181137711Y-105477789D01*
X181268814Y-105565390D01*
X181268827Y-105565397D01*
X181359101Y-105602789D01*
X181414503Y-105625737D01*
X181569153Y-105656499D01*
X181569156Y-105656500D01*
X181569158Y-105656500D01*
X181726844Y-105656500D01*
X181726845Y-105656499D01*
X181881497Y-105625737D01*
X182027179Y-105565394D01*
X182158289Y-105477789D01*
X182269789Y-105366289D01*
X182357394Y-105235179D01*
X182417737Y-105089497D01*
X182448500Y-104934842D01*
X182448500Y-104777158D01*
X182448500Y-104777155D01*
X182448499Y-104777153D01*
X182438218Y-104725467D01*
X182417737Y-104622503D01*
X182409170Y-104601821D01*
X182357397Y-104476827D01*
X182357390Y-104476814D01*
X182269398Y-104345125D01*
X182248520Y-104278447D01*
X182248500Y-104276234D01*
X182248500Y-97602485D01*
X182268185Y-97535446D01*
X182320989Y-97489691D01*
X182390147Y-97479747D01*
X182453703Y-97508772D01*
X182460177Y-97514800D01*
X188016370Y-103071639D01*
X188640913Y-103696255D01*
X188667787Y-103736476D01*
X188677603Y-103760173D01*
X188677609Y-103760185D01*
X188765210Y-103891288D01*
X188765213Y-103891292D01*
X188876707Y-104002786D01*
X188876711Y-104002789D01*
X189007814Y-104090390D01*
X189007827Y-104090397D01*
X189143093Y-104146425D01*
X189153503Y-104150737D01*
X189300165Y-104179910D01*
X189308153Y-104181499D01*
X189308156Y-104181500D01*
X189308158Y-104181500D01*
X189465844Y-104181500D01*
X189465845Y-104181499D01*
X189620497Y-104150737D01*
X189766179Y-104090394D01*
X189897289Y-104002789D01*
X190008789Y-103891289D01*
X190096394Y-103760179D01*
X190156737Y-103614497D01*
X190187500Y-103459842D01*
X190187500Y-103302158D01*
X190187500Y-103302155D01*
X190187499Y-103302153D01*
X190183597Y-103282535D01*
X190156737Y-103147503D01*
X190131515Y-103086611D01*
X190096397Y-103001827D01*
X190096390Y-103001814D01*
X190008789Y-102870711D01*
X190008786Y-102870707D01*
X189897292Y-102759213D01*
X189897288Y-102759210D01*
X189766185Y-102671609D01*
X189766173Y-102671603D01*
X189742563Y-102661823D01*
X189702332Y-102634939D01*
X183321890Y-96253755D01*
X183288408Y-96192430D01*
X183287959Y-96141886D01*
X183300500Y-96078843D01*
X183300500Y-95921155D01*
X183300499Y-95921153D01*
X183280431Y-95820264D01*
X183269737Y-95766503D01*
X183269735Y-95766498D01*
X183209397Y-95620827D01*
X183209390Y-95620814D01*
X183121789Y-95489711D01*
X183121786Y-95489707D01*
X183010292Y-95378213D01*
X183010288Y-95378210D01*
X182879185Y-95290609D01*
X182879172Y-95290602D01*
X182733501Y-95230264D01*
X182733489Y-95230261D01*
X182578845Y-95199500D01*
X182578842Y-95199500D01*
X182421158Y-95199500D01*
X182421155Y-95199500D01*
X182266510Y-95230261D01*
X182266498Y-95230264D01*
X182120827Y-95290602D01*
X182120814Y-95290609D01*
X181989711Y-95378210D01*
X181989707Y-95378213D01*
X181878213Y-95489707D01*
X181878210Y-95489711D01*
X181790609Y-95620814D01*
X181790604Y-95620824D01*
X181742028Y-95738098D01*
X181698187Y-95792501D01*
X181631893Y-95814566D01*
X181603275Y-95812262D01*
X181488844Y-95789500D01*
X181488842Y-95789500D01*
X181331158Y-95789500D01*
X181331155Y-95789500D01*
X181176510Y-95820261D01*
X181176498Y-95820264D01*
X181030827Y-95880602D01*
X181030814Y-95880609D01*
X180899711Y-95968210D01*
X180899707Y-95968213D01*
X180788213Y-96079707D01*
X180788210Y-96079711D01*
X180700609Y-96210814D01*
X180700602Y-96210827D01*
X180640264Y-96356498D01*
X180640261Y-96356510D01*
X180609500Y-96511153D01*
X180609500Y-96557924D01*
X180601829Y-96584046D01*
X180597594Y-96610942D01*
X180592129Y-96617079D01*
X180589815Y-96624963D01*
X180569242Y-96642789D01*
X180551136Y-96663128D01*
X180541253Y-96667041D01*
X180537011Y-96670718D01*
X180518837Y-96677359D01*
X180370037Y-96718893D01*
X180342278Y-96718520D01*
X180314681Y-96721487D01*
X180307832Y-96718058D01*
X180300174Y-96717956D01*
X180277021Y-96702635D01*
X180252203Y-96690211D01*
X180248295Y-96683625D01*
X180241907Y-96679398D01*
X180230714Y-96653993D01*
X180216551Y-96630122D01*
X180215097Y-96618546D01*
X180213737Y-96615459D01*
X180214278Y-96612023D01*
X180212700Y-96599458D01*
X180212700Y-95615140D01*
X180232385Y-95548101D01*
X180285189Y-95502346D01*
X180354347Y-95492402D01*
X180384154Y-95500579D01*
X180428312Y-95518870D01*
X180470000Y-95527162D01*
X180470000Y-94607028D01*
X180508060Y-94698914D01*
X180578386Y-94769240D01*
X180670272Y-94807300D01*
X180769728Y-94807300D01*
X180861614Y-94769240D01*
X180931940Y-94698914D01*
X180970000Y-94607028D01*
X180970000Y-95527162D01*
X181011690Y-95518869D01*
X181011692Y-95518869D01*
X181193671Y-95443492D01*
X181193684Y-95443485D01*
X181357462Y-95334051D01*
X181357466Y-95334048D01*
X181496748Y-95194766D01*
X181496751Y-95194762D01*
X181606185Y-95030984D01*
X181606192Y-95030971D01*
X181681569Y-94848993D01*
X181681572Y-94848981D01*
X181719999Y-94655795D01*
X181720000Y-94655792D01*
X181720000Y-94457300D01*
X180970000Y-94457300D01*
X180970000Y-93957300D01*
X181720000Y-93957300D01*
X181720000Y-93758808D01*
X181719999Y-93758804D01*
X181681572Y-93565618D01*
X181681569Y-93565606D01*
X181606192Y-93383628D01*
X181606185Y-93383615D01*
X181496751Y-93219837D01*
X181496748Y-93219833D01*
X181357466Y-93080551D01*
X181357462Y-93080548D01*
X181193684Y-92971114D01*
X181193671Y-92971107D01*
X181011691Y-92895729D01*
X181011683Y-92895727D01*
X180970000Y-92887435D01*
X180970000Y-93807572D01*
X180931940Y-93715686D01*
X180861614Y-93645360D01*
X180769728Y-93607300D01*
X180670272Y-93607300D01*
X180578386Y-93645360D01*
X180508060Y-93715686D01*
X180470000Y-93807572D01*
X180470000Y-92887436D01*
X180469999Y-92887435D01*
X180428316Y-92895727D01*
X180428313Y-92895728D01*
X180384151Y-92914020D01*
X180314681Y-92921487D01*
X180252203Y-92890211D01*
X180216551Y-92830122D01*
X180212700Y-92799458D01*
X180212700Y-77652800D01*
X180232385Y-77585761D01*
X180285189Y-77540006D01*
X180336700Y-77528800D01*
X182050514Y-77528800D01*
X182117553Y-77548485D01*
X182163308Y-77601289D01*
X182172131Y-77628608D01*
X182198961Y-77763491D01*
X182198964Y-77763501D01*
X182259302Y-77909172D01*
X182259309Y-77909184D01*
X182321702Y-78002561D01*
X182342580Y-78069238D01*
X182342600Y-78071452D01*
X182342600Y-82819734D01*
X182322915Y-82886773D01*
X182321702Y-82888625D01*
X182233709Y-83020314D01*
X182233702Y-83020327D01*
X182173364Y-83165998D01*
X182173361Y-83166010D01*
X182142600Y-83320653D01*
X182142600Y-83478346D01*
X182173361Y-83632989D01*
X182173364Y-83633001D01*
X182233702Y-83778672D01*
X182233709Y-83778685D01*
X182321310Y-83909788D01*
X182321313Y-83909792D01*
X182432809Y-84021288D01*
X182433559Y-84021789D01*
X182450126Y-84032859D01*
X182494933Y-84086469D01*
X182503642Y-84155794D01*
X182473489Y-84218822D01*
X182468919Y-84223643D01*
X181301286Y-85391278D01*
X181189481Y-85503082D01*
X181189479Y-85503085D01*
X181178801Y-85521581D01*
X181150258Y-85571019D01*
X181110423Y-85640015D01*
X181069499Y-85792743D01*
X181069499Y-85792745D01*
X181069499Y-85960846D01*
X181069500Y-85960859D01*
X181069500Y-88651834D01*
X181049815Y-88718873D01*
X181048602Y-88720725D01*
X180960609Y-88852414D01*
X180960602Y-88852427D01*
X180900264Y-88998098D01*
X180900261Y-88998110D01*
X180869500Y-89152753D01*
X180869500Y-89310446D01*
X180900261Y-89465089D01*
X180900264Y-89465101D01*
X180960602Y-89610772D01*
X180960609Y-89610785D01*
X181048210Y-89741888D01*
X181048213Y-89741892D01*
X181159707Y-89853386D01*
X181159711Y-89853389D01*
X181290814Y-89940990D01*
X181290827Y-89940997D01*
X181416588Y-89993088D01*
X181436503Y-90001337D01*
X181591153Y-90032099D01*
X181591156Y-90032100D01*
X181591158Y-90032100D01*
X181748844Y-90032100D01*
X181748845Y-90032099D01*
X181903497Y-90001337D01*
X182049179Y-89940994D01*
X182180289Y-89853389D01*
X182291789Y-89741889D01*
X182379394Y-89610779D01*
X182439737Y-89465097D01*
X182470500Y-89310442D01*
X182470500Y-89152758D01*
X182470500Y-89152755D01*
X182470499Y-89152753D01*
X182441312Y-89006021D01*
X182439737Y-88998103D01*
X182436453Y-88990174D01*
X182379397Y-88852427D01*
X182379390Y-88852414D01*
X182291398Y-88720725D01*
X182270520Y-88654047D01*
X182270500Y-88651834D01*
X182270500Y-87695637D01*
X182290185Y-87628598D01*
X182342989Y-87582843D01*
X182412147Y-87572899D01*
X182463391Y-87592535D01*
X182555514Y-87654090D01*
X182555527Y-87654097D01*
X182689431Y-87709561D01*
X182701203Y-87714437D01*
X182790609Y-87732221D01*
X182855853Y-87745199D01*
X182855856Y-87745200D01*
X182855858Y-87745200D01*
X183013544Y-87745200D01*
X183013545Y-87745199D01*
X183168197Y-87714437D01*
X183313879Y-87654094D01*
X183444989Y-87566489D01*
X183556489Y-87454989D01*
X183644094Y-87323879D01*
X183704437Y-87178197D01*
X183727710Y-87061198D01*
X183735338Y-87022850D01*
X183767723Y-86960939D01*
X183769221Y-86959413D01*
X184512406Y-86216227D01*
X184512411Y-86216224D01*
X184522614Y-86206020D01*
X184522616Y-86206020D01*
X184634420Y-86094216D01*
X184637821Y-86088323D01*
X184685170Y-86006315D01*
X184685170Y-86006314D01*
X184713477Y-85957285D01*
X184754400Y-85804557D01*
X184754400Y-85646443D01*
X184754400Y-77358661D01*
X184754401Y-77358658D01*
X184754401Y-77200543D01*
X184743628Y-77160344D01*
X184742961Y-77147233D01*
X184743392Y-77145427D01*
X184742800Y-77140925D01*
X184742800Y-76989155D01*
X184742799Y-76989153D01*
X184740023Y-76975199D01*
X184712037Y-76834503D01*
X184678915Y-76754539D01*
X184651697Y-76688827D01*
X184651690Y-76688814D01*
X184564089Y-76557711D01*
X184564086Y-76557707D01*
X184452592Y-76446213D01*
X184452588Y-76446210D01*
X184321485Y-76358609D01*
X184321472Y-76358602D01*
X184175801Y-76298264D01*
X184175789Y-76298261D01*
X184021145Y-76267500D01*
X184021142Y-76267500D01*
X183863458Y-76267500D01*
X183863455Y-76267500D01*
X183708810Y-76298261D01*
X183708798Y-76298264D01*
X183660281Y-76318361D01*
X183612829Y-76327800D01*
X179694457Y-76327800D01*
X179536342Y-76327800D01*
X179536341Y-76327800D01*
X179528285Y-76328861D01*
X179528217Y-76328348D01*
X179508075Y-76331000D01*
X177486898Y-76331000D01*
X177419859Y-76311315D01*
X177399217Y-76294681D01*
X173868978Y-72764442D01*
X170091688Y-68987153D01*
X174155000Y-68987153D01*
X174155000Y-69144846D01*
X174185761Y-69299489D01*
X174185764Y-69299501D01*
X174246102Y-69445172D01*
X174246109Y-69445185D01*
X174333710Y-69576288D01*
X174333713Y-69576292D01*
X174445207Y-69687786D01*
X174445211Y-69687789D01*
X174576314Y-69775390D01*
X174576327Y-69775397D01*
X174721998Y-69835735D01*
X174722003Y-69835737D01*
X174786647Y-69848595D01*
X174877349Y-69866638D01*
X174939260Y-69899023D01*
X174940839Y-69900574D01*
X180600139Y-75559874D01*
X180600149Y-75559885D01*
X180604479Y-75564215D01*
X180604480Y-75564216D01*
X180716284Y-75676020D01*
X180757652Y-75699903D01*
X180803095Y-75726139D01*
X180803097Y-75726141D01*
X180841151Y-75748111D01*
X180853215Y-75755077D01*
X181005943Y-75796001D01*
X181005946Y-75796001D01*
X181171653Y-75796001D01*
X181171669Y-75796000D01*
X183244734Y-75796000D01*
X183311773Y-75815685D01*
X183313625Y-75816898D01*
X183445314Y-75904890D01*
X183445327Y-75904897D01*
X183532967Y-75941198D01*
X183591003Y-75965237D01*
X183745653Y-75995999D01*
X183745656Y-75996000D01*
X183745658Y-75996000D01*
X183903344Y-75996000D01*
X183903345Y-75995999D01*
X184057997Y-75965237D01*
X184203679Y-75904894D01*
X184334789Y-75817289D01*
X184368625Y-75783453D01*
X185135200Y-75783453D01*
X185135200Y-75941146D01*
X185165961Y-76095789D01*
X185165964Y-76095801D01*
X185226302Y-76241472D01*
X185226309Y-76241485D01*
X185272969Y-76311315D01*
X185311322Y-76368715D01*
X185314302Y-76373174D01*
X185335180Y-76439851D01*
X185335200Y-76442065D01*
X185335200Y-90648934D01*
X185315515Y-90715973D01*
X185314302Y-90717825D01*
X185226309Y-90849514D01*
X185226302Y-90849527D01*
X185165964Y-90995198D01*
X185165961Y-90995210D01*
X185135200Y-91149853D01*
X185135200Y-91307546D01*
X185165961Y-91462189D01*
X185165964Y-91462201D01*
X185226302Y-91607872D01*
X185226309Y-91607885D01*
X185313910Y-91738988D01*
X185313913Y-91738992D01*
X185425407Y-91850486D01*
X185425411Y-91850489D01*
X185556514Y-91938090D01*
X185556527Y-91938097D01*
X185702198Y-91998435D01*
X185702203Y-91998437D01*
X185856853Y-92029199D01*
X185856856Y-92029200D01*
X185856858Y-92029200D01*
X186014544Y-92029200D01*
X186014545Y-92029199D01*
X186169197Y-91998437D01*
X186314879Y-91938094D01*
X186445989Y-91850489D01*
X186557489Y-91738989D01*
X186645094Y-91607879D01*
X186705437Y-91462197D01*
X186736200Y-91307542D01*
X186736200Y-91149858D01*
X186736200Y-91149855D01*
X186736199Y-91149853D01*
X186705437Y-90995203D01*
X186704352Y-90992583D01*
X186645097Y-90849527D01*
X186645090Y-90849514D01*
X186557098Y-90717825D01*
X186536220Y-90651147D01*
X186536200Y-90648934D01*
X186536200Y-76442065D01*
X186555885Y-76375026D01*
X186557098Y-76373174D01*
X186560078Y-76368715D01*
X186645094Y-76241479D01*
X186705437Y-76095797D01*
X186736200Y-75941142D01*
X186736200Y-75783458D01*
X186736200Y-75783455D01*
X186736199Y-75783453D01*
X186720751Y-75705792D01*
X186705437Y-75628803D01*
X186683021Y-75574685D01*
X186645097Y-75483127D01*
X186645090Y-75483114D01*
X186557489Y-75352011D01*
X186557486Y-75352007D01*
X186445992Y-75240513D01*
X186445988Y-75240510D01*
X186314885Y-75152909D01*
X186314872Y-75152902D01*
X186169201Y-75092564D01*
X186169189Y-75092561D01*
X186014545Y-75061800D01*
X186014542Y-75061800D01*
X185856858Y-75061800D01*
X185856855Y-75061800D01*
X185702210Y-75092561D01*
X185702198Y-75092564D01*
X185556527Y-75152902D01*
X185556514Y-75152909D01*
X185425411Y-75240510D01*
X185425407Y-75240513D01*
X185313913Y-75352007D01*
X185313910Y-75352011D01*
X185226309Y-75483114D01*
X185226302Y-75483127D01*
X185165964Y-75628798D01*
X185165961Y-75628810D01*
X185135200Y-75783453D01*
X184368625Y-75783453D01*
X184446289Y-75705789D01*
X184533894Y-75574679D01*
X184594237Y-75428997D01*
X184625000Y-75274342D01*
X184625000Y-75116658D01*
X184625000Y-75116655D01*
X184624999Y-75116653D01*
X184611032Y-75046439D01*
X184594237Y-74962003D01*
X184568762Y-74900500D01*
X184533897Y-74816327D01*
X184533890Y-74816314D01*
X184446289Y-74685211D01*
X184446286Y-74685207D01*
X184334792Y-74573713D01*
X184334788Y-74573710D01*
X184203685Y-74486109D01*
X184203672Y-74486102D01*
X184058001Y-74425764D01*
X184057989Y-74425761D01*
X183903345Y-74395000D01*
X183903342Y-74395000D01*
X183745658Y-74395000D01*
X183745655Y-74395000D01*
X183591010Y-74425761D01*
X183590998Y-74425764D01*
X183445327Y-74486102D01*
X183445314Y-74486109D01*
X183313625Y-74574102D01*
X183246947Y-74594980D01*
X183244734Y-74595000D01*
X181385097Y-74595000D01*
X181318058Y-74575315D01*
X181297416Y-74558681D01*
X175790074Y-69051339D01*
X175756589Y-68990016D01*
X175756138Y-68987849D01*
X175725238Y-68832510D01*
X175725237Y-68832503D01*
X175725235Y-68832498D01*
X175664897Y-68686827D01*
X175664890Y-68686814D01*
X175577289Y-68555711D01*
X175577286Y-68555707D01*
X175465792Y-68444213D01*
X175465788Y-68444210D01*
X175334685Y-68356609D01*
X175334672Y-68356602D01*
X175189001Y-68296264D01*
X175188989Y-68296261D01*
X175034345Y-68265500D01*
X175034342Y-68265500D01*
X174876658Y-68265500D01*
X174876655Y-68265500D01*
X174722010Y-68296261D01*
X174721998Y-68296264D01*
X174576327Y-68356602D01*
X174576314Y-68356609D01*
X174445211Y-68444210D01*
X174445207Y-68444213D01*
X174333713Y-68555707D01*
X174333710Y-68555711D01*
X174246109Y-68686814D01*
X174246102Y-68686827D01*
X174185764Y-68832498D01*
X174185761Y-68832510D01*
X174155000Y-68987153D01*
X170091688Y-68987153D01*
X168038436Y-66933901D01*
X168004952Y-66872579D01*
X168009936Y-66802887D01*
X168011522Y-66798854D01*
X168098398Y-66589119D01*
X168166270Y-66335816D01*
X168200500Y-66075820D01*
X168200500Y-65813580D01*
X168200499Y-65813572D01*
X168999500Y-65813572D01*
X168999500Y-66075827D01*
X169009231Y-66149735D01*
X169033730Y-66335816D01*
X169101602Y-66589118D01*
X169101605Y-66589128D01*
X169201953Y-66831390D01*
X169201958Y-66831400D01*
X169333075Y-67058503D01*
X169492718Y-67266551D01*
X169492726Y-67266560D01*
X169678140Y-67451974D01*
X169678148Y-67451981D01*
X169886196Y-67611624D01*
X170113299Y-67742741D01*
X170113309Y-67742746D01*
X170355571Y-67843094D01*
X170355581Y-67843098D01*
X170608884Y-67910970D01*
X170868880Y-67945200D01*
X170868887Y-67945200D01*
X171131113Y-67945200D01*
X171131120Y-67945200D01*
X171391116Y-67910970D01*
X171644419Y-67843098D01*
X171886697Y-67742743D01*
X172113803Y-67611624D01*
X172321851Y-67451982D01*
X172321855Y-67451977D01*
X172321860Y-67451974D01*
X172507274Y-67266560D01*
X172507277Y-67266555D01*
X172507282Y-67266551D01*
X172666924Y-67058503D01*
X172798043Y-66831397D01*
X172898398Y-66589119D01*
X172966270Y-66335816D01*
X173000500Y-66075820D01*
X173000500Y-65813580D01*
X172966270Y-65553584D01*
X172898398Y-65300281D01*
X172898394Y-65300271D01*
X172798046Y-65058009D01*
X172798041Y-65057999D01*
X172666924Y-64830896D01*
X172544424Y-64671254D01*
X172507282Y-64622849D01*
X172507281Y-64622848D01*
X172507274Y-64622840D01*
X172321860Y-64437426D01*
X172321851Y-64437418D01*
X172113803Y-64277775D01*
X171886700Y-64146658D01*
X171886690Y-64146653D01*
X171644428Y-64046305D01*
X171644421Y-64046303D01*
X171644419Y-64046302D01*
X171391116Y-63978430D01*
X171333339Y-63970823D01*
X171131127Y-63944200D01*
X171131120Y-63944200D01*
X170868880Y-63944200D01*
X170868872Y-63944200D01*
X170637772Y-63974626D01*
X170608884Y-63978430D01*
X170487801Y-64010874D01*
X170355581Y-64046302D01*
X170355571Y-64046305D01*
X170113309Y-64146653D01*
X170113299Y-64146658D01*
X169886196Y-64277775D01*
X169678148Y-64437418D01*
X169492718Y-64622848D01*
X169333075Y-64830896D01*
X169201958Y-65057999D01*
X169201953Y-65058009D01*
X169101605Y-65300271D01*
X169101602Y-65300281D01*
X169039438Y-65532284D01*
X169033730Y-65553585D01*
X168999500Y-65813572D01*
X168200499Y-65813572D01*
X168166270Y-65553584D01*
X168098398Y-65300281D01*
X168098394Y-65300271D01*
X167998046Y-65058009D01*
X167998041Y-65057999D01*
X167866924Y-64830896D01*
X167744424Y-64671254D01*
X167707282Y-64622849D01*
X167707281Y-64622848D01*
X167707274Y-64622840D01*
X167521860Y-64437426D01*
X167521851Y-64437418D01*
X167313803Y-64277775D01*
X167086700Y-64146658D01*
X167086690Y-64146653D01*
X166844428Y-64046305D01*
X166844421Y-64046303D01*
X166844419Y-64046302D01*
X166591116Y-63978430D01*
X166533339Y-63970823D01*
X166331127Y-63944200D01*
X166331120Y-63944200D01*
X166068880Y-63944200D01*
X166068872Y-63944200D01*
X165837772Y-63974626D01*
X165808884Y-63978430D01*
X165687801Y-64010874D01*
X165555581Y-64046302D01*
X165555571Y-64046305D01*
X165313309Y-64146653D01*
X165313299Y-64146658D01*
X165086196Y-64277775D01*
X164878148Y-64437418D01*
X164692718Y-64622848D01*
X164533075Y-64830896D01*
X164401958Y-65057999D01*
X164401953Y-65058009D01*
X164301605Y-65300271D01*
X164301602Y-65300281D01*
X164239438Y-65532284D01*
X164233730Y-65553585D01*
X164199500Y-65813572D01*
X164199500Y-66075827D01*
X164209231Y-66149735D01*
X164233730Y-66335816D01*
X164301602Y-66589118D01*
X164301605Y-66589128D01*
X164401953Y-66831390D01*
X164401958Y-66831400D01*
X164533075Y-67058503D01*
X164692718Y-67266551D01*
X164692726Y-67266560D01*
X164878140Y-67451974D01*
X164878148Y-67451981D01*
X165086196Y-67611624D01*
X165313299Y-67742741D01*
X165313309Y-67742746D01*
X165555571Y-67843094D01*
X165555581Y-67843098D01*
X165808884Y-67910970D01*
X166068880Y-67945200D01*
X166068887Y-67945200D01*
X166331113Y-67945200D01*
X166331120Y-67945200D01*
X166591116Y-67910970D01*
X166844419Y-67843098D01*
X167054072Y-67756256D01*
X167123537Y-67748788D01*
X167186016Y-67780062D01*
X167189202Y-67783137D01*
X172375484Y-72969419D01*
X172408969Y-73030742D01*
X172403985Y-73100434D01*
X172362113Y-73156367D01*
X172296649Y-73180784D01*
X172287803Y-73181100D01*
X169817500Y-73181100D01*
X169750461Y-73161415D01*
X169704706Y-73108611D01*
X169693500Y-73057100D01*
X169693500Y-71983965D01*
X169713185Y-71916926D01*
X169714398Y-71915074D01*
X169802390Y-71783385D01*
X169802390Y-71783384D01*
X169802394Y-71783379D01*
X169862737Y-71637697D01*
X169893500Y-71483042D01*
X169893500Y-71325358D01*
X169893500Y-71325355D01*
X169893499Y-71325353D01*
X169862893Y-71171489D01*
X169862737Y-71170703D01*
X169862735Y-71170698D01*
X169802397Y-71025027D01*
X169802390Y-71025014D01*
X169714789Y-70893911D01*
X169714786Y-70893907D01*
X169603292Y-70782413D01*
X169603288Y-70782410D01*
X169472185Y-70694809D01*
X169472172Y-70694802D01*
X169326501Y-70634464D01*
X169326489Y-70634461D01*
X169171845Y-70603700D01*
X169171842Y-70603700D01*
X169014158Y-70603700D01*
X169014155Y-70603700D01*
X168859510Y-70634461D01*
X168859498Y-70634464D01*
X168713827Y-70694802D01*
X168713814Y-70694809D01*
X168582711Y-70782410D01*
X168582707Y-70782413D01*
X168471213Y-70893907D01*
X168471210Y-70893911D01*
X168383609Y-71025014D01*
X168383602Y-71025027D01*
X168323264Y-71170698D01*
X168323261Y-71170710D01*
X168292500Y-71325353D01*
X168292500Y-71483046D01*
X168323261Y-71637689D01*
X168323264Y-71637701D01*
X168383602Y-71783372D01*
X168383609Y-71783385D01*
X168471602Y-71915074D01*
X168492480Y-71981751D01*
X168492500Y-71983965D01*
X168492500Y-73807639D01*
X168492499Y-73807643D01*
X168492499Y-73965757D01*
X168492500Y-73965760D01*
X168492500Y-78082152D01*
X168472815Y-78149191D01*
X168420011Y-78194946D01*
X168392692Y-78203769D01*
X168259508Y-78230261D01*
X168259498Y-78230264D01*
X168113827Y-78290602D01*
X168113814Y-78290609D01*
X167982711Y-78378210D01*
X167982707Y-78378213D01*
X167871213Y-78489707D01*
X167871210Y-78489711D01*
X167783609Y-78620814D01*
X167783602Y-78620827D01*
X167723264Y-78766498D01*
X167723261Y-78766510D01*
X167692500Y-78921153D01*
X167692500Y-79078846D01*
X167723261Y-79233489D01*
X167723264Y-79233501D01*
X167783602Y-79379172D01*
X167783609Y-79379185D01*
X167871602Y-79510874D01*
X167892480Y-79577551D01*
X167892500Y-79579765D01*
X167892500Y-82820234D01*
X167872815Y-82887273D01*
X167871602Y-82889125D01*
X167783609Y-83020814D01*
X167783602Y-83020827D01*
X167723264Y-83166498D01*
X167723261Y-83166510D01*
X167692500Y-83321153D01*
X167692500Y-83478846D01*
X167723261Y-83633489D01*
X167723264Y-83633501D01*
X167783602Y-83779172D01*
X167783609Y-83779185D01*
X167871210Y-83910288D01*
X167871213Y-83910292D01*
X167982707Y-84021786D01*
X167982711Y-84021789D01*
X168113814Y-84109390D01*
X168113827Y-84109397D01*
X168225841Y-84155794D01*
X168259503Y-84169737D01*
X168369987Y-84191713D01*
X168392691Y-84196230D01*
X168420814Y-84210940D01*
X168449703Y-84224134D01*
X168451560Y-84227023D01*
X168454602Y-84228615D01*
X168470308Y-84256197D01*
X168487477Y-84282912D01*
X168488137Y-84287506D01*
X168489176Y-84289330D01*
X168492500Y-84317847D01*
X168492500Y-84385812D01*
X168472815Y-84452851D01*
X168456183Y-84473491D01*
X167089314Y-85840429D01*
X167027992Y-85873916D01*
X167025823Y-85874367D01*
X166870508Y-85905261D01*
X166870498Y-85905264D01*
X166724827Y-85965602D01*
X166724814Y-85965609D01*
X166600536Y-86048650D01*
X166533858Y-86069528D01*
X166466478Y-86051043D01*
X166443964Y-86033229D01*
X166265837Y-85855102D01*
X166232352Y-85793779D01*
X166237336Y-85724087D01*
X166265836Y-85679741D01*
X166344789Y-85600789D01*
X166432394Y-85469679D01*
X166492737Y-85323997D01*
X166523500Y-85169342D01*
X166523500Y-85073309D01*
X166527725Y-85041215D01*
X166529313Y-85035288D01*
X166555501Y-84937557D01*
X166555501Y-84779442D01*
X166555501Y-84771847D01*
X166555500Y-84771829D01*
X166555500Y-74693645D01*
X166555499Y-74693641D01*
X166554584Y-74690225D01*
X166554584Y-74690224D01*
X166514577Y-74540915D01*
X166478933Y-74479179D01*
X166435520Y-74403984D01*
X166323716Y-74292180D01*
X166323715Y-74292179D01*
X166319385Y-74287849D01*
X166319374Y-74287839D01*
X165885574Y-73854039D01*
X165852089Y-73792716D01*
X165851638Y-73790549D01*
X165823383Y-73648505D01*
X165820737Y-73635203D01*
X165766164Y-73503451D01*
X165760397Y-73489527D01*
X165760390Y-73489514D01*
X165672789Y-73358411D01*
X165672786Y-73358407D01*
X165561292Y-73246913D01*
X165561288Y-73246910D01*
X165430185Y-73159309D01*
X165430172Y-73159302D01*
X165284501Y-73098964D01*
X165284489Y-73098961D01*
X165129845Y-73068200D01*
X165129842Y-73068200D01*
X164972158Y-73068200D01*
X164972155Y-73068200D01*
X164817510Y-73098961D01*
X164817498Y-73098964D01*
X164671827Y-73159302D01*
X164671814Y-73159309D01*
X164540711Y-73246910D01*
X164540707Y-73246913D01*
X164429213Y-73358407D01*
X164429210Y-73358411D01*
X164341609Y-73489514D01*
X164341602Y-73489527D01*
X164281264Y-73635198D01*
X164281261Y-73635210D01*
X164250500Y-73789853D01*
X164250500Y-73947546D01*
X164281261Y-74102189D01*
X164281264Y-74102201D01*
X164341602Y-74247872D01*
X164341609Y-74247885D01*
X164429210Y-74378988D01*
X164429213Y-74378992D01*
X164540707Y-74490486D01*
X164540711Y-74490489D01*
X164671814Y-74578090D01*
X164671827Y-74578097D01*
X164817498Y-74638435D01*
X164817503Y-74638437D01*
X164882147Y-74651295D01*
X164972849Y-74669338D01*
X165034760Y-74701723D01*
X165036339Y-74703274D01*
X165318181Y-74985116D01*
X165351666Y-75046439D01*
X165354500Y-75072797D01*
X165354500Y-84307690D01*
X165354069Y-84309156D01*
X165354465Y-84310633D01*
X165344255Y-84342579D01*
X165334815Y-84374729D01*
X165333510Y-84376198D01*
X165333195Y-84377187D01*
X165328428Y-84381925D01*
X165309456Y-84403304D01*
X165304608Y-84407307D01*
X165212711Y-84468711D01*
X165129585Y-84551836D01*
X165125034Y-84555595D01*
X165098122Y-84567120D01*
X165072436Y-84581147D01*
X165066384Y-84580714D01*
X165060807Y-84583103D01*
X165031942Y-84578251D01*
X165002744Y-84576163D01*
X164996802Y-84572344D01*
X164991904Y-84571521D01*
X164983173Y-84563585D01*
X164958397Y-84547662D01*
X163451319Y-83040584D01*
X163417834Y-82979261D01*
X163415000Y-82952903D01*
X163415000Y-73324965D01*
X163434685Y-73257926D01*
X163435898Y-73256074D01*
X163523890Y-73124385D01*
X163523890Y-73124384D01*
X163523894Y-73124379D01*
X163584237Y-72978697D01*
X163615000Y-72824042D01*
X163615000Y-72666358D01*
X163615000Y-72666355D01*
X163614999Y-72666353D01*
X163586052Y-72520827D01*
X163584237Y-72511703D01*
X163581441Y-72504953D01*
X163523897Y-72366027D01*
X163523890Y-72366014D01*
X163436289Y-72234911D01*
X163436286Y-72234907D01*
X163324792Y-72123413D01*
X163324788Y-72123410D01*
X163193685Y-72035809D01*
X163193672Y-72035802D01*
X163048001Y-71975464D01*
X163047989Y-71975461D01*
X162893345Y-71944700D01*
X162893342Y-71944700D01*
X162735658Y-71944700D01*
X162735655Y-71944700D01*
X162581010Y-71975461D01*
X162580998Y-71975464D01*
X162435327Y-72035802D01*
X162435314Y-72035809D01*
X162304211Y-72123410D01*
X162304207Y-72123413D01*
X162212181Y-72215440D01*
X162150858Y-72248925D01*
X162081166Y-72243941D01*
X162025233Y-72202069D01*
X162000816Y-72136605D01*
X162000500Y-72127759D01*
X162000500Y-67944144D01*
X162020185Y-67877105D01*
X162072989Y-67831350D01*
X162077047Y-67829583D01*
X162286697Y-67742743D01*
X162513803Y-67611624D01*
X162721851Y-67451982D01*
X162721855Y-67451977D01*
X162721860Y-67451974D01*
X162907274Y-67266560D01*
X162907277Y-67266555D01*
X162907282Y-67266551D01*
X163066924Y-67058503D01*
X163198043Y-66831397D01*
X163298398Y-66589119D01*
X163366270Y-66335816D01*
X163400500Y-66075820D01*
X163400500Y-65813580D01*
X163366270Y-65553584D01*
X163298398Y-65300281D01*
X163298394Y-65300271D01*
X163198046Y-65058009D01*
X163198041Y-65057999D01*
X163066924Y-64830896D01*
X162944424Y-64671254D01*
X162907282Y-64622849D01*
X162907281Y-64622848D01*
X162907274Y-64622840D01*
X162721860Y-64437426D01*
X162721851Y-64437418D01*
X162513803Y-64277775D01*
X162286700Y-64146658D01*
X162286690Y-64146653D01*
X162044428Y-64046305D01*
X162044421Y-64046303D01*
X162044419Y-64046302D01*
X161791116Y-63978430D01*
X161733339Y-63970823D01*
X161531127Y-63944200D01*
X161531120Y-63944200D01*
X161268880Y-63944200D01*
X161268872Y-63944200D01*
X161037772Y-63974626D01*
X161008884Y-63978430D01*
X160887801Y-64010874D01*
X160755581Y-64046302D01*
X160755571Y-64046305D01*
X160513309Y-64146653D01*
X160513299Y-64146658D01*
X160286196Y-64277775D01*
X160078148Y-64437418D01*
X159892718Y-64622848D01*
X159733075Y-64830896D01*
X159601958Y-65057999D01*
X159601953Y-65058009D01*
X159501605Y-65300271D01*
X159501602Y-65300281D01*
X159439438Y-65532284D01*
X159433730Y-65553585D01*
X159399500Y-65813572D01*
X159399500Y-66075827D01*
X159409231Y-66149735D01*
X159433730Y-66335816D01*
X159501602Y-66589118D01*
X159501605Y-66589128D01*
X159601953Y-66831390D01*
X159601958Y-66831400D01*
X159733075Y-67058503D01*
X159892718Y-67266551D01*
X159892726Y-67266560D01*
X160078140Y-67451974D01*
X160078148Y-67451981D01*
X160286196Y-67611624D01*
X160513299Y-67742741D01*
X160513300Y-67742741D01*
X160513303Y-67742743D01*
X160610823Y-67783137D01*
X160722953Y-67829583D01*
X160777356Y-67873424D01*
X160799421Y-67939718D01*
X160799500Y-67944144D01*
X160799500Y-86921211D01*
X160790851Y-86950665D01*
X160784319Y-86980661D01*
X160780575Y-86985659D01*
X160779815Y-86988250D01*
X160763162Y-87008911D01*
X160684538Y-87087501D01*
X160623208Y-87120973D01*
X160621068Y-87121418D01*
X160465508Y-87152361D01*
X160465498Y-87152364D01*
X160381252Y-87187260D01*
X160311783Y-87194729D01*
X160249304Y-87163453D01*
X160213652Y-87103364D01*
X160209800Y-87072699D01*
X160209800Y-79712065D01*
X160229485Y-79645026D01*
X160230698Y-79643174D01*
X160242655Y-79625280D01*
X160318694Y-79511479D01*
X160379037Y-79365797D01*
X160409800Y-79211142D01*
X160409800Y-79053458D01*
X160409800Y-79053455D01*
X160409799Y-79053453D01*
X160379037Y-78898803D01*
X160338319Y-78800500D01*
X160318697Y-78753127D01*
X160318690Y-78753114D01*
X160231089Y-78622011D01*
X160231086Y-78622007D01*
X160119592Y-78510513D01*
X160119588Y-78510510D01*
X159988485Y-78422909D01*
X159988472Y-78422902D01*
X159842801Y-78362564D01*
X159842789Y-78362561D01*
X159688145Y-78331800D01*
X159688142Y-78331800D01*
X159530458Y-78331800D01*
X159530455Y-78331800D01*
X159375810Y-78362561D01*
X159375798Y-78362564D01*
X159230127Y-78422902D01*
X159230114Y-78422909D01*
X159099011Y-78510510D01*
X159099007Y-78510513D01*
X158987513Y-78622007D01*
X158987510Y-78622011D01*
X158899909Y-78753114D01*
X158899902Y-78753127D01*
X158839564Y-78898798D01*
X158839561Y-78898810D01*
X158808800Y-79053453D01*
X158808800Y-79211146D01*
X158839561Y-79365789D01*
X158839564Y-79365801D01*
X158899902Y-79511472D01*
X158899909Y-79511485D01*
X158987902Y-79643174D01*
X159008780Y-79709851D01*
X159008800Y-79712065D01*
X159008800Y-81023391D01*
X158989115Y-81090430D01*
X158936311Y-81136185D01*
X158908992Y-81145008D01*
X158758408Y-81174961D01*
X158758398Y-81174964D01*
X158612727Y-81235302D01*
X158612714Y-81235309D01*
X158481611Y-81322910D01*
X158481607Y-81322913D01*
X158370113Y-81434407D01*
X158370110Y-81434411D01*
X158282509Y-81565514D01*
X158282502Y-81565527D01*
X158222164Y-81711198D01*
X158222161Y-81711210D01*
X158191400Y-81865853D01*
X158191400Y-82023546D01*
X158222161Y-82178189D01*
X158222164Y-82178201D01*
X158282502Y-82323872D01*
X158282509Y-82323885D01*
X158370502Y-82455574D01*
X158391380Y-82522251D01*
X158391400Y-82524465D01*
X158391400Y-89483330D01*
X158391399Y-89483348D01*
X158391399Y-89649056D01*
X158406617Y-89705852D01*
X158404954Y-89775702D01*
X158365791Y-89833565D01*
X158301562Y-89861068D01*
X158232660Y-89849481D01*
X158199161Y-89825626D01*
X155653574Y-87280039D01*
X155620089Y-87218716D01*
X155619638Y-87216549D01*
X155593968Y-87087501D01*
X155588737Y-87061203D01*
X155573138Y-87023544D01*
X155528397Y-86915527D01*
X155528390Y-86915514D01*
X155440789Y-86784411D01*
X155440786Y-86784407D01*
X155329292Y-86672913D01*
X155329288Y-86672910D01*
X155198185Y-86585309D01*
X155198172Y-86585302D01*
X155052501Y-86524964D01*
X155052489Y-86524961D01*
X154897845Y-86494200D01*
X154897842Y-86494200D01*
X154740158Y-86494200D01*
X154740155Y-86494200D01*
X154585510Y-86524961D01*
X154585498Y-86524964D01*
X154439827Y-86585302D01*
X154439814Y-86585309D01*
X154308711Y-86672910D01*
X154235234Y-86746387D01*
X154173910Y-86779871D01*
X154104219Y-86774886D01*
X154059870Y-86746385D01*
X154022883Y-86709397D01*
X153288300Y-85974789D01*
X152973575Y-85660053D01*
X152940091Y-85598729D01*
X152939641Y-85596564D01*
X152908738Y-85441210D01*
X152908737Y-85441203D01*
X152904845Y-85431807D01*
X152848397Y-85295527D01*
X152848390Y-85295514D01*
X152760789Y-85164411D01*
X152760786Y-85164407D01*
X152649292Y-85052913D01*
X152649288Y-85052910D01*
X152518185Y-84965309D01*
X152518172Y-84965302D01*
X152372501Y-84904964D01*
X152372489Y-84904961D01*
X152217845Y-84874200D01*
X152217842Y-84874200D01*
X152060158Y-84874200D01*
X152060155Y-84874200D01*
X151905510Y-84904961D01*
X151905498Y-84904964D01*
X151759827Y-84965302D01*
X151759814Y-84965309D01*
X151628711Y-85052910D01*
X151628707Y-85052913D01*
X151517213Y-85164407D01*
X151517210Y-85164411D01*
X151429609Y-85295514D01*
X151429602Y-85295527D01*
X151369264Y-85441198D01*
X151369261Y-85441210D01*
X151338500Y-85595853D01*
X151338500Y-85753546D01*
X151369261Y-85908189D01*
X151369263Y-85908197D01*
X151429602Y-86053872D01*
X151429609Y-86053885D01*
X151517210Y-86184988D01*
X151517213Y-86184992D01*
X151628707Y-86296486D01*
X151628711Y-86296489D01*
X151759814Y-86384090D01*
X151759827Y-86384097D01*
X151829901Y-86413122D01*
X151905503Y-86444437D01*
X152021939Y-86467597D01*
X152060831Y-86475334D01*
X152122742Y-86507719D01*
X152124315Y-86509263D01*
X160528183Y-94913411D01*
X160561667Y-94974734D01*
X160564500Y-95001090D01*
X160564500Y-105161704D01*
X160544815Y-105228743D01*
X160492011Y-105274498D01*
X160422853Y-105284442D01*
X160371609Y-105264806D01*
X160274185Y-105199709D01*
X160274172Y-105199702D01*
X160128501Y-105139364D01*
X160128489Y-105139361D01*
X159973845Y-105108600D01*
X159973842Y-105108600D01*
X159816158Y-105108600D01*
X159816155Y-105108600D01*
X159661510Y-105139361D01*
X159661498Y-105139364D01*
X159515827Y-105199702D01*
X159515814Y-105199709D01*
X159418391Y-105264806D01*
X159351713Y-105285684D01*
X159284333Y-105267199D01*
X159237643Y-105215221D01*
X159225500Y-105161704D01*
X159225500Y-103122860D01*
X159225501Y-103122847D01*
X159225501Y-102954744D01*
X159222045Y-102941845D01*
X159184577Y-102802016D01*
X159184575Y-102802013D01*
X159184575Y-102802011D01*
X159184573Y-102802009D01*
X159105524Y-102665090D01*
X159105518Y-102665082D01*
X156112860Y-99672425D01*
X156080767Y-99616839D01*
X156072577Y-99586272D01*
X155993520Y-99449341D01*
X155797763Y-99253584D01*
X155764278Y-99192261D01*
X155761444Y-99165903D01*
X155761444Y-99081888D01*
X155761444Y-99081886D01*
X155720520Y-98929158D01*
X155659558Y-98823569D01*
X155641463Y-98792227D01*
X155529659Y-98680423D01*
X155529656Y-98680421D01*
X149878446Y-93029211D01*
X149844961Y-92967888D01*
X149849945Y-92898196D01*
X149891817Y-92842263D01*
X149897211Y-92838445D01*
X150010289Y-92762889D01*
X150121789Y-92651389D01*
X150209394Y-92520279D01*
X150269737Y-92374597D01*
X150300500Y-92219942D01*
X150300500Y-92062258D01*
X150300500Y-92062255D01*
X150300499Y-92062253D01*
X150281457Y-91966524D01*
X150269737Y-91907603D01*
X150246079Y-91850486D01*
X150209397Y-91761927D01*
X150209390Y-91761914D01*
X150121789Y-91630811D01*
X150121786Y-91630807D01*
X150010292Y-91519313D01*
X150010288Y-91519310D01*
X149879185Y-91431709D01*
X149879172Y-91431702D01*
X149733501Y-91371364D01*
X149733489Y-91371361D01*
X149578845Y-91340600D01*
X149578842Y-91340600D01*
X149453330Y-91340600D01*
X149386291Y-91320915D01*
X149365649Y-91304281D01*
X147986819Y-89925451D01*
X147953334Y-89864128D01*
X147950500Y-89837770D01*
X147950500Y-85626079D01*
X147921659Y-85481092D01*
X147921658Y-85481091D01*
X147921658Y-85481087D01*
X147911208Y-85455858D01*
X147865087Y-85344511D01*
X147865080Y-85344498D01*
X147782952Y-85221585D01*
X147730709Y-85169342D01*
X147678416Y-85117049D01*
X147516971Y-84955604D01*
X146978421Y-84417052D01*
X146978414Y-84417046D01*
X146904729Y-84367812D01*
X146904729Y-84367813D01*
X146855491Y-84334913D01*
X146718917Y-84278343D01*
X146718907Y-84278340D01*
X146573920Y-84249500D01*
X146573918Y-84249500D01*
X146388298Y-84249500D01*
X146321259Y-84229815D01*
X146275504Y-84177011D01*
X146265560Y-84107853D01*
X146266681Y-84101308D01*
X146277500Y-84046920D01*
X146277500Y-74012479D01*
X146248659Y-73867492D01*
X146248658Y-73867491D01*
X146248658Y-73867487D01*
X146225513Y-73811609D01*
X146192087Y-73730911D01*
X146192080Y-73730898D01*
X146109951Y-73607984D01*
X146109948Y-73607980D01*
X146005419Y-73503451D01*
X146005415Y-73503448D01*
X145882501Y-73421319D01*
X145882488Y-73421312D01*
X145745915Y-73364742D01*
X145745907Y-73364740D01*
X145668789Y-73349400D01*
X145606878Y-73317015D01*
X145605300Y-73315464D01*
X145194935Y-72905100D01*
X145161450Y-72843777D01*
X145161000Y-72841617D01*
X145157504Y-72824046D01*
X145145645Y-72764443D01*
X145089062Y-72627865D01*
X145089059Y-72627860D01*
X145089058Y-72627858D01*
X145006928Y-72504956D01*
X145006926Y-72504953D01*
X144631312Y-72129385D01*
X142736057Y-70234364D01*
X142709172Y-70194128D01*
X142699396Y-70170525D01*
X142699393Y-70170520D01*
X142611789Y-70039410D01*
X142500292Y-69927913D01*
X142500288Y-69927910D01*
X142369185Y-69840309D01*
X142369172Y-69840302D01*
X142223501Y-69779964D01*
X142223489Y-69779961D01*
X142068845Y-69749200D01*
X142068842Y-69749200D01*
X141911158Y-69749200D01*
X141911155Y-69749200D01*
X141756510Y-69779961D01*
X141756498Y-69779964D01*
X141610827Y-69840302D01*
X141610814Y-69840309D01*
X141479711Y-69927910D01*
X141479707Y-69927913D01*
X141368213Y-70039407D01*
X141368210Y-70039411D01*
X141280609Y-70170514D01*
X141280602Y-70170527D01*
X141220264Y-70316198D01*
X141220261Y-70316210D01*
X141189500Y-70470853D01*
X141189500Y-70628546D01*
X141220261Y-70783189D01*
X141220264Y-70783201D01*
X141280602Y-70928872D01*
X141280609Y-70928885D01*
X141368210Y-71059988D01*
X141368213Y-71059992D01*
X141479707Y-71171486D01*
X141479711Y-71171489D01*
X141610817Y-71259092D01*
X141610819Y-71259092D01*
X141610821Y-71259094D01*
X141630445Y-71267222D01*
X141634519Y-71268910D01*
X141674743Y-71295784D01*
X143626110Y-73246910D01*
X143945620Y-73566381D01*
X144068547Y-73648506D01*
X144148565Y-73681645D01*
X144205131Y-73705072D01*
X144250230Y-73714039D01*
X144282202Y-73720397D01*
X144344115Y-73752778D01*
X144345700Y-73754335D01*
X144740181Y-74148816D01*
X144773666Y-74210139D01*
X144776500Y-74236497D01*
X144776500Y-83610769D01*
X144756815Y-83677808D01*
X144740181Y-83698450D01*
X142917052Y-85521578D01*
X142917049Y-85521581D01*
X142882436Y-85573383D01*
X142882437Y-85573384D01*
X142834914Y-85644508D01*
X142778343Y-85781082D01*
X142778340Y-85781092D01*
X142749500Y-85926079D01*
X142749500Y-85926082D01*
X142749500Y-102511843D01*
X142749500Y-102511845D01*
X142749499Y-102511845D01*
X142778340Y-102656832D01*
X142778343Y-102656842D01*
X142834912Y-102793412D01*
X142834916Y-102793420D01*
X142840660Y-102802016D01*
X142917048Y-102916341D01*
X142921300Y-102920593D01*
X142927882Y-102930272D01*
X142935149Y-102952837D01*
X142946510Y-102973642D01*
X142945663Y-102985480D01*
X142949302Y-102996778D01*
X142943217Y-103019687D01*
X142941526Y-103043334D01*
X142933703Y-103055505D01*
X142931366Y-103064306D01*
X142923334Y-103071639D01*
X142919426Y-103077720D01*
X142920917Y-103078944D01*
X142917049Y-103083656D01*
X142876200Y-103144791D01*
X142876201Y-103144792D01*
X142834914Y-103206583D01*
X142778343Y-103343157D01*
X142778340Y-103343167D01*
X142749500Y-103488154D01*
X142749500Y-112167114D01*
X142729815Y-112234153D01*
X142681802Y-112277595D01*
X142677183Y-112279948D01*
X142505213Y-112404890D01*
X142354890Y-112555213D01*
X142229949Y-112727182D01*
X142225484Y-112735946D01*
X142177509Y-112786742D01*
X142109688Y-112803536D01*
X142043553Y-112780998D01*
X142004516Y-112735946D01*
X142000050Y-112727182D01*
X141875109Y-112555213D01*
X141724786Y-112404890D01*
X141552815Y-112279948D01*
X141552814Y-112279947D01*
X141513205Y-112259765D01*
X141462409Y-112211791D01*
X141445500Y-112149281D01*
X141445500Y-111635945D01*
X141445500Y-111635943D01*
X141418916Y-111536728D01*
X141404577Y-111483215D01*
X141370999Y-111425057D01*
X141370999Y-111425056D01*
X141325522Y-111346287D01*
X141325521Y-111346286D01*
X141325520Y-111346284D01*
X141213716Y-111234480D01*
X141213715Y-111234479D01*
X141209385Y-111230149D01*
X141209374Y-111230139D01*
X138347819Y-108368584D01*
X138314334Y-108307261D01*
X138311500Y-108280903D01*
X138311500Y-101734097D01*
X138331185Y-101667058D01*
X138383989Y-101621303D01*
X138453147Y-101611359D01*
X138516703Y-101640384D01*
X138523181Y-101646416D01*
X139225534Y-102348769D01*
X139259019Y-102410092D01*
X139254035Y-102479784D01*
X139248339Y-102492743D01*
X139205128Y-102577551D01*
X139151597Y-102742302D01*
X139124500Y-102913389D01*
X139124500Y-103086610D01*
X139143501Y-103206583D01*
X139151598Y-103257701D01*
X139205127Y-103422445D01*
X139283768Y-103576788D01*
X139385586Y-103716928D01*
X139508072Y-103839414D01*
X139648212Y-103941232D01*
X139802555Y-104019873D01*
X139967299Y-104073402D01*
X140138389Y-104100500D01*
X140138390Y-104100500D01*
X140861610Y-104100500D01*
X140861611Y-104100500D01*
X141032701Y-104073402D01*
X141197445Y-104019873D01*
X141351788Y-103941232D01*
X141491928Y-103839414D01*
X141614414Y-103716928D01*
X141716232Y-103576788D01*
X141794873Y-103422445D01*
X141848402Y-103257701D01*
X141875500Y-103086611D01*
X141875500Y-102913389D01*
X141848402Y-102742299D01*
X141794873Y-102577555D01*
X141716232Y-102423212D01*
X141614414Y-102283072D01*
X141506508Y-102175166D01*
X141473023Y-102113843D01*
X141478007Y-102044151D01*
X141519879Y-101988218D01*
X141529094Y-101981945D01*
X141593345Y-101942315D01*
X141717315Y-101818345D01*
X141809356Y-101669124D01*
X141809358Y-101669119D01*
X141864505Y-101502697D01*
X141864506Y-101502690D01*
X141874999Y-101399986D01*
X141875000Y-101399973D01*
X141875000Y-101250000D01*
X140780330Y-101250000D01*
X140800075Y-101230255D01*
X140849444Y-101144745D01*
X140875000Y-101049370D01*
X140875000Y-100950630D01*
X140849444Y-100855255D01*
X140800075Y-100769745D01*
X140780330Y-100750000D01*
X141874999Y-100750000D01*
X141874999Y-100600028D01*
X141874998Y-100600013D01*
X141864505Y-100497302D01*
X141809358Y-100330880D01*
X141809356Y-100330875D01*
X141717315Y-100181654D01*
X141593345Y-100057684D01*
X141444124Y-99965643D01*
X141444119Y-99965641D01*
X141277697Y-99910494D01*
X141277690Y-99910493D01*
X141174986Y-99900000D01*
X140750000Y-99900000D01*
X140750000Y-100719670D01*
X140730255Y-100699925D01*
X140644745Y-100650556D01*
X140549370Y-100625000D01*
X140450630Y-100625000D01*
X140355255Y-100650556D01*
X140269745Y-100699925D01*
X140250000Y-100719670D01*
X140250000Y-99900000D01*
X139825028Y-99900000D01*
X139825012Y-99900001D01*
X139722302Y-99910494D01*
X139555880Y-99965641D01*
X139555875Y-99965643D01*
X139406654Y-100057684D01*
X139282684Y-100181654D01*
X139190643Y-100330875D01*
X139190641Y-100330880D01*
X139183058Y-100353764D01*
X139181704Y-100355718D01*
X139181535Y-100358090D01*
X139161916Y-100384297D01*
X139143283Y-100411207D01*
X139141087Y-100412119D01*
X139139663Y-100414023D01*
X139108984Y-100425465D01*
X139078766Y-100438028D01*
X139076426Y-100437609D01*
X139074199Y-100438440D01*
X139042209Y-100431481D01*
X139009991Y-100425711D01*
X139007526Y-100423936D01*
X139005926Y-100423588D01*
X138977672Y-100402437D01*
X138913819Y-100338584D01*
X138880334Y-100277261D01*
X138877500Y-100250903D01*
X138877500Y-94343375D01*
X138877532Y-94342872D01*
X138877529Y-94335035D01*
X138877530Y-94335033D01*
X138877500Y-94253409D01*
X138877500Y-94177143D01*
X138877473Y-94177041D01*
X138877473Y-94176943D01*
X138877471Y-94176925D01*
X138877471Y-94176919D01*
X138856791Y-94099857D01*
X138836577Y-94024416D01*
X138836519Y-94024315D01*
X138836490Y-94024207D01*
X138797509Y-93956748D01*
X138757520Y-93887484D01*
X138757517Y-93887481D01*
X138757386Y-93887310D01*
X138757383Y-93887307D01*
X138757382Y-93887305D01*
X138702518Y-93832482D01*
X138645716Y-93775680D01*
X138640301Y-93770265D01*
X138639916Y-93769926D01*
X138511850Y-93641956D01*
X138478344Y-93580646D01*
X138475500Y-93554243D01*
X138475500Y-86211711D01*
X138495185Y-86144672D01*
X138547989Y-86098917D01*
X138617147Y-86088973D01*
X138680703Y-86117998D01*
X138718477Y-86176776D01*
X138721117Y-86187520D01*
X138730261Y-86233489D01*
X138730264Y-86233501D01*
X138790602Y-86379172D01*
X138790609Y-86379185D01*
X138878210Y-86510288D01*
X138878213Y-86510292D01*
X138989707Y-86621786D01*
X138989711Y-86621789D01*
X139120814Y-86709390D01*
X139120827Y-86709397D01*
X139266498Y-86769735D01*
X139266503Y-86769737D01*
X139421153Y-86800499D01*
X139421156Y-86800500D01*
X139421158Y-86800500D01*
X139578844Y-86800500D01*
X139578845Y-86800499D01*
X139733497Y-86769737D01*
X139879179Y-86709394D01*
X140010289Y-86621789D01*
X140121789Y-86510289D01*
X140209394Y-86379179D01*
X140269737Y-86233497D01*
X140300500Y-86078842D01*
X140300500Y-86078840D01*
X140300637Y-86078152D01*
X140333021Y-86016241D01*
X140334495Y-86014740D01*
X140381520Y-85967716D01*
X140382737Y-85965609D01*
X140411776Y-85915310D01*
X140460577Y-85830784D01*
X140501501Y-85678057D01*
X140501501Y-85519942D01*
X140501501Y-85512347D01*
X140501500Y-85512329D01*
X140501500Y-68987153D01*
X158793600Y-68987153D01*
X158793600Y-69144846D01*
X158824361Y-69299489D01*
X158824364Y-69299501D01*
X158884702Y-69445172D01*
X158884709Y-69445185D01*
X158972702Y-69576874D01*
X158993580Y-69643551D01*
X158993600Y-69645765D01*
X158993600Y-75594934D01*
X158973915Y-75661973D01*
X158972702Y-75663825D01*
X158884709Y-75795514D01*
X158884702Y-75795527D01*
X158824364Y-75941198D01*
X158824361Y-75941210D01*
X158793600Y-76095853D01*
X158793600Y-76253546D01*
X158824361Y-76408189D01*
X158824364Y-76408201D01*
X158884702Y-76553872D01*
X158884709Y-76553885D01*
X158972310Y-76684988D01*
X158972313Y-76684992D01*
X159083807Y-76796486D01*
X159083811Y-76796489D01*
X159214914Y-76884090D01*
X159214927Y-76884097D01*
X159360598Y-76944435D01*
X159360603Y-76944437D01*
X159515253Y-76975199D01*
X159515256Y-76975200D01*
X159515258Y-76975200D01*
X159672944Y-76975200D01*
X159672945Y-76975199D01*
X159827597Y-76944437D01*
X159973279Y-76884094D01*
X160104389Y-76796489D01*
X160215889Y-76684989D01*
X160303494Y-76553879D01*
X160363837Y-76408197D01*
X160394600Y-76253542D01*
X160394600Y-76095858D01*
X160394600Y-76095855D01*
X160394599Y-76095853D01*
X160375426Y-75999464D01*
X160363837Y-75941203D01*
X160348799Y-75904897D01*
X160303497Y-75795527D01*
X160303490Y-75795514D01*
X160215498Y-75663825D01*
X160194620Y-75597147D01*
X160194600Y-75594934D01*
X160194600Y-69645765D01*
X160214285Y-69578726D01*
X160215498Y-69576874D01*
X160303490Y-69445185D01*
X160303490Y-69445184D01*
X160303494Y-69445179D01*
X160363837Y-69299497D01*
X160394600Y-69144842D01*
X160394600Y-68987158D01*
X160394600Y-68987155D01*
X160394599Y-68987153D01*
X160363838Y-68832510D01*
X160363837Y-68832503D01*
X160363835Y-68832498D01*
X160303497Y-68686827D01*
X160303490Y-68686814D01*
X160215889Y-68555711D01*
X160215886Y-68555707D01*
X160104392Y-68444213D01*
X160104388Y-68444210D01*
X159973285Y-68356609D01*
X159973272Y-68356602D01*
X159827601Y-68296264D01*
X159827589Y-68296261D01*
X159672945Y-68265500D01*
X159672942Y-68265500D01*
X159515258Y-68265500D01*
X159515255Y-68265500D01*
X159360610Y-68296261D01*
X159360598Y-68296264D01*
X159214927Y-68356602D01*
X159214914Y-68356609D01*
X159083811Y-68444210D01*
X159083807Y-68444213D01*
X158972313Y-68555707D01*
X158972310Y-68555711D01*
X158884709Y-68686814D01*
X158884702Y-68686827D01*
X158824364Y-68832498D01*
X158824361Y-68832510D01*
X158793600Y-68987153D01*
X140501500Y-68987153D01*
X140501500Y-65990059D01*
X140501501Y-65990046D01*
X140501501Y-65821945D01*
X140501501Y-65821943D01*
X140460577Y-65669215D01*
X140431639Y-65619095D01*
X140381520Y-65532284D01*
X140269716Y-65420480D01*
X140269715Y-65420479D01*
X140265385Y-65416149D01*
X140265374Y-65416139D01*
X138487590Y-63638355D01*
X138487588Y-63638352D01*
X138368717Y-63519481D01*
X138368716Y-63519480D01*
X138281904Y-63469360D01*
X138281904Y-63469359D01*
X138281900Y-63469358D01*
X138231785Y-63440423D01*
X138079057Y-63399499D01*
X137920943Y-63399499D01*
X137913347Y-63399499D01*
X137913331Y-63399500D01*
X131079766Y-63399500D01*
X131012727Y-63379815D01*
X131010875Y-63378602D01*
X130879185Y-63290609D01*
X130879172Y-63290602D01*
X130733501Y-63230264D01*
X130733489Y-63230261D01*
X130578845Y-63199500D01*
X130578842Y-63199500D01*
X130421158Y-63199500D01*
X130421155Y-63199500D01*
X130266510Y-63230261D01*
X130266498Y-63230264D01*
X130120827Y-63290602D01*
X130120814Y-63290609D01*
X129989711Y-63378210D01*
X129989707Y-63378213D01*
X129878213Y-63489707D01*
X129878210Y-63489711D01*
X129790609Y-63620814D01*
X129790602Y-63620827D01*
X129730264Y-63766498D01*
X129730261Y-63766510D01*
X129699500Y-63921153D01*
X129699500Y-64078846D01*
X129730261Y-64233489D01*
X129730264Y-64233501D01*
X129790602Y-64379172D01*
X129790609Y-64379185D01*
X129878210Y-64510288D01*
X129878213Y-64510292D01*
X129989707Y-64621786D01*
X129989711Y-64621789D01*
X130120814Y-64709390D01*
X130120827Y-64709397D01*
X130266498Y-64769735D01*
X130266503Y-64769737D01*
X130421153Y-64800499D01*
X130421156Y-64800500D01*
X130421158Y-64800500D01*
X130578844Y-64800500D01*
X130578845Y-64800499D01*
X130733497Y-64769737D01*
X130879179Y-64709394D01*
X130879185Y-64709390D01*
X131010875Y-64621398D01*
X131077553Y-64600520D01*
X131079766Y-64600500D01*
X137699903Y-64600500D01*
X137766942Y-64620185D01*
X137787584Y-64636819D01*
X139264181Y-66113416D01*
X139297666Y-66174739D01*
X139300500Y-66201097D01*
X139300500Y-85133326D01*
X139280815Y-85200365D01*
X139228011Y-85246120D01*
X139223953Y-85247887D01*
X139120824Y-85290604D01*
X139120814Y-85290609D01*
X138989711Y-85378210D01*
X138989707Y-85378213D01*
X138878213Y-85489707D01*
X138878210Y-85489711D01*
X138790609Y-85620814D01*
X138790602Y-85620827D01*
X138730264Y-85766498D01*
X138730261Y-85766508D01*
X138721117Y-85812480D01*
X138688732Y-85874391D01*
X138628016Y-85908965D01*
X138558246Y-85905224D01*
X138501575Y-85864358D01*
X138475993Y-85799340D01*
X138475500Y-85788288D01*
X138475500Y-84038981D01*
X138479515Y-84023784D01*
X138478794Y-84010588D01*
X138491417Y-83978735D01*
X138491683Y-83977731D01*
X138491889Y-83977366D01*
X138523577Y-83922484D01*
X138523709Y-83921988D01*
X138523966Y-83921543D01*
X138544168Y-83845635D01*
X138564500Y-83769757D01*
X138564500Y-83769748D01*
X138564579Y-83769155D01*
X138564579Y-83769153D01*
X138564632Y-83768753D01*
X138564500Y-83690284D01*
X138564500Y-80886200D01*
X138564503Y-80798361D01*
X138564500Y-80798349D01*
X138564500Y-80798343D01*
X138544741Y-80724600D01*
X138524253Y-80648131D01*
X138523682Y-80645799D01*
X138523577Y-80645617D01*
X138523577Y-80645616D01*
X138468102Y-80549529D01*
X138444965Y-80509452D01*
X138444563Y-80508741D01*
X138444520Y-80508684D01*
X138421706Y-80485870D01*
X138378613Y-80442777D01*
X138031474Y-80095616D01*
X132094644Y-74158412D01*
X132088525Y-74152293D01*
X132088520Y-74152284D01*
X132024405Y-74088169D01*
X131976731Y-74040492D01*
X131976730Y-74040491D01*
X131976728Y-74040489D01*
X131976709Y-74040475D01*
X131897387Y-73994679D01*
X131897386Y-73994679D01*
X131897302Y-73994631D01*
X131896947Y-73994426D01*
X131839802Y-73961431D01*
X131839794Y-73961428D01*
X131839784Y-73961423D01*
X131838751Y-73961146D01*
X131762396Y-73940687D01*
X131762393Y-73940685D01*
X131762393Y-73940686D01*
X131728744Y-73931668D01*
X131687076Y-73920502D01*
X131687064Y-73920501D01*
X131687057Y-73920500D01*
X131623830Y-73920500D01*
X131623391Y-73920499D01*
X131623288Y-73920499D01*
X131542216Y-73920497D01*
X131528962Y-73920497D01*
X131528961Y-73920497D01*
X131520721Y-73920497D01*
X131520677Y-73920500D01*
X127071766Y-73920500D01*
X127004727Y-73900815D01*
X127002875Y-73899602D01*
X126871185Y-73811609D01*
X126871172Y-73811602D01*
X126725501Y-73751264D01*
X126725489Y-73751261D01*
X126570845Y-73720500D01*
X126570842Y-73720500D01*
X126413158Y-73720500D01*
X126413155Y-73720500D01*
X126258510Y-73751261D01*
X126258498Y-73751264D01*
X126112827Y-73811602D01*
X126112814Y-73811609D01*
X125981711Y-73899210D01*
X125981707Y-73899213D01*
X125870213Y-74010707D01*
X125870210Y-74010711D01*
X125782609Y-74141814D01*
X125782602Y-74141827D01*
X125722264Y-74287498D01*
X125722261Y-74287510D01*
X125691500Y-74442153D01*
X125691500Y-74599846D01*
X125722261Y-74754489D01*
X125722264Y-74754501D01*
X125782602Y-74900172D01*
X125782609Y-74900185D01*
X125870210Y-75031288D01*
X125870213Y-75031292D01*
X125981707Y-75142786D01*
X125981711Y-75142789D01*
X126112814Y-75230390D01*
X126112827Y-75230397D01*
X126218926Y-75274344D01*
X126258503Y-75290737D01*
X126413153Y-75321499D01*
X126413156Y-75321500D01*
X126413158Y-75321500D01*
X126570844Y-75321500D01*
X126570845Y-75321499D01*
X126725497Y-75290737D01*
X126871179Y-75230394D01*
X126979791Y-75157822D01*
X127002875Y-75142398D01*
X127069553Y-75121520D01*
X127071766Y-75121500D01*
X131307889Y-75121500D01*
X131374928Y-75141185D01*
X131395571Y-75157820D01*
X136036167Y-79798709D01*
X136063911Y-79826454D01*
X136097394Y-79887778D01*
X136092407Y-79957469D01*
X136063914Y-80001808D01*
X136060209Y-80005512D01*
X136060208Y-80005514D01*
X135972609Y-80136614D01*
X135972602Y-80136627D01*
X135912264Y-80282298D01*
X135912261Y-80282308D01*
X135881256Y-80438179D01*
X135848871Y-80500090D01*
X135788155Y-80534664D01*
X135783831Y-80535604D01*
X135684508Y-80555361D01*
X135684498Y-80555364D01*
X135538827Y-80615702D01*
X135538814Y-80615709D01*
X135407711Y-80703310D01*
X135407707Y-80703313D01*
X135296213Y-80814807D01*
X135296210Y-80814811D01*
X135208609Y-80945914D01*
X135208602Y-80945927D01*
X135148264Y-81091598D01*
X135148261Y-81091610D01*
X135117500Y-81246253D01*
X135117500Y-81403946D01*
X135148261Y-81558589D01*
X135148264Y-81558601D01*
X135208602Y-81704272D01*
X135208609Y-81704285D01*
X135296602Y-81835974D01*
X135317480Y-81902651D01*
X135317500Y-81904865D01*
X135317500Y-89375055D01*
X135297815Y-89442094D01*
X135245011Y-89487849D01*
X135175853Y-89497793D01*
X135112297Y-89468768D01*
X135105814Y-89462731D01*
X131328814Y-85685303D01*
X131295332Y-85623978D01*
X131292500Y-85597627D01*
X131292500Y-82066465D01*
X131312185Y-81999426D01*
X131313398Y-81997574D01*
X131401390Y-81865885D01*
X131401390Y-81865884D01*
X131401394Y-81865879D01*
X131402561Y-81863063D01*
X131461735Y-81720201D01*
X131461737Y-81720197D01*
X131492500Y-81565542D01*
X131492500Y-81407858D01*
X131492500Y-81407855D01*
X131492499Y-81407853D01*
X131475603Y-81322911D01*
X131461737Y-81253203D01*
X131429329Y-81174963D01*
X131401397Y-81107527D01*
X131401390Y-81107514D01*
X131313789Y-80976411D01*
X131313786Y-80976407D01*
X131202292Y-80864913D01*
X131202288Y-80864910D01*
X131071185Y-80777309D01*
X131071172Y-80777302D01*
X130925501Y-80716964D01*
X130925489Y-80716961D01*
X130770845Y-80686200D01*
X130770842Y-80686200D01*
X130743500Y-80686200D01*
X130676461Y-80666515D01*
X130630706Y-80613711D01*
X130619500Y-80562200D01*
X130619500Y-80429255D01*
X130619499Y-80429253D01*
X130588737Y-80274603D01*
X130550917Y-80183297D01*
X130528397Y-80128927D01*
X130528390Y-80128914D01*
X130440789Y-79997811D01*
X130440786Y-79997807D01*
X130329292Y-79886313D01*
X130329288Y-79886310D01*
X130198185Y-79798709D01*
X130198172Y-79798702D01*
X130052501Y-79738364D01*
X130052491Y-79738361D01*
X129897219Y-79707475D01*
X129835308Y-79675090D01*
X129833724Y-79673534D01*
X128782744Y-78622418D01*
X128776531Y-78616204D01*
X128776520Y-78616184D01*
X128710582Y-78550246D01*
X128710579Y-78550243D01*
X128710578Y-78550241D01*
X128664748Y-78504406D01*
X128664721Y-78504385D01*
X128664716Y-78504380D01*
X128592526Y-78462701D01*
X128592099Y-78462455D01*
X128527821Y-78425338D01*
X128527800Y-78425332D01*
X128527784Y-78425323D01*
X128527501Y-78425247D01*
X128527499Y-78425246D01*
X128455925Y-78406067D01*
X128455925Y-78406066D01*
X128455920Y-78406066D01*
X128375096Y-78384404D01*
X128375068Y-78384400D01*
X128375057Y-78384400D01*
X128303227Y-78384400D01*
X128208774Y-78384393D01*
X128208670Y-78384400D01*
X126736987Y-78384400D01*
X126736916Y-78384381D01*
X126655722Y-78384400D01*
X126578931Y-78384400D01*
X126578800Y-78384418D01*
X126502178Y-78404968D01*
X126502152Y-78404975D01*
X126426214Y-78425323D01*
X126426095Y-78425371D01*
X126358526Y-78464402D01*
X126358505Y-78464414D01*
X126289280Y-78504382D01*
X126289175Y-78504462D01*
X126234086Y-78559577D01*
X126234067Y-78559597D01*
X126172179Y-78621485D01*
X126171978Y-78621713D01*
X125168898Y-79625265D01*
X125168897Y-79625264D01*
X125168881Y-79625280D01*
X125168879Y-79625284D01*
X125168518Y-79625644D01*
X125168060Y-79626102D01*
X125111480Y-79682684D01*
X125111443Y-79682747D01*
X125111394Y-79682797D01*
X125111260Y-79683028D01*
X125111256Y-79683033D01*
X125072707Y-79749839D01*
X125072694Y-79749863D01*
X125032419Y-79819621D01*
X125032373Y-79819731D01*
X125011721Y-79896876D01*
X125011720Y-79896875D01*
X125010437Y-79901666D01*
X124991500Y-79972343D01*
X124991500Y-79972411D01*
X124991481Y-79972482D01*
X124991480Y-79972483D01*
X124991500Y-80053677D01*
X124991500Y-85603316D01*
X124991486Y-85687352D01*
X124991500Y-85687404D01*
X124991500Y-85687457D01*
X124992281Y-85690375D01*
X124992282Y-85690376D01*
X125012025Y-85764061D01*
X125012030Y-85764079D01*
X125032382Y-85840087D01*
X125032422Y-85840181D01*
X125032423Y-85840184D01*
X125071679Y-85908178D01*
X125071685Y-85908199D01*
X125071690Y-85908197D01*
X125111415Y-85977031D01*
X125111480Y-85977116D01*
X125167448Y-86033084D01*
X125167458Y-86033103D01*
X125167463Y-86033099D01*
X126379906Y-87245965D01*
X126385197Y-87251257D01*
X126399894Y-87278185D01*
X126416477Y-87303988D01*
X126417370Y-87310203D01*
X126418671Y-87312586D01*
X126421500Y-87338923D01*
X126421500Y-87563006D01*
X126401815Y-87630045D01*
X126349011Y-87675800D01*
X126279853Y-87685744D01*
X126250048Y-87677567D01*
X126236307Y-87671875D01*
X126236295Y-87671872D01*
X126081651Y-87641111D01*
X126081648Y-87641111D01*
X125923964Y-87641111D01*
X125923961Y-87641111D01*
X125769316Y-87671872D01*
X125769304Y-87671875D01*
X125623634Y-87732213D01*
X125623619Y-87732221D01*
X125595523Y-87750994D01*
X125528844Y-87771870D01*
X125479183Y-87762451D01*
X125351501Y-87709564D01*
X125351489Y-87709561D01*
X125196845Y-87678800D01*
X125196842Y-87678800D01*
X125039158Y-87678800D01*
X125039155Y-87678800D01*
X124884510Y-87709561D01*
X124884498Y-87709564D01*
X124738827Y-87769902D01*
X124738814Y-87769909D01*
X124607711Y-87857510D01*
X124607707Y-87857513D01*
X124496213Y-87969007D01*
X124496210Y-87969011D01*
X124408609Y-88100114D01*
X124408602Y-88100127D01*
X124348264Y-88245798D01*
X124348261Y-88245810D01*
X124317500Y-88400453D01*
X124317500Y-88558146D01*
X124348261Y-88712789D01*
X124348264Y-88712801D01*
X124408602Y-88858472D01*
X124408609Y-88858485D01*
X124496602Y-88990174D01*
X124517480Y-89056851D01*
X124517500Y-89059065D01*
X124517500Y-89572476D01*
X124497815Y-89639515D01*
X124445011Y-89685270D01*
X124375853Y-89695214D01*
X124312297Y-89666189D01*
X124305817Y-89660155D01*
X117555906Y-82909972D01*
X117555906Y-82909971D01*
X117550521Y-82904586D01*
X117550520Y-82904584D01*
X117483130Y-82837194D01*
X117438726Y-82792788D01*
X117438725Y-82792787D01*
X117438717Y-82792781D01*
X117438716Y-82792780D01*
X117362886Y-82749000D01*
X117301796Y-82713728D01*
X117301793Y-82713726D01*
X117301784Y-82713723D01*
X117233656Y-82695468D01*
X117233656Y-82695467D01*
X117233652Y-82695467D01*
X117149069Y-82672800D01*
X117149060Y-82672800D01*
X117149057Y-82672800D01*
X117096364Y-82672800D01*
X116990955Y-82672798D01*
X116990948Y-82672800D01*
X115987138Y-82672800D01*
X115986283Y-82672744D01*
X115899661Y-82672799D01*
X115899613Y-82672800D01*
X115820943Y-82672800D01*
X115820753Y-82672850D01*
X115820555Y-82672851D01*
X115820439Y-82672881D01*
X115820437Y-82672882D01*
X115744437Y-82693298D01*
X115744425Y-82693302D01*
X115668216Y-82713723D01*
X115668044Y-82713822D01*
X115667855Y-82713873D01*
X115667831Y-82713886D01*
X115667830Y-82713887D01*
X115600339Y-82752910D01*
X115600272Y-82752948D01*
X115531283Y-82792779D01*
X115531059Y-82792951D01*
X115530987Y-82793006D01*
X115475930Y-82848132D01*
X115475877Y-82848186D01*
X115414149Y-82909915D01*
X115413593Y-82910548D01*
X115165858Y-83158602D01*
X115165859Y-83158603D01*
X115165782Y-83158679D01*
X115165780Y-83158683D01*
X115165308Y-83159154D01*
X115164752Y-83159710D01*
X115109480Y-83214984D01*
X115109380Y-83215156D01*
X115109243Y-83215294D01*
X115070038Y-83283300D01*
X115070006Y-83283354D01*
X115069998Y-83283369D01*
X115030420Y-83351918D01*
X115030345Y-83352102D01*
X115030276Y-83352267D01*
X115009912Y-83428459D01*
X115009892Y-83428538D01*
X114989500Y-83504643D01*
X114989500Y-83504839D01*
X114989449Y-83505031D01*
X114989500Y-83584087D01*
X114989500Y-83945234D01*
X114969815Y-84012273D01*
X114968602Y-84014125D01*
X114880609Y-84145814D01*
X114880602Y-84145827D01*
X114820264Y-84291498D01*
X114820261Y-84291510D01*
X114789500Y-84446153D01*
X114789500Y-84603846D01*
X114820261Y-84758489D01*
X114820264Y-84758501D01*
X114880602Y-84904172D01*
X114880609Y-84904185D01*
X114968210Y-85035288D01*
X114968213Y-85035292D01*
X115079707Y-85146786D01*
X115079711Y-85146789D01*
X115210814Y-85234390D01*
X115210827Y-85234397D01*
X115327083Y-85282551D01*
X115356503Y-85294737D01*
X115356507Y-85294737D01*
X115356508Y-85294738D01*
X115477563Y-85318818D01*
X115539473Y-85351203D01*
X115572028Y-85404427D01*
X115573262Y-85408496D01*
X115633602Y-85554172D01*
X115633609Y-85554185D01*
X115721602Y-85685874D01*
X115742480Y-85752551D01*
X115742500Y-85754765D01*
X115742500Y-100657350D01*
X115722815Y-100724389D01*
X115670011Y-100770144D01*
X115665954Y-100771911D01*
X115620821Y-100790606D01*
X115620814Y-100790609D01*
X115489711Y-100878210D01*
X115489707Y-100878213D01*
X115378213Y-100989707D01*
X115378210Y-100989711D01*
X115290609Y-101120814D01*
X115290602Y-101120827D01*
X115230264Y-101266498D01*
X115230261Y-101266510D01*
X115199500Y-101421153D01*
X115199500Y-101578846D01*
X115230261Y-101733489D01*
X115230264Y-101733501D01*
X115269002Y-101827023D01*
X115276471Y-101896492D01*
X115245196Y-101958971D01*
X115185106Y-101994623D01*
X115178633Y-101996092D01*
X115127508Y-102006261D01*
X115127498Y-102006264D01*
X114981827Y-102066602D01*
X114981814Y-102066609D01*
X114850711Y-102154210D01*
X114850707Y-102154213D01*
X114739213Y-102265707D01*
X114739210Y-102265711D01*
X114651609Y-102396814D01*
X114651602Y-102396827D01*
X114591264Y-102542498D01*
X114591261Y-102542510D01*
X114560500Y-102697153D01*
X114560500Y-102854846D01*
X114591261Y-103009489D01*
X114591264Y-103009501D01*
X114651602Y-103155172D01*
X114651609Y-103155185D01*
X114739210Y-103286288D01*
X114739213Y-103286292D01*
X114850707Y-103397786D01*
X114850711Y-103397789D01*
X114981814Y-103485390D01*
X114981827Y-103485397D01*
X115127498Y-103545735D01*
X115127503Y-103545737D01*
X115200045Y-103560166D01*
X115282754Y-103576619D01*
X115344665Y-103609004D01*
X115346244Y-103610555D01*
X126857181Y-115121492D01*
X126890666Y-115182815D01*
X126893500Y-115209173D01*
X126893500Y-118929213D01*
X126873815Y-118996252D01*
X126872602Y-118998104D01*
X126790609Y-119120814D01*
X126790602Y-119120827D01*
X126730264Y-119266498D01*
X126730261Y-119266508D01*
X126722565Y-119305200D01*
X126690180Y-119367111D01*
X126629464Y-119401685D01*
X126559694Y-119397944D01*
X126523486Y-119377836D01*
X126202217Y-119120821D01*
X120826664Y-114820378D01*
X109547038Y-105796677D01*
X109506986Y-105739426D01*
X109500500Y-105699849D01*
X109500500Y-95046953D01*
X112558500Y-95046953D01*
X112558500Y-95204646D01*
X112589261Y-95359289D01*
X112589264Y-95359301D01*
X112649602Y-95504972D01*
X112649609Y-95504985D01*
X112737602Y-95636674D01*
X112758480Y-95703351D01*
X112758500Y-95705565D01*
X112758500Y-103576500D01*
X112758495Y-103670023D01*
X112758500Y-103670041D01*
X112758500Y-103670057D01*
X112759477Y-103673706D01*
X112759478Y-103673710D01*
X112777966Y-103742703D01*
X112777967Y-103742711D01*
X112799409Y-103822752D01*
X112799421Y-103822780D01*
X112799422Y-103822782D01*
X112799423Y-103822784D01*
X112836076Y-103886270D01*
X112836078Y-103886275D01*
X112836079Y-103886275D01*
X112878457Y-103959685D01*
X112878476Y-103959709D01*
X112878480Y-103959716D01*
X112878486Y-103959722D01*
X112938272Y-104019508D01*
X121213418Y-112295606D01*
X121246900Y-112356931D01*
X121247349Y-112359090D01*
X121278261Y-112514491D01*
X121278264Y-112514501D01*
X121338602Y-112660172D01*
X121338609Y-112660185D01*
X121426210Y-112791288D01*
X121426213Y-112791292D01*
X121537707Y-112902786D01*
X121537711Y-112902789D01*
X121668814Y-112990390D01*
X121668827Y-112990397D01*
X121814498Y-113050735D01*
X121814503Y-113050737D01*
X121969153Y-113081499D01*
X121969156Y-113081500D01*
X121969158Y-113081500D01*
X122126844Y-113081500D01*
X122126845Y-113081499D01*
X122281497Y-113050737D01*
X122427179Y-112990394D01*
X122558289Y-112902789D01*
X122669789Y-112791289D01*
X122757394Y-112660179D01*
X122817737Y-112514497D01*
X122848500Y-112359842D01*
X122848500Y-112202158D01*
X122848500Y-112202155D01*
X122848499Y-112202153D01*
X122845008Y-112184601D01*
X122817737Y-112047503D01*
X122804314Y-112015097D01*
X122757397Y-111901827D01*
X122757390Y-111901814D01*
X122669789Y-111770711D01*
X122669786Y-111770707D01*
X122558292Y-111659213D01*
X122558288Y-111659210D01*
X122427185Y-111571609D01*
X122427172Y-111571602D01*
X122281501Y-111511264D01*
X122281491Y-111511261D01*
X122126209Y-111480373D01*
X122064298Y-111447988D01*
X122062715Y-111446432D01*
X113995814Y-103378602D01*
X113962332Y-103317277D01*
X113959500Y-103290926D01*
X113959500Y-95705565D01*
X113979185Y-95638526D01*
X113980398Y-95636674D01*
X114068390Y-95504985D01*
X114068390Y-95504984D01*
X114068394Y-95504979D01*
X114128737Y-95359297D01*
X114159500Y-95204642D01*
X114159500Y-95046958D01*
X114159500Y-95046955D01*
X114159499Y-95046953D01*
X114150376Y-95001090D01*
X114128737Y-94892303D01*
X114077763Y-94769240D01*
X114068397Y-94746627D01*
X114068390Y-94746614D01*
X113980789Y-94615511D01*
X113980786Y-94615507D01*
X113869292Y-94504013D01*
X113869288Y-94504010D01*
X113738185Y-94416409D01*
X113738172Y-94416402D01*
X113592501Y-94356064D01*
X113592489Y-94356061D01*
X113437845Y-94325300D01*
X113437842Y-94325300D01*
X113280158Y-94325300D01*
X113280155Y-94325300D01*
X113125510Y-94356061D01*
X113125498Y-94356064D01*
X112979827Y-94416402D01*
X112979814Y-94416409D01*
X112848711Y-94504010D01*
X112848707Y-94504013D01*
X112737213Y-94615507D01*
X112737210Y-94615511D01*
X112649609Y-94746614D01*
X112649602Y-94746627D01*
X112589264Y-94892298D01*
X112589261Y-94892310D01*
X112558500Y-95046953D01*
X109500500Y-95046953D01*
X109500500Y-62624500D01*
X109520185Y-62557461D01*
X109572989Y-62511706D01*
X109624500Y-62500500D01*
X117197810Y-62500500D01*
X117264849Y-62520185D01*
G37*
%TD.AperFunction*%
%TD*%
M02*
