%TF.GenerationSoftware,KiCad,Pcbnew,9.0.0*%
%TF.CreationDate,2025-04-23T19:56:12+02:00*%
%TF.ProjectId,EEE3088F Design project,45454533-3038-4384-9620-44657369676e,rev?*%
%TF.SameCoordinates,Original*%
%TF.FileFunction,Legend,Bot*%
%TF.FilePolarity,Positive*%
%FSLAX46Y46*%
G04 Gerber Fmt 4.6, Leading zero omitted, Abs format (unit mm)*
G04 Created by KiCad (PCBNEW 9.0.0) date 2025-04-23 19:56:12*
%MOMM*%
%LPD*%
G01*
G04 APERTURE LIST*
G04 Aperture macros list*
%AMRoundRect*
0 Rectangle with rounded corners*
0 $1 Rounding radius*
0 $2 $3 $4 $5 $6 $7 $8 $9 X,Y pos of 4 corners*
0 Add a 4 corners polygon primitive as box body*
4,1,4,$2,$3,$4,$5,$6,$7,$8,$9,$2,$3,0*
0 Add four circle primitives for the rounded corners*
1,1,$1+$1,$2,$3*
1,1,$1+$1,$4,$5*
1,1,$1+$1,$6,$7*
1,1,$1+$1,$8,$9*
0 Add four rect primitives between the rounded corners*
20,1,$1+$1,$2,$3,$4,$5,0*
20,1,$1+$1,$4,$5,$6,$7,0*
20,1,$1+$1,$6,$7,$8,$9,0*
20,1,$1+$1,$8,$9,$2,$3,0*%
G04 Aperture macros list end*
%ADD10C,0.100000*%
%ADD11C,0.150000*%
%ADD12C,0.120000*%
%ADD13C,3.000000*%
%ADD14RoundRect,0.250000X-0.625000X0.350000X-0.625000X-0.350000X0.625000X-0.350000X0.625000X0.350000X0*%
%ADD15O,1.750000X1.200000*%
%ADD16O,1.000000X1.700000*%
%ADD17R,1.700000X1.700000*%
%ADD18O,1.700000X1.700000*%
G04 APERTURE END LIST*
D10*
X135196115Y-68152531D02*
X135196115Y-67152531D01*
X135196115Y-67628721D02*
X134624687Y-67628721D01*
X134624687Y-68152531D02*
X134624687Y-67152531D01*
X133719925Y-68152531D02*
X133719925Y-67628721D01*
X133719925Y-67628721D02*
X133767544Y-67533483D01*
X133767544Y-67533483D02*
X133862782Y-67485864D01*
X133862782Y-67485864D02*
X134053258Y-67485864D01*
X134053258Y-67485864D02*
X134148496Y-67533483D01*
X133719925Y-68104912D02*
X133815163Y-68152531D01*
X133815163Y-68152531D02*
X134053258Y-68152531D01*
X134053258Y-68152531D02*
X134148496Y-68104912D01*
X134148496Y-68104912D02*
X134196115Y-68009673D01*
X134196115Y-68009673D02*
X134196115Y-67914435D01*
X134196115Y-67914435D02*
X134148496Y-67819197D01*
X134148496Y-67819197D02*
X134053258Y-67771578D01*
X134053258Y-67771578D02*
X133815163Y-67771578D01*
X133815163Y-67771578D02*
X133719925Y-67723959D01*
X133243734Y-67485864D02*
X133243734Y-68152531D01*
X133243734Y-67581102D02*
X133196115Y-67533483D01*
X133196115Y-67533483D02*
X133100877Y-67485864D01*
X133100877Y-67485864D02*
X132958020Y-67485864D01*
X132958020Y-67485864D02*
X132862782Y-67533483D01*
X132862782Y-67533483D02*
X132815163Y-67628721D01*
X132815163Y-67628721D02*
X132815163Y-68152531D01*
X132338972Y-67485864D02*
X132338972Y-68152531D01*
X132338972Y-67581102D02*
X132291353Y-67533483D01*
X132291353Y-67533483D02*
X132196115Y-67485864D01*
X132196115Y-67485864D02*
X132053258Y-67485864D01*
X132053258Y-67485864D02*
X131958020Y-67533483D01*
X131958020Y-67533483D02*
X131910401Y-67628721D01*
X131910401Y-67628721D02*
X131910401Y-68152531D01*
X131005639Y-68152531D02*
X131005639Y-67628721D01*
X131005639Y-67628721D02*
X131053258Y-67533483D01*
X131053258Y-67533483D02*
X131148496Y-67485864D01*
X131148496Y-67485864D02*
X131338972Y-67485864D01*
X131338972Y-67485864D02*
X131434210Y-67533483D01*
X131005639Y-68104912D02*
X131100877Y-68152531D01*
X131100877Y-68152531D02*
X131338972Y-68152531D01*
X131338972Y-68152531D02*
X131434210Y-68104912D01*
X131434210Y-68104912D02*
X131481829Y-68009673D01*
X131481829Y-68009673D02*
X131481829Y-67914435D01*
X131481829Y-67914435D02*
X131434210Y-67819197D01*
X131434210Y-67819197D02*
X131338972Y-67771578D01*
X131338972Y-67771578D02*
X131100877Y-67771578D01*
X131100877Y-67771578D02*
X131005639Y-67723959D01*
X130529448Y-68152531D02*
X130529448Y-67152531D01*
X130100877Y-68152531D02*
X130100877Y-67628721D01*
X130100877Y-67628721D02*
X130148496Y-67533483D01*
X130148496Y-67533483D02*
X130243734Y-67485864D01*
X130243734Y-67485864D02*
X130386591Y-67485864D01*
X130386591Y-67485864D02*
X130481829Y-67533483D01*
X130481829Y-67533483D02*
X130529448Y-67581102D01*
X128672305Y-67152531D02*
X128481829Y-67152531D01*
X128481829Y-67152531D02*
X128386591Y-67200150D01*
X128386591Y-67200150D02*
X128291353Y-67295388D01*
X128291353Y-67295388D02*
X128243734Y-67485864D01*
X128243734Y-67485864D02*
X128243734Y-67819197D01*
X128243734Y-67819197D02*
X128291353Y-68009673D01*
X128291353Y-68009673D02*
X128386591Y-68104912D01*
X128386591Y-68104912D02*
X128481829Y-68152531D01*
X128481829Y-68152531D02*
X128672305Y-68152531D01*
X128672305Y-68152531D02*
X128767543Y-68104912D01*
X128767543Y-68104912D02*
X128862781Y-68009673D01*
X128862781Y-68009673D02*
X128910400Y-67819197D01*
X128910400Y-67819197D02*
X128910400Y-67485864D01*
X128910400Y-67485864D02*
X128862781Y-67295388D01*
X128862781Y-67295388D02*
X128767543Y-67200150D01*
X128767543Y-67200150D02*
X128672305Y-67152531D01*
X127910400Y-67485864D02*
X127719924Y-68152531D01*
X127719924Y-68152531D02*
X127529448Y-67676340D01*
X127529448Y-67676340D02*
X127338972Y-68152531D01*
X127338972Y-68152531D02*
X127148496Y-67485864D01*
X126386591Y-68104912D02*
X126481829Y-68152531D01*
X126481829Y-68152531D02*
X126672305Y-68152531D01*
X126672305Y-68152531D02*
X126767543Y-68104912D01*
X126767543Y-68104912D02*
X126815162Y-68009673D01*
X126815162Y-68009673D02*
X126815162Y-67628721D01*
X126815162Y-67628721D02*
X126767543Y-67533483D01*
X126767543Y-67533483D02*
X126672305Y-67485864D01*
X126672305Y-67485864D02*
X126481829Y-67485864D01*
X126481829Y-67485864D02*
X126386591Y-67533483D01*
X126386591Y-67533483D02*
X126338972Y-67628721D01*
X126338972Y-67628721D02*
X126338972Y-67723959D01*
X126338972Y-67723959D02*
X126815162Y-67819197D01*
X125910400Y-67485864D02*
X125910400Y-68152531D01*
X125910400Y-67581102D02*
X125862781Y-67533483D01*
X125862781Y-67533483D02*
X125767543Y-67485864D01*
X125767543Y-67485864D02*
X125624686Y-67485864D01*
X125624686Y-67485864D02*
X125529448Y-67533483D01*
X125529448Y-67533483D02*
X125481829Y-67628721D01*
X125481829Y-67628721D02*
X125481829Y-68152531D01*
X123434209Y-68152531D02*
X123481829Y-68152531D01*
X123481829Y-68152531D02*
X123577067Y-68104912D01*
X123577067Y-68104912D02*
X123719924Y-67962054D01*
X123719924Y-67962054D02*
X123958019Y-67676340D01*
X123958019Y-67676340D02*
X124053257Y-67533483D01*
X124053257Y-67533483D02*
X124100876Y-67390626D01*
X124100876Y-67390626D02*
X124100876Y-67295388D01*
X124100876Y-67295388D02*
X124053257Y-67200150D01*
X124053257Y-67200150D02*
X123958019Y-67152531D01*
X123958019Y-67152531D02*
X123910400Y-67152531D01*
X123910400Y-67152531D02*
X123815162Y-67200150D01*
X123815162Y-67200150D02*
X123767543Y-67295388D01*
X123767543Y-67295388D02*
X123767543Y-67343007D01*
X123767543Y-67343007D02*
X123815162Y-67438245D01*
X123815162Y-67438245D02*
X123862781Y-67485864D01*
X123862781Y-67485864D02*
X124148495Y-67676340D01*
X124148495Y-67676340D02*
X124196114Y-67723959D01*
X124196114Y-67723959D02*
X124243733Y-67819197D01*
X124243733Y-67819197D02*
X124243733Y-67962054D01*
X124243733Y-67962054D02*
X124196114Y-68057292D01*
X124196114Y-68057292D02*
X124148495Y-68104912D01*
X124148495Y-68104912D02*
X124053257Y-68152531D01*
X124053257Y-68152531D02*
X123910400Y-68152531D01*
X123910400Y-68152531D02*
X123815162Y-68104912D01*
X123815162Y-68104912D02*
X123767543Y-68057292D01*
X123767543Y-68057292D02*
X123624686Y-67866816D01*
X123624686Y-67866816D02*
X123577067Y-67723959D01*
X123577067Y-67723959D02*
X123577067Y-67628721D01*
X122243733Y-68152531D02*
X122243733Y-67152531D01*
X122243733Y-67152531D02*
X121862781Y-67152531D01*
X121862781Y-67152531D02*
X121767543Y-67200150D01*
X121767543Y-67200150D02*
X121719924Y-67247769D01*
X121719924Y-67247769D02*
X121672305Y-67343007D01*
X121672305Y-67343007D02*
X121672305Y-67485864D01*
X121672305Y-67485864D02*
X121719924Y-67581102D01*
X121719924Y-67581102D02*
X121767543Y-67628721D01*
X121767543Y-67628721D02*
X121862781Y-67676340D01*
X121862781Y-67676340D02*
X122243733Y-67676340D01*
X121243733Y-68152531D02*
X121243733Y-67152531D01*
X120815162Y-68152531D02*
X120815162Y-67628721D01*
X120815162Y-67628721D02*
X120862781Y-67533483D01*
X120862781Y-67533483D02*
X120958019Y-67485864D01*
X120958019Y-67485864D02*
X121100876Y-67485864D01*
X121100876Y-67485864D02*
X121196114Y-67533483D01*
X121196114Y-67533483D02*
X121243733Y-67581102D01*
X120338971Y-68152531D02*
X120338971Y-67485864D01*
X120338971Y-67152531D02*
X120386590Y-67200150D01*
X120386590Y-67200150D02*
X120338971Y-67247769D01*
X120338971Y-67247769D02*
X120291352Y-67200150D01*
X120291352Y-67200150D02*
X120338971Y-67152531D01*
X120338971Y-67152531D02*
X120338971Y-67247769D01*
X119719924Y-68152531D02*
X119815162Y-68104912D01*
X119815162Y-68104912D02*
X119862781Y-68009673D01*
X119862781Y-68009673D02*
X119862781Y-67152531D01*
X118910400Y-68152531D02*
X118910400Y-67628721D01*
X118910400Y-67628721D02*
X118958019Y-67533483D01*
X118958019Y-67533483D02*
X119053257Y-67485864D01*
X119053257Y-67485864D02*
X119243733Y-67485864D01*
X119243733Y-67485864D02*
X119338971Y-67533483D01*
X118910400Y-68104912D02*
X119005638Y-68152531D01*
X119005638Y-68152531D02*
X119243733Y-68152531D01*
X119243733Y-68152531D02*
X119338971Y-68104912D01*
X119338971Y-68104912D02*
X119386590Y-68009673D01*
X119386590Y-68009673D02*
X119386590Y-67914435D01*
X119386590Y-67914435D02*
X119338971Y-67819197D01*
X119338971Y-67819197D02*
X119243733Y-67771578D01*
X119243733Y-67771578D02*
X119005638Y-67771578D01*
X119005638Y-67771578D02*
X118910400Y-67723959D01*
X117672304Y-68152531D02*
X117672304Y-67152531D01*
X117672304Y-67628721D02*
X117100876Y-67628721D01*
X117100876Y-68152531D02*
X117100876Y-67152531D01*
X116196114Y-68152531D02*
X116196114Y-67628721D01*
X116196114Y-67628721D02*
X116243733Y-67533483D01*
X116243733Y-67533483D02*
X116338971Y-67485864D01*
X116338971Y-67485864D02*
X116529447Y-67485864D01*
X116529447Y-67485864D02*
X116624685Y-67533483D01*
X116196114Y-68104912D02*
X116291352Y-68152531D01*
X116291352Y-68152531D02*
X116529447Y-68152531D01*
X116529447Y-68152531D02*
X116624685Y-68104912D01*
X116624685Y-68104912D02*
X116672304Y-68009673D01*
X116672304Y-68009673D02*
X116672304Y-67914435D01*
X116672304Y-67914435D02*
X116624685Y-67819197D01*
X116624685Y-67819197D02*
X116529447Y-67771578D01*
X116529447Y-67771578D02*
X116291352Y-67771578D01*
X116291352Y-67771578D02*
X116196114Y-67723959D01*
X115719923Y-67485864D02*
X115719923Y-68152531D01*
X115719923Y-67581102D02*
X115672304Y-67533483D01*
X115672304Y-67533483D02*
X115577066Y-67485864D01*
X115577066Y-67485864D02*
X115434209Y-67485864D01*
X115434209Y-67485864D02*
X115338971Y-67533483D01*
X115338971Y-67533483D02*
X115291352Y-67628721D01*
X115291352Y-67628721D02*
X115291352Y-68152531D01*
X114910399Y-67485864D02*
X114672304Y-68152531D01*
X114434209Y-67485864D02*
X114672304Y-68152531D01*
X114672304Y-68152531D02*
X114767542Y-68390626D01*
X114767542Y-68390626D02*
X114815161Y-68438245D01*
X114815161Y-68438245D02*
X114910399Y-68485864D01*
X113624685Y-68152531D02*
X113624685Y-67628721D01*
X113624685Y-67628721D02*
X113672304Y-67533483D01*
X113672304Y-67533483D02*
X113767542Y-67485864D01*
X113767542Y-67485864D02*
X113958018Y-67485864D01*
X113958018Y-67485864D02*
X114053256Y-67533483D01*
X113624685Y-68104912D02*
X113719923Y-68152531D01*
X113719923Y-68152531D02*
X113958018Y-68152531D01*
X113958018Y-68152531D02*
X114053256Y-68104912D01*
X114053256Y-68104912D02*
X114100875Y-68009673D01*
X114100875Y-68009673D02*
X114100875Y-67914435D01*
X114100875Y-67914435D02*
X114053256Y-67819197D01*
X114053256Y-67819197D02*
X113958018Y-67771578D01*
X113958018Y-67771578D02*
X113719923Y-67771578D01*
X113719923Y-67771578D02*
X113624685Y-67723959D01*
X113148494Y-68152531D02*
X113148494Y-67485864D01*
X113148494Y-67581102D02*
X113100875Y-67533483D01*
X113100875Y-67533483D02*
X113005637Y-67485864D01*
X113005637Y-67485864D02*
X112862780Y-67485864D01*
X112862780Y-67485864D02*
X112767542Y-67533483D01*
X112767542Y-67533483D02*
X112719923Y-67628721D01*
X112719923Y-67628721D02*
X112719923Y-68152531D01*
X112719923Y-67628721D02*
X112672304Y-67533483D01*
X112672304Y-67533483D02*
X112577066Y-67485864D01*
X112577066Y-67485864D02*
X112434209Y-67485864D01*
X112434209Y-67485864D02*
X112338970Y-67533483D01*
X112338970Y-67533483D02*
X112291351Y-67628721D01*
X112291351Y-67628721D02*
X112291351Y-68152531D01*
X111386590Y-68152531D02*
X111386590Y-67628721D01*
X111386590Y-67628721D02*
X111434209Y-67533483D01*
X111434209Y-67533483D02*
X111529447Y-67485864D01*
X111529447Y-67485864D02*
X111719923Y-67485864D01*
X111719923Y-67485864D02*
X111815161Y-67533483D01*
X111386590Y-68104912D02*
X111481828Y-68152531D01*
X111481828Y-68152531D02*
X111719923Y-68152531D01*
X111719923Y-68152531D02*
X111815161Y-68104912D01*
X111815161Y-68104912D02*
X111862780Y-68009673D01*
X111862780Y-68009673D02*
X111862780Y-67914435D01*
X111862780Y-67914435D02*
X111815161Y-67819197D01*
X111815161Y-67819197D02*
X111719923Y-67771578D01*
X111719923Y-67771578D02*
X111481828Y-67771578D01*
X111481828Y-67771578D02*
X111386590Y-67723959D01*
X134243734Y-68762475D02*
X134053258Y-68762475D01*
X134053258Y-68762475D02*
X133958020Y-68810094D01*
X133958020Y-68810094D02*
X133862782Y-68905332D01*
X133862782Y-68905332D02*
X133815163Y-69095808D01*
X133815163Y-69095808D02*
X133815163Y-69429141D01*
X133815163Y-69429141D02*
X133862782Y-69619617D01*
X133862782Y-69619617D02*
X133958020Y-69714856D01*
X133958020Y-69714856D02*
X134053258Y-69762475D01*
X134053258Y-69762475D02*
X134243734Y-69762475D01*
X134243734Y-69762475D02*
X134338972Y-69714856D01*
X134338972Y-69714856D02*
X134434210Y-69619617D01*
X134434210Y-69619617D02*
X134481829Y-69429141D01*
X134481829Y-69429141D02*
X134481829Y-69095808D01*
X134481829Y-69095808D02*
X134434210Y-68905332D01*
X134434210Y-68905332D02*
X134338972Y-68810094D01*
X134338972Y-68810094D02*
X134243734Y-68762475D01*
X133481829Y-68762475D02*
X133243734Y-69762475D01*
X133243734Y-69762475D02*
X133053258Y-69048189D01*
X133053258Y-69048189D02*
X132862782Y-69762475D01*
X132862782Y-69762475D02*
X132624687Y-68762475D01*
X132243734Y-69762475D02*
X132243734Y-68762475D01*
X132243734Y-68762475D02*
X131672306Y-69762475D01*
X131672306Y-69762475D02*
X131672306Y-68762475D01*
X131196115Y-69762475D02*
X131196115Y-68762475D01*
X131196115Y-69238665D02*
X130624687Y-69238665D01*
X130624687Y-69762475D02*
X130624687Y-68762475D01*
X130196115Y-69476760D02*
X129719925Y-69476760D01*
X130291353Y-69762475D02*
X129958020Y-68762475D01*
X129958020Y-68762475D02*
X129624687Y-69762475D01*
X129291353Y-69762475D02*
X129291353Y-68762475D01*
X129291353Y-68762475D02*
X128719925Y-69762475D01*
X128719925Y-69762475D02*
X128719925Y-68762475D01*
X128053258Y-68762475D02*
X127958020Y-68762475D01*
X127958020Y-68762475D02*
X127862782Y-68810094D01*
X127862782Y-68810094D02*
X127815163Y-68857713D01*
X127815163Y-68857713D02*
X127767544Y-68952951D01*
X127767544Y-68952951D02*
X127719925Y-69143427D01*
X127719925Y-69143427D02*
X127719925Y-69381522D01*
X127719925Y-69381522D02*
X127767544Y-69571998D01*
X127767544Y-69571998D02*
X127815163Y-69667236D01*
X127815163Y-69667236D02*
X127862782Y-69714856D01*
X127862782Y-69714856D02*
X127958020Y-69762475D01*
X127958020Y-69762475D02*
X128053258Y-69762475D01*
X128053258Y-69762475D02*
X128148496Y-69714856D01*
X128148496Y-69714856D02*
X128196115Y-69667236D01*
X128196115Y-69667236D02*
X128243734Y-69571998D01*
X128243734Y-69571998D02*
X128291353Y-69381522D01*
X128291353Y-69381522D02*
X128291353Y-69143427D01*
X128291353Y-69143427D02*
X128243734Y-68952951D01*
X128243734Y-68952951D02*
X128196115Y-68857713D01*
X128196115Y-68857713D02*
X128148496Y-68810094D01*
X128148496Y-68810094D02*
X128053258Y-68762475D01*
X127100877Y-68762475D02*
X127005639Y-68762475D01*
X127005639Y-68762475D02*
X126910401Y-68810094D01*
X126910401Y-68810094D02*
X126862782Y-68857713D01*
X126862782Y-68857713D02*
X126815163Y-68952951D01*
X126815163Y-68952951D02*
X126767544Y-69143427D01*
X126767544Y-69143427D02*
X126767544Y-69381522D01*
X126767544Y-69381522D02*
X126815163Y-69571998D01*
X126815163Y-69571998D02*
X126862782Y-69667236D01*
X126862782Y-69667236D02*
X126910401Y-69714856D01*
X126910401Y-69714856D02*
X127005639Y-69762475D01*
X127005639Y-69762475D02*
X127100877Y-69762475D01*
X127100877Y-69762475D02*
X127196115Y-69714856D01*
X127196115Y-69714856D02*
X127243734Y-69667236D01*
X127243734Y-69667236D02*
X127291353Y-69571998D01*
X127291353Y-69571998D02*
X127338972Y-69381522D01*
X127338972Y-69381522D02*
X127338972Y-69143427D01*
X127338972Y-69143427D02*
X127291353Y-68952951D01*
X127291353Y-68952951D02*
X127243734Y-68857713D01*
X127243734Y-68857713D02*
X127196115Y-68810094D01*
X127196115Y-68810094D02*
X127100877Y-68762475D01*
X125815163Y-69762475D02*
X126386591Y-69762475D01*
X126100877Y-69762475D02*
X126100877Y-68762475D01*
X126100877Y-68762475D02*
X126196115Y-68905332D01*
X126196115Y-68905332D02*
X126291353Y-69000570D01*
X126291353Y-69000570D02*
X126386591Y-69048189D01*
X123053257Y-69762475D02*
X123100877Y-69762475D01*
X123100877Y-69762475D02*
X123196115Y-69714856D01*
X123196115Y-69714856D02*
X123338972Y-69571998D01*
X123338972Y-69571998D02*
X123577067Y-69286284D01*
X123577067Y-69286284D02*
X123672305Y-69143427D01*
X123672305Y-69143427D02*
X123719924Y-69000570D01*
X123719924Y-69000570D02*
X123719924Y-68905332D01*
X123719924Y-68905332D02*
X123672305Y-68810094D01*
X123672305Y-68810094D02*
X123577067Y-68762475D01*
X123577067Y-68762475D02*
X123529448Y-68762475D01*
X123529448Y-68762475D02*
X123434210Y-68810094D01*
X123434210Y-68810094D02*
X123386591Y-68905332D01*
X123386591Y-68905332D02*
X123386591Y-68952951D01*
X123386591Y-68952951D02*
X123434210Y-69048189D01*
X123434210Y-69048189D02*
X123481829Y-69095808D01*
X123481829Y-69095808D02*
X123767543Y-69286284D01*
X123767543Y-69286284D02*
X123815162Y-69333903D01*
X123815162Y-69333903D02*
X123862781Y-69429141D01*
X123862781Y-69429141D02*
X123862781Y-69571998D01*
X123862781Y-69571998D02*
X123815162Y-69667236D01*
X123815162Y-69667236D02*
X123767543Y-69714856D01*
X123767543Y-69714856D02*
X123672305Y-69762475D01*
X123672305Y-69762475D02*
X123529448Y-69762475D01*
X123529448Y-69762475D02*
X123434210Y-69714856D01*
X123434210Y-69714856D02*
X123386591Y-69667236D01*
X123386591Y-69667236D02*
X123243734Y-69476760D01*
X123243734Y-69476760D02*
X123196115Y-69333903D01*
X123196115Y-69333903D02*
X123196115Y-69238665D01*
X120338971Y-69762475D02*
X120338971Y-68762475D01*
X120338971Y-69238665D02*
X119767543Y-69238665D01*
X119767543Y-69762475D02*
X119767543Y-68762475D01*
X119291352Y-69762475D02*
X119291352Y-68762475D01*
X119291352Y-68762475D02*
X118719924Y-69762475D01*
X118719924Y-69762475D02*
X118719924Y-68762475D01*
X118053257Y-69286284D02*
X118053257Y-69762475D01*
X118386590Y-68762475D02*
X118053257Y-69286284D01*
X118053257Y-69286284D02*
X117719924Y-68762475D01*
X117386590Y-69762475D02*
X117386590Y-68762475D01*
X117386590Y-68762475D02*
X117005638Y-68762475D01*
X117005638Y-68762475D02*
X116910400Y-68810094D01*
X116910400Y-68810094D02*
X116862781Y-68857713D01*
X116862781Y-68857713D02*
X116815162Y-68952951D01*
X116815162Y-68952951D02*
X116815162Y-69095808D01*
X116815162Y-69095808D02*
X116862781Y-69191046D01*
X116862781Y-69191046D02*
X116910400Y-69238665D01*
X116910400Y-69238665D02*
X117005638Y-69286284D01*
X117005638Y-69286284D02*
X117386590Y-69286284D01*
X116386590Y-69762475D02*
X116386590Y-68762475D01*
X116386590Y-69238665D02*
X115815162Y-69238665D01*
X115815162Y-69762475D02*
X115815162Y-68762475D01*
X115338971Y-69762475D02*
X115338971Y-68762475D01*
X114672305Y-68762475D02*
X114577067Y-68762475D01*
X114577067Y-68762475D02*
X114481829Y-68810094D01*
X114481829Y-68810094D02*
X114434210Y-68857713D01*
X114434210Y-68857713D02*
X114386591Y-68952951D01*
X114386591Y-68952951D02*
X114338972Y-69143427D01*
X114338972Y-69143427D02*
X114338972Y-69381522D01*
X114338972Y-69381522D02*
X114386591Y-69571998D01*
X114386591Y-69571998D02*
X114434210Y-69667236D01*
X114434210Y-69667236D02*
X114481829Y-69714856D01*
X114481829Y-69714856D02*
X114577067Y-69762475D01*
X114577067Y-69762475D02*
X114672305Y-69762475D01*
X114672305Y-69762475D02*
X114767543Y-69714856D01*
X114767543Y-69714856D02*
X114815162Y-69667236D01*
X114815162Y-69667236D02*
X114862781Y-69571998D01*
X114862781Y-69571998D02*
X114910400Y-69381522D01*
X114910400Y-69381522D02*
X114910400Y-69143427D01*
X114910400Y-69143427D02*
X114862781Y-68952951D01*
X114862781Y-68952951D02*
X114815162Y-68857713D01*
X114815162Y-68857713D02*
X114767543Y-68810094D01*
X114767543Y-68810094D02*
X114672305Y-68762475D01*
X113719924Y-68762475D02*
X113624686Y-68762475D01*
X113624686Y-68762475D02*
X113529448Y-68810094D01*
X113529448Y-68810094D02*
X113481829Y-68857713D01*
X113481829Y-68857713D02*
X113434210Y-68952951D01*
X113434210Y-68952951D02*
X113386591Y-69143427D01*
X113386591Y-69143427D02*
X113386591Y-69381522D01*
X113386591Y-69381522D02*
X113434210Y-69571998D01*
X113434210Y-69571998D02*
X113481829Y-69667236D01*
X113481829Y-69667236D02*
X113529448Y-69714856D01*
X113529448Y-69714856D02*
X113624686Y-69762475D01*
X113624686Y-69762475D02*
X113719924Y-69762475D01*
X113719924Y-69762475D02*
X113815162Y-69714856D01*
X113815162Y-69714856D02*
X113862781Y-69667236D01*
X113862781Y-69667236D02*
X113910400Y-69571998D01*
X113910400Y-69571998D02*
X113958019Y-69381522D01*
X113958019Y-69381522D02*
X113958019Y-69143427D01*
X113958019Y-69143427D02*
X113910400Y-68952951D01*
X113910400Y-68952951D02*
X113862781Y-68857713D01*
X113862781Y-68857713D02*
X113815162Y-68810094D01*
X113815162Y-68810094D02*
X113719924Y-68762475D01*
X112434210Y-69762475D02*
X113005638Y-69762475D01*
X112719924Y-69762475D02*
X112719924Y-68762475D01*
X112719924Y-68762475D02*
X112815162Y-68905332D01*
X112815162Y-68905332D02*
X112910400Y-69000570D01*
X112910400Y-69000570D02*
X113005638Y-69048189D01*
X131624686Y-70420038D02*
X131719924Y-70372419D01*
X131719924Y-70372419D02*
X131862781Y-70372419D01*
X131862781Y-70372419D02*
X132005638Y-70420038D01*
X132005638Y-70420038D02*
X132100876Y-70515276D01*
X132100876Y-70515276D02*
X132148495Y-70610514D01*
X132148495Y-70610514D02*
X132196114Y-70800990D01*
X132196114Y-70800990D02*
X132196114Y-70943847D01*
X132196114Y-70943847D02*
X132148495Y-71134323D01*
X132148495Y-71134323D02*
X132100876Y-71229561D01*
X132100876Y-71229561D02*
X132005638Y-71324800D01*
X132005638Y-71324800D02*
X131862781Y-71372419D01*
X131862781Y-71372419D02*
X131767543Y-71372419D01*
X131767543Y-71372419D02*
X131624686Y-71324800D01*
X131624686Y-71324800D02*
X131577067Y-71277180D01*
X131577067Y-71277180D02*
X131577067Y-70943847D01*
X131577067Y-70943847D02*
X131767543Y-70943847D01*
X131148495Y-71372419D02*
X131148495Y-70705752D01*
X131148495Y-70896228D02*
X131100876Y-70800990D01*
X131100876Y-70800990D02*
X131053257Y-70753371D01*
X131053257Y-70753371D02*
X130958019Y-70705752D01*
X130958019Y-70705752D02*
X130862781Y-70705752D01*
X130386590Y-71372419D02*
X130481828Y-71324800D01*
X130481828Y-71324800D02*
X130529447Y-71277180D01*
X130529447Y-71277180D02*
X130577066Y-71181942D01*
X130577066Y-71181942D02*
X130577066Y-70896228D01*
X130577066Y-70896228D02*
X130529447Y-70800990D01*
X130529447Y-70800990D02*
X130481828Y-70753371D01*
X130481828Y-70753371D02*
X130386590Y-70705752D01*
X130386590Y-70705752D02*
X130243733Y-70705752D01*
X130243733Y-70705752D02*
X130148495Y-70753371D01*
X130148495Y-70753371D02*
X130100876Y-70800990D01*
X130100876Y-70800990D02*
X130053257Y-70896228D01*
X130053257Y-70896228D02*
X130053257Y-71181942D01*
X130053257Y-71181942D02*
X130100876Y-71277180D01*
X130100876Y-71277180D02*
X130148495Y-71324800D01*
X130148495Y-71324800D02*
X130243733Y-71372419D01*
X130243733Y-71372419D02*
X130386590Y-71372419D01*
X129196114Y-70705752D02*
X129196114Y-71372419D01*
X129624685Y-70705752D02*
X129624685Y-71229561D01*
X129624685Y-71229561D02*
X129577066Y-71324800D01*
X129577066Y-71324800D02*
X129481828Y-71372419D01*
X129481828Y-71372419D02*
X129338971Y-71372419D01*
X129338971Y-71372419D02*
X129243733Y-71324800D01*
X129243733Y-71324800D02*
X129196114Y-71277180D01*
X128719923Y-70705752D02*
X128719923Y-71705752D01*
X128719923Y-70753371D02*
X128624685Y-70705752D01*
X128624685Y-70705752D02*
X128434209Y-70705752D01*
X128434209Y-70705752D02*
X128338971Y-70753371D01*
X128338971Y-70753371D02*
X128291352Y-70800990D01*
X128291352Y-70800990D02*
X128243733Y-70896228D01*
X128243733Y-70896228D02*
X128243733Y-71181942D01*
X128243733Y-71181942D02*
X128291352Y-71277180D01*
X128291352Y-71277180D02*
X128338971Y-71324800D01*
X128338971Y-71324800D02*
X128434209Y-71372419D01*
X128434209Y-71372419D02*
X128624685Y-71372419D01*
X128624685Y-71372419D02*
X128719923Y-71324800D01*
X127053256Y-70705752D02*
X127053256Y-71372419D01*
X127053256Y-70800990D02*
X127005637Y-70753371D01*
X127005637Y-70753371D02*
X126910399Y-70705752D01*
X126910399Y-70705752D02*
X126767542Y-70705752D01*
X126767542Y-70705752D02*
X126672304Y-70753371D01*
X126672304Y-70753371D02*
X126624685Y-70848609D01*
X126624685Y-70848609D02*
X126624685Y-71372419D01*
X125719923Y-70705752D02*
X125719923Y-71372419D01*
X126148494Y-70705752D02*
X126148494Y-71229561D01*
X126148494Y-71229561D02*
X126100875Y-71324800D01*
X126100875Y-71324800D02*
X126005637Y-71372419D01*
X126005637Y-71372419D02*
X125862780Y-71372419D01*
X125862780Y-71372419D02*
X125767542Y-71324800D01*
X125767542Y-71324800D02*
X125719923Y-71277180D01*
X125243732Y-71372419D02*
X125243732Y-70705752D01*
X125243732Y-70800990D02*
X125196113Y-70753371D01*
X125196113Y-70753371D02*
X125100875Y-70705752D01*
X125100875Y-70705752D02*
X124958018Y-70705752D01*
X124958018Y-70705752D02*
X124862780Y-70753371D01*
X124862780Y-70753371D02*
X124815161Y-70848609D01*
X124815161Y-70848609D02*
X124815161Y-71372419D01*
X124815161Y-70848609D02*
X124767542Y-70753371D01*
X124767542Y-70753371D02*
X124672304Y-70705752D01*
X124672304Y-70705752D02*
X124529447Y-70705752D01*
X124529447Y-70705752D02*
X124434208Y-70753371D01*
X124434208Y-70753371D02*
X124386589Y-70848609D01*
X124386589Y-70848609D02*
X124386589Y-71372419D01*
X123910399Y-71372419D02*
X123910399Y-70372419D01*
X123910399Y-70753371D02*
X123815161Y-70705752D01*
X123815161Y-70705752D02*
X123624685Y-70705752D01*
X123624685Y-70705752D02*
X123529447Y-70753371D01*
X123529447Y-70753371D02*
X123481828Y-70800990D01*
X123481828Y-70800990D02*
X123434209Y-70896228D01*
X123434209Y-70896228D02*
X123434209Y-71181942D01*
X123434209Y-71181942D02*
X123481828Y-71277180D01*
X123481828Y-71277180D02*
X123529447Y-71324800D01*
X123529447Y-71324800D02*
X123624685Y-71372419D01*
X123624685Y-71372419D02*
X123815161Y-71372419D01*
X123815161Y-71372419D02*
X123910399Y-71324800D01*
X122624685Y-71324800D02*
X122719923Y-71372419D01*
X122719923Y-71372419D02*
X122910399Y-71372419D01*
X122910399Y-71372419D02*
X123005637Y-71324800D01*
X123005637Y-71324800D02*
X123053256Y-71229561D01*
X123053256Y-71229561D02*
X123053256Y-70848609D01*
X123053256Y-70848609D02*
X123005637Y-70753371D01*
X123005637Y-70753371D02*
X122910399Y-70705752D01*
X122910399Y-70705752D02*
X122719923Y-70705752D01*
X122719923Y-70705752D02*
X122624685Y-70753371D01*
X122624685Y-70753371D02*
X122577066Y-70848609D01*
X122577066Y-70848609D02*
X122577066Y-70943847D01*
X122577066Y-70943847D02*
X123053256Y-71039085D01*
X122148494Y-71372419D02*
X122148494Y-70705752D01*
X122148494Y-70896228D02*
X122100875Y-70800990D01*
X122100875Y-70800990D02*
X122053256Y-70753371D01*
X122053256Y-70753371D02*
X121958018Y-70705752D01*
X121958018Y-70705752D02*
X121862780Y-70705752D01*
X121529446Y-71277180D02*
X121481827Y-71324800D01*
X121481827Y-71324800D02*
X121529446Y-71372419D01*
X121529446Y-71372419D02*
X121577065Y-71324800D01*
X121577065Y-71324800D02*
X121529446Y-71277180D01*
X121529446Y-71277180D02*
X121529446Y-71372419D01*
X121529446Y-70753371D02*
X121481827Y-70800990D01*
X121481827Y-70800990D02*
X121529446Y-70848609D01*
X121529446Y-70848609D02*
X121577065Y-70800990D01*
X121577065Y-70800990D02*
X121529446Y-70753371D01*
X121529446Y-70753371D02*
X121529446Y-70848609D01*
X120338970Y-70467657D02*
X120291351Y-70420038D01*
X120291351Y-70420038D02*
X120196113Y-70372419D01*
X120196113Y-70372419D02*
X119958018Y-70372419D01*
X119958018Y-70372419D02*
X119862780Y-70420038D01*
X119862780Y-70420038D02*
X119815161Y-70467657D01*
X119815161Y-70467657D02*
X119767542Y-70562895D01*
X119767542Y-70562895D02*
X119767542Y-70658133D01*
X119767542Y-70658133D02*
X119815161Y-70800990D01*
X119815161Y-70800990D02*
X120386589Y-71372419D01*
X120386589Y-71372419D02*
X119767542Y-71372419D01*
X118862780Y-70372419D02*
X119338970Y-70372419D01*
X119338970Y-70372419D02*
X119386589Y-70848609D01*
X119386589Y-70848609D02*
X119338970Y-70800990D01*
X119338970Y-70800990D02*
X119243732Y-70753371D01*
X119243732Y-70753371D02*
X119005637Y-70753371D01*
X119005637Y-70753371D02*
X118910399Y-70800990D01*
X118910399Y-70800990D02*
X118862780Y-70848609D01*
X118862780Y-70848609D02*
X118815161Y-70943847D01*
X118815161Y-70943847D02*
X118815161Y-71181942D01*
X118815161Y-71181942D02*
X118862780Y-71277180D01*
X118862780Y-71277180D02*
X118910399Y-71324800D01*
X118910399Y-71324800D02*
X119005637Y-71372419D01*
X119005637Y-71372419D02*
X119243732Y-71372419D01*
X119243732Y-71372419D02*
X119338970Y-71324800D01*
X119338970Y-71324800D02*
X119386589Y-71277180D01*
X162291353Y-118872419D02*
X162053258Y-119872419D01*
X162053258Y-119872419D02*
X161862782Y-119158133D01*
X161862782Y-119158133D02*
X161672306Y-119872419D01*
X161672306Y-119872419D02*
X161434211Y-118872419D01*
X160624687Y-119872419D02*
X160624687Y-119348609D01*
X160624687Y-119348609D02*
X160672306Y-119253371D01*
X160672306Y-119253371D02*
X160767544Y-119205752D01*
X160767544Y-119205752D02*
X160958020Y-119205752D01*
X160958020Y-119205752D02*
X161053258Y-119253371D01*
X160624687Y-119824800D02*
X160719925Y-119872419D01*
X160719925Y-119872419D02*
X160958020Y-119872419D01*
X160958020Y-119872419D02*
X161053258Y-119824800D01*
X161053258Y-119824800D02*
X161100877Y-119729561D01*
X161100877Y-119729561D02*
X161100877Y-119634323D01*
X161100877Y-119634323D02*
X161053258Y-119539085D01*
X161053258Y-119539085D02*
X160958020Y-119491466D01*
X160958020Y-119491466D02*
X160719925Y-119491466D01*
X160719925Y-119491466D02*
X160624687Y-119443847D01*
X160148496Y-119872419D02*
X160148496Y-119205752D01*
X160148496Y-119396228D02*
X160100877Y-119300990D01*
X160100877Y-119300990D02*
X160053258Y-119253371D01*
X160053258Y-119253371D02*
X159958020Y-119205752D01*
X159958020Y-119205752D02*
X159862782Y-119205752D01*
X159529448Y-119205752D02*
X159529448Y-119872419D01*
X159529448Y-119300990D02*
X159481829Y-119253371D01*
X159481829Y-119253371D02*
X159386591Y-119205752D01*
X159386591Y-119205752D02*
X159243734Y-119205752D01*
X159243734Y-119205752D02*
X159148496Y-119253371D01*
X159148496Y-119253371D02*
X159100877Y-119348609D01*
X159100877Y-119348609D02*
X159100877Y-119872419D01*
X158624686Y-119872419D02*
X158624686Y-119205752D01*
X158624686Y-118872419D02*
X158672305Y-118920038D01*
X158672305Y-118920038D02*
X158624686Y-118967657D01*
X158624686Y-118967657D02*
X158577067Y-118920038D01*
X158577067Y-118920038D02*
X158624686Y-118872419D01*
X158624686Y-118872419D02*
X158624686Y-118967657D01*
X158148496Y-119205752D02*
X158148496Y-119872419D01*
X158148496Y-119300990D02*
X158100877Y-119253371D01*
X158100877Y-119253371D02*
X158005639Y-119205752D01*
X158005639Y-119205752D02*
X157862782Y-119205752D01*
X157862782Y-119205752D02*
X157767544Y-119253371D01*
X157767544Y-119253371D02*
X157719925Y-119348609D01*
X157719925Y-119348609D02*
X157719925Y-119872419D01*
X156815163Y-119205752D02*
X156815163Y-120015276D01*
X156815163Y-120015276D02*
X156862782Y-120110514D01*
X156862782Y-120110514D02*
X156910401Y-120158133D01*
X156910401Y-120158133D02*
X157005639Y-120205752D01*
X157005639Y-120205752D02*
X157148496Y-120205752D01*
X157148496Y-120205752D02*
X157243734Y-120158133D01*
X156815163Y-119824800D02*
X156910401Y-119872419D01*
X156910401Y-119872419D02*
X157100877Y-119872419D01*
X157100877Y-119872419D02*
X157196115Y-119824800D01*
X157196115Y-119824800D02*
X157243734Y-119777180D01*
X157243734Y-119777180D02*
X157291353Y-119681942D01*
X157291353Y-119681942D02*
X157291353Y-119396228D01*
X157291353Y-119396228D02*
X157243734Y-119300990D01*
X157243734Y-119300990D02*
X157196115Y-119253371D01*
X157196115Y-119253371D02*
X157100877Y-119205752D01*
X157100877Y-119205752D02*
X156910401Y-119205752D01*
X156910401Y-119205752D02*
X156815163Y-119253371D01*
X156338972Y-119777180D02*
X156291353Y-119824800D01*
X156291353Y-119824800D02*
X156338972Y-119872419D01*
X156338972Y-119872419D02*
X156386591Y-119824800D01*
X156386591Y-119824800D02*
X156338972Y-119777180D01*
X156338972Y-119777180D02*
X156338972Y-119872419D01*
X156338972Y-119253371D02*
X156291353Y-119300990D01*
X156291353Y-119300990D02*
X156338972Y-119348609D01*
X156338972Y-119348609D02*
X156386591Y-119300990D01*
X156386591Y-119300990D02*
X156338972Y-119253371D01*
X156338972Y-119253371D02*
X156338972Y-119348609D01*
X154529449Y-119777180D02*
X154577068Y-119824800D01*
X154577068Y-119824800D02*
X154719925Y-119872419D01*
X154719925Y-119872419D02*
X154815163Y-119872419D01*
X154815163Y-119872419D02*
X154958020Y-119824800D01*
X154958020Y-119824800D02*
X155053258Y-119729561D01*
X155053258Y-119729561D02*
X155100877Y-119634323D01*
X155100877Y-119634323D02*
X155148496Y-119443847D01*
X155148496Y-119443847D02*
X155148496Y-119300990D01*
X155148496Y-119300990D02*
X155100877Y-119110514D01*
X155100877Y-119110514D02*
X155053258Y-119015276D01*
X155053258Y-119015276D02*
X154958020Y-118920038D01*
X154958020Y-118920038D02*
X154815163Y-118872419D01*
X154815163Y-118872419D02*
X154719925Y-118872419D01*
X154719925Y-118872419D02*
X154577068Y-118920038D01*
X154577068Y-118920038D02*
X154529449Y-118967657D01*
X153958020Y-119872419D02*
X154053258Y-119824800D01*
X154053258Y-119824800D02*
X154100877Y-119777180D01*
X154100877Y-119777180D02*
X154148496Y-119681942D01*
X154148496Y-119681942D02*
X154148496Y-119396228D01*
X154148496Y-119396228D02*
X154100877Y-119300990D01*
X154100877Y-119300990D02*
X154053258Y-119253371D01*
X154053258Y-119253371D02*
X153958020Y-119205752D01*
X153958020Y-119205752D02*
X153815163Y-119205752D01*
X153815163Y-119205752D02*
X153719925Y-119253371D01*
X153719925Y-119253371D02*
X153672306Y-119300990D01*
X153672306Y-119300990D02*
X153624687Y-119396228D01*
X153624687Y-119396228D02*
X153624687Y-119681942D01*
X153624687Y-119681942D02*
X153672306Y-119777180D01*
X153672306Y-119777180D02*
X153719925Y-119824800D01*
X153719925Y-119824800D02*
X153815163Y-119872419D01*
X153815163Y-119872419D02*
X153958020Y-119872419D01*
X153196115Y-119205752D02*
X153196115Y-119872419D01*
X153196115Y-119300990D02*
X153148496Y-119253371D01*
X153148496Y-119253371D02*
X153053258Y-119205752D01*
X153053258Y-119205752D02*
X152910401Y-119205752D01*
X152910401Y-119205752D02*
X152815163Y-119253371D01*
X152815163Y-119253371D02*
X152767544Y-119348609D01*
X152767544Y-119348609D02*
X152767544Y-119872419D01*
X152434210Y-119205752D02*
X152053258Y-119205752D01*
X152291353Y-118872419D02*
X152291353Y-119729561D01*
X152291353Y-119729561D02*
X152243734Y-119824800D01*
X152243734Y-119824800D02*
X152148496Y-119872419D01*
X152148496Y-119872419D02*
X152053258Y-119872419D01*
X151291353Y-119872419D02*
X151291353Y-119348609D01*
X151291353Y-119348609D02*
X151338972Y-119253371D01*
X151338972Y-119253371D02*
X151434210Y-119205752D01*
X151434210Y-119205752D02*
X151624686Y-119205752D01*
X151624686Y-119205752D02*
X151719924Y-119253371D01*
X151291353Y-119824800D02*
X151386591Y-119872419D01*
X151386591Y-119872419D02*
X151624686Y-119872419D01*
X151624686Y-119872419D02*
X151719924Y-119824800D01*
X151719924Y-119824800D02*
X151767543Y-119729561D01*
X151767543Y-119729561D02*
X151767543Y-119634323D01*
X151767543Y-119634323D02*
X151719924Y-119539085D01*
X151719924Y-119539085D02*
X151624686Y-119491466D01*
X151624686Y-119491466D02*
X151386591Y-119491466D01*
X151386591Y-119491466D02*
X151291353Y-119443847D01*
X150815162Y-119872419D02*
X150815162Y-119205752D01*
X150815162Y-118872419D02*
X150862781Y-118920038D01*
X150862781Y-118920038D02*
X150815162Y-118967657D01*
X150815162Y-118967657D02*
X150767543Y-118920038D01*
X150767543Y-118920038D02*
X150815162Y-118872419D01*
X150815162Y-118872419D02*
X150815162Y-118967657D01*
X150338972Y-119205752D02*
X150338972Y-119872419D01*
X150338972Y-119300990D02*
X150291353Y-119253371D01*
X150291353Y-119253371D02*
X150196115Y-119205752D01*
X150196115Y-119205752D02*
X150053258Y-119205752D01*
X150053258Y-119205752D02*
X149958020Y-119253371D01*
X149958020Y-119253371D02*
X149910401Y-119348609D01*
X149910401Y-119348609D02*
X149910401Y-119872419D01*
X149481829Y-119824800D02*
X149386591Y-119872419D01*
X149386591Y-119872419D02*
X149196115Y-119872419D01*
X149196115Y-119872419D02*
X149100877Y-119824800D01*
X149100877Y-119824800D02*
X149053258Y-119729561D01*
X149053258Y-119729561D02*
X149053258Y-119681942D01*
X149053258Y-119681942D02*
X149100877Y-119586704D01*
X149100877Y-119586704D02*
X149196115Y-119539085D01*
X149196115Y-119539085D02*
X149338972Y-119539085D01*
X149338972Y-119539085D02*
X149434210Y-119491466D01*
X149434210Y-119491466D02*
X149481829Y-119396228D01*
X149481829Y-119396228D02*
X149481829Y-119348609D01*
X149481829Y-119348609D02*
X149434210Y-119253371D01*
X149434210Y-119253371D02*
X149338972Y-119205752D01*
X149338972Y-119205752D02*
X149196115Y-119205752D01*
X149196115Y-119205752D02*
X149100877Y-119253371D01*
X148005638Y-119205752D02*
X147624686Y-119205752D01*
X147862781Y-118872419D02*
X147862781Y-119729561D01*
X147862781Y-119729561D02*
X147815162Y-119824800D01*
X147815162Y-119824800D02*
X147719924Y-119872419D01*
X147719924Y-119872419D02*
X147624686Y-119872419D01*
X147291352Y-119872419D02*
X147291352Y-119205752D01*
X147291352Y-119396228D02*
X147243733Y-119300990D01*
X147243733Y-119300990D02*
X147196114Y-119253371D01*
X147196114Y-119253371D02*
X147100876Y-119205752D01*
X147100876Y-119205752D02*
X147005638Y-119205752D01*
X146243733Y-119872419D02*
X146243733Y-119348609D01*
X146243733Y-119348609D02*
X146291352Y-119253371D01*
X146291352Y-119253371D02*
X146386590Y-119205752D01*
X146386590Y-119205752D02*
X146577066Y-119205752D01*
X146577066Y-119205752D02*
X146672304Y-119253371D01*
X146243733Y-119824800D02*
X146338971Y-119872419D01*
X146338971Y-119872419D02*
X146577066Y-119872419D01*
X146577066Y-119872419D02*
X146672304Y-119824800D01*
X146672304Y-119824800D02*
X146719923Y-119729561D01*
X146719923Y-119729561D02*
X146719923Y-119634323D01*
X146719923Y-119634323D02*
X146672304Y-119539085D01*
X146672304Y-119539085D02*
X146577066Y-119491466D01*
X146577066Y-119491466D02*
X146338971Y-119491466D01*
X146338971Y-119491466D02*
X146243733Y-119443847D01*
X145338971Y-119824800D02*
X145434209Y-119872419D01*
X145434209Y-119872419D02*
X145624685Y-119872419D01*
X145624685Y-119872419D02*
X145719923Y-119824800D01*
X145719923Y-119824800D02*
X145767542Y-119777180D01*
X145767542Y-119777180D02*
X145815161Y-119681942D01*
X145815161Y-119681942D02*
X145815161Y-119396228D01*
X145815161Y-119396228D02*
X145767542Y-119300990D01*
X145767542Y-119300990D02*
X145719923Y-119253371D01*
X145719923Y-119253371D02*
X145624685Y-119205752D01*
X145624685Y-119205752D02*
X145434209Y-119205752D01*
X145434209Y-119205752D02*
X145338971Y-119253371D01*
X144529447Y-119824800D02*
X144624685Y-119872419D01*
X144624685Y-119872419D02*
X144815161Y-119872419D01*
X144815161Y-119872419D02*
X144910399Y-119824800D01*
X144910399Y-119824800D02*
X144958018Y-119729561D01*
X144958018Y-119729561D02*
X144958018Y-119348609D01*
X144958018Y-119348609D02*
X144910399Y-119253371D01*
X144910399Y-119253371D02*
X144815161Y-119205752D01*
X144815161Y-119205752D02*
X144624685Y-119205752D01*
X144624685Y-119205752D02*
X144529447Y-119253371D01*
X144529447Y-119253371D02*
X144481828Y-119348609D01*
X144481828Y-119348609D02*
X144481828Y-119443847D01*
X144481828Y-119443847D02*
X144958018Y-119539085D01*
X144100875Y-119824800D02*
X144005637Y-119872419D01*
X144005637Y-119872419D02*
X143815161Y-119872419D01*
X143815161Y-119872419D02*
X143719923Y-119824800D01*
X143719923Y-119824800D02*
X143672304Y-119729561D01*
X143672304Y-119729561D02*
X143672304Y-119681942D01*
X143672304Y-119681942D02*
X143719923Y-119586704D01*
X143719923Y-119586704D02*
X143815161Y-119539085D01*
X143815161Y-119539085D02*
X143958018Y-119539085D01*
X143958018Y-119539085D02*
X144053256Y-119491466D01*
X144053256Y-119491466D02*
X144100875Y-119396228D01*
X144100875Y-119396228D02*
X144100875Y-119348609D01*
X144100875Y-119348609D02*
X144053256Y-119253371D01*
X144053256Y-119253371D02*
X143958018Y-119205752D01*
X143958018Y-119205752D02*
X143815161Y-119205752D01*
X143815161Y-119205752D02*
X143719923Y-119253371D01*
X142338970Y-119872419D02*
X142434208Y-119824800D01*
X142434208Y-119824800D02*
X142481827Y-119777180D01*
X142481827Y-119777180D02*
X142529446Y-119681942D01*
X142529446Y-119681942D02*
X142529446Y-119396228D01*
X142529446Y-119396228D02*
X142481827Y-119300990D01*
X142481827Y-119300990D02*
X142434208Y-119253371D01*
X142434208Y-119253371D02*
X142338970Y-119205752D01*
X142338970Y-119205752D02*
X142196113Y-119205752D01*
X142196113Y-119205752D02*
X142100875Y-119253371D01*
X142100875Y-119253371D02*
X142053256Y-119300990D01*
X142053256Y-119300990D02*
X142005637Y-119396228D01*
X142005637Y-119396228D02*
X142005637Y-119681942D01*
X142005637Y-119681942D02*
X142053256Y-119777180D01*
X142053256Y-119777180D02*
X142100875Y-119824800D01*
X142100875Y-119824800D02*
X142196113Y-119872419D01*
X142196113Y-119872419D02*
X142338970Y-119872419D01*
X141719922Y-119205752D02*
X141338970Y-119205752D01*
X141577065Y-119872419D02*
X141577065Y-119015276D01*
X141577065Y-119015276D02*
X141529446Y-118920038D01*
X141529446Y-118920038D02*
X141434208Y-118872419D01*
X141434208Y-118872419D02*
X141338970Y-118872419D01*
X139815160Y-119205752D02*
X139815160Y-120015276D01*
X139815160Y-120015276D02*
X139862779Y-120110514D01*
X139862779Y-120110514D02*
X139910398Y-120158133D01*
X139910398Y-120158133D02*
X140005636Y-120205752D01*
X140005636Y-120205752D02*
X140148493Y-120205752D01*
X140148493Y-120205752D02*
X140243731Y-120158133D01*
X139815160Y-119824800D02*
X139910398Y-119872419D01*
X139910398Y-119872419D02*
X140100874Y-119872419D01*
X140100874Y-119872419D02*
X140196112Y-119824800D01*
X140196112Y-119824800D02*
X140243731Y-119777180D01*
X140243731Y-119777180D02*
X140291350Y-119681942D01*
X140291350Y-119681942D02*
X140291350Y-119396228D01*
X140291350Y-119396228D02*
X140243731Y-119300990D01*
X140243731Y-119300990D02*
X140196112Y-119253371D01*
X140196112Y-119253371D02*
X140100874Y-119205752D01*
X140100874Y-119205752D02*
X139910398Y-119205752D01*
X139910398Y-119205752D02*
X139815160Y-119253371D01*
X138958017Y-119824800D02*
X139053255Y-119872419D01*
X139053255Y-119872419D02*
X139243731Y-119872419D01*
X139243731Y-119872419D02*
X139338969Y-119824800D01*
X139338969Y-119824800D02*
X139386588Y-119729561D01*
X139386588Y-119729561D02*
X139386588Y-119348609D01*
X139386588Y-119348609D02*
X139338969Y-119253371D01*
X139338969Y-119253371D02*
X139243731Y-119205752D01*
X139243731Y-119205752D02*
X139053255Y-119205752D01*
X139053255Y-119205752D02*
X138958017Y-119253371D01*
X138958017Y-119253371D02*
X138910398Y-119348609D01*
X138910398Y-119348609D02*
X138910398Y-119443847D01*
X138910398Y-119443847D02*
X139386588Y-119539085D01*
X138481826Y-119205752D02*
X138481826Y-119872419D01*
X138481826Y-119300990D02*
X138434207Y-119253371D01*
X138434207Y-119253371D02*
X138338969Y-119205752D01*
X138338969Y-119205752D02*
X138196112Y-119205752D01*
X138196112Y-119205752D02*
X138100874Y-119253371D01*
X138100874Y-119253371D02*
X138053255Y-119348609D01*
X138053255Y-119348609D02*
X138053255Y-119872419D01*
X137577064Y-119872419D02*
X137577064Y-119205752D01*
X137577064Y-118872419D02*
X137624683Y-118920038D01*
X137624683Y-118920038D02*
X137577064Y-118967657D01*
X137577064Y-118967657D02*
X137529445Y-118920038D01*
X137529445Y-118920038D02*
X137577064Y-118872419D01*
X137577064Y-118872419D02*
X137577064Y-118967657D01*
X136672303Y-119205752D02*
X136672303Y-119872419D01*
X137100874Y-119205752D02*
X137100874Y-119729561D01*
X137100874Y-119729561D02*
X137053255Y-119824800D01*
X137053255Y-119824800D02*
X136958017Y-119872419D01*
X136958017Y-119872419D02*
X136815160Y-119872419D01*
X136815160Y-119872419D02*
X136719922Y-119824800D01*
X136719922Y-119824800D02*
X136672303Y-119777180D01*
X136243731Y-119824800D02*
X136148493Y-119872419D01*
X136148493Y-119872419D02*
X135958017Y-119872419D01*
X135958017Y-119872419D02*
X135862779Y-119824800D01*
X135862779Y-119824800D02*
X135815160Y-119729561D01*
X135815160Y-119729561D02*
X135815160Y-119681942D01*
X135815160Y-119681942D02*
X135862779Y-119586704D01*
X135862779Y-119586704D02*
X135958017Y-119539085D01*
X135958017Y-119539085D02*
X136100874Y-119539085D01*
X136100874Y-119539085D02*
X136196112Y-119491466D01*
X136196112Y-119491466D02*
X136243731Y-119396228D01*
X136243731Y-119396228D02*
X136243731Y-119348609D01*
X136243731Y-119348609D02*
X136196112Y-119253371D01*
X136196112Y-119253371D02*
X136100874Y-119205752D01*
X136100874Y-119205752D02*
X135958017Y-119205752D01*
X135958017Y-119205752D02*
X135862779Y-119253371D01*
X135386588Y-119777180D02*
X135338969Y-119824800D01*
X135338969Y-119824800D02*
X135386588Y-119872419D01*
X135386588Y-119872419D02*
X135434207Y-119824800D01*
X135434207Y-119824800D02*
X135386588Y-119777180D01*
X135386588Y-119777180D02*
X135386588Y-119872419D01*
D11*
X170569819Y-114371666D02*
X171284104Y-114371666D01*
X171284104Y-114371666D02*
X171426961Y-114324047D01*
X171426961Y-114324047D02*
X171522200Y-114228809D01*
X171522200Y-114228809D02*
X171569819Y-114085952D01*
X171569819Y-114085952D02*
X171569819Y-113990714D01*
X171569819Y-115371666D02*
X171569819Y-114800238D01*
X171569819Y-115085952D02*
X170569819Y-115085952D01*
X170569819Y-115085952D02*
X170712676Y-114990714D01*
X170712676Y-114990714D02*
X170807914Y-114895476D01*
X170807914Y-114895476D02*
X170855533Y-114800238D01*
D12*
%TO.C,J1*%
X129355000Y-117305000D02*
X129355000Y-112105000D01*
X167515000Y-114705000D02*
X170115000Y-114705000D01*
X167515000Y-117305000D02*
X129355000Y-117305000D01*
X167515000Y-117305000D02*
X167515000Y-114705000D01*
X168785000Y-117305000D02*
X170115000Y-117305000D01*
X170115000Y-112105000D02*
X129355000Y-112105000D01*
X170115000Y-114705000D02*
X170115000Y-112105000D01*
X170115000Y-117305000D02*
X170115000Y-115975000D01*
%TD*%
%LPC*%
D13*
%TO.C,SW1*%
X161400000Y-65944700D03*
X166200000Y-65944700D03*
X171000000Y-65944700D03*
%TD*%
D14*
%TO.C,J4*%
X140500000Y-101000000D03*
D15*
X140500000Y-103000000D03*
%TD*%
D16*
%TO.C,J2*%
X172080000Y-94207300D03*
X172080000Y-98007300D03*
X180720000Y-94207300D03*
X180720000Y-98007300D03*
%TD*%
D17*
%TO.C,J1*%
X168785000Y-115975000D03*
D18*
X168785000Y-113435000D03*
X166245000Y-115975000D03*
X166245000Y-113435000D03*
X163705000Y-115975000D03*
X163705000Y-113435000D03*
X161165000Y-115975000D03*
X161165000Y-113435000D03*
X158625000Y-115975000D03*
X158625000Y-113435000D03*
X156085000Y-115975000D03*
X156085000Y-113435000D03*
X153545000Y-115975000D03*
X153545000Y-113435000D03*
X151005000Y-115975000D03*
X151005000Y-113435000D03*
X148465000Y-115975000D03*
X148465000Y-113435000D03*
X145925000Y-115975000D03*
X145925000Y-113435000D03*
X143385000Y-115975000D03*
X143385000Y-113435000D03*
X140845000Y-115975000D03*
X140845000Y-113435000D03*
X138305000Y-115975000D03*
X138305000Y-113435000D03*
X135765000Y-115975000D03*
X135765000Y-113435000D03*
X133225000Y-115975000D03*
X133225000Y-113435000D03*
X130685000Y-115975000D03*
X130685000Y-113435000D03*
%TD*%
%LPD*%
M02*
