%TF.GenerationSoftware,KiCad,Pcbnew,9.0.0*%
%TF.CreationDate,2025-03-27T23:27:48+02:00*%
%TF.ProjectId,EEE3088F Design project,45454533-3038-4384-9620-44657369676e,rev?*%
%TF.SameCoordinates,Original*%
%TF.FileFunction,Copper,L1,Top*%
%TF.FilePolarity,Positive*%
%FSLAX46Y46*%
G04 Gerber Fmt 4.6, Leading zero omitted, Abs format (unit mm)*
G04 Created by KiCad (PCBNEW 9.0.0) date 2025-03-27 23:27:48*
%MOMM*%
%LPD*%
G01*
G04 APERTURE LIST*
G04 Aperture macros list*
%AMRoundRect*
0 Rectangle with rounded corners*
0 $1 Rounding radius*
0 $2 $3 $4 $5 $6 $7 $8 $9 X,Y pos of 4 corners*
0 Add a 4 corners polygon primitive as box body*
4,1,4,$2,$3,$4,$5,$6,$7,$8,$9,$2,$3,0*
0 Add four circle primitives for the rounded corners*
1,1,$1+$1,$2,$3*
1,1,$1+$1,$4,$5*
1,1,$1+$1,$6,$7*
1,1,$1+$1,$8,$9*
0 Add four rect primitives between the rounded corners*
20,1,$1+$1,$2,$3,$4,$5,0*
20,1,$1+$1,$4,$5,$6,$7,0*
20,1,$1+$1,$6,$7,$8,$9,0*
20,1,$1+$1,$8,$9,$2,$3,0*%
G04 Aperture macros list end*
%TA.AperFunction,SMDPad,CuDef*%
%ADD10RoundRect,0.100000X-0.687500X-0.100000X0.687500X-0.100000X0.687500X0.100000X-0.687500X0.100000X0*%
%TD*%
%TA.AperFunction,HeatsinkPad*%
%ADD11C,0.500000*%
%TD*%
%TA.AperFunction,HeatsinkPad*%
%ADD12R,3.400000X5.000000*%
%TD*%
%TA.AperFunction,SMDPad,CuDef*%
%ADD13RoundRect,0.150000X-0.825000X-0.150000X0.825000X-0.150000X0.825000X0.150000X-0.825000X0.150000X0*%
%TD*%
%TA.AperFunction,SMDPad,CuDef*%
%ADD14R,1.000000X1.000000*%
%TD*%
%TA.AperFunction,SMDPad,CuDef*%
%ADD15RoundRect,0.250000X-0.350000X-0.450000X0.350000X-0.450000X0.350000X0.450000X-0.350000X0.450000X0*%
%TD*%
%TA.AperFunction,SMDPad,CuDef*%
%ADD16RoundRect,0.250000X-0.400000X-0.625000X0.400000X-0.625000X0.400000X0.625000X-0.400000X0.625000X0*%
%TD*%
%TA.AperFunction,SMDPad,CuDef*%
%ADD17R,0.650000X0.350000*%
%TD*%
%TA.AperFunction,SMDPad,CuDef*%
%ADD18R,1.000000X1.600000*%
%TD*%
%TA.AperFunction,SMDPad,CuDef*%
%ADD19RoundRect,0.175000X-0.175000X-0.625000X0.175000X-0.625000X0.175000X0.625000X-0.175000X0.625000X0*%
%TD*%
%TA.AperFunction,SMDPad,CuDef*%
%ADD20RoundRect,0.200000X-0.200000X-0.600000X0.200000X-0.600000X0.200000X0.600000X-0.200000X0.600000X0*%
%TD*%
%TA.AperFunction,SMDPad,CuDef*%
%ADD21RoundRect,0.225000X-0.225000X-0.575000X0.225000X-0.575000X0.225000X0.575000X-0.225000X0.575000X0*%
%TD*%
%TA.AperFunction,HeatsinkPad*%
%ADD22O,1.000000X1.700000*%
%TD*%
%TA.AperFunction,ComponentPad*%
%ADD23R,1.700000X1.700000*%
%TD*%
%TA.AperFunction,ComponentPad*%
%ADD24O,1.700000X1.700000*%
%TD*%
%TA.AperFunction,SMDPad,CuDef*%
%ADD25RoundRect,0.155000X-0.212500X-0.155000X0.212500X-0.155000X0.212500X0.155000X-0.212500X0.155000X0*%
%TD*%
%TA.AperFunction,SMDPad,CuDef*%
%ADD26RoundRect,0.250000X-0.412500X-0.650000X0.412500X-0.650000X0.412500X0.650000X-0.412500X0.650000X0*%
%TD*%
%TA.AperFunction,SMDPad,CuDef*%
%ADD27RoundRect,0.237500X-0.300000X-0.237500X0.300000X-0.237500X0.300000X0.237500X-0.300000X0.237500X0*%
%TD*%
%TA.AperFunction,SMDPad,CuDef*%
%ADD28RoundRect,0.250000X-0.337500X-0.475000X0.337500X-0.475000X0.337500X0.475000X-0.337500X0.475000X0*%
%TD*%
%TA.AperFunction,SMDPad,CuDef*%
%ADD29RoundRect,0.250000X-0.412500X-1.100000X0.412500X-1.100000X0.412500X1.100000X-0.412500X1.100000X0*%
%TD*%
%TA.AperFunction,SMDPad,CuDef*%
%ADD30RoundRect,0.225000X-0.225000X-0.375000X0.225000X-0.375000X0.225000X0.375000X-0.225000X0.375000X0*%
%TD*%
%TA.AperFunction,SMDPad,CuDef*%
%ADD31RoundRect,0.150000X-0.587500X-0.150000X0.587500X-0.150000X0.587500X0.150000X-0.587500X0.150000X0*%
%TD*%
%TA.AperFunction,SMDPad,CuDef*%
%ADD32RoundRect,0.237500X-0.287500X-0.237500X0.287500X-0.237500X0.287500X0.237500X-0.287500X0.237500X0*%
%TD*%
%TA.AperFunction,HeatsinkPad*%
%ADD33R,2.410000X3.300000*%
%TD*%
%TA.AperFunction,SMDPad,CuDef*%
%ADD34RoundRect,0.250000X-0.275000X-0.350000X0.275000X-0.350000X0.275000X0.350000X-0.275000X0.350000X0*%
%TD*%
%TA.AperFunction,ViaPad*%
%ADD35C,0.600000*%
%TD*%
%TA.AperFunction,Conductor*%
%ADD36C,0.200000*%
%TD*%
G04 APERTURE END LIST*
D10*
%TO.P,U2,1,NSLEEP*%
%TO.N,3V3_Out*%
X159775000Y-73450000D03*
%TO.P,U2,2,AOUT1*%
%TO.N,MOTOR3_A_OUT*%
X159775000Y-74100000D03*
%TO.P,U2,3,AISEN*%
%TO.N,Net-(U2-AISEN)*%
X159775000Y-74750000D03*
%TO.P,U2,4,AOUT2*%
%TO.N,MOTOR3_B_OUT*%
X159775000Y-75400000D03*
%TO.P,U2,5,BOUT2*%
%TO.N,MOTOR4_B_OUT*%
X159775000Y-76050000D03*
%TO.P,U2,6,BISEN*%
%TO.N,Net-(U2-BISEN)*%
X159775000Y-76700000D03*
%TO.P,U2,7,BOUT1*%
%TO.N,MOTOR4_A_OUT*%
X159775000Y-77350000D03*
%TO.P,U2,8,~{NFAULT}*%
%TO.N,Net-(U2-~{NFAULT})*%
X159775000Y-78000000D03*
%TO.P,U2,9,BIN1*%
%TO.N,MOTOR4_CTRL1*%
X165500000Y-78000000D03*
%TO.P,U2,10,BIN2*%
%TO.N,MOTOR4_CTRL2*%
X165500000Y-77350000D03*
%TO.P,U2,11,VCP*%
%TO.N,Net-(U2-VCP)*%
X165500000Y-76700000D03*
%TO.P,U2,12,VM*%
%TO.N,5V_Out*%
X165500000Y-76050000D03*
%TO.P,U2,13,GND*%
%TO.N,GND*%
X165500000Y-75400000D03*
%TO.P,U2,14,VINT*%
%TO.N,Net-(U2-VINT)*%
X165500000Y-74750000D03*
%TO.P,U2,15,AIN2*%
%TO.N,MOTOR3_CTRL2*%
X165500000Y-74100000D03*
%TO.P,U2,16,AIN1*%
%TO.N,MOTOR3_CTRL1*%
X165500000Y-73450000D03*
D11*
%TO.P,U2,17,EXP*%
%TO.N,unconnected-(U2-EXP-Pad17)*%
X161887500Y-74225000D03*
X161887500Y-75725000D03*
X161887500Y-77225000D03*
D12*
X162637500Y-75725000D03*
D11*
X163387500Y-74225000D03*
X163387500Y-75725000D03*
X163387500Y-77225000D03*
%TD*%
D10*
%TO.P,U1,1,NSLEEP*%
%TO.N,3V3_Out*%
X159775000Y-66810000D03*
%TO.P,U1,2,AOUT1*%
%TO.N,MOTOR1_A_OUT*%
X159775000Y-67460000D03*
%TO.P,U1,3,AISEN*%
%TO.N,Net-(U1-AISEN)*%
X159775000Y-68110000D03*
%TO.P,U1,4,AOUT2*%
%TO.N,MOTOR1_B_OUT*%
X159775000Y-68760000D03*
%TO.P,U1,5,BOUT2*%
%TO.N,MOTOR2_B_OUT*%
X159775000Y-69410000D03*
%TO.P,U1,6,BISEN*%
%TO.N,Net-(U1-BISEN)*%
X159775000Y-70060000D03*
%TO.P,U1,7,BOUT1*%
%TO.N,MOTOR2_A_OUT*%
X159775000Y-70710000D03*
%TO.P,U1,8,~{NFAULT}*%
%TO.N,Net-(U1-~{NFAULT})*%
X159775000Y-71360000D03*
%TO.P,U1,9,BIN1*%
%TO.N,MOTOR2_CTRL1*%
X165500000Y-71360000D03*
%TO.P,U1,10,BIN2*%
%TO.N,MOTOR2_CTRL2*%
X165500000Y-70710000D03*
%TO.P,U1,11,VCP*%
%TO.N,Net-(U1-VCP)*%
X165500000Y-70060000D03*
%TO.P,U1,12,VM*%
%TO.N,5V_Out*%
X165500000Y-69410000D03*
%TO.P,U1,13,GND*%
%TO.N,GND*%
X165500000Y-68760000D03*
%TO.P,U1,14,VINT*%
%TO.N,Net-(U1-VINT)*%
X165500000Y-68110000D03*
%TO.P,U1,15,AIN2*%
%TO.N,MOTOR1_CTRL2*%
X165500000Y-67460000D03*
%TO.P,U1,16,AIN1*%
%TO.N,MOTOR1_CTRL1*%
X165500000Y-66810000D03*
D11*
%TO.P,U1,17,EXP*%
%TO.N,unconnected-(U1-EXP-Pad17)*%
X161887500Y-67585000D03*
X161887500Y-69085000D03*
X161887500Y-70585000D03*
D12*
X162637500Y-69085000D03*
D11*
X163387500Y-67585000D03*
X163387500Y-69085000D03*
X163387500Y-70585000D03*
%TD*%
D13*
%TO.P,U5,1,A1*%
%TO.N,3V3_Out*%
X109050000Y-96690000D03*
%TO.P,U5,2,A0*%
%TO.N,GND*%
X109050000Y-97960000D03*
%TO.P,U5,3,SDA*%
%TO.N,Net-(U5-SDA)*%
X109050000Y-99230000D03*
%TO.P,U5,4,SCL*%
%TO.N,Net-(U5-SCL)*%
X109050000Y-100500000D03*
%TO.P,U5,5,VS*%
%TO.N,Net-(U5-VS)*%
X114000000Y-100500000D03*
%TO.P,U5,6,GND*%
%TO.N,GND*%
X114000000Y-99230000D03*
%TO.P,U5,7,VIN-*%
%TO.N,Net-(U5-VIN-)*%
X114000000Y-97960000D03*
%TO.P,U5,8,VIN+*%
%TO.N,Battery*%
X114000000Y-96690000D03*
%TD*%
D14*
%TO.P,TP10,1,1*%
%TO.N,MOTOR1_A_OUT*%
X92235000Y-89495000D03*
%TD*%
%TO.P,TP9,1,1*%
%TO.N,MOTOR2_B_OUT*%
X92235000Y-86445000D03*
%TD*%
%TO.P,TP8,1,1*%
%TO.N,MOTOR2_CTRL2*%
X92235000Y-83395000D03*
%TD*%
%TO.P,TP7,1,1*%
%TO.N,MOTOR1_CTRL2*%
X92235000Y-80345000D03*
%TD*%
%TO.P,TP6,1,1*%
%TO.N,MOTOR3_CTRL1*%
X92235000Y-77295000D03*
%TD*%
%TO.P,TP5,1,1*%
%TO.N,MOTOR4_B_OUT*%
X89185000Y-89495000D03*
%TD*%
%TO.P,TP4,1,1*%
%TO.N,MOTOR3_A_OUT*%
X89185000Y-86445000D03*
%TD*%
%TO.P,TP3,1,1*%
%TO.N,MOTOR4_CTRL2*%
X89185000Y-83395000D03*
%TD*%
%TO.P,TP2,1,1*%
%TO.N,Net-(U2-~{NFAULT})*%
X89185000Y-80345000D03*
%TD*%
%TO.P,TP1,1,1*%
%TO.N,Net-(U1-~{NFAULT})*%
X89185000Y-77295000D03*
%TD*%
D15*
%TO.P,R19,1*%
%TO.N,Net-(Q1-G)*%
X146090000Y-124220000D03*
%TO.P,R19,2*%
%TO.N,GND*%
X148090000Y-124220000D03*
%TD*%
%TO.P,R18,1*%
%TO.N,Net-(Q1-G)*%
X102725000Y-108585000D03*
%TO.P,R18,2*%
%TO.N,FAST_CHARGE_CTRL*%
X104725000Y-108585000D03*
%TD*%
D16*
%TO.P,R17,1*%
%TO.N,GND*%
X89085000Y-109605000D03*
%TO.P,R17,2*%
%TO.N,Net-(J3-VSET)*%
X92185000Y-109605000D03*
%TD*%
%TO.P,R8,1*%
%TO.N,/USB C/CC2*%
X89085000Y-106315000D03*
%TO.P,R8,2*%
%TO.N,Net-(J2-CC2)*%
X92185000Y-106315000D03*
%TD*%
%TO.P,R7,1*%
%TO.N,I2C1_SCL*%
X102775000Y-103465000D03*
%TO.P,R7,2*%
%TO.N,Net-(U5-SCL)*%
X105875000Y-103465000D03*
%TD*%
%TO.P,R6,1*%
%TO.N,I2C1_SDA*%
X102775000Y-100175000D03*
%TO.P,R6,2*%
%TO.N,Net-(U5-SDA)*%
X105875000Y-100175000D03*
%TD*%
%TO.P,R5,1*%
%TO.N,Battery*%
X102775000Y-96885000D03*
%TO.P,R5,2*%
%TO.N,Net-(U5-VIN-)*%
X105875000Y-96885000D03*
%TD*%
%TO.P,R4,1*%
%TO.N,Net-(U2-BISEN)*%
X95185000Y-83995000D03*
%TO.P,R4,2*%
%TO.N,GND*%
X98285000Y-83995000D03*
%TD*%
%TO.P,R2,1*%
%TO.N,Net-(U1-BISEN)*%
X95185000Y-80705000D03*
%TO.P,R2,2*%
%TO.N,GND*%
X98285000Y-80705000D03*
%TD*%
%TO.P,R1,1*%
%TO.N,Net-(U1-AISEN)*%
X95185000Y-77415000D03*
%TO.P,R1,2*%
%TO.N,GND*%
X98285000Y-77415000D03*
%TD*%
D17*
%TO.P,J3,1,CC1*%
%TO.N,/USB C/CC1*%
X94960000Y-105870000D03*
%TO.P,J3,2,VBUS*%
%TO.N,HV*%
X94960000Y-106520000D03*
%TO.P,J3,3,VSET*%
%TO.N,Net-(J3-VSET)*%
X94960000Y-107170000D03*
%TO.P,J3,4,D+*%
%TO.N,unconnected-(J3-D+-Pad4)*%
X97060000Y-107170000D03*
%TO.P,J3,5,D-*%
%TO.N,unconnected-(J3-D--Pad5)*%
X97060000Y-106520000D03*
%TO.P,J3,6,CC2*%
%TO.N,/USB C/CC2*%
X97060000Y-105870000D03*
D18*
%TO.P,J3,7*%
%TO.N,N/C*%
X96010000Y-106520000D03*
%TD*%
D19*
%TO.P,J2,A5,CC1*%
%TO.N,Net-(J2-CC1)*%
X93005000Y-97065000D03*
D20*
%TO.P,J2,A9,VBUS_A*%
%TO.N,HV*%
X95025000Y-97065000D03*
D21*
%TO.P,J2,A12,GND_A*%
%TO.N,GND*%
X96255000Y-97065000D03*
D19*
%TO.P,J2,B5,CC2*%
%TO.N,Net-(J2-CC2)*%
X94005000Y-97065000D03*
D20*
%TO.P,J2,B9,VBUS_B*%
%TO.N,HV*%
X91985000Y-97065000D03*
D21*
%TO.P,J2,B12,GND_B*%
%TO.N,GND*%
X90755000Y-97065000D03*
D22*
%TO.P,J2,S1*%
%TO.N,N/C*%
X89185000Y-97245000D03*
X89185000Y-101045000D03*
X97825000Y-97245000D03*
X97825000Y-101045000D03*
%TD*%
D23*
%TO.P,J1,1,Pin_1*%
%TO.N,MOTOR2_B_OUT*%
X109900000Y-135000000D03*
D24*
%TO.P,J1,2,Pin_2*%
%TO.N,MOTOR2_A_OUT*%
X109900000Y-132460000D03*
%TO.P,J1,3,Pin_3*%
%TO.N,MOTOR4_A_OUT*%
X112440000Y-135000000D03*
%TO.P,J1,4,Pin_4*%
%TO.N,MOTOR2_CTRL1*%
X112440000Y-132460000D03*
%TO.P,J1,5,Pin_5*%
%TO.N,MOTOR4_B_OUT*%
X114980000Y-135000000D03*
%TO.P,J1,6,Pin_6*%
%TO.N,MOTOR2_CTRL2*%
X114980000Y-132460000D03*
%TO.P,J1,7,Pin_7*%
%TO.N,CTRL_EXT_LOAD2*%
X117520000Y-135000000D03*
%TO.P,J1,8,Pin_8*%
%TO.N,MOTOR4_CTRL1*%
X117520000Y-132460000D03*
%TO.P,J1,9,Pin_9*%
%TO.N,USART2_RX*%
X120060000Y-135000000D03*
%TO.P,J1,10,Pin_10*%
%TO.N,MOTOR4_CTRL2*%
X120060000Y-132460000D03*
%TO.P,J1,11,Pin_11*%
%TO.N,EXT_LOAD2_OUT*%
X122600000Y-135000000D03*
%TO.P,J1,12,Pin_12*%
%TO.N,USART2_TX*%
X122600000Y-132460000D03*
%TO.P,J1,13,Pin_13*%
%TO.N,FAST_CHARGE_CTRL*%
X125140000Y-135000000D03*
%TO.P,J1,14,Pin_14*%
%TO.N,Battery*%
X125140000Y-132460000D03*
%TO.P,J1,15,Pin_15*%
%TO.N,RESV*%
X127680000Y-135000000D03*
%TO.P,J1,16,Pin_16*%
%TO.N,I2C1_SCL*%
X127680000Y-132460000D03*
%TO.P,J1,17,Pin_17*%
%TO.N,I2C1_SDA*%
X130220000Y-135000000D03*
%TO.P,J1,18,Pin_18*%
%TO.N,3V3_Out*%
X130220000Y-132460000D03*
%TO.P,J1,19,Pin_19*%
%TO.N,GND*%
X132760000Y-135000000D03*
%TO.P,J1,20,Pin_20*%
%TO.N,5V_Out*%
X132760000Y-132460000D03*
%TO.P,J1,21,Pin_21*%
%TO.N,EXT_LOAD1_OUT*%
X135300000Y-135000000D03*
%TO.P,J1,22,Pin_22*%
%TO.N,HV*%
X135300000Y-132460000D03*
%TO.P,J1,23,Pin_23*%
%TO.N,GND*%
X137840000Y-135000000D03*
%TO.P,J1,24,Pin_24*%
%TO.N,MOTOR3_CTRL1*%
X137840000Y-132460000D03*
%TO.P,J1,25,Pin_25*%
%TO.N,CTRL_EXT_LOAD1*%
X140380000Y-135000000D03*
%TO.P,J1,26,Pin_26*%
%TO.N,MOTOR3_CTRL2*%
X140380000Y-132460000D03*
%TO.P,J1,27,Pin_27*%
%TO.N,MOTOR3_A_OUT*%
X142920000Y-135000000D03*
%TO.P,J1,28,Pin_28*%
%TO.N,MOTOR1_CTRL1*%
X142920000Y-132460000D03*
%TO.P,J1,29,Pin_29*%
%TO.N,MOTOR3_B_OUT*%
X145460000Y-135000000D03*
%TO.P,J1,30,Pin_30*%
%TO.N,MOTOR1_CTRL2*%
X145460000Y-132460000D03*
%TO.P,J1,31,Pin_31*%
%TO.N,MOTOR1_B_OUT*%
X148000000Y-135000000D03*
%TO.P,J1,32,Pin_32*%
%TO.N,MOTOR1_A_OUT*%
X148000000Y-132460000D03*
%TD*%
D25*
%TO.P,C7,1*%
%TO.N,Net-(U5-VS)*%
X108337500Y-102805000D03*
%TO.P,C7,2*%
%TO.N,3V3_Out*%
X109472500Y-102805000D03*
%TD*%
D26*
%TO.P,C6,1*%
%TO.N,Net-(U2-VINT)*%
X95202500Y-87315000D03*
%TO.P,C6,2*%
%TO.N,GND*%
X98327500Y-87315000D03*
%TD*%
D27*
%TO.P,C5,1*%
%TO.N,Net-(U2-VCP)*%
X101082500Y-89405000D03*
%TO.P,C5,2*%
%TO.N,5V_Out*%
X102807500Y-89405000D03*
%TD*%
D28*
%TO.P,C4,1*%
%TO.N,5V_Out*%
X101077500Y-80285000D03*
%TO.P,C4,2*%
%TO.N,GND*%
X103152500Y-80285000D03*
%TD*%
D27*
%TO.P,C3,1*%
%TO.N,Net-(U1-VCP)*%
X101082500Y-86895000D03*
%TO.P,C3,2*%
%TO.N,5V_Out*%
X102807500Y-86895000D03*
%TD*%
D28*
%TO.P,C2,1*%
%TO.N,5V_Out*%
X101077500Y-77275000D03*
%TO.P,C2,2*%
%TO.N,GND*%
X103152500Y-77275000D03*
%TD*%
D29*
%TO.P,C1,1*%
%TO.N,Net-(U1-VINT)*%
X95202500Y-91115000D03*
%TO.P,C1,2*%
%TO.N,GND*%
X98327500Y-91115000D03*
%TD*%
D13*
%TO.P,U7,1,VIN*%
%TO.N,HV*%
X119635000Y-100435000D03*
%TO.P,U7,2,OUT*%
%TO.N,Net-(D2-K)*%
X119635000Y-101705000D03*
%TO.P,U7,3,FB*%
%TO.N,unconnected-(U7-FB-Pad3)*%
X119635000Y-102975000D03*
%TO.P,U7,4,~{EN}*%
%TO.N,GND*%
X119635000Y-104245000D03*
%TO.P,U7,5,GND*%
X124585000Y-104245000D03*
%TO.P,U7,6,GND*%
X124585000Y-102975000D03*
%TO.P,U7,7,GND*%
X124585000Y-101705000D03*
%TO.P,U7,8,GND*%
X124585000Y-100435000D03*
%TD*%
D30*
%TO.P,D1,1,K*%
%TO.N,Net-(D1-K)*%
X122055000Y-123900000D03*
%TO.P,D1,2,A*%
%TO.N,GND*%
X125355000Y-123900000D03*
%TD*%
D16*
%TO.P,R9,1*%
%TO.N,/USB C/CC1*%
X146900000Y-91500000D03*
%TO.P,R9,2*%
%TO.N,Net-(J2-CC1)*%
X150000000Y-91500000D03*
%TD*%
D31*
%TO.P,Q1,1,D*%
%TO.N,Net-(Q1-D)*%
X132592500Y-103185000D03*
%TO.P,Q1,2,G*%
%TO.N,Net-(Q1-G)*%
X132592500Y-105085000D03*
%TO.P,Q1,3,S*%
%TO.N,GND*%
X134467500Y-104135000D03*
%TD*%
D32*
%TO.P,L1,1*%
%TO.N,Net-(D1-K)*%
X122085000Y-126830000D03*
%TO.P,L1,2*%
%TO.N,3V3_Out*%
X123835000Y-126830000D03*
%TD*%
D16*
%TO.P,R10,1*%
%TO.N,Net-(U3-ILIM)*%
X167450000Y-102630000D03*
%TO.P,R10,2*%
%TO.N,Net-(R10-Pad2)*%
X170550000Y-102630000D03*
%TD*%
%TO.P,R11,1*%
%TO.N,Net-(R10-Pad2)*%
X167450000Y-105920000D03*
%TO.P,R11,2*%
%TO.N,GND*%
X170550000Y-105920000D03*
%TD*%
D32*
%TO.P,L2,1*%
%TO.N,Net-(L2-Pad1)*%
X119185000Y-113400000D03*
%TO.P,L2,2*%
%TO.N,/battery/5V*%
X120935000Y-113400000D03*
%TD*%
D26*
%TO.P,C9,1*%
%TO.N,HV*%
X127777500Y-109510000D03*
%TO.P,C9,2*%
%TO.N,GND*%
X130902500Y-109510000D03*
%TD*%
D13*
%TO.P,U8,1,TEMP*%
%TO.N,unconnected-(U8-TEMP-Pad1)*%
X119635000Y-107015000D03*
%TO.P,U8,2,PROG*%
%TO.N,Net-(U8-PROG)*%
X119635000Y-108285000D03*
%TO.P,U8,3,GND*%
%TO.N,GND*%
X119635000Y-109555000D03*
%TO.P,U8,4,V_{CC}*%
%TO.N,/battery/5V*%
X119635000Y-110825000D03*
%TO.P,U8,5,BAT*%
%TO.N,Battery*%
X124585000Y-110825000D03*
%TO.P,U8,6,~{STDBY}*%
%TO.N,unconnected-(U8-~{STDBY}-Pad6)*%
X124585000Y-109555000D03*
%TO.P,U8,7,~{CHRG}*%
%TO.N,unconnected-(U8-~{CHRG}-Pad7)*%
X124585000Y-108285000D03*
%TO.P,U8,8,CE*%
%TO.N,unconnected-(U8-CE-Pad8)*%
X124585000Y-107015000D03*
D11*
%TO.P,U8,9,EPAD*%
%TO.N,unconnected-(U8-EPAD-Pad9)*%
X121410000Y-107720000D03*
X121410000Y-108920000D03*
X121410000Y-110120000D03*
D33*
X122110000Y-108920000D03*
D11*
X122810000Y-107720000D03*
X122810000Y-108920000D03*
X122810000Y-110120000D03*
%TD*%
D16*
%TO.P,R3,1*%
%TO.N,Net-(U2-AISEN)*%
X155400000Y-108000000D03*
%TO.P,R3,2*%
%TO.N,GND*%
X158500000Y-108000000D03*
%TD*%
%TO.P,R13,1*%
%TO.N,Net-(R12-Pad2)*%
X167450000Y-112500000D03*
%TO.P,R13,2*%
%TO.N,GND*%
X170550000Y-112500000D03*
%TD*%
D15*
%TO.P,R14,1*%
%TO.N,Net-(U8-PROG)*%
X127710000Y-100460000D03*
%TO.P,R14,2*%
%TO.N,Net-(R14-Pad2)*%
X129710000Y-100460000D03*
%TD*%
D16*
%TO.P,R12,1*%
%TO.N,Net-(U6-ILIM)*%
X167450000Y-109210000D03*
%TO.P,R12,2*%
%TO.N,Net-(R12-Pad2)*%
X170550000Y-109210000D03*
%TD*%
D34*
%TO.P,L3,1*%
%TO.N,Net-(D2-K)*%
X132380000Y-100360000D03*
%TO.P,L3,2*%
%TO.N,Net-(L2-Pad1)*%
X134680000Y-100360000D03*
%TD*%
D15*
%TO.P,R16,1*%
%TO.N,Net-(U8-PROG)*%
X127710000Y-106360000D03*
%TO.P,R16,2*%
%TO.N,Net-(Q1-D)*%
X129710000Y-106360000D03*
%TD*%
D30*
%TO.P,D2,1,K*%
%TO.N,Net-(D2-K)*%
X127605000Y-112860000D03*
%TO.P,D2,2,A*%
%TO.N,GND*%
X130905000Y-112860000D03*
%TD*%
D26*
%TO.P,C8,1*%
%TO.N,5V_Out*%
X116217500Y-123900000D03*
%TO.P,C8,2*%
%TO.N,GND*%
X119342500Y-123900000D03*
%TD*%
D13*
%TO.P,U4,1,VIN*%
%TO.N,5V_Out*%
X116525000Y-117095000D03*
%TO.P,U4,2,OUT*%
%TO.N,Net-(D1-K)*%
X116525000Y-118365000D03*
%TO.P,U4,3,FB*%
%TO.N,3V3_Out*%
X116525000Y-119635000D03*
%TO.P,U4,4,~{EN}*%
%TO.N,GND*%
X116525000Y-120905000D03*
%TO.P,U4,5,GND*%
X121475000Y-120905000D03*
%TO.P,U4,6,GND*%
X121475000Y-119635000D03*
%TO.P,U4,7,GND*%
X121475000Y-118365000D03*
%TO.P,U4,8,GND*%
X121475000Y-117095000D03*
%TD*%
D15*
%TO.P,R15,1*%
%TO.N,Net-(R14-Pad2)*%
X127710000Y-103410000D03*
%TO.P,R15,2*%
%TO.N,GND*%
X129710000Y-103410000D03*
%TD*%
D35*
%TO.N,Net-(U2-~{NFAULT})*%
X147310200Y-74736600D03*
X147310200Y-77960800D03*
%TO.N,Net-(U1-BISEN)*%
X101587500Y-70060000D03*
X96557200Y-81068000D03*
%TO.N,Net-(Q1-G)*%
X137225100Y-124220000D03*
X134039900Y-105165200D03*
%TO.N,Net-(J2-CC2)*%
X93688100Y-105870000D03*
X94824200Y-95745000D03*
%TO.N,MOTOR1_A_OUT*%
X148000000Y-89793900D03*
X152414900Y-67467600D03*
%TO.N,MOTOR3_A_OUT*%
X156578700Y-74100000D03*
X91147700Y-78312300D03*
X91147700Y-87101800D03*
%TO.N,MOTOR4_CTRL2*%
X120060000Y-79203800D03*
X120060000Y-88187800D03*
%TO.N,MOTOR4_CTRL1*%
X117520000Y-78571700D03*
%TO.N,FAST_CHARGE_CTRL*%
X123868500Y-115845900D03*
%TO.N,MOTOR3_B_OUT*%
X146611700Y-75441400D03*
%TO.N,MOTOR4_B_OUT*%
X109795400Y-92565800D03*
X109797000Y-76050000D03*
%TO.N,MOTOR3_CTRL1*%
X137840000Y-72694800D03*
%TO.N,I2C1_SDA*%
X109481800Y-101388800D03*
X110594200Y-131029900D03*
%TO.N,I2C1_SCL*%
X122361100Y-103610000D03*
%TO.N,MOTOR2_CTRL2*%
X90546000Y-133674800D03*
X90546000Y-84115600D03*
X96843400Y-71586500D03*
%TO.N,MOTOR4_A_OUT*%
X116792400Y-77350000D03*
%TO.N,MOTOR3_CTRL2*%
X166583600Y-131287800D03*
X166797900Y-74100000D03*
%TO.N,MOTOR1_B_OUT*%
X156522500Y-68760000D03*
%TO.N,MOTOR2_B_OUT*%
X92235000Y-87451300D03*
X102407900Y-69410000D03*
%TO.N,MOTOR2_A_OUT*%
X108880100Y-70336400D03*
%TO.N,MOTOR1_CTRL1*%
X142920000Y-68683300D03*
%TO.N,Battery*%
X125140000Y-111627600D03*
X120915700Y-101070000D03*
%TO.N,Net-(U8-PROG)*%
X125965200Y-106360000D03*
X126768700Y-101401300D03*
%TO.N,3V3_Out*%
X113696000Y-119635000D03*
X111200800Y-102077100D03*
X157864500Y-66865900D03*
X157807900Y-73380500D03*
X113518400Y-73380500D03*
%TO.N,HV*%
X128780500Y-108353200D03*
X126013300Y-98599600D03*
%TO.N,5V_Out*%
X114258100Y-117649100D03*
X110405500Y-89405000D03*
X165671600Y-79450300D03*
X167529000Y-70451000D03*
X165144400Y-80665900D03*
%TO.N,/USB C/CC1*%
X122962800Y-104799600D03*
X122962800Y-93083500D03*
%TO.N,MOTOR1_CTRL2*%
X145460000Y-65798000D03*
X145460000Y-75358600D03*
%TO.N,Net-(U1-VCP)*%
X138473700Y-86082600D03*
X138473700Y-72112000D03*
%TO.N,Net-(U2-AISEN)*%
X163729400Y-106787500D03*
X158485200Y-74769900D03*
%TO.N,GND*%
X99510100Y-89715500D03*
X99679000Y-95799900D03*
X99472600Y-116247600D03*
X166820800Y-69043600D03*
X167187700Y-76066000D03*
X169254600Y-105863300D03*
%TD*%
D36*
%TO.N,unconnected-(U2-EXP-Pad17)*%
X163387500Y-77225000D02*
X161887500Y-77225000D01*
X163387500Y-74225000D02*
X161887500Y-74225000D01*
X163387500Y-75725000D02*
X162637500Y-75725000D01*
X162637500Y-75725000D02*
X161887500Y-75725000D01*
%TO.N,unconnected-(U1-EXP-Pad17)*%
X163387500Y-70585000D02*
X161887500Y-70585000D01*
X163387500Y-67585000D02*
X161887500Y-67585000D01*
X163387500Y-69085000D02*
X162637500Y-69085000D01*
X162637500Y-69085000D02*
X161887500Y-69085000D01*
%TO.N,Net-(U2-~{NFAULT})*%
X159735800Y-77960800D02*
X147310200Y-77960800D01*
X159775000Y-78000000D02*
X159735800Y-77960800D01*
X89185000Y-80345000D02*
X89986700Y-80345000D01*
X97924900Y-74736600D02*
X147310200Y-74736600D01*
X96188500Y-76473000D02*
X97924900Y-74736600D01*
X96188500Y-78243000D02*
X96188500Y-76473000D01*
X95622400Y-78809100D02*
X96188500Y-78243000D01*
X94572500Y-78809100D02*
X95622400Y-78809100D01*
X93838300Y-79543300D02*
X94572500Y-78809100D01*
X90788400Y-79543300D02*
X93838300Y-79543300D01*
X89986700Y-80345000D02*
X90788400Y-79543300D01*
%TO.N,Net-(U1-~{NFAULT})*%
X89185000Y-77295000D02*
X89986700Y-77295000D01*
X96323400Y-70958300D02*
X89986700Y-77295000D01*
X141895500Y-70958300D02*
X96323400Y-70958300D01*
X142297200Y-71360000D02*
X141895500Y-70958300D01*
X159775000Y-71360000D02*
X142297200Y-71360000D01*
%TO.N,Net-(U5-SCL)*%
X108840000Y-100500000D02*
X109050000Y-100500000D01*
X105875000Y-103465000D02*
X108840000Y-100500000D01*
%TO.N,Net-(U5-SDA)*%
X106820000Y-99230000D02*
X109050000Y-99230000D01*
X105875000Y-100175000D02*
X106820000Y-99230000D01*
%TO.N,Net-(U5-VIN-)*%
X107101700Y-95658300D02*
X105875000Y-96885000D01*
X110691400Y-95658300D02*
X107101700Y-95658300D01*
X112993100Y-97960000D02*
X110691400Y-95658300D01*
X114000000Y-97960000D02*
X112993100Y-97960000D01*
%TO.N,Net-(U2-BISEN)*%
X107812100Y-76700000D02*
X159775000Y-76700000D01*
X106910500Y-75798400D02*
X107812100Y-76700000D01*
X98049300Y-75798400D02*
X106910500Y-75798400D01*
X97183600Y-76664100D02*
X98049300Y-75798400D01*
X97183600Y-81996400D02*
X97183600Y-76664100D01*
X95185000Y-83995000D02*
X97183600Y-81996400D01*
%TO.N,Net-(U1-BISEN)*%
X95548000Y-81068000D02*
X96557200Y-81068000D01*
X95185000Y-80705000D02*
X95548000Y-81068000D01*
X108274400Y-70060000D02*
X101587500Y-70060000D01*
X108631100Y-69703300D02*
X108274400Y-70060000D01*
X109129200Y-69703300D02*
X108631100Y-69703300D01*
X109580800Y-70154900D02*
X109129200Y-69703300D01*
X142228100Y-70154900D02*
X109580800Y-70154900D01*
X142286600Y-70213400D02*
X142228100Y-70154900D01*
X155945700Y-70213400D02*
X142286600Y-70213400D01*
X156099100Y-70060000D02*
X155945700Y-70213400D01*
X159775000Y-70060000D02*
X156099100Y-70060000D01*
%TO.N,Net-(U1-AISEN)*%
X155567500Y-68110000D02*
X159775000Y-68110000D01*
X154385800Y-69291700D02*
X155567500Y-68110000D01*
X141735400Y-69291700D02*
X154385800Y-69291700D01*
X141250400Y-68806700D02*
X141735400Y-69291700D01*
X96245500Y-68806700D02*
X141250400Y-68806700D01*
X88383300Y-76668900D02*
X96245500Y-68806700D01*
X88383300Y-77921400D02*
X88383300Y-76668900D01*
X89404900Y-78943000D02*
X88383300Y-77921400D01*
X93657000Y-78943000D02*
X89404900Y-78943000D01*
X95185000Y-77415000D02*
X93657000Y-78943000D01*
%TO.N,Net-(Q1-G)*%
X146090000Y-124220000D02*
X137225100Y-124220000D01*
X132672700Y-105165200D02*
X132592500Y-105085000D01*
X134039900Y-105165200D02*
X132672700Y-105165200D01*
X126381500Y-105085000D02*
X132592500Y-105085000D01*
X125518700Y-105947800D02*
X126381500Y-105085000D01*
X105362200Y-105947800D02*
X125518700Y-105947800D01*
X102725000Y-108585000D02*
X105362200Y-105947800D01*
%TO.N,Net-(J3-VSET)*%
X94333300Y-107456700D02*
X92185000Y-109605000D01*
X94333300Y-107170000D02*
X94333300Y-107456700D01*
X94960000Y-107170000D02*
X94333300Y-107170000D01*
%TO.N,/USB C/CC2*%
X90683300Y-107913300D02*
X89085000Y-106315000D01*
X90683300Y-109909800D02*
X90683300Y-107913300D01*
X91569300Y-110795800D02*
X90683300Y-109909800D01*
X94413300Y-110795800D02*
X91569300Y-110795800D01*
X97686700Y-107522400D02*
X94413300Y-110795800D01*
X97686700Y-105870000D02*
X97686700Y-107522400D01*
X97060000Y-105870000D02*
X97686700Y-105870000D01*
%TO.N,Net-(J2-CC2)*%
X92630000Y-105870000D02*
X93688100Y-105870000D01*
X92185000Y-106315000D02*
X92630000Y-105870000D01*
X94005000Y-96564200D02*
X94005000Y-97065000D01*
X94824200Y-95745000D02*
X94005000Y-96564200D01*
%TO.N,MOTOR1_A_OUT*%
X92235000Y-89495000D02*
X92235000Y-90296700D01*
X159767400Y-67467600D02*
X159775000Y-67460000D01*
X152414900Y-67467600D02*
X159767400Y-67467600D01*
X114218600Y-89793900D02*
X148000000Y-89793900D01*
X110019500Y-93993000D02*
X114218600Y-89793900D01*
X100442300Y-93993000D02*
X110019500Y-93993000D01*
X100040600Y-94394700D02*
X100442300Y-93993000D01*
X96152200Y-94394700D02*
X100040600Y-94394700D01*
X92235000Y-90477500D02*
X96152200Y-94394700D01*
X92235000Y-90296700D02*
X92235000Y-90477500D01*
%TO.N,MOTOR3_A_OUT*%
X159775000Y-74100000D02*
X156578700Y-74100000D01*
X90643500Y-87101800D02*
X89986700Y-86445000D01*
X91147700Y-87101800D02*
X90643500Y-87101800D01*
X89185000Y-86445000D02*
X89986700Y-86445000D01*
X96691800Y-74100000D02*
X156578700Y-74100000D01*
X94205400Y-76586400D02*
X96691800Y-74100000D01*
X94205400Y-76814000D02*
X94205400Y-76586400D01*
X92707100Y-78312300D02*
X94205400Y-76814000D01*
X91147700Y-78312300D02*
X92707100Y-78312300D01*
%TO.N,MOTOR4_CTRL2*%
X89185000Y-83395000D02*
X89185000Y-84196700D01*
X119859100Y-88388700D02*
X120060000Y-88187800D01*
X112536100Y-88388700D02*
X119859100Y-88388700D01*
X110539900Y-90384900D02*
X112536100Y-88388700D01*
X102879000Y-90384900D02*
X110539900Y-90384900D01*
X101664800Y-91599100D02*
X102879000Y-90384900D01*
X100364300Y-91599100D02*
X101664800Y-91599100D01*
X99175500Y-92787900D02*
X100364300Y-91599100D01*
X97703900Y-92787900D02*
X99175500Y-92787900D01*
X97353000Y-92437000D02*
X97703900Y-92787900D01*
X97353000Y-87571800D02*
X97353000Y-92437000D01*
X95426000Y-85644800D02*
X97353000Y-87571800D01*
X94233600Y-85644800D02*
X95426000Y-85644800D01*
X93697100Y-85108300D02*
X94233600Y-85644800D01*
X90096600Y-85108300D02*
X93697100Y-85108300D01*
X89185000Y-84196700D02*
X90096600Y-85108300D01*
X120215200Y-79048600D02*
X120060000Y-79203800D01*
X165222500Y-79048600D02*
X120215200Y-79048600D01*
X165422500Y-78848600D02*
X165222500Y-79048600D01*
X166013900Y-78848600D02*
X165422500Y-78848600D01*
X166609100Y-78253400D02*
X166013900Y-78848600D01*
X166609100Y-77752900D02*
X166609100Y-78253400D01*
X166206200Y-77350000D02*
X166609100Y-77752900D01*
X165500000Y-77350000D02*
X166206200Y-77350000D01*
%TO.N,MOTOR4_CTRL1*%
X164928300Y-78571700D02*
X117520000Y-78571700D01*
X165500000Y-78000000D02*
X164928300Y-78571700D01*
%TO.N,FAST_CHARGE_CTRL*%
X111985900Y-115845900D02*
X104725000Y-108585000D01*
X123868500Y-115845900D02*
X111985900Y-115845900D01*
%TO.N,MOTOR3_B_OUT*%
X159733600Y-75441400D02*
X146611700Y-75441400D01*
X159775000Y-75400000D02*
X159733600Y-75441400D01*
%TO.N,MOTOR4_B_OUT*%
X89185000Y-89495000D02*
X89986700Y-89495000D01*
X159775000Y-76050000D02*
X109797000Y-76050000D01*
X100733500Y-92565800D02*
X109795400Y-92565800D01*
X99708000Y-93591300D02*
X100733500Y-92565800D01*
X97371300Y-93591300D02*
X99708000Y-93591300D01*
X96549600Y-92769600D02*
X97371300Y-93591300D01*
X96549600Y-90131400D02*
X96549600Y-92769600D01*
X95111500Y-88693300D02*
X96549600Y-90131400D01*
X90788400Y-88693300D02*
X95111500Y-88693300D01*
X89986700Y-89495000D02*
X90788400Y-88693300D01*
%TO.N,MOTOR3_CTRL1*%
X92235000Y-77295000D02*
X93036700Y-77295000D01*
X164861200Y-72811200D02*
X165500000Y-73450000D01*
X158089800Y-72811200D02*
X164861200Y-72811200D01*
X158000800Y-72722200D02*
X158089800Y-72811200D01*
X137867400Y-72722200D02*
X158000800Y-72722200D01*
X137840000Y-72694800D02*
X137867400Y-72722200D01*
X97512000Y-72694800D02*
X137840000Y-72694800D01*
X93036700Y-77170100D02*
X97512000Y-72694800D01*
X93036700Y-77295000D02*
X93036700Y-77170100D01*
%TO.N,I2C1_SDA*%
X109775900Y-101388800D02*
X109481800Y-101388800D01*
X110387700Y-100777000D02*
X109775900Y-101388800D01*
X110387700Y-100221000D02*
X110387700Y-100777000D01*
X110031700Y-99865000D02*
X110387700Y-100221000D01*
X108008600Y-99865000D02*
X110031700Y-99865000D01*
X106463800Y-101409800D02*
X108008600Y-99865000D01*
X104009800Y-101409800D02*
X106463800Y-101409800D01*
X102775000Y-100175000D02*
X104009800Y-101409800D01*
X129068300Y-135268500D02*
X129068300Y-135000000D01*
X128184700Y-136152100D02*
X129068300Y-135268500D01*
X119564000Y-136152100D02*
X128184700Y-136152100D01*
X118790000Y-135378100D02*
X119564000Y-136152100D01*
X118790000Y-134605900D02*
X118790000Y-135378100D01*
X118002700Y-133818600D02*
X118790000Y-134605900D01*
X117168200Y-133818600D02*
X118002700Y-133818600D01*
X116250000Y-132900400D02*
X117168200Y-133818600D01*
X116250000Y-132065900D02*
X116250000Y-132900400D01*
X115214000Y-131029900D02*
X116250000Y-132065900D01*
X110594200Y-131029900D02*
X115214000Y-131029900D01*
X130220000Y-135000000D02*
X129068300Y-135000000D01*
%TO.N,I2C1_SCL*%
X111531600Y-103610000D02*
X122361100Y-103610000D01*
X110478700Y-104662900D02*
X111531600Y-103610000D01*
X103972900Y-104662900D02*
X110478700Y-104662900D01*
X102775000Y-103465000D02*
X103972900Y-104662900D01*
%TO.N,MOTOR2_CTRL2*%
X92235000Y-83395000D02*
X91433300Y-83395000D01*
X114980000Y-132460000D02*
X113828300Y-132460000D01*
X90712700Y-84115600D02*
X90546000Y-84115600D01*
X91433300Y-83395000D02*
X90712700Y-84115600D01*
X112901400Y-133674800D02*
X90546000Y-133674800D01*
X113828300Y-132747900D02*
X112901400Y-133674800D01*
X113828300Y-132460000D02*
X113828300Y-132747900D01*
X96921500Y-71508400D02*
X96843400Y-71586500D01*
X141653800Y-71508400D02*
X96921500Y-71508400D01*
X141929200Y-71783800D02*
X141653800Y-71508400D01*
X158298300Y-71783800D02*
X141929200Y-71783800D01*
X158412100Y-71897600D02*
X158298300Y-71783800D01*
X164962400Y-71897600D02*
X158412100Y-71897600D01*
X164981000Y-71879000D02*
X164962400Y-71897600D01*
X166372100Y-71879000D02*
X164981000Y-71879000D01*
X166668800Y-71582300D02*
X166372100Y-71879000D01*
X166668800Y-71160400D02*
X166668800Y-71582300D01*
X166218400Y-70710000D02*
X166668800Y-71160400D01*
X165500000Y-70710000D02*
X166218400Y-70710000D01*
%TO.N,MOTOR4_A_OUT*%
X159775000Y-77350000D02*
X116792400Y-77350000D01*
%TO.N,MOTOR3_CTRL2*%
X140380000Y-132460000D02*
X141531700Y-132460000D01*
X165500000Y-74100000D02*
X166797900Y-74100000D01*
X142416000Y-131287800D02*
X166583600Y-131287800D01*
X141531700Y-132172100D02*
X142416000Y-131287800D01*
X141531700Y-132460000D02*
X141531700Y-132172100D01*
%TO.N,MOTOR1_B_OUT*%
X159775000Y-68760000D02*
X156522500Y-68760000D01*
%TO.N,MOTOR2_B_OUT*%
X92235000Y-87451300D02*
X92235000Y-86445000D01*
X102516300Y-69301600D02*
X102407900Y-69410000D01*
X141070900Y-69301600D02*
X102516300Y-69301600D01*
X141522500Y-69753200D02*
X141070900Y-69301600D01*
X142394400Y-69753200D02*
X141522500Y-69753200D01*
X142452900Y-69811700D02*
X142394400Y-69753200D01*
X155779400Y-69811700D02*
X142452900Y-69811700D01*
X156181100Y-69410000D02*
X155779400Y-69811700D01*
X159775000Y-69410000D02*
X156181100Y-69410000D01*
%TO.N,MOTOR2_A_OUT*%
X109100300Y-70556600D02*
X108880100Y-70336400D01*
X142061800Y-70556600D02*
X109100300Y-70556600D01*
X142185700Y-70680500D02*
X142061800Y-70556600D01*
X159745500Y-70680500D02*
X142185700Y-70680500D01*
X159775000Y-70710000D02*
X159745500Y-70680500D01*
%TO.N,MOTOR1_CTRL1*%
X148565800Y-68683300D02*
X142920000Y-68683300D01*
X150984900Y-66264200D02*
X148565800Y-68683300D01*
X164954200Y-66264200D02*
X150984900Y-66264200D01*
X165500000Y-66810000D02*
X164954200Y-66264200D01*
%TO.N,Battery*%
X125140000Y-111380000D02*
X125140000Y-111627600D01*
X124585000Y-110825000D02*
X125140000Y-111380000D01*
X104403400Y-95256600D02*
X102775000Y-96885000D01*
X112566600Y-95256600D02*
X104403400Y-95256600D01*
X114000000Y-96690000D02*
X112566600Y-95256600D01*
X114357100Y-96690000D02*
X114000000Y-96690000D01*
X115702700Y-98035600D02*
X114357100Y-96690000D01*
X115702700Y-98132200D02*
X115702700Y-98035600D01*
X118640500Y-101070000D02*
X115702700Y-98132200D01*
X120915700Y-101070000D02*
X118640500Y-101070000D01*
%TO.N,unconnected-(U8-EPAD-Pad9)*%
X122810000Y-108920000D02*
X122110000Y-108920000D01*
X122110000Y-108920000D02*
X121410000Y-108920000D01*
%TO.N,Net-(R14-Pad2)*%
X129710000Y-101410000D02*
X129710000Y-100460000D01*
X127710000Y-103410000D02*
X129710000Y-101410000D01*
%TO.N,Net-(U8-PROG)*%
X126768700Y-101401300D02*
X127710000Y-100460000D01*
X118610700Y-106360000D02*
X125965200Y-106360000D01*
X118301800Y-106668900D02*
X118610700Y-106360000D01*
X118301800Y-107362100D02*
X118301800Y-106668900D01*
X119224700Y-108285000D02*
X118301800Y-107362100D01*
X119635000Y-108285000D02*
X119224700Y-108285000D01*
X125965200Y-106360000D02*
X127710000Y-106360000D01*
%TO.N,Net-(R12-Pad2)*%
X167450000Y-112310000D02*
X167450000Y-112500000D01*
X170550000Y-109210000D02*
X167450000Y-112310000D01*
%TO.N,Net-(R10-Pad2)*%
X170550000Y-102820000D02*
X170550000Y-102630000D01*
X167450000Y-105920000D02*
X170550000Y-102820000D01*
%TO.N,Net-(Q1-D)*%
X134894700Y-103185000D02*
X132592500Y-103185000D01*
X135517600Y-103807900D02*
X134894700Y-103185000D01*
X135517600Y-104538400D02*
X135517600Y-103807900D01*
X133696000Y-106360000D02*
X135517600Y-104538400D01*
X129710000Y-106360000D02*
X133696000Y-106360000D01*
%TO.N,Net-(L2-Pad1)*%
X120000200Y-114215200D02*
X119185000Y-113400000D01*
X124005100Y-114215200D02*
X120000200Y-114215200D01*
X126954900Y-111265400D02*
X124005100Y-114215200D01*
X127876500Y-111265400D02*
X126954900Y-111265400D01*
X128786200Y-110355700D02*
X127876500Y-111265400D01*
X128786200Y-109198700D02*
X128786200Y-110355700D01*
X130405400Y-107579500D02*
X128786200Y-109198700D01*
X133044800Y-107579500D02*
X130405400Y-107579500D01*
X135929100Y-104695200D02*
X133044800Y-107579500D01*
X135929100Y-101609100D02*
X135929100Y-104695200D01*
X134680000Y-100360000D02*
X135929100Y-101609100D01*
%TO.N,/battery/5V*%
X119635000Y-112100000D02*
X120935000Y-113400000D01*
X119635000Y-110825000D02*
X119635000Y-112100000D01*
%TO.N,3V3_Out*%
X130220000Y-132460000D02*
X129068300Y-132460000D01*
X123835000Y-127652200D02*
X123835000Y-127652100D01*
X124558000Y-127652200D02*
X123835000Y-127652200D01*
X129068300Y-132162500D02*
X124558000Y-127652200D01*
X129068300Y-132460000D02*
X129068300Y-132162500D01*
X123835000Y-127652100D02*
X123835000Y-126830000D01*
X116999600Y-119635000D02*
X116525000Y-119635000D01*
X120337800Y-122973200D02*
X116999600Y-119635000D01*
X120337800Y-126373500D02*
X120337800Y-122973200D01*
X121616400Y-127652100D02*
X120337800Y-126373500D01*
X123835000Y-127652100D02*
X121616400Y-127652100D01*
X116525000Y-119635000D02*
X113696000Y-119635000D01*
X157920400Y-66810000D02*
X157864500Y-66865900D01*
X159775000Y-66810000D02*
X157920400Y-66810000D01*
X109394700Y-96690000D02*
X109050000Y-96690000D01*
X110789400Y-98084700D02*
X109394700Y-96690000D01*
X110789400Y-102077100D02*
X110789400Y-98084700D01*
X110200400Y-102077100D02*
X110789400Y-102077100D01*
X109472500Y-102805000D02*
X110200400Y-102077100D01*
X110789400Y-102077100D02*
X111200800Y-102077100D01*
X159705500Y-73380500D02*
X157807900Y-73380500D01*
X159775000Y-73450000D02*
X159705500Y-73380500D01*
X157807900Y-73380500D02*
X113518400Y-73380500D01*
%TO.N,Net-(D2-K)*%
X129871200Y-110593800D02*
X127605000Y-112860000D01*
X129871200Y-108690900D02*
X129871200Y-110593800D01*
X130426000Y-108136100D02*
X129871200Y-108690900D01*
X133056200Y-108136100D02*
X130426000Y-108136100D01*
X136366300Y-104826000D02*
X133056200Y-108136100D01*
X136366300Y-100620200D02*
X136366300Y-104826000D01*
X135188100Y-99442000D02*
X136366300Y-100620200D01*
X132380000Y-99442000D02*
X135188100Y-99442000D01*
X132380000Y-100360000D02*
X132380000Y-99442000D01*
X131992400Y-99054400D02*
X132380000Y-99442000D01*
X126409500Y-99054400D02*
X131992400Y-99054400D01*
X126238300Y-99225600D02*
X126409500Y-99054400D01*
X123715800Y-99225600D02*
X126238300Y-99225600D01*
X121236400Y-101705000D02*
X123715800Y-99225600D01*
X119635000Y-101705000D02*
X121236400Y-101705000D01*
%TO.N,Net-(D1-K)*%
X122085000Y-123930000D02*
X122055000Y-123900000D01*
X122085000Y-126830000D02*
X122085000Y-123930000D01*
X122055000Y-123443600D02*
X122055000Y-123900000D01*
X116976400Y-118365000D02*
X122055000Y-123443600D01*
X116525000Y-118365000D02*
X116976400Y-118365000D01*
%TO.N,HV*%
X121470400Y-98599600D02*
X126013300Y-98599600D01*
X119635000Y-100435000D02*
X121470400Y-98599600D01*
X128780500Y-108507000D02*
X127777500Y-109510000D01*
X128780500Y-108353200D02*
X128780500Y-108507000D01*
X91985000Y-97533200D02*
X91985000Y-97065000D01*
X92646000Y-98194200D02*
X91985000Y-97533200D01*
X94350900Y-98194200D02*
X92646000Y-98194200D01*
X95025000Y-97520100D02*
X94350900Y-98194200D01*
X95025000Y-97065000D02*
X95025000Y-97520100D01*
X94333300Y-103894600D02*
X94333300Y-106520000D01*
X89994700Y-99556000D02*
X94333300Y-103894600D01*
X89994700Y-96266000D02*
X89994700Y-99556000D01*
X90378800Y-95881900D02*
X89994700Y-96266000D01*
X91118400Y-95881900D02*
X90378800Y-95881900D01*
X91985000Y-96748500D02*
X91118400Y-95881900D01*
X91985000Y-97065000D02*
X91985000Y-96748500D01*
X94960000Y-106520000D02*
X94333300Y-106520000D01*
X114054900Y-94854900D02*
X119635000Y-100435000D01*
X100716400Y-94854900D02*
X114054900Y-94854900D01*
X100373200Y-95198100D02*
X100716400Y-94854900D01*
X96520400Y-95198100D02*
X100373200Y-95198100D01*
X95025000Y-96693500D02*
X96520400Y-95198100D01*
X95025000Y-97065000D02*
X95025000Y-96693500D01*
%TO.N,5V_Out*%
X120963900Y-128646400D02*
X116217500Y-123900000D01*
X122955200Y-128646400D02*
X120963900Y-128646400D01*
X126410000Y-132101200D02*
X122955200Y-128646400D01*
X126410000Y-132845400D02*
X126410000Y-132101200D01*
X127183200Y-133618600D02*
X126410000Y-132845400D01*
X130737600Y-133618600D02*
X127183200Y-133618600D01*
X131608300Y-132747900D02*
X130737600Y-133618600D01*
X131608300Y-132460000D02*
X131608300Y-132747900D01*
X132760000Y-132460000D02*
X131608300Y-132460000D01*
X101077500Y-77275000D02*
X101077500Y-80285000D01*
X101185900Y-87987200D02*
X101025000Y-88148100D01*
X101715300Y-87987200D02*
X101185900Y-87987200D01*
X102807500Y-86895000D02*
X101715300Y-87987200D01*
X102007700Y-90204800D02*
X102807500Y-89405000D01*
X100550200Y-90204800D02*
X102007700Y-90204800D01*
X100210800Y-89865400D02*
X100550200Y-90204800D01*
X100210800Y-88962300D02*
X100210800Y-89865400D01*
X101025000Y-88148100D02*
X100210800Y-88962300D01*
X102807500Y-89405000D02*
X110405500Y-89405000D01*
X114812200Y-117095000D02*
X114258100Y-117649100D01*
X116525000Y-117095000D02*
X114812200Y-117095000D01*
X112681000Y-120363500D02*
X116217500Y-123900000D01*
X112681000Y-119226200D02*
X112681000Y-120363500D01*
X114258100Y-117649100D02*
X112681000Y-119226200D01*
X101077500Y-81313800D02*
X101077500Y-80285000D01*
X100239600Y-82151700D02*
X101077500Y-81313800D01*
X100239600Y-87362800D02*
X100239600Y-82151700D01*
X101025000Y-88148100D02*
X100239600Y-87362800D01*
X140697200Y-79450300D02*
X165671600Y-79450300D01*
X138833700Y-81313800D02*
X140697200Y-79450300D01*
X101077500Y-81313800D02*
X138833700Y-81313800D01*
X166290300Y-76050000D02*
X165500000Y-76050000D01*
X167671400Y-77431100D02*
X166290300Y-76050000D01*
X167671400Y-78434900D02*
X167671400Y-77431100D01*
X166675000Y-79431300D02*
X167671400Y-78434900D01*
X166675000Y-79865800D02*
X166675000Y-79431300D01*
X166087100Y-80453700D02*
X166675000Y-79865800D01*
X165356600Y-80453700D02*
X166087100Y-80453700D01*
X165144400Y-80665900D02*
X165356600Y-80453700D01*
X166249100Y-69410000D02*
X165500000Y-69410000D01*
X167290100Y-70451000D02*
X166249100Y-69410000D01*
X167529000Y-70451000D02*
X167290100Y-70451000D01*
%TO.N,Net-(J2-CC1)*%
X148855300Y-91500000D02*
X150000000Y-91500000D01*
X147620200Y-90264900D02*
X148855300Y-91500000D01*
X114726500Y-90264900D02*
X147620200Y-90264900D01*
X110596700Y-94394700D02*
X114726500Y-90264900D01*
X100608600Y-94394700D02*
X110596700Y-94394700D01*
X100206900Y-94796400D02*
X100608600Y-94394700D01*
X94765300Y-94796400D02*
X100206900Y-94796400D01*
X93005000Y-96556700D02*
X94765300Y-94796400D01*
X93005000Y-97065000D02*
X93005000Y-96556700D01*
%TO.N,/USB C/CC1*%
X122505200Y-105257200D02*
X122962800Y-104799600D01*
X95453300Y-105257200D02*
X122505200Y-105257200D01*
X94960000Y-105750500D02*
X95453300Y-105257200D01*
X94960000Y-105870000D02*
X94960000Y-105750500D01*
X145316500Y-93083500D02*
X122962800Y-93083500D01*
X146900000Y-91500000D02*
X145316500Y-93083500D01*
%TO.N,MOTOR1_CTRL2*%
X92235000Y-80345000D02*
X93036700Y-80345000D01*
X97921000Y-75358600D02*
X145460000Y-75358600D01*
X96640900Y-76638700D02*
X97921000Y-75358600D01*
X96640900Y-78358600D02*
X96640900Y-76638700D01*
X95788700Y-79210800D02*
X96640900Y-78358600D01*
X94738900Y-79210800D02*
X95788700Y-79210800D01*
X93604700Y-80345000D02*
X94738900Y-79210800D01*
X93036700Y-80345000D02*
X93604700Y-80345000D01*
X165878200Y-65798000D02*
X145460000Y-65798000D01*
X166609300Y-66529100D02*
X165878200Y-65798000D01*
X166609300Y-67073500D02*
X166609300Y-66529100D01*
X166222800Y-67460000D02*
X166609300Y-67073500D01*
X165500000Y-67460000D02*
X166222800Y-67460000D01*
%TO.N,Net-(U5-VS)*%
X108990900Y-103458400D02*
X108337500Y-102805000D01*
X111041600Y-103458400D02*
X108990900Y-103458400D01*
X114000000Y-100500000D02*
X111041600Y-103458400D01*
%TO.N,Net-(U2-VINT)*%
X166722600Y-74750000D02*
X165500000Y-74750000D01*
X168073100Y-76100500D02*
X166722600Y-74750000D01*
X168073100Y-78601200D02*
X168073100Y-76100500D01*
X167076700Y-79597600D02*
X168073100Y-78601200D01*
X167076700Y-80032100D02*
X167076700Y-79597600D01*
X166253400Y-80855400D02*
X167076700Y-80032100D01*
X165818900Y-80855400D02*
X166253400Y-80855400D01*
X157883900Y-88790400D02*
X165818900Y-80855400D01*
X113300400Y-88790400D02*
X157883900Y-88790400D01*
X111207500Y-90883300D02*
X113300400Y-88790400D01*
X106774700Y-90883300D02*
X111207500Y-90883300D01*
X105657200Y-92000800D02*
X106774700Y-90883300D01*
X100730400Y-92000800D02*
X105657200Y-92000800D01*
X99541600Y-93189600D02*
X100730400Y-92000800D01*
X97537600Y-93189600D02*
X99541600Y-93189600D01*
X96951300Y-92603300D02*
X97537600Y-93189600D01*
X96951300Y-89063800D02*
X96951300Y-92603300D01*
X95202500Y-87315000D02*
X96951300Y-89063800D01*
%TO.N,Net-(U2-VCP)*%
X102500500Y-87987000D02*
X101082500Y-89405000D01*
X118818700Y-87987000D02*
X102500500Y-87987000D01*
X119219600Y-87586100D02*
X118818700Y-87987000D01*
X157373400Y-87586100D02*
X119219600Y-87586100D01*
X164907500Y-80052000D02*
X157373400Y-87586100D01*
X165920800Y-80052000D02*
X164907500Y-80052000D01*
X166273300Y-79699500D02*
X165920800Y-80052000D01*
X166273300Y-79197100D02*
X166273300Y-79699500D01*
X167010800Y-78459600D02*
X166273300Y-79197100D01*
X167010800Y-77490400D02*
X167010800Y-78459600D01*
X166220400Y-76700000D02*
X167010800Y-77490400D01*
X165500000Y-76700000D02*
X166220400Y-76700000D01*
%TO.N,Net-(U1-VCP)*%
X101894900Y-86082600D02*
X138473700Y-86082600D01*
X101082500Y-86895000D02*
X101894900Y-86082600D01*
X166273100Y-70060000D02*
X165500000Y-70060000D01*
X167070500Y-70857400D02*
X166273100Y-70060000D01*
X167070500Y-71748600D02*
X167070500Y-70857400D01*
X166409600Y-72409500D02*
X167070500Y-71748600D01*
X158256100Y-72409500D02*
X166409600Y-72409500D01*
X158132100Y-72285500D02*
X158256100Y-72409500D01*
X138647200Y-72285500D02*
X158132100Y-72285500D01*
X138473700Y-72112000D02*
X138647200Y-72285500D01*
%TO.N,Net-(U1-VINT)*%
X166738100Y-68110000D02*
X165500000Y-68110000D01*
X168474800Y-69846700D02*
X166738100Y-68110000D01*
X168474800Y-79202000D02*
X168474800Y-69846700D01*
X158484700Y-89192100D02*
X168474800Y-79202000D01*
X114095300Y-89192100D02*
X158484700Y-89192100D01*
X109696100Y-93591300D02*
X114095300Y-89192100D01*
X100276000Y-93591300D02*
X109696100Y-93591300D01*
X99874300Y-93993000D02*
X100276000Y-93591300D01*
X97205000Y-93993000D02*
X99874300Y-93993000D01*
X95202500Y-91990500D02*
X97205000Y-93993000D01*
X95202500Y-91115000D02*
X95202500Y-91990500D01*
%TO.N,Net-(U2-AISEN)*%
X159755100Y-74769900D02*
X159775000Y-74750000D01*
X158485200Y-74769900D02*
X159755100Y-74769900D01*
X156612500Y-106787500D02*
X163729400Y-106787500D01*
X155400000Y-108000000D02*
X156612500Y-106787500D01*
%TO.N,GND*%
X103152500Y-77275000D02*
X103152500Y-80285000D01*
X137840000Y-135000000D02*
X136688300Y-135000000D01*
X132760000Y-135000000D02*
X133911700Y-135000000D01*
X135785600Y-133809400D02*
X134130900Y-133809400D01*
X136688300Y-134712100D02*
X135785600Y-133809400D01*
X136688300Y-135000000D02*
X136688300Y-134712100D01*
X133911700Y-134028600D02*
X134130900Y-133809400D01*
X133911700Y-135000000D02*
X133911700Y-134028600D01*
X130435000Y-104135000D02*
X129710000Y-103410000D01*
X134467500Y-104135000D02*
X130435000Y-104135000D01*
X134130900Y-132201500D02*
X134028000Y-132098500D01*
X134130900Y-133809400D02*
X134130900Y-132201500D01*
X125829400Y-123900000D02*
X125355000Y-123900000D01*
X134028000Y-132098500D02*
X125829400Y-123900000D01*
X102118300Y-76240800D02*
X103152500Y-77275000D01*
X99459200Y-76240800D02*
X102118300Y-76240800D01*
X98285000Y-77415000D02*
X99459200Y-76240800D01*
X122360100Y-120905100D02*
X125355000Y-123900000D01*
X121475000Y-120905100D02*
X122360100Y-120905100D01*
X121475000Y-120905000D02*
X121475000Y-120905100D01*
X121475000Y-118365000D02*
X121475000Y-119635000D01*
X121475000Y-119635000D02*
X121475000Y-120905000D01*
X123507400Y-117095000D02*
X121475000Y-117095000D01*
X124478400Y-116124000D02*
X123507400Y-117095000D01*
X124478400Y-115040400D02*
X124478400Y-116124000D01*
X128724600Y-115040400D02*
X124478400Y-115040400D01*
X130905000Y-112860000D02*
X128724600Y-115040400D01*
X124585000Y-100435000D02*
X124585000Y-101705000D01*
X124585000Y-102975000D02*
X124585000Y-104245000D01*
X121475000Y-117095000D02*
X121475000Y-118365000D01*
X124585000Y-101705000D02*
X124585000Y-102340000D01*
X124585000Y-102340000D02*
X124585000Y-102975000D01*
X116525000Y-121082500D02*
X116525000Y-120905000D01*
X119342500Y-123900000D02*
X116525000Y-121082500D01*
X120840000Y-117730000D02*
X121475000Y-117095000D01*
X115431700Y-117730000D02*
X120840000Y-117730000D01*
X114562000Y-118599700D02*
X115431700Y-117730000D01*
X113880300Y-118599700D02*
X114562000Y-118599700D01*
X113082700Y-119397300D02*
X113880300Y-118599700D01*
X113082700Y-119944600D02*
X113082700Y-119397300D01*
X114043100Y-120905000D02*
X113082700Y-119944600D01*
X116525000Y-120905000D02*
X114043100Y-120905000D01*
X98285000Y-80705000D02*
X98285000Y-77415000D01*
X115499200Y-99230000D02*
X114000000Y-99230000D01*
X118609200Y-102340000D02*
X115499200Y-99230000D01*
X124585000Y-102340000D02*
X118609200Y-102340000D01*
X96096000Y-98595900D02*
X96255000Y-98436900D01*
X91987300Y-98595900D02*
X96096000Y-98595900D01*
X90755000Y-97363600D02*
X91987300Y-98595900D01*
X90755000Y-97065000D02*
X90755000Y-97363600D01*
X96255000Y-98436900D02*
X96255000Y-97065000D01*
X166431400Y-113325900D02*
X166431400Y-108000000D01*
X166820700Y-113715200D02*
X166431400Y-113325900D01*
X169334800Y-113715200D02*
X166820700Y-113715200D01*
X170550000Y-112500000D02*
X169334800Y-113715200D01*
X158500000Y-108000000D02*
X166431400Y-108000000D01*
X130623200Y-102496800D02*
X129710000Y-103410000D01*
X130623200Y-99791700D02*
X130623200Y-102496800D01*
X130287600Y-99456100D02*
X130623200Y-99791700D01*
X126575800Y-99456100D02*
X130287600Y-99456100D01*
X125596900Y-100435000D02*
X126575800Y-99456100D01*
X124585000Y-100435000D02*
X125596900Y-100435000D01*
X107738700Y-97960000D02*
X109050000Y-97960000D01*
X107261800Y-98436900D02*
X107738700Y-97960000D01*
X96255000Y-98436900D02*
X107261800Y-98436900D01*
X113270800Y-99230000D02*
X114000000Y-99230000D01*
X110100800Y-96060000D02*
X113270800Y-99230000D01*
X108015100Y-96060000D02*
X110100800Y-96060000D01*
X107738700Y-96336400D02*
X108015100Y-96060000D01*
X107738700Y-97960000D02*
X107738700Y-96336400D01*
X130902500Y-112857500D02*
X130902500Y-109510000D01*
X130905000Y-112860000D02*
X130902500Y-112857500D01*
X119228300Y-109555000D02*
X119635000Y-109555000D01*
X118322400Y-110460900D02*
X119228300Y-109555000D01*
X118322400Y-113826700D02*
X118322400Y-110460900D01*
X119536100Y-115040400D02*
X118322400Y-113826700D01*
X124478400Y-115040400D02*
X119536100Y-115040400D01*
X98285000Y-87272500D02*
X98285000Y-83995000D01*
X98327500Y-87315000D02*
X98285000Y-87272500D01*
X98285000Y-83995000D02*
X98285000Y-80705000D01*
X98327500Y-91115000D02*
X98327500Y-89715500D01*
X98327500Y-89715500D02*
X98327500Y-87315000D01*
X98327500Y-89715500D02*
X99510100Y-89715500D01*
X122666600Y-104245000D02*
X119635000Y-104245000D01*
X122713700Y-104197900D02*
X122666600Y-104245000D01*
X124537900Y-104197900D02*
X122713700Y-104197900D01*
X124585000Y-104245000D02*
X124537900Y-104197900D01*
X120627600Y-116247600D02*
X121475000Y-117095000D01*
X99472600Y-116247600D02*
X120627600Y-116247600D01*
X156990000Y-109510000D02*
X158500000Y-108000000D01*
X130902500Y-109510000D02*
X156990000Y-109510000D01*
X95727600Y-116247600D02*
X99472600Y-116247600D01*
X89085000Y-109605000D02*
X95727600Y-116247600D01*
X137218900Y-128907600D02*
X134028000Y-132098500D01*
X143400300Y-128907600D02*
X137218900Y-128907600D01*
X144348200Y-127959700D02*
X143400300Y-128907600D01*
X144350300Y-127959700D02*
X144348200Y-127959700D01*
X148090000Y-124220000D02*
X144350300Y-127959700D01*
X97520100Y-95799900D02*
X99679000Y-95799900D01*
X96255000Y-97065000D02*
X97520100Y-95799900D01*
X168470000Y-108000000D02*
X170550000Y-105920000D01*
X166431400Y-108000000D02*
X168470000Y-108000000D01*
X166537200Y-68760000D02*
X165500000Y-68760000D01*
X166820800Y-69043600D02*
X166537200Y-68760000D01*
X166521700Y-75400000D02*
X165500000Y-75400000D01*
X167187700Y-76066000D02*
X166521700Y-75400000D01*
X170493300Y-105863300D02*
X170550000Y-105920000D01*
X169254600Y-105863300D02*
X170493300Y-105863300D01*
%TD*%
M02*
