%TF.GenerationSoftware,KiCad,Pcbnew,9.0.0*%
%TF.CreationDate,2025-04-16T10:09:12+02:00*%
%TF.ProjectId,EEE3088F Design project,45454533-3038-4384-9620-44657369676e,rev?*%
%TF.SameCoordinates,Original*%
%TF.FileFunction,Copper,L1,Top*%
%TF.FilePolarity,Positive*%
%FSLAX46Y46*%
G04 Gerber Fmt 4.6, Leading zero omitted, Abs format (unit mm)*
G04 Created by KiCad (PCBNEW 9.0.0) date 2025-04-16 10:09:12*
%MOMM*%
%LPD*%
G01*
G04 APERTURE LIST*
G04 Aperture macros list*
%AMRoundRect*
0 Rectangle with rounded corners*
0 $1 Rounding radius*
0 $2 $3 $4 $5 $6 $7 $8 $9 X,Y pos of 4 corners*
0 Add a 4 corners polygon primitive as box body*
4,1,4,$2,$3,$4,$5,$6,$7,$8,$9,$2,$3,0*
0 Add four circle primitives for the rounded corners*
1,1,$1+$1,$2,$3*
1,1,$1+$1,$4,$5*
1,1,$1+$1,$6,$7*
1,1,$1+$1,$8,$9*
0 Add four rect primitives between the rounded corners*
20,1,$1+$1,$2,$3,$4,$5,0*
20,1,$1+$1,$4,$5,$6,$7,0*
20,1,$1+$1,$6,$7,$8,$9,0*
20,1,$1+$1,$8,$9,$2,$3,0*%
%AMFreePoly0*
4,1,413,-0.218419,2.454743,-0.216190,2.454000,-0.215000,2.454000,-0.213419,2.453743,-0.211190,2.453000,-0.210000,2.453000,-0.208419,2.452743,-0.205419,2.451743,-0.204764,2.451472,-0.203080,2.450630,-0.200419,2.449743,-0.198464,2.448536,-0.197036,2.447108,-0.195764,2.446472,-0.194464,2.445536,-0.193036,2.444108,-0.191764,2.443472,-0.190464,2.442536,-0.182464,2.434536,-0.181528,2.433236,
-0.180892,2.431964,-0.179464,2.430536,-0.178528,2.429236,-0.177892,2.427964,-0.176464,2.426536,-0.175257,2.424581,-0.174370,2.421920,-0.173528,2.420236,-0.173257,2.419581,-0.172257,2.416581,-0.172000,2.415000,-0.172000,2.413810,-0.171257,2.411581,-0.171000,2.410000,-0.171000,2.408810,-0.170257,2.406581,-0.170000,2.405000,-0.170000,1.930000,0.170000,1.930000,0.170000,2.405000,
0.170257,2.406581,0.171000,2.408810,0.171000,2.410000,0.171257,2.411581,0.172000,2.413810,0.172000,2.415000,0.172257,2.416581,0.173257,2.419581,0.173528,2.420236,0.174370,2.421920,0.175257,2.424581,0.176464,2.426536,0.177892,2.427964,0.178528,2.429236,0.179464,2.430536,0.180892,2.431964,0.181528,2.433236,0.182464,2.434536,0.190464,2.442536,0.191764,2.443472,
0.193036,2.444108,0.194464,2.445536,0.195764,2.446472,0.197036,2.447108,0.198464,2.448536,0.200419,2.449743,0.203080,2.450630,0.204764,2.451472,0.205419,2.451743,0.208419,2.452743,0.210000,2.453000,0.211190,2.453000,0.213419,2.453743,0.215000,2.454000,0.216190,2.454000,0.218419,2.454743,0.220000,2.455000,0.330000,2.455000,0.331581,2.454743,0.333810,2.454000,
0.335000,2.454000,0.336581,2.453743,0.338810,2.453000,0.340000,2.453000,0.341581,2.452743,0.344581,2.451743,0.345236,2.451472,0.346920,2.450630,0.349581,2.449743,0.351536,2.448536,0.352964,2.447108,0.354236,2.446472,0.355536,2.445536,0.356964,2.444108,0.358236,2.443472,0.359536,2.442536,0.367536,2.434536,0.368472,2.433236,0.369108,2.431964,0.370536,2.430536,
0.371472,2.429236,0.372108,2.427964,0.373536,2.426536,0.374743,2.424581,0.375630,2.421920,0.376472,2.420236,0.376743,2.419581,0.377743,2.416581,0.378000,2.415000,0.378000,2.413810,0.378743,2.411581,0.379000,2.410000,0.379000,2.408810,0.379743,2.406581,0.380000,2.405000,0.380000,1.530000,0.980000,1.530000,0.981581,1.529743,0.983810,1.529000,0.985000,1.529000,
0.986581,1.528743,0.988810,1.528000,0.990000,1.528000,0.991581,1.527743,0.994581,1.526743,0.995236,1.526472,0.996920,1.525630,0.998810,1.525000,1.025000,1.525000,1.025000,1.498810,1.025630,1.496920,1.026472,1.495236,1.026743,1.494581,1.027743,1.491581,1.028000,1.490000,1.028000,1.488810,1.028743,1.486581,1.029000,1.485000,1.029000,1.483810,1.029743,1.481581,
1.030000,1.480000,1.030000,-1.480000,1.029743,-1.481581,1.029000,-1.483810,1.029000,-1.485000,1.028743,-1.486581,1.028000,-1.488810,1.028000,-1.490000,1.027743,-1.491581,1.026743,-1.494581,1.026472,-1.495236,1.025630,-1.496920,1.025000,-1.498810,1.025000,-1.525000,0.998810,-1.525000,0.996920,-1.525630,0.995236,-1.526472,0.994581,-1.526743,0.991581,-1.527743,0.990000,-1.528000,
0.988810,-1.528000,0.986581,-1.528743,0.985000,-1.529000,0.983810,-1.529000,0.981581,-1.529743,0.980000,-1.530000,0.380000,-1.530000,0.380000,-2.405000,0.379743,-2.406581,0.379000,-2.408810,0.379000,-2.410000,0.378743,-2.411581,0.378000,-2.413810,0.378000,-2.415000,0.377743,-2.416581,0.376743,-2.419581,0.376472,-2.420236,0.375630,-2.421920,0.374743,-2.424581,0.373536,-2.426536,
0.372108,-2.427964,0.371472,-2.429236,0.370536,-2.430536,0.369108,-2.431964,0.368472,-2.433236,0.367536,-2.434536,0.359536,-2.442536,0.358236,-2.443472,0.356964,-2.444108,0.355536,-2.445536,0.354236,-2.446472,0.352964,-2.447108,0.351536,-2.448536,0.349581,-2.449743,0.346920,-2.450630,0.345236,-2.451472,0.344581,-2.451743,0.341581,-2.452743,0.340000,-2.453000,0.338810,-2.453000,
0.336581,-2.453743,0.335000,-2.454000,0.333810,-2.454000,0.331581,-2.454743,0.330000,-2.455000,0.220000,-2.455000,0.218419,-2.454743,0.216190,-2.454000,0.215000,-2.454000,0.213419,-2.453743,0.211190,-2.453000,0.210000,-2.453000,0.208419,-2.452743,0.205419,-2.451743,0.204764,-2.451472,0.203080,-2.450630,0.200419,-2.449743,0.198464,-2.448536,0.197036,-2.447108,0.195764,-2.446472,
0.194464,-2.445536,0.193036,-2.444108,0.191764,-2.443472,0.190464,-2.442536,0.182464,-2.434536,0.181528,-2.433236,0.180892,-2.431964,0.179464,-2.430536,0.178528,-2.429236,0.177892,-2.427964,0.176464,-2.426536,0.175257,-2.424581,0.174370,-2.421920,0.173528,-2.420236,0.173257,-2.419581,0.172257,-2.416581,0.172000,-2.415000,0.172000,-2.413810,0.171257,-2.411581,0.171000,-2.410000,
0.171000,-2.408810,0.170257,-2.406581,0.170000,-2.405000,0.170000,-1.930000,-0.170000,-1.930000,-0.170000,-2.405000,-0.170257,-2.406581,-0.171000,-2.408810,-0.171000,-2.410000,-0.171257,-2.411581,-0.172000,-2.413810,-0.172000,-2.415000,-0.172257,-2.416581,-0.173257,-2.419581,-0.173528,-2.420236,-0.174370,-2.421920,-0.175257,-2.424581,-0.176464,-2.426536,-0.177892,-2.427964,-0.178528,-2.429236,
-0.179464,-2.430536,-0.180892,-2.431964,-0.181528,-2.433236,-0.182464,-2.434536,-0.190464,-2.442536,-0.191764,-2.443472,-0.193036,-2.444108,-0.194464,-2.445536,-0.195764,-2.446472,-0.197036,-2.447108,-0.198464,-2.448536,-0.200419,-2.449743,-0.203080,-2.450630,-0.204764,-2.451472,-0.205419,-2.451743,-0.208419,-2.452743,-0.210000,-2.453000,-0.211190,-2.453000,-0.213419,-2.453743,-0.215000,-2.454000,
-0.216190,-2.454000,-0.218419,-2.454743,-0.220000,-2.455000,-0.330000,-2.455000,-0.331581,-2.454743,-0.333810,-2.454000,-0.335000,-2.454000,-0.336581,-2.453743,-0.338810,-2.453000,-0.340000,-2.453000,-0.341581,-2.452743,-0.344581,-2.451743,-0.345236,-2.451472,-0.346920,-2.450630,-0.349581,-2.449743,-0.351536,-2.448536,-0.352964,-2.447108,-0.354236,-2.446472,-0.355536,-2.445536,-0.356964,-2.444108,
-0.358236,-2.443472,-0.359536,-2.442536,-0.367536,-2.434536,-0.368472,-2.433236,-0.369108,-2.431964,-0.370536,-2.430536,-0.371472,-2.429236,-0.372108,-2.427964,-0.373536,-2.426536,-0.374743,-2.424581,-0.375630,-2.421920,-0.376472,-2.420236,-0.376743,-2.419581,-0.377743,-2.416581,-0.378000,-2.415000,-0.378000,-2.413810,-0.378743,-2.411581,-0.379000,-2.410000,-0.379000,-2.408810,-0.379743,-2.406581,
-0.380000,-2.405000,-0.380000,-1.530000,-0.980000,-1.530000,-0.981581,-1.529743,-0.983810,-1.529000,-0.985000,-1.529000,-0.986581,-1.528743,-0.988810,-1.528000,-0.990000,-1.528000,-0.991581,-1.527743,-0.994581,-1.526743,-0.995236,-1.526472,-0.996920,-1.525630,-0.998810,-1.525000,-1.025000,-1.525000,-1.025000,-1.498810,-1.025630,-1.496920,-1.026472,-1.495236,-1.026743,-1.494581,-1.027743,-1.491581,
-1.028000,-1.490000,-1.028000,-1.488810,-1.028743,-1.486581,-1.029000,-1.485000,-1.029000,-1.483810,-1.029743,-1.481581,-1.030000,-1.480000,-1.030000,1.480000,-1.029743,1.481581,-1.029000,1.483810,-1.029000,1.485000,-1.028743,1.486581,-1.028000,1.488810,-1.028000,1.490000,-1.027743,1.491581,-1.026743,1.494581,-1.026472,1.495236,-1.025630,1.496920,-1.025000,1.498810,-1.025000,1.525000,
-0.998810,1.525000,-0.996920,1.525630,-0.995236,1.526472,-0.994581,1.526743,-0.991581,1.527743,-0.990000,1.528000,-0.988810,1.528000,-0.986581,1.528743,-0.985000,1.529000,-0.983810,1.529000,-0.981581,1.529743,-0.980000,1.530000,-0.380000,1.530000,-0.380000,2.405000,-0.379743,2.406581,-0.379000,2.408810,-0.379000,2.410000,-0.378743,2.411581,-0.378000,2.413810,-0.378000,2.415000,
-0.377743,2.416581,-0.376743,2.419581,-0.376472,2.420236,-0.375630,2.421920,-0.374743,2.424581,-0.373536,2.426536,-0.372108,2.427964,-0.371472,2.429236,-0.370536,2.430536,-0.369108,2.431964,-0.368472,2.433236,-0.367536,2.434536,-0.359536,2.442536,-0.358236,2.443472,-0.356964,2.444108,-0.355536,2.445536,-0.354236,2.446472,-0.352964,2.447108,-0.351536,2.448536,-0.349581,2.449743,
-0.346920,2.450630,-0.345236,2.451472,-0.344581,2.451743,-0.341581,2.452743,-0.340000,2.453000,-0.338810,2.453000,-0.336581,2.453743,-0.335000,2.454000,-0.333810,2.454000,-0.331581,2.454743,-0.330000,2.455000,-0.220000,2.455000,-0.218419,2.454743,-0.218419,2.454743,$1*%
G04 Aperture macros list end*
%TA.AperFunction,SMDPad,CuDef*%
%ADD10RoundRect,0.250000X-0.412500X-0.650000X0.412500X-0.650000X0.412500X0.650000X-0.412500X0.650000X0*%
%TD*%
%TA.AperFunction,SMDPad,CuDef*%
%ADD11RoundRect,0.150000X0.150000X-0.825000X0.150000X0.825000X-0.150000X0.825000X-0.150000X-0.825000X0*%
%TD*%
%TA.AperFunction,SMDPad,CuDef*%
%ADD12R,1.000000X1.000000*%
%TD*%
%TA.AperFunction,SMDPad,CuDef*%
%ADD13RoundRect,0.250000X-0.625000X0.400000X-0.625000X-0.400000X0.625000X-0.400000X0.625000X0.400000X0*%
%TD*%
%TA.AperFunction,SMDPad,CuDef*%
%ADD14RoundRect,0.200000X0.200000X-0.750000X0.200000X0.750000X-0.200000X0.750000X-0.200000X-0.750000X0*%
%TD*%
%TA.AperFunction,SMDPad,CuDef*%
%ADD15RoundRect,0.050400X-0.069600X-0.249600X0.069600X-0.249600X0.069600X0.249600X-0.069600X0.249600X0*%
%TD*%
%TA.AperFunction,SMDPad,CuDef*%
%ADD16RoundRect,0.050400X-0.249600X-0.069600X0.249600X-0.069600X0.249600X0.069600X-0.249600X0.069600X0*%
%TD*%
%TA.AperFunction,SMDPad,CuDef*%
%ADD17FreePoly0,0.000000*%
%TD*%
%TA.AperFunction,SMDPad,CuDef*%
%ADD18RoundRect,0.250000X0.400000X0.625000X-0.400000X0.625000X-0.400000X-0.625000X0.400000X-0.625000X0*%
%TD*%
%TA.AperFunction,SMDPad,CuDef*%
%ADD19RoundRect,0.250000X0.350000X0.450000X-0.350000X0.450000X-0.350000X-0.450000X0.350000X-0.450000X0*%
%TD*%
%TA.AperFunction,ComponentPad*%
%ADD20C,3.000000*%
%TD*%
%TA.AperFunction,ComponentPad*%
%ADD21RoundRect,0.250000X-0.625000X0.350000X-0.625000X-0.350000X0.625000X-0.350000X0.625000X0.350000X0*%
%TD*%
%TA.AperFunction,ComponentPad*%
%ADD22O,1.750000X1.200000*%
%TD*%
%TA.AperFunction,SMDPad,CuDef*%
%ADD23RoundRect,0.237500X0.250000X0.237500X-0.250000X0.237500X-0.250000X-0.237500X0.250000X-0.237500X0*%
%TD*%
%TA.AperFunction,SMDPad,CuDef*%
%ADD24RoundRect,0.250000X0.650000X-0.412500X0.650000X0.412500X-0.650000X0.412500X-0.650000X-0.412500X0*%
%TD*%
%TA.AperFunction,SMDPad,CuDef*%
%ADD25RoundRect,0.160000X0.197500X0.160000X-0.197500X0.160000X-0.197500X-0.160000X0.197500X-0.160000X0*%
%TD*%
%TA.AperFunction,SMDPad,CuDef*%
%ADD26RoundRect,0.237500X-0.250000X-0.237500X0.250000X-0.237500X0.250000X0.237500X-0.250000X0.237500X0*%
%TD*%
%TA.AperFunction,SMDPad,CuDef*%
%ADD27RoundRect,0.237500X-0.237500X0.300000X-0.237500X-0.300000X0.237500X-0.300000X0.237500X0.300000X0*%
%TD*%
%TA.AperFunction,SMDPad,CuDef*%
%ADD28RoundRect,0.250000X-0.400000X-0.625000X0.400000X-0.625000X0.400000X0.625000X-0.400000X0.625000X0*%
%TD*%
%TA.AperFunction,SMDPad,CuDef*%
%ADD29RoundRect,0.155000X-0.155000X0.212500X-0.155000X-0.212500X0.155000X-0.212500X0.155000X0.212500X0*%
%TD*%
%TA.AperFunction,SMDPad,CuDef*%
%ADD30RoundRect,0.225000X-0.225000X-0.375000X0.225000X-0.375000X0.225000X0.375000X-0.225000X0.375000X0*%
%TD*%
%TA.AperFunction,SMDPad,CuDef*%
%ADD31RoundRect,0.150000X-0.150000X0.587500X-0.150000X-0.587500X0.150000X-0.587500X0.150000X0.587500X0*%
%TD*%
%TA.AperFunction,SMDPad,CuDef*%
%ADD32RoundRect,0.250000X0.450000X-0.350000X0.450000X0.350000X-0.450000X0.350000X-0.450000X-0.350000X0*%
%TD*%
%TA.AperFunction,SMDPad,CuDef*%
%ADD33RoundRect,0.250000X-0.337500X-0.475000X0.337500X-0.475000X0.337500X0.475000X-0.337500X0.475000X0*%
%TD*%
%TA.AperFunction,SMDPad,CuDef*%
%ADD34RoundRect,0.100000X-0.687500X-0.100000X0.687500X-0.100000X0.687500X0.100000X-0.687500X0.100000X0*%
%TD*%
%TA.AperFunction,HeatsinkPad*%
%ADD35R,3.400000X5.000000*%
%TD*%
%TA.AperFunction,SMDPad,CuDef*%
%ADD36RoundRect,0.250000X-0.450000X0.350000X-0.450000X-0.350000X0.450000X-0.350000X0.450000X0.350000X0*%
%TD*%
%TA.AperFunction,SMDPad,CuDef*%
%ADD37RoundRect,0.150000X-0.825000X-0.150000X0.825000X-0.150000X0.825000X0.150000X-0.825000X0.150000X0*%
%TD*%
%TA.AperFunction,SMDPad,CuDef*%
%ADD38RoundRect,0.250000X-0.275000X-0.350000X0.275000X-0.350000X0.275000X0.350000X-0.275000X0.350000X0*%
%TD*%
%TA.AperFunction,SMDPad,CuDef*%
%ADD39RoundRect,0.250000X-0.475000X0.337500X-0.475000X-0.337500X0.475000X-0.337500X0.475000X0.337500X0*%
%TD*%
%TA.AperFunction,SMDPad,CuDef*%
%ADD40RoundRect,0.237500X-0.287500X-0.237500X0.287500X-0.237500X0.287500X0.237500X-0.287500X0.237500X0*%
%TD*%
%TA.AperFunction,SMDPad,CuDef*%
%ADD41RoundRect,0.237500X0.287500X0.237500X-0.287500X0.237500X-0.287500X-0.237500X0.287500X-0.237500X0*%
%TD*%
%TA.AperFunction,SMDPad,CuDef*%
%ADD42RoundRect,0.175000X-0.175000X-0.625000X0.175000X-0.625000X0.175000X0.625000X-0.175000X0.625000X0*%
%TD*%
%TA.AperFunction,SMDPad,CuDef*%
%ADD43RoundRect,0.200000X-0.200000X-0.600000X0.200000X-0.600000X0.200000X0.600000X-0.200000X0.600000X0*%
%TD*%
%TA.AperFunction,SMDPad,CuDef*%
%ADD44RoundRect,0.225000X-0.225000X-0.575000X0.225000X-0.575000X0.225000X0.575000X-0.225000X0.575000X0*%
%TD*%
%TA.AperFunction,HeatsinkPad*%
%ADD45O,1.000000X1.700000*%
%TD*%
%TA.AperFunction,SMDPad,CuDef*%
%ADD46R,1.970000X0.600000*%
%TD*%
%TA.AperFunction,SMDPad,CuDef*%
%ADD47R,2.413000X3.302000*%
%TD*%
%TA.AperFunction,SMDPad,CuDef*%
%ADD48RoundRect,0.150000X-0.512500X-0.150000X0.512500X-0.150000X0.512500X0.150000X-0.512500X0.150000X0*%
%TD*%
%TA.AperFunction,SMDPad,CuDef*%
%ADD49RoundRect,0.237500X-0.300000X-0.237500X0.300000X-0.237500X0.300000X0.237500X-0.300000X0.237500X0*%
%TD*%
%TA.AperFunction,SMDPad,CuDef*%
%ADD50RoundRect,0.250000X-1.100000X0.412500X-1.100000X-0.412500X1.100000X-0.412500X1.100000X0.412500X0*%
%TD*%
%TA.AperFunction,SMDPad,CuDef*%
%ADD51RoundRect,0.150000X0.150000X-0.512500X0.150000X0.512500X-0.150000X0.512500X-0.150000X-0.512500X0*%
%TD*%
%TA.AperFunction,SMDPad,CuDef*%
%ADD52RoundRect,0.150000X0.825000X0.150000X-0.825000X0.150000X-0.825000X-0.150000X0.825000X-0.150000X0*%
%TD*%
%TA.AperFunction,SMDPad,CuDef*%
%ADD53R,0.650000X0.350000*%
%TD*%
%TA.AperFunction,SMDPad,CuDef*%
%ADD54R,1.000000X1.600000*%
%TD*%
%TA.AperFunction,ComponentPad*%
%ADD55R,1.700000X1.700000*%
%TD*%
%TA.AperFunction,ComponentPad*%
%ADD56O,1.700000X1.700000*%
%TD*%
%TA.AperFunction,ViaPad*%
%ADD57C,0.600000*%
%TD*%
%TA.AperFunction,ViaPad*%
%ADD58C,4.200000*%
%TD*%
%TA.AperFunction,Conductor*%
%ADD59C,0.200000*%
%TD*%
%TA.AperFunction,Conductor*%
%ADD60C,0.350000*%
%TD*%
%TA.AperFunction,Conductor*%
%ADD61C,0.300000*%
%TD*%
%TA.AperFunction,Conductor*%
%ADD62C,0.500000*%
%TD*%
G04 APERTURE END LIST*
D10*
%TO.P,C22,1*%
%TO.N,/battery/5V*%
X110575000Y-70300000D03*
%TO.P,C22,2*%
%TO.N,GND*%
X113700000Y-70300000D03*
%TD*%
D11*
%TO.P,U10,1,A1*%
%TO.N,unconnected-(U10-A1-Pad1)*%
X154190000Y-68950000D03*
%TO.P,U10,2,A0*%
%TO.N,unconnected-(U10-A0-Pad2)*%
X155460000Y-68950000D03*
%TO.P,U10,3,SDA*%
%TO.N,unconnected-(U10-SDA-Pad3)*%
X156730000Y-68950000D03*
%TO.P,U10,4,SCL*%
%TO.N,unconnected-(U10-SCL-Pad4)*%
X158000000Y-68950000D03*
%TO.P,U10,5,VS*%
%TO.N,unconnected-(U10-VS-Pad5)*%
X158000000Y-64000000D03*
%TO.P,U10,6,GND*%
%TO.N,unconnected-(U10-GND-Pad6)*%
X156730000Y-64000000D03*
%TO.P,U10,7,VIN-*%
%TO.N,unconnected-(U10-VIN--Pad7)*%
X155460000Y-64000000D03*
%TO.P,U10,8,VIN+*%
%TO.N,unconnected-(U10-VIN+-Pad8)*%
X154190000Y-64000000D03*
%TD*%
D12*
%TO.P,TP30,1,1*%
%TO.N,CTRL_EXT_LOAD1*%
X147000000Y-120500000D03*
%TD*%
D11*
%TO.P,U6,1,A1*%
%TO.N,unconnected-(U6-A1-Pad1)*%
X172740000Y-112450000D03*
%TO.P,U6,2,A0*%
%TO.N,unconnected-(U6-A0-Pad2)*%
X174010000Y-112450000D03*
%TO.P,U6,3,SDA*%
%TO.N,unconnected-(U6-SDA-Pad3)*%
X175280000Y-112450000D03*
%TO.P,U6,4,SCL*%
%TO.N,unconnected-(U6-SCL-Pad4)*%
X176550000Y-112450000D03*
%TO.P,U6,5,VS*%
%TO.N,unconnected-(U6-VS-Pad5)*%
X176550000Y-107500000D03*
%TO.P,U6,6,GND*%
%TO.N,unconnected-(U6-GND-Pad6)*%
X175280000Y-107500000D03*
%TO.P,U6,7,VIN-*%
%TO.N,unconnected-(U6-VIN--Pad7)*%
X174010000Y-107500000D03*
%TO.P,U6,8,VIN+*%
%TO.N,unconnected-(U6-VIN+-Pad8)*%
X172740000Y-107500000D03*
%TD*%
D10*
%TO.P,C20,1*%
%TO.N,/battery/5V*%
X110575000Y-63600000D03*
%TO.P,C20,2*%
%TO.N,GND*%
X113700000Y-63600000D03*
%TD*%
D13*
%TO.P,R2,1*%
%TO.N,Net-(U1-BISEN)*%
X123500000Y-91900000D03*
%TO.P,R2,2*%
%TO.N,GND*%
X123500000Y-95000000D03*
%TD*%
D12*
%TO.P,TP25,1,1*%
%TO.N,Net-(U5-SCL)*%
X150825000Y-97885000D03*
%TD*%
%TO.P,TP24,1,1*%
%TO.N,HV*%
X168400000Y-94000000D03*
%TD*%
%TO.P,TP22,1,1*%
%TO.N,/USB C/CC1*%
X168400000Y-100100000D03*
%TD*%
D14*
%TO.P,Q2,1,D*%
%TO.N,5V_Out*%
X111500000Y-99000000D03*
%TO.P,Q2,2,G*%
%TO.N,Net-(Q2-G)*%
X113400000Y-99000000D03*
%TO.P,Q2,3,S*%
%TO.N,EXT_LOAD1_OUT*%
X112450000Y-96000000D03*
%TD*%
D12*
%TO.P,TP21,1,1*%
%TO.N,Net-(J3-VSET)*%
X168400000Y-103150000D03*
%TD*%
D13*
%TO.P,R1,1*%
%TO.N,Net-(U1-AISEN)*%
X120500000Y-91900000D03*
%TO.P,R1,2*%
%TO.N,GND*%
X120500000Y-95000000D03*
%TD*%
D15*
%TO.P,U9,1,VCC*%
%TO.N,GND*%
X185565000Y-77100000D03*
D16*
%TO.P,U9,2,EN*%
%TO.N,VCC*%
X184665000Y-77500000D03*
%TO.P,U9,3,FSW*%
%TO.N,Net-(U9-FSW)*%
X184665000Y-78000000D03*
%TO.P,U9,4,SW_7*%
%TO.N,unconnected-(U9-SW_7-Pad4)*%
X184665000Y-78500000D03*
%TO.P,U9,5,SW_4*%
%TO.N,Net-(U9-SW_4)*%
X184665000Y-79000000D03*
%TO.P,U9,6,SW_5*%
%TO.N,unconnected-(U9-SW_5-Pad6)*%
X184665000Y-79500000D03*
%TO.P,U9,7,SW_6*%
%TO.N,unconnected-(U9-SW_6-Pad7)*%
X184665000Y-80000000D03*
%TO.P,U9,8,BOOT*%
%TO.N,Net-(U9-BOOT)*%
X184665000Y-80500000D03*
%TO.P,U9,9,VIN*%
%TO.N,Net-(SW1-A)*%
X184665000Y-81000000D03*
D15*
%TO.P,U9,10,SS*%
%TO.N,Net-(U9-SS)*%
X185565000Y-81400000D03*
%TO.P,U9,11,NC_11*%
%TO.N,unconnected-(U9-NC_11-Pad11)*%
X187065000Y-81400000D03*
D16*
%TO.P,U9,12,NC_12*%
%TO.N,unconnected-(U9-NC_12-Pad12)*%
X187965000Y-81000000D03*
%TO.P,U9,13,MODE*%
%TO.N,unconnected-(U9-MODE-Pad13)*%
X187965000Y-80500000D03*
%TO.P,U9,14,VOUT_16*%
%TO.N,unconnected-(U9-VOUT_16-Pad14)*%
X187965000Y-80000000D03*
%TO.P,U9,15,VOUT_14*%
%TO.N,5V_Out*%
X187965000Y-79500000D03*
%TO.P,U9,16,VOUT_15*%
%TO.N,unconnected-(U9-VOUT_15-Pad16)*%
X187965000Y-79000000D03*
%TO.P,U9,17,FB*%
%TO.N,/3V3 5V output/FB*%
X187965000Y-78500000D03*
%TO.P,U9,18,COMP*%
%TO.N,Net-(U9-COMP)*%
X187965000Y-78000000D03*
%TO.P,U9,19,ILIM*%
%TO.N,Net-(U9-ILIM)*%
X187965000Y-77500000D03*
D15*
%TO.P,U9,20,AGND*%
%TO.N,GND*%
X187065000Y-77100000D03*
D17*
%TO.P,U9,21,PGND*%
X186315000Y-79250000D03*
%TD*%
D12*
%TO.P,TP2,1,1*%
%TO.N,Net-(U2-~{NFAULT})*%
X127000000Y-78500000D03*
%TD*%
D10*
%TO.P,C12,1*%
%TO.N,5V_Out*%
X177375000Y-63544700D03*
%TO.P,C12,2*%
%TO.N,GND*%
X180500000Y-63544700D03*
%TD*%
%TO.P,C19,1*%
%TO.N,HV*%
X140200000Y-63650000D03*
%TO.P,C19,2*%
%TO.N,GND*%
X143325000Y-63650000D03*
%TD*%
D12*
%TO.P,TP38,1,1*%
%TO.N,MOTOR1_CTRL1*%
X123500000Y-78500000D03*
%TD*%
D13*
%TO.P,R4,1*%
%TO.N,Net-(U2-BISEN)*%
X132500000Y-91900000D03*
%TO.P,R4,2*%
%TO.N,GND*%
X132500000Y-95000000D03*
%TD*%
D18*
%TO.P,R5,1*%
%TO.N,Battery*%
X159000000Y-104500000D03*
%TO.P,R5,2*%
%TO.N,VCC*%
X155900000Y-104500000D03*
%TD*%
D19*
%TO.P,R25,1*%
%TO.N,/3V3 5V output/FB*%
X162500000Y-74394700D03*
%TO.P,R25,2*%
%TO.N,5V_Out*%
X160500000Y-74394700D03*
%TD*%
D18*
%TO.P,R6,1*%
%TO.N,I2C1_SDA*%
X159000000Y-101210000D03*
%TO.P,R6,2*%
%TO.N,Net-(U5-SDA)*%
X155900000Y-101210000D03*
%TD*%
D20*
%TO.P,SW1,1,A*%
%TO.N,Net-(SW1-A)*%
X161400000Y-65944700D03*
%TO.P,SW1,2,B*%
%TO.N,VCC*%
X166200000Y-65944700D03*
%TO.P,SW1,3,C*%
%TO.N,unconnected-(SW1-C-Pad3)*%
X171000000Y-65944700D03*
%TD*%
D21*
%TO.P,J4,1,Pin_1*%
%TO.N,GND*%
X140500000Y-101000000D03*
D22*
%TO.P,J4,2,Pin_2*%
%TO.N,Battery*%
X140500000Y-103000000D03*
%TD*%
D12*
%TO.P,TP28,1,1*%
%TO.N,Net-(U5-VS)*%
X143450000Y-92500000D03*
%TD*%
%TO.P,TP31,1,1*%
%TO.N,5V_Out*%
X148050000Y-109000000D03*
%TD*%
%TO.P,TP39,1,1*%
%TO.N,5V_Out*%
X140000000Y-109000000D03*
%TD*%
D23*
%TO.P,R10,1*%
%TO.N,CTRL_EXT_LOAD1*%
X122275000Y-102500000D03*
%TO.P,R10,2*%
%TO.N,Net-(Q3-G)*%
X120450000Y-102500000D03*
%TD*%
D24*
%TO.P,C18,1*%
%TO.N,HV*%
X135500000Y-67000000D03*
%TO.P,C18,2*%
%TO.N,GND*%
X135500000Y-63875000D03*
%TD*%
D18*
%TO.P,R7,1*%
%TO.N,I2C1_SCL*%
X159000000Y-97920000D03*
%TO.P,R7,2*%
%TO.N,Net-(U5-SCL)*%
X155900000Y-97920000D03*
%TD*%
D25*
%TO.P,R24,1*%
%TO.N,GND*%
X162195000Y-83944700D03*
%TO.P,R24,2*%
%TO.N,Net-(U9-ILIM)*%
X161000000Y-83944700D03*
%TD*%
D26*
%TO.P,R15,1*%
%TO.N,Net-(R14-Pad2)*%
X111000000Y-81000000D03*
%TO.P,R15,2*%
%TO.N,GND*%
X112825000Y-81000000D03*
%TD*%
D12*
%TO.P,TP4,1,1*%
%TO.N,MOTOR3_A_OUT*%
X143000000Y-120500000D03*
%TD*%
D23*
%TO.P,R12,1*%
%TO.N,CTRL_EXT_LOAD2*%
X122825000Y-105000000D03*
%TO.P,R12,2*%
%TO.N,Net-(Q4-G)*%
X121000000Y-105000000D03*
%TD*%
D27*
%TO.P,C33,1*%
%TO.N,Net-(C33-Pad1)*%
X169500000Y-78794700D03*
%TO.P,C33,2*%
%TO.N,GND*%
X169500000Y-80519700D03*
%TD*%
D12*
%TO.P,TP11,1,1*%
%TO.N,EXT_LOAD1_OUT*%
X111500000Y-92500000D03*
%TD*%
%TO.P,TP15,1,1*%
%TO.N,/3V3 5V output/FB*%
X172175000Y-86944700D03*
%TD*%
D28*
%TO.P,R13,1*%
%TO.N,Net-(Q4-D)*%
X114500000Y-108000000D03*
%TO.P,R13,2*%
%TO.N,5V_Out*%
X117600000Y-108000000D03*
%TD*%
D12*
%TO.P,TP32,1,1*%
%TO.N,5V_Out*%
X144000000Y-109000000D03*
%TD*%
D10*
%TO.P,C24,1*%
%TO.N,HV*%
X140325000Y-67150000D03*
%TO.P,C24,2*%
%TO.N,GND*%
X143450000Y-67150000D03*
%TD*%
D12*
%TO.P,TP17,1,1*%
%TO.N,/battery/5V*%
X119000000Y-63500000D03*
%TD*%
D26*
%TO.P,R18,1*%
%TO.N,Net-(Q1-G)*%
X140675000Y-85500000D03*
%TO.P,R18,2*%
%TO.N,FAST_CHARGE_CTRL*%
X142500000Y-85500000D03*
%TD*%
D29*
%TO.P,C26,1*%
%TO.N,Net-(U9-SW_4)*%
X165000000Y-78952200D03*
%TO.P,C26,2*%
%TO.N,Net-(U9-BOOT)*%
X165000000Y-80087200D03*
%TD*%
D12*
%TO.P,TP35,1,1*%
%TO.N,MOTOR1_B_OUT*%
X135000000Y-120500000D03*
%TD*%
D29*
%TO.P,C7,1*%
%TO.N,Net-(U5-VS)*%
X153275000Y-97385000D03*
%TO.P,C7,2*%
%TO.N,3V3_Out*%
X153275000Y-98520000D03*
%TD*%
D30*
%TO.P,D2,1,K*%
%TO.N,Net-(D2-K)*%
X110700000Y-75500000D03*
%TO.P,D2,2,A*%
%TO.N,GND*%
X114000000Y-75500000D03*
%TD*%
D31*
%TO.P,Q1,1,D*%
%TO.N,Net-(Q1-D)*%
X126400000Y-63875000D03*
%TO.P,Q1,2,G*%
%TO.N,Net-(Q1-G)*%
X124500000Y-63875000D03*
%TO.P,Q1,3,S*%
%TO.N,GND*%
X125450000Y-65750000D03*
%TD*%
D13*
%TO.P,R3,1*%
%TO.N,Net-(U2-AISEN)*%
X135500000Y-91900000D03*
%TO.P,R3,2*%
%TO.N,GND*%
X135500000Y-95000000D03*
%TD*%
D10*
%TO.P,C14,1*%
%TO.N,5V_Out*%
X177375000Y-69444700D03*
%TO.P,C14,2*%
%TO.N,GND*%
X180500000Y-69444700D03*
%TD*%
%TO.P,C15,1*%
%TO.N,5V_Out*%
X177437500Y-72444700D03*
%TO.P,C15,2*%
%TO.N,GND*%
X180562500Y-72444700D03*
%TD*%
D12*
%TO.P,TP40,1,1*%
%TO.N,MOTOR3_CTRL2*%
X134000000Y-78500000D03*
%TD*%
D14*
%TO.P,Q5,1,D*%
%TO.N,5V_Out*%
X111500000Y-105000000D03*
%TO.P,Q5,2,G*%
%TO.N,Net-(Q4-D)*%
X113400000Y-105000000D03*
%TO.P,Q5,3,S*%
%TO.N,EXT_LOAD2_OUT*%
X112450000Y-102000000D03*
%TD*%
D12*
%TO.P,TP1,1,1*%
%TO.N,Net-(U1-~{NFAULT})*%
X111500000Y-89500000D03*
%TD*%
%TO.P,TP13,1,1*%
%TO.N,5V_Out*%
X166075000Y-86944700D03*
%TD*%
D10*
%TO.P,C13,1*%
%TO.N,5V_Out*%
X177375000Y-66444700D03*
%TO.P,C13,2*%
%TO.N,GND*%
X180500000Y-66444700D03*
%TD*%
%TO.P,C21,1*%
%TO.N,/battery/5V*%
X110575000Y-66950000D03*
%TO.P,C21,2*%
%TO.N,GND*%
X113700000Y-66950000D03*
%TD*%
D28*
%TO.P,R11,1*%
%TO.N,Net-(Q2-G)*%
X120400000Y-108000000D03*
%TO.P,R11,2*%
%TO.N,5V_Out*%
X123500000Y-108000000D03*
%TD*%
D12*
%TO.P,TP12,1,1*%
%TO.N,EXT_LOAD2_OUT*%
X155000000Y-120500000D03*
%TD*%
D32*
%TO.P,R16,1*%
%TO.N,Net-(U8-PROG)*%
X122000000Y-65875000D03*
%TO.P,R16,2*%
%TO.N,Net-(Q1-D)*%
X122000000Y-63875000D03*
%TD*%
D10*
%TO.P,C6,1*%
%TO.N,Net-(U2-VINT)*%
X140450000Y-74000000D03*
%TO.P,C6,2*%
%TO.N,GND*%
X143575000Y-74000000D03*
%TD*%
D33*
%TO.P,C2,1*%
%TO.N,5V_Out*%
X140600000Y-79990000D03*
%TO.P,C2,2*%
%TO.N,GND*%
X142675000Y-79990000D03*
%TD*%
D12*
%TO.P,TP19,1,1*%
%TO.N,5V_Out*%
X178450000Y-86944700D03*
%TD*%
D27*
%TO.P,C35,1*%
%TO.N,Net-(U9-SS)*%
X167000000Y-78794700D03*
%TO.P,C35,2*%
%TO.N,GND*%
X167000000Y-80519700D03*
%TD*%
D34*
%TO.P,U2,1,NSLEEP*%
%TO.N,3V3_Out*%
X130275000Y-82850000D03*
%TO.P,U2,2,AOUT1*%
%TO.N,MOTOR3_A_OUT*%
X130275000Y-83500000D03*
%TO.P,U2,3,AISEN*%
%TO.N,Net-(U2-AISEN)*%
X130275000Y-84150000D03*
%TO.P,U2,4,AOUT2*%
%TO.N,MOTOR3_B_OUT*%
X130275000Y-84800000D03*
%TO.P,U2,5,BOUT2*%
%TO.N,MOTOR4_B_OUT*%
X130275000Y-85450000D03*
%TO.P,U2,6,BISEN*%
%TO.N,Net-(U2-BISEN)*%
X130275000Y-86100000D03*
%TO.P,U2,7,BOUT1*%
%TO.N,MOTOR4_A_OUT*%
X130275000Y-86750000D03*
%TO.P,U2,8,~{NFAULT}*%
%TO.N,Net-(U2-~{NFAULT})*%
X130275000Y-87400000D03*
%TO.P,U2,9,BIN1*%
%TO.N,MOTOR4_CTRL1*%
X136000000Y-87400000D03*
%TO.P,U2,10,BIN2*%
%TO.N,MOTOR4_CTRL2*%
X136000000Y-86750000D03*
%TO.P,U2,11,VCP*%
%TO.N,Net-(U2-VCP)*%
X136000000Y-86100000D03*
%TO.P,U2,12,VM*%
%TO.N,5V_Out*%
X136000000Y-85450000D03*
%TO.P,U2,13,GND*%
%TO.N,GND*%
X136000000Y-84800000D03*
%TO.P,U2,14,VINT*%
%TO.N,Net-(U2-VINT)*%
X136000000Y-84150000D03*
%TO.P,U2,15,AIN2*%
%TO.N,MOTOR3_CTRL2*%
X136000000Y-83500000D03*
%TO.P,U2,16,AIN1*%
%TO.N,MOTOR3_CTRL1*%
X136000000Y-82850000D03*
D35*
%TO.P,U2,17,EXP*%
%TO.N,unconnected-(U2-EXP-Pad17)*%
X133137500Y-85125000D03*
%TD*%
D27*
%TO.P,C3,1*%
%TO.N,Net-(U1-VCP)*%
X129800000Y-92400000D03*
%TO.P,C3,2*%
%TO.N,5V_Out*%
X129800000Y-94125000D03*
%TD*%
D12*
%TO.P,TP36,1,1*%
%TO.N,MOTOR2_A_OUT*%
X164000000Y-109000000D03*
%TD*%
D36*
%TO.P,R19,1*%
%TO.N,Net-(Q1-G)*%
X129000000Y-63875000D03*
%TO.P,R19,2*%
%TO.N,GND*%
X129000000Y-65875000D03*
%TD*%
D37*
%TO.P,U4,1,VIN*%
%TO.N,5V_Out*%
X166550000Y-71444700D03*
%TO.P,U4,2,OUT*%
%TO.N,Net-(D1-K)*%
X166550000Y-72714700D03*
%TO.P,U4,3,FB*%
%TO.N,3V3_Out*%
X166550000Y-73984700D03*
%TO.P,U4,4,~{EN}*%
%TO.N,GND*%
X166550000Y-75254700D03*
%TO.P,U4,5,GND*%
X171500000Y-75254700D03*
%TO.P,U4,6,GND*%
X171500000Y-73984700D03*
%TO.P,U4,7,GND*%
X171500000Y-72714700D03*
%TO.P,U4,8,GND*%
X171500000Y-71444700D03*
%TD*%
D12*
%TO.P,TP7,1,1*%
%TO.N,MOTOR1_CTRL2*%
X120000000Y-78500000D03*
%TD*%
%TO.P,TP37,1,1*%
%TO.N,MOTOR2_CTRL1*%
X168000000Y-109000000D03*
%TD*%
D10*
%TO.P,C38,1*%
%TO.N,3V3_Out*%
X185875000Y-69944700D03*
%TO.P,C38,2*%
%TO.N,GND*%
X189000000Y-69944700D03*
%TD*%
D38*
%TO.P,L5,1*%
%TO.N,Net-(SW1-A)*%
X158700000Y-89444700D03*
%TO.P,L5,2*%
%TO.N,Net-(U9-SW_4)*%
X161000000Y-89444700D03*
%TD*%
D28*
%TO.P,R17,1*%
%TO.N,GND*%
X185900000Y-100500000D03*
%TO.P,R17,2*%
%TO.N,Net-(J3-VSET)*%
X189000000Y-100500000D03*
%TD*%
D12*
%TO.P,TP6,1,1*%
%TO.N,MOTOR3_CTRL1*%
X136000000Y-109500000D03*
%TD*%
D39*
%TO.P,C30,1*%
%TO.N,GND*%
X175000000Y-78944700D03*
%TO.P,C30,2*%
%TO.N,5V_Out*%
X175000000Y-81019700D03*
%TD*%
%TO.P,C29,1*%
%TO.N,GND*%
X178000000Y-78944700D03*
%TO.P,C29,2*%
%TO.N,5V_Out*%
X178000000Y-81019700D03*
%TD*%
D12*
%TO.P,TP10,1,1*%
%TO.N,MOTOR1_A_OUT*%
X111500000Y-83500000D03*
%TD*%
D19*
%TO.P,R26,1*%
%TO.N,GND*%
X162500000Y-71444700D03*
%TO.P,R26,2*%
%TO.N,/3V3 5V output/FB*%
X160500000Y-71444700D03*
%TD*%
D34*
%TO.P,U1,1,NSLEEP*%
%TO.N,3V3_Out*%
X119387500Y-83225000D03*
%TO.P,U1,2,AOUT1*%
%TO.N,MOTOR1_A_OUT*%
X119387500Y-83875000D03*
%TO.P,U1,3,AISEN*%
%TO.N,Net-(U1-AISEN)*%
X119387500Y-84525000D03*
%TO.P,U1,4,AOUT2*%
%TO.N,MOTOR1_B_OUT*%
X119387500Y-85175000D03*
%TO.P,U1,5,BOUT2*%
%TO.N,MOTOR2_B_OUT*%
X119387500Y-85825000D03*
%TO.P,U1,6,BISEN*%
%TO.N,Net-(U1-BISEN)*%
X119387500Y-86475000D03*
%TO.P,U1,7,BOUT1*%
%TO.N,MOTOR2_A_OUT*%
X119387500Y-87125000D03*
%TO.P,U1,8,~{NFAULT}*%
%TO.N,Net-(U1-~{NFAULT})*%
X119387500Y-87775000D03*
%TO.P,U1,9,BIN1*%
%TO.N,MOTOR2_CTRL1*%
X125112500Y-87775000D03*
%TO.P,U1,10,BIN2*%
%TO.N,MOTOR2_CTRL2*%
X125112500Y-87125000D03*
%TO.P,U1,11,VCP*%
%TO.N,Net-(U1-VCP)*%
X125112500Y-86475000D03*
%TO.P,U1,12,VM*%
%TO.N,5V_Out*%
X125112500Y-85825000D03*
%TO.P,U1,13,GND*%
%TO.N,GND*%
X125112500Y-85175000D03*
%TO.P,U1,14,VINT*%
%TO.N,Net-(U1-VINT)*%
X125112500Y-84525000D03*
%TO.P,U1,15,AIN2*%
%TO.N,MOTOR1_CTRL2*%
X125112500Y-83875000D03*
%TO.P,U1,16,AIN1*%
%TO.N,MOTOR1_CTRL1*%
X125112500Y-83225000D03*
D35*
%TO.P,U1,17,EXP*%
%TO.N,unconnected-(U1-EXP-Pad17)*%
X122250000Y-85500000D03*
%TD*%
D40*
%TO.P,L1,1*%
%TO.N,Net-(D1-K)*%
X159125000Y-86524700D03*
%TO.P,L1,2*%
%TO.N,3V3_Out*%
X160875000Y-86524700D03*
%TD*%
D30*
%TO.P,D1,1,K*%
%TO.N,Net-(D1-K)*%
X184200000Y-85444700D03*
%TO.P,D1,2,A*%
%TO.N,GND*%
X187500000Y-85444700D03*
%TD*%
D12*
%TO.P,TP5,1,1*%
%TO.N,MOTOR4_B_OUT*%
X130500000Y-78500000D03*
%TD*%
D39*
%TO.P,C31,1*%
%TO.N,GND*%
X172000000Y-78944700D03*
%TO.P,C31,2*%
%TO.N,5V_Out*%
X172000000Y-81019700D03*
%TD*%
D24*
%TO.P,C17,1*%
%TO.N,HV*%
X132150000Y-67000000D03*
%TO.P,C17,2*%
%TO.N,GND*%
X132150000Y-63875000D03*
%TD*%
D19*
%TO.P,R14,1*%
%TO.N,Net-(U8-PROG)*%
X113000000Y-78500000D03*
%TO.P,R14,2*%
%TO.N,Net-(R14-Pad2)*%
X111000000Y-78500000D03*
%TD*%
D12*
%TO.P,TP41,1,1*%
%TO.N,MOTOR4_CTRL1*%
X156000000Y-109000000D03*
%TD*%
D41*
%TO.P,L2,1*%
%TO.N,Net-(D2-K)*%
X113000000Y-73000000D03*
%TO.P,L2,2*%
%TO.N,/battery/5V*%
X111250000Y-73000000D03*
%TD*%
D23*
%TO.P,R22,1*%
%TO.N,Net-(U9-SW_4)*%
X162427500Y-79444700D03*
%TO.P,R22,2*%
%TO.N,Net-(R20-Pad1)*%
X160602500Y-79444700D03*
%TD*%
D12*
%TO.P,TP3,1,1*%
%TO.N,MOTOR4_CTRL2*%
X152000000Y-109000000D03*
%TD*%
%TO.P,TP8,1,1*%
%TO.N,MOTOR2_CTRL2*%
X160000000Y-109000000D03*
%TD*%
D42*
%TO.P,J2,A5,CC1*%
%TO.N,Net-(J2-CC1)*%
X175900000Y-94027300D03*
D43*
%TO.P,J2,A9,VBUS_A*%
%TO.N,HV*%
X177920000Y-94027300D03*
D44*
%TO.P,J2,A12,GND_A*%
%TO.N,GND*%
X179150000Y-94027300D03*
D42*
%TO.P,J2,B5,CC2*%
%TO.N,Net-(J2-CC2)*%
X176900000Y-94027300D03*
D43*
%TO.P,J2,B9,VBUS_B*%
%TO.N,HV*%
X174880000Y-94027300D03*
D44*
%TO.P,J2,B12,GND_B*%
%TO.N,GND*%
X173650000Y-94027300D03*
D45*
%TO.P,J2,S1,EH*%
X172080000Y-94207300D03*
X172080000Y-98007300D03*
X180720000Y-94207300D03*
X180720000Y-98007300D03*
%TD*%
D10*
%TO.P,C37,1*%
%TO.N,3V3_Out*%
X185875000Y-66944700D03*
%TO.P,C37,2*%
%TO.N,GND*%
X189000000Y-66944700D03*
%TD*%
D14*
%TO.P,Q7,1,D*%
%TO.N,unconnected-(Q7-D-Pad1)*%
X180100000Y-111000000D03*
%TO.P,Q7,2,G*%
%TO.N,unconnected-(Q7-G-Pad2)*%
X182000000Y-111000000D03*
%TO.P,Q7,3,S*%
%TO.N,unconnected-(Q7-S-Pad3)*%
X181050000Y-108000000D03*
%TD*%
D46*
%TO.P,U8,1,TEMP*%
%TO.N,unconnected-(U8-TEMP-Pad1)*%
X120050000Y-70960000D03*
%TO.P,U8,2,PROG*%
%TO.N,Net-(U8-PROG)*%
X120050000Y-72230000D03*
%TO.P,U8,3,GND*%
%TO.N,GND*%
X120050000Y-73500000D03*
%TO.P,U8,4,V_{CC}*%
%TO.N,/battery/5V*%
X120050000Y-74770000D03*
%TO.P,U8,5,BAT*%
%TO.N,Battery*%
X125000000Y-74770000D03*
%TO.P,U8,6,~{STDBY}*%
%TO.N,unconnected-(U8-~{STDBY}-Pad6)*%
X125000000Y-73500000D03*
%TO.P,U8,7,~{CHRG}*%
%TO.N,unconnected-(U8-~{CHRG}-Pad7)*%
X125000000Y-72230000D03*
%TO.P,U8,8,CE*%
%TO.N,unconnected-(U8-CE-Pad8)*%
X125000000Y-70960000D03*
D47*
%TO.P,U8,9,EPAD*%
%TO.N,unconnected-(U8-EPAD-Pad9)*%
X122525000Y-72865000D03*
%TD*%
D12*
%TO.P,TP16,1,1*%
%TO.N,3V3_Out*%
X175225000Y-86944700D03*
%TD*%
%TO.P,TP34,1,1*%
%TO.N,5V_Out*%
X132000000Y-109500000D03*
%TD*%
D33*
%TO.P,C4,1*%
%TO.N,5V_Out*%
X140600000Y-83000000D03*
%TO.P,C4,2*%
%TO.N,GND*%
X142675000Y-83000000D03*
%TD*%
D12*
%TO.P,TP23,1,1*%
%TO.N,/USB C/CC2*%
X168400000Y-97050000D03*
%TD*%
D48*
%TO.P,Q6,1,D*%
%TO.N,unconnected-(Q6-D-Pad1)*%
X153000000Y-82000000D03*
%TO.P,Q6,2,G*%
%TO.N,unconnected-(Q6-G-Pad2)*%
X153000000Y-83900000D03*
%TO.P,Q6,3,S*%
%TO.N,unconnected-(Q6-S-Pad3)*%
X155275000Y-82950000D03*
%TD*%
D10*
%TO.P,C16,1*%
%TO.N,5V_Out*%
X177375000Y-75444700D03*
%TO.P,C16,2*%
%TO.N,GND*%
X180500000Y-75444700D03*
%TD*%
D12*
%TO.P,TP27,1,1*%
%TO.N,Net-(U5-SDA)*%
X140400000Y-92500000D03*
%TD*%
%TO.P,TP29,1,1*%
%TO.N,3V3_Out*%
X146500000Y-92500000D03*
%TD*%
D23*
%TO.P,R20,1*%
%TO.N,Net-(R20-Pad1)*%
X162412500Y-81944700D03*
%TO.P,R20,2*%
%TO.N,Net-(U9-FSW)*%
X160587500Y-81944700D03*
%TD*%
D28*
%TO.P,R8,1*%
%TO.N,/USB C/CC2*%
X185900000Y-93920000D03*
%TO.P,R8,2*%
%TO.N,Net-(J2-CC2)*%
X189000000Y-93920000D03*
%TD*%
D49*
%TO.P,C5,1*%
%TO.N,Net-(U2-VCP)*%
X140450000Y-77000000D03*
%TO.P,C5,2*%
%TO.N,5V_Out*%
X142175000Y-77000000D03*
%TD*%
D12*
%TO.P,TP42,1,1*%
%TO.N,MOTOR3_B_OUT*%
X139000000Y-120500000D03*
%TD*%
D10*
%TO.P,C39,1*%
%TO.N,3V3_Out*%
X185875000Y-72944700D03*
%TO.P,C39,2*%
%TO.N,GND*%
X189000000Y-72944700D03*
%TD*%
D50*
%TO.P,C1,1*%
%TO.N,Net-(U1-VINT)*%
X127000000Y-91900000D03*
%TO.P,C1,2*%
%TO.N,GND*%
X127000000Y-95025000D03*
%TD*%
D51*
%TO.P,Q4,1,D*%
%TO.N,Net-(Q4-D)*%
X116000000Y-105275000D03*
%TO.P,Q4,2,G*%
%TO.N,Net-(Q4-G)*%
X117900000Y-105275000D03*
%TO.P,Q4,3,S*%
%TO.N,GND*%
X116950000Y-103000000D03*
%TD*%
D37*
%TO.P,U7,1,VIN*%
%TO.N,HV*%
X130550000Y-70960000D03*
%TO.P,U7,2,OUT*%
%TO.N,Net-(D2-K)*%
X130550000Y-72230000D03*
%TO.P,U7,3,FB*%
%TO.N,unconnected-(U7-FB-Pad3)*%
X130550000Y-73500000D03*
%TO.P,U7,4,~{EN}*%
%TO.N,GND*%
X130550000Y-74770000D03*
%TO.P,U7,5,GND*%
X135500000Y-74770000D03*
%TO.P,U7,6,GND*%
X135500000Y-73500000D03*
%TO.P,U7,7,GND*%
X135500000Y-72230000D03*
%TO.P,U7,8,GND*%
X135500000Y-70960000D03*
%TD*%
D12*
%TO.P,TP9,1,1*%
%TO.N,MOTOR2_B_OUT*%
X111500000Y-86500000D03*
%TD*%
%TO.P,TP43,1,1*%
%TO.N,MOTOR4_A_OUT*%
X163000000Y-120500000D03*
%TD*%
%TO.P,TP33,1,1*%
%TO.N,CTRL_EXT_LOAD2*%
X159000000Y-120500000D03*
%TD*%
D52*
%TO.P,U5,1,A1*%
%TO.N,3V3_Out*%
X152725000Y-104695000D03*
%TO.P,U5,2,A0*%
%TO.N,GND*%
X152725000Y-103425000D03*
%TO.P,U5,3,SDA*%
%TO.N,Net-(U5-SDA)*%
X152725000Y-102155000D03*
%TO.P,U5,4,SCL*%
%TO.N,Net-(U5-SCL)*%
X152725000Y-100885000D03*
%TO.P,U5,5,VS*%
%TO.N,Net-(U5-VS)*%
X147775000Y-100885000D03*
%TO.P,U5,6,GND*%
%TO.N,GND*%
X147775000Y-102155000D03*
%TO.P,U5,7,VIN-*%
%TO.N,VCC*%
X147775000Y-103425000D03*
%TO.P,U5,8,VIN+*%
%TO.N,Battery*%
X147775000Y-104695000D03*
%TD*%
D51*
%TO.P,Q3,1,D*%
%TO.N,Net-(Q2-G)*%
X116050000Y-100500000D03*
%TO.P,Q3,2,G*%
%TO.N,Net-(Q3-G)*%
X117950000Y-100500000D03*
%TO.P,Q3,3,S*%
%TO.N,GND*%
X117000000Y-98225000D03*
%TD*%
D39*
%TO.P,C23,1*%
%TO.N,Net-(SW1-A)*%
X181000000Y-78944700D03*
%TO.P,C23,2*%
%TO.N,GND*%
X181000000Y-81019700D03*
%TD*%
D12*
%TO.P,TP18,1,1*%
%TO.N,GND*%
X151000000Y-120500000D03*
%TD*%
D28*
%TO.P,R9,1*%
%TO.N,/USB C/CC1*%
X185900000Y-97210000D03*
%TO.P,R9,2*%
%TO.N,Net-(J2-CC1)*%
X189000000Y-97210000D03*
%TD*%
D23*
%TO.P,R23,1*%
%TO.N,Net-(C33-Pad1)*%
X162412500Y-76944700D03*
%TO.P,R23,2*%
%TO.N,Net-(U9-COMP)*%
X160587500Y-76944700D03*
%TD*%
D12*
%TO.P,TP26,1,1*%
%TO.N,Battery*%
X147775000Y-97885000D03*
%TD*%
D10*
%TO.P,C25,1*%
%TO.N,HV*%
X140325000Y-70500000D03*
%TO.P,C25,2*%
%TO.N,GND*%
X143450000Y-70500000D03*
%TD*%
%TO.P,C36,1*%
%TO.N,3V3_Out*%
X185875000Y-63944700D03*
%TO.P,C36,2*%
%TO.N,GND*%
X189000000Y-63944700D03*
%TD*%
D53*
%TO.P,J3,1,CC1*%
%TO.N,/USB C/CC1*%
X188000000Y-105000000D03*
%TO.P,J3,2,VBUS*%
%TO.N,HV*%
X188000000Y-104350000D03*
%TO.P,J3,3,VSET*%
%TO.N,Net-(J3-VSET)*%
X188000000Y-103700000D03*
%TO.P,J3,4,D+*%
%TO.N,unconnected-(J3-D+-Pad4)*%
X185900000Y-103700000D03*
%TO.P,J3,5,D-*%
%TO.N,unconnected-(J3-D--Pad5)*%
X185900000Y-104350000D03*
%TO.P,J3,6,CC2*%
%TO.N,/USB C/CC2*%
X185900000Y-105000000D03*
D54*
%TO.P,J3,7,GND*%
%TO.N,GND*%
X186950000Y-104350000D03*
%TD*%
D12*
%TO.P,TP20,1,1*%
%TO.N,VCC*%
X181500000Y-86944700D03*
%TD*%
%TO.P,TP14,1,1*%
%TO.N,Net-(SW1-A)*%
X169125000Y-86944700D03*
%TD*%
D55*
%TO.P,J1,1,Pin_1*%
%TO.N,MOTOR2_B_OUT*%
X168785000Y-115975000D03*
D56*
%TO.P,J1,2,Pin_2*%
%TO.N,MOTOR2_A_OUT*%
X168785000Y-113435000D03*
%TO.P,J1,3,Pin_3*%
%TO.N,MOTOR4_A_OUT*%
X166245000Y-115975000D03*
%TO.P,J1,4,Pin_4*%
%TO.N,MOTOR2_CTRL1*%
X166245000Y-113435000D03*
%TO.P,J1,5,Pin_5*%
%TO.N,MOTOR4_B_OUT*%
X163705000Y-115975000D03*
%TO.P,J1,6,Pin_6*%
%TO.N,MOTOR2_CTRL2*%
X163705000Y-113435000D03*
%TO.P,J1,7,Pin_7*%
%TO.N,CTRL_EXT_LOAD2*%
X161165000Y-115975000D03*
%TO.P,J1,8,Pin_8*%
%TO.N,MOTOR4_CTRL1*%
X161165000Y-113435000D03*
%TO.P,J1,9,Pin_9*%
%TO.N,USART2_RX*%
X158625000Y-115975000D03*
%TO.P,J1,10,Pin_10*%
%TO.N,MOTOR4_CTRL2*%
X158625000Y-113435000D03*
%TO.P,J1,11,Pin_11*%
%TO.N,EXT_LOAD2_OUT*%
X156085000Y-115975000D03*
%TO.P,J1,12,Pin_12*%
%TO.N,USART2_TX*%
X156085000Y-113435000D03*
%TO.P,J1,13,Pin_13*%
%TO.N,FAST_CHARGE_CTRL*%
X153545000Y-115975000D03*
%TO.P,J1,14,Pin_14*%
%TO.N,Battery*%
X153545000Y-113435000D03*
%TO.P,J1,15,Pin_15*%
%TO.N,RESV*%
X151005000Y-115975000D03*
%TO.P,J1,16,Pin_16*%
%TO.N,I2C1_SCL*%
X151005000Y-113435000D03*
%TO.P,J1,17,Pin_17*%
%TO.N,I2C1_SDA*%
X148465000Y-115975000D03*
%TO.P,J1,18,Pin_18*%
%TO.N,3V3_Out*%
X148465000Y-113435000D03*
%TO.P,J1,19,Pin_19*%
%TO.N,GND*%
X145925000Y-115975000D03*
%TO.P,J1,20,Pin_20*%
%TO.N,5V_Out*%
X145925000Y-113435000D03*
%TO.P,J1,21,Pin_21*%
%TO.N,EXT_LOAD1_OUT*%
X143385000Y-115975000D03*
%TO.P,J1,22,Pin_22*%
%TO.N,HV*%
X143385000Y-113435000D03*
%TO.P,J1,23,Pin_23*%
%TO.N,GND*%
X140845000Y-115975000D03*
%TO.P,J1,24,Pin_24*%
%TO.N,MOTOR3_CTRL1*%
X140845000Y-113435000D03*
%TO.P,J1,25,Pin_25*%
%TO.N,CTRL_EXT_LOAD1*%
X138305000Y-115975000D03*
%TO.P,J1,26,Pin_26*%
%TO.N,MOTOR3_CTRL2*%
X138305000Y-113435000D03*
%TO.P,J1,27,Pin_27*%
%TO.N,MOTOR3_A_OUT*%
X135765000Y-115975000D03*
%TO.P,J1,28,Pin_28*%
%TO.N,MOTOR1_CTRL1*%
X135765000Y-113435000D03*
%TO.P,J1,29,Pin_29*%
%TO.N,MOTOR3_B_OUT*%
X133225000Y-115975000D03*
%TO.P,J1,30,Pin_30*%
%TO.N,MOTOR1_CTRL2*%
X133225000Y-113435000D03*
%TO.P,J1,31,Pin_31*%
%TO.N,MOTOR1_B_OUT*%
X130685000Y-115975000D03*
%TO.P,J1,32,Pin_32*%
%TO.N,MOTOR1_A_OUT*%
X130685000Y-113435000D03*
%TD*%
D57*
%TO.N,GND*%
X115568687Y-73431302D03*
X143000000Y-103000000D03*
X137500000Y-70000000D03*
X137500000Y-65500000D03*
X116500000Y-76500000D03*
X138475000Y-84166484D03*
D58*
X150000000Y-88510000D03*
X150000000Y-68510000D03*
D57*
X182239400Y-81029300D03*
D58*
X150000000Y-78510000D03*
D57*
%TO.N,Net-(U2-AISEN)*%
X135097000Y-90657700D03*
X130692000Y-81486700D03*
%TO.N,Net-(U1-VINT)*%
X126404000Y-84616300D03*
X127742000Y-90686100D03*
%TO.N,5V_Out*%
X172977800Y-73781600D03*
X167104000Y-86675000D03*
X169093000Y-71404200D03*
X177446300Y-86944700D03*
X169093000Y-81817300D03*
X144382000Y-86297600D03*
%TO.N,HV*%
X182500000Y-96000000D03*
X189387000Y-103381000D03*
X149500000Y-92141100D03*
X141990000Y-70549700D03*
%TO.N,Net-(D1-K)*%
X165051000Y-73868700D03*
X165723000Y-85090500D03*
%TO.N,3V3_Out*%
X135918000Y-81325100D03*
X149301000Y-104981000D03*
X152408000Y-98408900D03*
X174952000Y-85741300D03*
X135918000Y-90291400D03*
X171838000Y-76769200D03*
%TO.N,CTRL_EXT_LOAD1*%
X136384000Y-102207000D03*
%TO.N,Net-(Q2-G)*%
X118500000Y-104000000D03*
X116000000Y-101500000D03*
%TO.N,Net-(U8-PROG)*%
X114500000Y-78000000D03*
X118500000Y-72900000D03*
%TO.N,Battery*%
X126492000Y-74521000D03*
X154146000Y-105880000D03*
%TO.N,MOTOR1_CTRL1*%
X126193000Y-82510300D03*
%TO.N,EXT_LOAD1_OUT*%
X139671000Y-114705000D03*
X113359000Y-95125800D03*
X122048000Y-112281000D03*
%TO.N,MOTOR2_A_OUT*%
X118095000Y-87125000D03*
X125703000Y-106388000D03*
%TO.N,MOTOR2_CTRL1*%
X167558000Y-110033000D03*
X125118000Y-88479300D03*
X125118000Y-104253000D03*
%TO.N,MOTOR1_B_OUT*%
X116343000Y-85175000D03*
%TO.N,MOTOR3_CTRL2*%
X136682000Y-80515800D03*
%TO.N,MOTOR4_A_OUT*%
X154819000Y-87294700D03*
%TO.N,I2C1_SCL*%
X154912000Y-100067000D03*
%TO.N,EXT_LOAD2_OUT*%
X115361000Y-102776000D03*
X127500000Y-119500000D03*
%TO.N,I2C1_SDA*%
X154997000Y-102463000D03*
%TO.N,MOTOR3_CTRL1*%
X137311000Y-82850000D03*
%TO.N,MOTOR4_B_OUT*%
X132756000Y-105594000D03*
X128287037Y-86212952D03*
X162435000Y-107335000D03*
%TO.N,MOTOR3_B_OUT*%
X129819000Y-80508100D03*
%TO.N,MOTOR4_CTRL1*%
X152139000Y-85674700D03*
%TO.N,MOTOR3_A_OUT*%
X129402000Y-82127800D03*
%TO.N,MOTOR1_A_OUT*%
X116240000Y-83875000D03*
%TO.N,/USB C/CC2*%
X181410000Y-96590000D03*
X181648000Y-104856000D03*
%TO.N,Net-(Q1-G)*%
X139500000Y-86000000D03*
X130500000Y-64000000D03*
%TO.N,Net-(U1-AISEN)*%
X124512000Y-90715600D03*
X115590000Y-84525000D03*
%TO.N,Net-(SW1-A)*%
X160699000Y-87922100D03*
X172019700Y-82632800D03*
X170451800Y-86944700D03*
%TO.N,Net-(U9-SW_4)*%
X183552200Y-79000000D03*
X181670000Y-89231600D03*
X159609300Y-79132300D03*
X159884500Y-89327400D03*
%TO.N,Net-(U9-SS)*%
X168493000Y-83400000D03*
X168493000Y-79000000D03*
%TO.N,VCC*%
X179707700Y-106099700D03*
X157355000Y-104280000D03*
X182934700Y-86944700D03*
X159895000Y-105909100D03*
X183942300Y-77068000D03*
%TO.N,Net-(U9-FSW)*%
X160650600Y-91228700D03*
X185935700Y-91228700D03*
X185935700Y-75862300D03*
X158991900Y-81944700D03*
%TO.N,Net-(U9-COMP)*%
X183824500Y-75195500D03*
X174955500Y-69066000D03*
X159594100Y-76174700D03*
X159594100Y-69066000D03*
%TO.N,Net-(U9-ILIM)*%
X182943100Y-83399500D03*
X182968700Y-77530000D03*
%TO.N,/3V3 5V output/FB*%
X162814500Y-72745200D03*
X169658600Y-85942100D03*
%TO.N,/battery/5V*%
X117500000Y-74100000D03*
X117500000Y-63500000D03*
%TO.N,FAST_CHARGE_CTRL*%
X145408000Y-85978500D03*
%TO.N,MOTOR2_CTRL2*%
X126422000Y-106990000D03*
X126002806Y-88441611D03*
%TO.N,MOTOR2_B_OUT*%
X118098000Y-85876900D03*
X123658000Y-103410000D03*
%TO.N,MOTOR4_CTRL2*%
X146150000Y-86788900D03*
%TO.N,MOTOR1_CTRL2*%
X127322000Y-83832200D03*
%TO.N,Net-(U2-~{NFAULT})*%
X130242000Y-88118700D03*
X127121000Y-80004700D03*
%TD*%
D59*
%TO.N,GND*%
X126207000Y-85218100D02*
X127219000Y-86229300D01*
X116126000Y-77698900D02*
X116126000Y-77626100D01*
X116199989Y-72800000D02*
X116200000Y-72800000D01*
X189000000Y-69944700D02*
X189000000Y-66944700D01*
X172678000Y-93055600D02*
X173650000Y-94027300D01*
X144810000Y-69140000D02*
X144810000Y-68510000D01*
X189000000Y-66944700D02*
X189000000Y-63944700D01*
X172080000Y-93055600D02*
X172678000Y-93055600D01*
X158699000Y-84899800D02*
X158274000Y-84899800D01*
X117000000Y-98225000D02*
X120225000Y-95000000D01*
X181038000Y-98704500D02*
X181038000Y-98704600D01*
X143575000Y-74000000D02*
X141805000Y-72230000D01*
X135500000Y-96000000D02*
X135500000Y-95000000D01*
X125575000Y-65875000D02*
X129000000Y-65875000D01*
X113700000Y-66950000D02*
X113700000Y-63600000D01*
X143450000Y-70585000D02*
X143450000Y-70500000D01*
X167746000Y-99279500D02*
X171396000Y-99279500D01*
X180075000Y-81019700D02*
X178000000Y-78944700D01*
X141805000Y-72230000D02*
X143450000Y-70585000D01*
X180720000Y-94680000D02*
X180720000Y-94207300D01*
X166530000Y-80519700D02*
X164528900Y-82520600D01*
X131500000Y-92711160D02*
X131500000Y-94000000D01*
X186315000Y-77850000D02*
X187065000Y-77100000D01*
X127219000Y-86229300D02*
X127219000Y-86230100D01*
X140500000Y-101000000D02*
X135500000Y-96000000D01*
X137703921Y-84800000D02*
X136000000Y-84800000D01*
X113700000Y-66950000D02*
X113700000Y-70300000D01*
X182672000Y-82782700D02*
X181454700Y-84000000D01*
X180720000Y-94207300D02*
X180720000Y-93528300D01*
X147077000Y-115975000D02*
X147077000Y-116276000D01*
X172373000Y-94500000D02*
X172080000Y-94207300D01*
X116126000Y-77626100D02*
X114000000Y-75500000D01*
X141805000Y-72230000D02*
X135500000Y-72230000D01*
X165423000Y-101603000D02*
X164161000Y-102864000D01*
X180500000Y-66444700D02*
X180500000Y-69444700D01*
X116200000Y-72800000D02*
X113700000Y-70300000D01*
X184105000Y-98704600D02*
X185900000Y-100500000D01*
X115568687Y-73431302D02*
X116199989Y-72800000D01*
X117252400Y-76500000D02*
X116528000Y-77224400D01*
X162195000Y-83944700D02*
X161348900Y-83098600D01*
X180720000Y-93528300D02*
X180122000Y-93528300D01*
X131324000Y-92535160D02*
X131500000Y-92711160D01*
X179386000Y-94263600D02*
X179386000Y-94263700D01*
X171500000Y-72714700D02*
X171500000Y-73984700D01*
X172260000Y-94500000D02*
X172080000Y-94680000D01*
X179150000Y-94027300D02*
X179386000Y-94263600D01*
X126020900Y-85175000D02*
X126064000Y-85218100D01*
X143505000Y-63830000D02*
X143325000Y-63650000D01*
X151931500Y-70441500D02*
X150000000Y-68510000D01*
X186386000Y-105477000D02*
X169297000Y-105477000D01*
X180562000Y-72444700D02*
X180500000Y-72444700D01*
X164527000Y-75254700D02*
X166550000Y-75254700D01*
X164447000Y-73142100D02*
X164447000Y-75174400D01*
X148520000Y-79990000D02*
X150000000Y-78510000D01*
X143845000Y-102155000D02*
X147775000Y-102155000D01*
X180720000Y-98480000D02*
X180720000Y-98386200D01*
X143000000Y-103000000D02*
X143845000Y-102155000D01*
X152884000Y-103266000D02*
X152725000Y-103425000D01*
X181454700Y-84000000D02*
X165000000Y-84000000D01*
X179280000Y-76664500D02*
X172910000Y-76664500D01*
X135500000Y-63875000D02*
X135875000Y-63875000D01*
X189000000Y-69944700D02*
X189000000Y-72944700D01*
X186315000Y-82782700D02*
X182672000Y-82782700D01*
X158274000Y-84899800D02*
X154664000Y-88510000D01*
X154664000Y-88510000D02*
X150000000Y-88510000D01*
X163125000Y-83924300D02*
X162175000Y-83924300D01*
X137500000Y-70000000D02*
X136540000Y-70960000D01*
X162175000Y-83924300D02*
X162195000Y-83944700D01*
X135875000Y-63875000D02*
X137500000Y-65500000D01*
X142675000Y-83000000D02*
X142675000Y-79990000D01*
X120500000Y-95000000D02*
X123500000Y-95000000D01*
X172080000Y-99631700D02*
X172080000Y-98007300D01*
X171396000Y-99279500D02*
X171748000Y-99631700D01*
X186950000Y-104350000D02*
X186950000Y-105452000D01*
X135500000Y-70960000D02*
X135500000Y-72230000D01*
X125156000Y-85218100D02*
X126064000Y-85218100D01*
X187500000Y-85444700D02*
X186315000Y-84259700D01*
X125450000Y-65750000D02*
X125575000Y-65875000D01*
X135500000Y-72230000D02*
X135500000Y-73500000D01*
X125112000Y-85175000D02*
X125156000Y-85218100D01*
X169297000Y-105477000D02*
X165423000Y-101603000D01*
X181317000Y-62727500D02*
X180500000Y-63544700D01*
X179386000Y-94263700D02*
X179150000Y-94500000D01*
X116528000Y-76528000D02*
X116500000Y-76500000D01*
X165542000Y-72047000D02*
X164447000Y-73142100D01*
X178000000Y-78944700D02*
X175000000Y-78944700D01*
X186411000Y-105452000D02*
X186386000Y-105477000D01*
X186950000Y-105452000D02*
X186411000Y-105452000D01*
X127000000Y-95025000D02*
X132475000Y-95025000D01*
X131500000Y-94000000D02*
X132500000Y-95000000D01*
X163248600Y-70441500D02*
X151931500Y-70441500D01*
X172910000Y-76664500D02*
X171500000Y-75254700D01*
X181000000Y-81019700D02*
X181009600Y-81029300D01*
X180562000Y-72444700D02*
X180562500Y-72444700D01*
X180720000Y-98386200D02*
X181038000Y-98704500D01*
X186315000Y-79250000D02*
X186315000Y-77850000D01*
X127219000Y-86230100D02*
X127703700Y-86714800D01*
X172080000Y-98007300D02*
X180720000Y-98007300D01*
X127704000Y-86714800D02*
X128285000Y-87295800D01*
X187783000Y-62727500D02*
X181317000Y-62727500D01*
X180500000Y-75444700D02*
X179280000Y-76664500D01*
X135500000Y-73500000D02*
X135500000Y-74770000D01*
X120050000Y-73500000D02*
X116900000Y-73500000D01*
X131324000Y-91324600D02*
X131324000Y-92535160D01*
X171500000Y-73984700D02*
X171500000Y-75254700D01*
X167000000Y-80519700D02*
X166530000Y-80519700D01*
X143450000Y-63885000D02*
X143450000Y-67150000D01*
X128285000Y-87295800D02*
X128285000Y-88285600D01*
X180122000Y-93528300D02*
X179386000Y-94263700D01*
X180500000Y-69444700D02*
X180500000Y-72444700D01*
X151480000Y-103425000D02*
X150210000Y-102155000D01*
X165423000Y-101603000D02*
X167746000Y-99279500D01*
X132150000Y-63875000D02*
X135500000Y-63875000D01*
X126064000Y-85218100D02*
X126207000Y-85218100D01*
X142675000Y-79990000D02*
X148520000Y-79990000D01*
X161348900Y-83098600D02*
X160500000Y-83098600D01*
X147077000Y-116276000D02*
X150499000Y-119698000D01*
X163568600Y-70761500D02*
X163183000Y-70761500D01*
X116528000Y-77224400D02*
X116126000Y-77626100D01*
X135500000Y-74770000D02*
X130550000Y-74770000D01*
X181000000Y-81019700D02*
X180075000Y-81019700D01*
X144810000Y-68510000D02*
X143450000Y-67150000D01*
X120225000Y-95000000D02*
X120500000Y-95000000D01*
X150210000Y-102155000D02*
X147775000Y-102155000D01*
X128285000Y-88285600D02*
X131324000Y-91324600D01*
X152725000Y-103425000D02*
X151480000Y-103425000D01*
X171500000Y-72047000D02*
X165542000Y-72047000D01*
X116528000Y-77224400D02*
X116528000Y-76528000D01*
X138475000Y-84166484D02*
X138337437Y-84166484D01*
X150000000Y-68510000D02*
X144810000Y-68510000D01*
X171500000Y-71444700D02*
X171500000Y-72047000D01*
X129000000Y-65875000D02*
X130150000Y-65875000D01*
X187065000Y-77100000D02*
X185565000Y-77100000D01*
X140845000Y-115975000D02*
X141996000Y-114824000D01*
X132475000Y-95025000D02*
X132500000Y-95000000D01*
X116900000Y-73500000D02*
X116200000Y-72800000D01*
X128820000Y-76500000D02*
X117252400Y-76500000D01*
X186315000Y-84259700D02*
X186315000Y-82782700D01*
X117000000Y-102950000D02*
X117000000Y-98225000D01*
X180500000Y-63544700D02*
X180500000Y-66444700D01*
X170425000Y-80519700D02*
X171476000Y-79468700D01*
X143685000Y-64010000D02*
X143505000Y-63830000D01*
X160500000Y-83098600D02*
X158699000Y-84899800D01*
X130150000Y-65875000D02*
X132150000Y-63875000D01*
X165000000Y-84000000D02*
X164024714Y-83024714D01*
X189000000Y-63944700D02*
X187783000Y-62727500D01*
X171476000Y-79468700D02*
X172000000Y-78944700D01*
X173650000Y-94500000D02*
X172373000Y-94500000D01*
X181038000Y-98704600D02*
X184105000Y-98704600D01*
X145925000Y-115975000D02*
X147077000Y-115975000D01*
X174476000Y-79468700D02*
X175000000Y-78944700D01*
X164528900Y-82520600D02*
X163125000Y-83924300D01*
X137952921Y-84551000D02*
X137703921Y-84800000D01*
X144774000Y-114824000D02*
X145925000Y-115975000D01*
X180500000Y-72444700D02*
X180500000Y-75444700D01*
X169500000Y-80519700D02*
X167000000Y-80519700D01*
X172373000Y-94500000D02*
X172260000Y-94500000D01*
X180720000Y-98007300D02*
X180720000Y-98386200D01*
X171500000Y-71444700D02*
X170817000Y-70761500D01*
X141996000Y-114824000D02*
X144774000Y-114824000D01*
X186315000Y-82782700D02*
X186315000Y-79250000D01*
X158082000Y-102864000D02*
X157682000Y-103264000D01*
X143450000Y-70500000D02*
X144810000Y-69140000D01*
X172080000Y-94207300D02*
X172080000Y-93055600D01*
X155686000Y-103266000D02*
X152884000Y-103266000D01*
X130550000Y-74770000D02*
X128820000Y-76500000D01*
X171748000Y-99631700D02*
X172080000Y-99631700D01*
X170817000Y-70761500D02*
X163568600Y-70761500D01*
X163568600Y-70761500D02*
X163248600Y-70441500D01*
X151000000Y-119698000D02*
X151000000Y-120500000D01*
X164447000Y-75174400D02*
X164527000Y-75254700D01*
X123525000Y-95025000D02*
X123500000Y-95000000D01*
X125112500Y-85175000D02*
X126020900Y-85175000D01*
X171476000Y-79468700D02*
X174476000Y-79468700D01*
X143505000Y-63830000D02*
X143450000Y-63885000D01*
X138337437Y-84166484D02*
X137952921Y-84551000D01*
X127703700Y-86714800D02*
X127704000Y-86714800D01*
X127000000Y-95025000D02*
X123525000Y-95025000D01*
X181009600Y-81029300D02*
X182239400Y-81029300D01*
X157682000Y-103264000D02*
X155688000Y-103264000D01*
X112825000Y-81000000D02*
X116126000Y-77698900D01*
X150499000Y-119698000D02*
X151000000Y-119698000D01*
X143585000Y-74010000D02*
X143575000Y-74000000D01*
X135500000Y-95000000D02*
X132500000Y-95000000D01*
X163183000Y-70761500D02*
X162500000Y-71444700D01*
X116950000Y-103000000D02*
X117000000Y-102950000D01*
X136540000Y-70960000D02*
X135500000Y-70960000D01*
X171500000Y-72047000D02*
X171500000Y-72714700D01*
X164161000Y-102864000D02*
X158082000Y-102864000D01*
X169500000Y-80519700D02*
X170425000Y-80519700D01*
X155688000Y-103264000D02*
X155686000Y-103266000D01*
%TO.N,Net-(U2-AISEN)*%
X128727000Y-81927900D02*
X129168000Y-81486700D01*
X135500000Y-91900000D02*
X135097000Y-91497100D01*
X129168000Y-81486700D02*
X130692000Y-81486700D01*
X129539000Y-84150000D02*
X128727000Y-83338600D01*
X135097000Y-91497100D02*
X135097000Y-90657700D01*
X130275000Y-84150000D02*
X129539000Y-84150000D01*
X128727000Y-83338600D02*
X128727000Y-81927900D01*
%TO.N,Net-(U1-VINT)*%
X125112000Y-84525000D02*
X125112500Y-84525000D01*
X126313000Y-84525000D02*
X126404000Y-84616300D01*
X127742000Y-91157700D02*
X127742000Y-90686100D01*
X125112500Y-84525000D02*
X126313000Y-84525000D01*
X127000000Y-91900000D02*
X127742000Y-91157700D01*
%TO.N,Net-(U1-VCP)*%
X125112000Y-86475000D02*
X125112500Y-86475000D01*
X129800000Y-91663700D02*
X129800000Y-92400000D01*
X126918800Y-87418800D02*
X126918800Y-88782500D01*
X125975000Y-86475000D02*
X126918800Y-87418800D01*
X125112500Y-86475000D02*
X125975000Y-86475000D01*
X126918800Y-88782500D02*
X129800000Y-91663700D01*
%TO.N,Net-(U2-VCP)*%
X138500000Y-86000000D02*
X139710000Y-84790000D01*
X138400000Y-86100000D02*
X138500000Y-86000000D01*
X136000000Y-86100000D02*
X138400000Y-86100000D01*
X139710000Y-77740200D02*
X140450000Y-77000000D01*
X139710000Y-84790000D02*
X139710000Y-77740200D01*
%TO.N,Net-(U2-VINT)*%
X138381000Y-76069400D02*
X138381000Y-83274600D01*
X140450000Y-74000000D02*
X138381000Y-76069400D01*
X137505000Y-84150000D02*
X136000000Y-84150000D01*
X138381000Y-83274600D02*
X137505000Y-84150000D01*
%TO.N,Net-(U5-VS)*%
X149501000Y-99159200D02*
X149501000Y-97726500D01*
X149604000Y-97623600D02*
X150168000Y-97059000D01*
X145282000Y-93301700D02*
X149604000Y-97623600D01*
X149501000Y-97726500D02*
X149604000Y-97623600D01*
X145053000Y-93301700D02*
X145282000Y-93301700D01*
X144252000Y-92500000D02*
X145053000Y-93301700D01*
X147775000Y-100885000D02*
X149501000Y-99159200D01*
X150168000Y-97059000D02*
X152949000Y-97059000D01*
X152949000Y-97059000D02*
X153275000Y-97385000D01*
X143450000Y-92500000D02*
X144252000Y-92500000D01*
%TO.N,/USB C/CC1*%
X185900000Y-97210000D02*
X186853000Y-98162700D01*
X170779000Y-101678000D02*
X186529000Y-101678000D01*
X189989000Y-99624800D02*
X189659000Y-99295000D01*
X188000000Y-105000000D02*
X189000000Y-105000000D01*
X189989000Y-104011000D02*
X189989000Y-99624800D01*
X186853000Y-101354000D02*
X186853000Y-99295000D01*
X169202000Y-100100000D02*
X170779000Y-101678000D01*
X186529000Y-101678000D02*
X186853000Y-101354000D01*
X186853000Y-98162700D02*
X186853000Y-99295000D01*
X189659000Y-99295000D02*
X186853000Y-99295000D01*
X168400000Y-100100000D02*
X169202000Y-100100000D01*
X189000000Y-105000000D02*
X189989000Y-104011000D01*
D60*
%TO.N,5V_Out*%
X130000300Y-94125000D02*
X129800000Y-94125000D01*
X124000000Y-108500000D02*
X130886000Y-108500000D01*
X166550000Y-71444700D02*
X165055300Y-71444700D01*
D59*
X148050000Y-109000000D02*
X148050000Y-109401000D01*
X175000000Y-81019700D02*
X178000000Y-81019700D01*
D61*
X148666200Y-84333800D02*
X141588000Y-84333800D01*
D60*
X161018000Y-74912600D02*
X160500000Y-74394700D01*
D61*
X161380000Y-75274500D02*
X161500000Y-75394500D01*
D60*
X140600000Y-83000000D02*
X140600000Y-79990000D01*
X165055300Y-71444700D02*
X163872000Y-72628000D01*
D59*
X141588000Y-85842600D02*
X142043000Y-86297600D01*
X177438000Y-70553800D02*
X177438000Y-68007200D01*
D60*
X144000000Y-109000000D02*
X140000000Y-109000000D01*
X142175000Y-78415000D02*
X140600000Y-79990000D01*
D61*
X154797800Y-78202200D02*
X148666200Y-84333800D01*
D59*
X177492100Y-72390100D02*
X177437500Y-72444700D01*
X180053400Y-86143000D02*
X179251700Y-86944700D01*
X177648300Y-86944700D02*
X177446300Y-86944700D01*
X166877000Y-86902000D02*
X167104000Y-86675000D01*
D61*
X130785000Y-91786100D02*
X130784800Y-91786100D01*
D59*
X177438000Y-68007200D02*
X177375000Y-67944700D01*
X187965000Y-79500000D02*
X188376000Y-79500000D01*
D61*
X161500000Y-77500000D02*
X161000000Y-78000000D01*
D60*
X117000000Y-93500000D02*
X129175000Y-93500000D01*
D59*
X177492500Y-72390100D02*
X177547000Y-72335500D01*
D60*
X148050000Y-109401000D02*
X145202000Y-109401000D01*
X177375000Y-67944700D02*
X177375000Y-66444700D01*
D59*
X188610100Y-79734100D02*
X188610100Y-85707600D01*
X178049200Y-86944700D02*
X177648300Y-86944700D01*
D61*
X126112240Y-85825000D02*
X125112500Y-85825000D01*
D60*
X117600000Y-108000000D02*
X119100000Y-109500000D01*
D61*
X159500000Y-78000000D02*
X159297800Y-78202200D01*
D59*
X161380000Y-75274200D02*
X161380000Y-75274500D01*
D61*
X130784800Y-91786100D02*
X127541000Y-88542300D01*
D59*
X177438000Y-72444700D02*
X177492500Y-72390100D01*
X182984300Y-86143000D02*
X180053400Y-86143000D01*
D60*
X111500000Y-99000000D02*
X117000000Y-93500000D01*
X111500000Y-103675000D02*
X116198000Y-103675000D01*
X119100000Y-109500000D02*
X122000000Y-109500000D01*
X111500000Y-105000000D02*
X111500000Y-103675000D01*
D59*
X187945000Y-86372700D02*
X183214000Y-86372700D01*
D60*
X122000000Y-109500000D02*
X123500000Y-108000000D01*
X130000000Y-94125000D02*
X129800000Y-94125000D01*
D59*
X171202000Y-81817300D02*
X172000000Y-81019700D01*
X178049200Y-86944700D02*
X178450000Y-86944700D01*
D60*
X175000000Y-81019700D02*
X172000000Y-81019700D01*
D59*
X169093000Y-81817300D02*
X171202000Y-81817300D01*
D60*
X145925000Y-111927000D02*
X148050000Y-109802000D01*
D59*
X177547000Y-72335500D02*
X177547000Y-70663000D01*
D60*
X111500000Y-103675000D02*
X111500000Y-99000000D01*
D61*
X130785000Y-91786100D02*
X130785000Y-93340300D01*
X142175000Y-77000000D02*
X141175000Y-76000000D01*
D60*
X161605500Y-75500000D02*
X161380000Y-75274500D01*
D59*
X177547000Y-70663000D02*
X177438000Y-70553800D01*
D60*
X116198000Y-103675000D02*
X116950000Y-104427000D01*
D61*
X139196000Y-84400100D02*
X138146000Y-85450000D01*
D59*
X161018000Y-74912600D02*
X161380000Y-75274200D01*
D60*
X130886000Y-108500000D02*
X131198000Y-108188000D01*
D59*
X166590000Y-71404200D02*
X169093000Y-71404200D01*
X177437500Y-73719100D02*
X177437500Y-72444700D01*
X142043000Y-86297600D02*
X144382000Y-86297600D01*
D61*
X127541000Y-87253760D02*
X126112240Y-85825000D01*
D60*
X145202000Y-109401000D02*
X144802000Y-109000000D01*
D61*
X159297800Y-78202200D02*
X154797800Y-78202200D01*
D59*
X188610100Y-85707600D02*
X187945000Y-86372700D01*
D60*
X177375000Y-69444700D02*
X177375000Y-67944700D01*
D59*
X177375000Y-73781600D02*
X177437500Y-73719100D01*
D60*
X142175000Y-77000000D02*
X142175000Y-78415000D01*
D61*
X138146000Y-85450000D02*
X136000000Y-85450000D01*
D59*
X183214000Y-86372700D02*
X182984300Y-86143000D01*
D60*
X148050000Y-109802000D02*
X148050000Y-109401000D01*
D61*
X139196000Y-76304000D02*
X139196000Y-84400100D01*
D60*
X137146218Y-108188000D02*
X137958218Y-109000000D01*
X116950000Y-107350000D02*
X117600000Y-108000000D01*
D59*
X178450000Y-86944700D02*
X179251700Y-86944700D01*
D60*
X177375000Y-63544700D02*
X177375000Y-66444700D01*
D61*
X161500000Y-75394500D02*
X161500000Y-77500000D01*
D60*
X141588000Y-83987500D02*
X141588000Y-84333800D01*
D59*
X141588000Y-84333800D02*
X141588000Y-85842600D01*
D60*
X132000000Y-108188000D02*
X137146218Y-108188000D01*
D61*
X161000000Y-78000000D02*
X159500000Y-78000000D01*
X139500000Y-76000000D02*
X139196000Y-76304000D01*
D60*
X129175000Y-93500000D02*
X129800000Y-94125000D01*
X163872000Y-72628000D02*
X163872000Y-75500000D01*
X145925000Y-113435000D02*
X145925000Y-111927000D01*
D59*
X188376000Y-79500000D02*
X188610100Y-79734100D01*
D61*
X132000000Y-109500000D02*
X132000000Y-108188000D01*
D60*
X125112000Y-85825000D02*
X125112500Y-85825000D01*
X123500000Y-108000000D02*
X124000000Y-108500000D01*
D59*
X166877000Y-86944700D02*
X166877000Y-86902000D01*
D61*
X141175000Y-76000000D02*
X139500000Y-76000000D01*
D59*
X177375000Y-75444700D02*
X177375000Y-73781600D01*
D60*
X137958218Y-109000000D02*
X140000000Y-109000000D01*
D61*
X130785000Y-93340300D02*
X130000300Y-94125000D01*
X127541000Y-88542300D02*
X127541000Y-87253760D01*
D59*
X166075000Y-86944700D02*
X166877000Y-86944700D01*
D60*
X144802000Y-109000000D02*
X144000000Y-109000000D01*
X140600000Y-83000000D02*
X141588000Y-83987500D01*
D59*
X166550000Y-71444700D02*
X166590000Y-71404200D01*
D60*
X116950000Y-104427000D02*
X116950000Y-107350000D01*
D59*
X177492500Y-72390100D02*
X177492100Y-72390100D01*
D60*
X163872000Y-75500000D02*
X161605500Y-75500000D01*
X161380000Y-75274500D02*
X161018000Y-74912600D01*
D59*
X172977800Y-73781600D02*
X177375000Y-73781600D01*
D60*
X131198000Y-108188000D02*
X132000000Y-108188000D01*
D62*
%TO.N,HV*%
X188000000Y-104350000D02*
X188626000Y-104350000D01*
X180317783Y-95500000D02*
X178500000Y-95500000D01*
D59*
X132150000Y-69360000D02*
X132150000Y-67000000D01*
D62*
X140325000Y-67150000D02*
X140325000Y-63775000D01*
X140325000Y-67150000D02*
X140325000Y-70500000D01*
X165739000Y-92141100D02*
X167598000Y-94000000D01*
X177920000Y-94920000D02*
X177340000Y-95500000D01*
X167598000Y-94000000D02*
X168400000Y-94000000D01*
X132150000Y-67000000D02*
X135500000Y-67000000D01*
X174295000Y-92500000D02*
X174898000Y-93102300D01*
D59*
X140325000Y-63775000D02*
X140200000Y-63650000D01*
D62*
X178500000Y-95500000D02*
X177920000Y-94920000D01*
D59*
X189387000Y-103381000D02*
X189387000Y-103589000D01*
D62*
X177920000Y-94920000D02*
X177920000Y-94027300D01*
X182000000Y-95500000D02*
X181122217Y-95500000D01*
X174880000Y-94027300D02*
X174880000Y-93120000D01*
X170702000Y-92500000D02*
X174295000Y-92500000D01*
X181113917Y-95508300D02*
X180326083Y-95508300D01*
X181122217Y-95500000D02*
X181113917Y-95508300D01*
D59*
X140175000Y-67000000D02*
X140325000Y-67150000D01*
D62*
X135500000Y-67000000D02*
X140175000Y-67000000D01*
X177340000Y-95500000D02*
X175000000Y-95500000D01*
X141990000Y-70549700D02*
X140375000Y-70549700D01*
X180326083Y-95508300D02*
X180317783Y-95500000D01*
X149500000Y-92141100D02*
X165739000Y-92141100D01*
X188626000Y-104350000D02*
X189387000Y-103589000D01*
D59*
X174898000Y-93102300D02*
X174880000Y-93120000D01*
X130550000Y-70960000D02*
X132150000Y-69360000D01*
D62*
X182500000Y-96000000D02*
X182000000Y-95500000D01*
D59*
X140375000Y-70549700D02*
X140325000Y-70500000D01*
D62*
X169202000Y-94000000D02*
X170702000Y-92500000D01*
X174880000Y-95380000D02*
X174880000Y-94027300D01*
X175000000Y-95500000D02*
X174880000Y-95380000D01*
X168400000Y-94000000D02*
X169202000Y-94000000D01*
D59*
%TO.N,Net-(D1-K)*%
X184200000Y-85444700D02*
X183693000Y-84937900D01*
X160559000Y-85090500D02*
X165723000Y-85090500D01*
X183693000Y-84937900D02*
X165876000Y-84937900D01*
X166205000Y-72714700D02*
X165051000Y-73868700D01*
X159125000Y-86524700D02*
X160559000Y-85090500D01*
X165876000Y-84937900D02*
X165723000Y-85090500D01*
X166550000Y-72714700D02*
X166205000Y-72714700D01*
%TO.N,Net-(D2-K)*%
X113000000Y-73000000D02*
X113000000Y-74038000D01*
X111538000Y-75500000D02*
X110700000Y-75500000D01*
X129633000Y-72230000D02*
X126446000Y-75417000D01*
X113000000Y-74038000D02*
X111538000Y-75500000D01*
X114497000Y-74038000D02*
X113000000Y-74038000D01*
X130550000Y-72230000D02*
X129633000Y-72230000D01*
X126446000Y-75417000D02*
X115876000Y-75417000D01*
X115876000Y-75417000D02*
X114497000Y-74038000D01*
%TO.N,3V3_Out*%
X119388000Y-83225000D02*
X119293000Y-83130400D01*
X161705000Y-85694400D02*
X160875000Y-86524700D01*
X185875000Y-69944700D02*
X185875000Y-72286500D01*
X119198000Y-77000000D02*
X119198000Y-83035800D01*
X131450000Y-77000000D02*
X119198000Y-77000000D01*
X174423000Y-86944700D02*
X172818000Y-85339600D01*
X185875000Y-72286500D02*
X185875000Y-72944700D01*
X168167000Y-85339600D02*
X167813000Y-85694400D01*
X171838000Y-76769200D02*
X171260000Y-76769200D01*
X153903000Y-96995500D02*
X150503000Y-93595300D01*
X119293000Y-83130400D02*
X119388000Y-83224900D01*
X167813000Y-85694400D02*
X161705000Y-85694400D01*
X185875000Y-72286500D02*
X181087000Y-77074500D01*
X119387600Y-83224900D02*
X119387500Y-83225000D01*
X146500000Y-92500000D02*
X147364000Y-92500000D01*
X147364000Y-91455000D02*
X146201000Y-90291400D01*
X157718000Y-87321900D02*
X160078000Y-87321900D01*
X185875000Y-66944700D02*
X185875000Y-63944700D01*
X148460000Y-93595300D02*
X147364000Y-92500000D01*
X175225000Y-86944700D02*
X174423000Y-86944700D01*
X174952000Y-85741300D02*
X173220000Y-85741300D01*
X153275000Y-98520000D02*
X153903000Y-97892200D01*
X152439000Y-104981000D02*
X149301000Y-104981000D01*
X131450000Y-81325100D02*
X135918000Y-81325100D01*
X172144000Y-77074500D02*
X171838000Y-76769200D01*
X150503000Y-93595300D02*
X148460000Y-93595300D01*
X131450000Y-81325100D02*
X131450000Y-77000000D01*
X153903000Y-97892200D02*
X153903000Y-96995500D01*
X119388000Y-83224900D02*
X119388000Y-83225000D01*
X153164000Y-98408900D02*
X153275000Y-98520000D01*
X168476000Y-73984700D02*
X166550000Y-73984700D01*
X172818000Y-85339600D02*
X168167000Y-85339600D01*
X160078000Y-87321900D02*
X160875000Y-86524700D01*
X130275000Y-82850000D02*
X131450000Y-81675000D01*
X153585000Y-91455000D02*
X157718000Y-87321900D01*
X171260000Y-76769200D02*
X168476000Y-73984700D01*
X119198000Y-83035800D02*
X119293000Y-83130400D01*
X119388000Y-83224900D02*
X119387600Y-83224900D01*
X152725000Y-104695000D02*
X152439000Y-104981000D01*
X131450000Y-81675000D02*
X131450000Y-81325100D01*
X185875000Y-69944700D02*
X185875000Y-66944700D01*
X173220000Y-85741300D02*
X172818000Y-85339600D01*
X147364000Y-92500000D02*
X147364000Y-91455000D01*
X152408000Y-98408900D02*
X153164000Y-98408900D01*
X147364000Y-91455000D02*
X153585000Y-91455000D01*
X181087000Y-77074500D02*
X172144000Y-77074500D01*
X146201000Y-90291400D02*
X135918000Y-90291400D01*
%TO.N,Net-(Q1-D)*%
X125360000Y-62835200D02*
X126400000Y-63875000D01*
X122000000Y-63875000D02*
X123040000Y-62835200D01*
X123040000Y-62835200D02*
X125360000Y-62835200D01*
%TO.N,CTRL_EXT_LOAD1*%
X122568000Y-102207000D02*
X136384000Y-102207000D01*
X139457000Y-115975000D02*
X139457000Y-116263000D01*
X146198000Y-120500000D02*
X147000000Y-120500000D01*
X122275000Y-102500000D02*
X122568000Y-102207000D01*
X142892000Y-119698000D02*
X145397000Y-119698000D01*
X145397000Y-119698000D02*
X146198000Y-120500000D01*
X139457000Y-116263000D02*
X142892000Y-119698000D01*
X138305000Y-115975000D02*
X139457000Y-115975000D01*
%TO.N,Net-(Q2-G)*%
X114900000Y-100500000D02*
X113400000Y-99000000D01*
X118553000Y-104053000D02*
X121900000Y-104053000D01*
X116000000Y-100550000D02*
X116050000Y-100500000D01*
X116000000Y-101500000D02*
X116000000Y-100550000D01*
X118500000Y-104000000D02*
X118553000Y-104053000D01*
X121900000Y-104053000D02*
X121900000Y-106500000D01*
X121900000Y-106500000D02*
X120400000Y-108000000D01*
X116050000Y-100500000D02*
X114900000Y-100500000D01*
%TO.N,Net-(Q3-G)*%
X117950000Y-100500000D02*
X118450000Y-100500000D01*
X118450000Y-100500000D02*
X120450000Y-102500000D01*
%TO.N,Net-(U8-PROG)*%
X118500000Y-72900000D02*
X118500000Y-72460000D01*
X113000000Y-78500000D02*
X114000000Y-78500000D01*
X120050000Y-72230000D02*
X118730000Y-72230000D01*
X118500000Y-72460000D02*
X118730000Y-72230000D01*
X118000000Y-71500000D02*
X118000000Y-69875000D01*
X114000000Y-78500000D02*
X114500000Y-78000000D01*
X118000000Y-69875000D02*
X122000000Y-65875000D01*
X118730000Y-72230000D02*
X118000000Y-71500000D01*
%TO.N,Net-(R14-Pad2)*%
X111000000Y-81000000D02*
X111000000Y-78500000D01*
%TO.N,Battery*%
X140500000Y-103000000D02*
X140500000Y-103902000D01*
X147775000Y-97885000D02*
X146973000Y-97885000D01*
X141293000Y-104695000D02*
X147775000Y-104695000D01*
X154146000Y-105880000D02*
X153849000Y-105583000D01*
X146973000Y-97885000D02*
X141858000Y-103000000D01*
X157620000Y-105880000D02*
X154146000Y-105880000D01*
X159000000Y-104500000D02*
X157620000Y-105880000D01*
X148663000Y-105583000D02*
X147775000Y-104695000D01*
X126287000Y-74770000D02*
X126287000Y-74725800D01*
X140500000Y-103902000D02*
X141293000Y-104695000D01*
X153849000Y-105583000D02*
X148663000Y-105583000D01*
X126287000Y-74725800D02*
X126492000Y-74521000D01*
X125000000Y-74770000D02*
X126287000Y-74770000D01*
X141858000Y-103000000D02*
X140500000Y-103000000D01*
%TO.N,MOTOR1_CTRL1*%
X125112000Y-83224500D02*
X125112500Y-83225000D01*
X123500000Y-78500000D02*
X123500000Y-79801700D01*
X125112000Y-81414200D02*
X125112000Y-82510300D01*
X125112000Y-82510300D02*
X125112000Y-83224500D01*
X123500000Y-79801700D02*
X125112000Y-81414200D01*
X126193000Y-82510300D02*
X125112000Y-82510300D01*
%TO.N,EXT_LOAD1_OUT*%
X112450000Y-94251700D02*
X112450000Y-95125800D01*
X111500000Y-92500000D02*
X111500000Y-93301700D01*
X137035000Y-113069000D02*
X137035000Y-113853000D01*
X111500000Y-93301700D02*
X112450000Y-94251700D01*
X137035000Y-113853000D02*
X137887000Y-114705000D01*
X137887000Y-114705000D02*
X139671000Y-114705000D01*
X112450000Y-95125800D02*
X112450000Y-96000000D01*
X112450000Y-95125800D02*
X113359000Y-95125800D01*
X122048000Y-112281000D02*
X136247000Y-112281000D01*
X136247000Y-112281000D02*
X137035000Y-113069000D01*
%TO.N,MOTOR2_A_OUT*%
X168785000Y-112283000D02*
X168785000Y-113435000D01*
X125703000Y-106388000D02*
X137559000Y-106388000D01*
X151609000Y-107191000D02*
X152154000Y-107737000D01*
X119387500Y-87125000D02*
X118095000Y-87125000D01*
X161935000Y-107737000D02*
X163198000Y-109000000D01*
X152154000Y-107737000D02*
X161935000Y-107737000D01*
X138362000Y-107191000D02*
X151609000Y-107191000D01*
X164000000Y-109000000D02*
X164802000Y-109000000D01*
X137559000Y-106388000D02*
X138362000Y-107191000D01*
X168085000Y-112283000D02*
X168785000Y-112283000D01*
X164802000Y-109000000D02*
X168085000Y-112283000D01*
X163198000Y-109000000D02*
X164000000Y-109000000D01*
X119388000Y-87125000D02*
X119387500Y-87125000D01*
%TO.N,MOTOR2_CTRL1*%
X125118000Y-88479300D02*
X125112000Y-88473400D01*
X137223000Y-104253000D02*
X125118000Y-104253000D01*
X168000000Y-109000000D02*
X167558000Y-109000000D01*
X125112000Y-88298800D02*
X125112000Y-88124200D01*
X164932000Y-106733000D02*
X161256000Y-106733000D01*
X125112000Y-88473400D02*
X125112000Y-88298800D01*
X161057000Y-106932000D02*
X152537000Y-106932000D01*
X139358000Y-106388000D02*
X137223000Y-104253000D01*
X125112000Y-88298800D02*
X125112500Y-88298300D01*
X167558000Y-110033000D02*
X167558000Y-109000000D01*
X167558000Y-109000000D02*
X167198000Y-109000000D01*
X161256000Y-106733000D02*
X161057000Y-106932000D01*
X151993000Y-106388000D02*
X139358000Y-106388000D01*
X125112500Y-88298300D02*
X125112500Y-87775000D01*
X167198000Y-109000000D02*
X164932000Y-106733000D01*
X152537000Y-106932000D02*
X151993000Y-106388000D01*
%TO.N,MOTOR1_B_OUT*%
X134198000Y-120500000D02*
X130825000Y-117127000D01*
X119388000Y-85175000D02*
X119387500Y-85175000D01*
X130825000Y-117127000D02*
X130685000Y-117127000D01*
X135000000Y-120500000D02*
X134198000Y-120500000D01*
X119387500Y-85175000D02*
X116343000Y-85175000D01*
X130685000Y-117127000D02*
X130685000Y-115975000D01*
%TO.N,MOTOR3_CTRL2*%
X137579000Y-83500000D02*
X136000000Y-83500000D01*
X134500000Y-79000000D02*
X134802000Y-79000000D01*
X134000000Y-78500000D02*
X134500000Y-79000000D01*
X136682000Y-80515800D02*
X137931000Y-81764500D01*
X136318000Y-80515800D02*
X136682000Y-80515800D01*
X134802000Y-79000000D02*
X136318000Y-80515800D01*
X137931000Y-83147500D02*
X137579000Y-83500000D01*
X137931000Y-81764500D02*
X137931000Y-83147500D01*
%TO.N,MOTOR4_A_OUT*%
X166245000Y-117127000D02*
X166245000Y-115975000D01*
X163673000Y-119698000D02*
X166245000Y-117127000D01*
X145917000Y-88722000D02*
X148563000Y-86076400D01*
X129149000Y-87169600D02*
X129149000Y-87952500D01*
X130275000Y-86750000D02*
X129569000Y-86750000D01*
X129149000Y-87952500D02*
X129919000Y-88722000D01*
X151326000Y-86076400D02*
X152545000Y-87294700D01*
X163000000Y-120500000D02*
X163000000Y-119698000D01*
X152545000Y-87294700D02*
X154819000Y-87294700D01*
X148563000Y-86076400D02*
X151326000Y-86076400D01*
X163000000Y-119698000D02*
X163673000Y-119698000D01*
X129569000Y-86750000D02*
X129149000Y-87169600D01*
X129919000Y-88722000D02*
X145917000Y-88722000D01*
%TO.N,I2C1_SCL*%
X155010000Y-99970200D02*
X154912000Y-100067000D01*
X156950000Y-99970200D02*
X155010000Y-99970200D01*
X159000000Y-97920000D02*
X156950000Y-99970200D01*
%TO.N,EXT_LOAD2_OUT*%
X115361000Y-102776000D02*
X113226000Y-102776000D01*
X156085000Y-118613000D02*
X155000000Y-119698000D01*
X129302000Y-121302000D02*
X127500000Y-119500000D01*
X154198000Y-120500000D02*
X153397000Y-121302000D01*
X156085000Y-115975000D02*
X156085000Y-118613000D01*
X153397000Y-121302000D02*
X129302000Y-121302000D01*
X155000000Y-120500000D02*
X154198000Y-120500000D01*
X113226000Y-102776000D02*
X112450000Y-102000000D01*
X155000000Y-119698000D02*
X155000000Y-120500000D01*
%TO.N,CTRL_EXT_LOAD2*%
X161165000Y-117533000D02*
X161165000Y-115975000D01*
X159150000Y-114823000D02*
X160013000Y-115687000D01*
X154815000Y-113853000D02*
X155785000Y-114823000D01*
X125043000Y-107593000D02*
X137578000Y-107593000D01*
X122450000Y-105000000D02*
X125043000Y-107593000D01*
X159000000Y-120500000D02*
X159000000Y-119698000D01*
X137980000Y-107995000D02*
X148805000Y-107995000D01*
X137578000Y-107593000D02*
X137980000Y-107995000D01*
X160013000Y-115687000D02*
X160013000Y-115975000D01*
X148805000Y-107995000D02*
X151367000Y-110557000D01*
X154815000Y-113000000D02*
X154815000Y-113853000D01*
X155785000Y-114823000D02*
X159150000Y-114823000D01*
X160013000Y-115975000D02*
X161165000Y-115975000D01*
X151367000Y-110557000D02*
X152371000Y-110557000D01*
X152371000Y-110557000D02*
X154815000Y-113000000D01*
X159000000Y-119698000D02*
X161165000Y-117533000D01*
%TO.N,I2C1_SDA*%
X154997000Y-102463000D02*
X157747000Y-102463000D01*
X157747000Y-102463000D02*
X159000000Y-101210000D01*
%TO.N,MOTOR3_CTRL1*%
X136000000Y-82850000D02*
X137311000Y-82850000D01*
X139693000Y-113435000D02*
X139693000Y-113157000D01*
X136036000Y-109500000D02*
X136000000Y-109500000D01*
X140845000Y-113435000D02*
X139693000Y-113435000D01*
X139693000Y-113157000D02*
X136036000Y-109500000D01*
%TO.N,MOTOR4_B_OUT*%
X130275000Y-85450000D02*
X128608000Y-85450000D01*
X127923000Y-83582200D02*
X127923000Y-81526600D01*
X127923000Y-81526600D02*
X129648000Y-79801700D01*
X128546000Y-85387600D02*
X127924000Y-84765700D01*
X128287037Y-86212952D02*
X128287037Y-85647633D01*
X128287037Y-85647633D02*
X128286502Y-85647098D01*
X129648000Y-79801700D02*
X130500000Y-79801700D01*
X151801000Y-106790000D02*
X152347000Y-107335000D01*
X127924000Y-84765700D02*
X127924000Y-83583000D01*
X152347000Y-107335000D02*
X162435000Y-107335000D01*
X127924000Y-83583000D02*
X127923000Y-83582200D01*
X132756000Y-105594000D02*
X137898000Y-105594000D01*
X139094000Y-106790000D02*
X151801000Y-106790000D01*
X128286502Y-85647098D02*
X128546000Y-85387600D01*
X130500000Y-79801700D02*
X130500000Y-79000000D01*
X128608000Y-85450000D02*
X128546000Y-85387600D01*
X137898000Y-105594000D02*
X139094000Y-106790000D01*
%TO.N,MOTOR3_B_OUT*%
X129569000Y-84800000D02*
X128326000Y-83556800D01*
X133225000Y-115975000D02*
X134377000Y-115975000D01*
X128326000Y-83416700D02*
X128325000Y-83415900D01*
X134377000Y-115975000D02*
X134377000Y-116678000D01*
X128325000Y-81692900D02*
X129510000Y-80508100D01*
X129510000Y-80508100D02*
X129819000Y-80508100D01*
X128326000Y-83556800D02*
X128326000Y-83416700D01*
X134377000Y-116678000D02*
X138198000Y-120500000D01*
X130275000Y-84800000D02*
X129569000Y-84800000D01*
X138198000Y-120500000D02*
X139000000Y-120500000D01*
X128325000Y-83415900D02*
X128325000Y-81692900D01*
%TO.N,MOTOR4_CTRL1*%
X148328000Y-85674700D02*
X152139000Y-85674700D01*
X156696000Y-109802000D02*
X156000000Y-109802000D01*
X160013000Y-113119000D02*
X156696000Y-109802000D01*
X136000000Y-87400000D02*
X146603000Y-87400000D01*
X160013000Y-113435000D02*
X160013000Y-113119000D01*
X146603000Y-87400000D02*
X148328000Y-85674700D01*
X161165000Y-113435000D02*
X160013000Y-113435000D01*
X156000000Y-109802000D02*
X156000000Y-109000000D01*
%TO.N,MOTOR3_A_OUT*%
X141154000Y-120500000D02*
X143000000Y-120500000D01*
X130275000Y-83500000D02*
X129528000Y-83500000D01*
X129152000Y-83124400D02*
X129152000Y-82377900D01*
X135765000Y-115975000D02*
X136917000Y-115975000D01*
X129528000Y-83500000D02*
X129152000Y-83124400D01*
X129152000Y-82377900D02*
X129402000Y-82127800D01*
X136917000Y-115975000D02*
X136917000Y-116263000D01*
X136917000Y-116263000D02*
X141154000Y-120500000D01*
%TO.N,MOTOR1_A_OUT*%
X119387500Y-83875000D02*
X116240000Y-83875000D01*
X111500000Y-83500000D02*
X112302000Y-83500000D01*
X112677000Y-83875000D02*
X116240000Y-83875000D01*
X112302000Y-83500000D02*
X112677000Y-83875000D01*
X119388000Y-83875000D02*
X119387500Y-83875000D01*
%TO.N,/USB C/CC2*%
X169752000Y-96500000D02*
X169202000Y-97050000D01*
X182946000Y-96873700D02*
X185900000Y-93920000D01*
X181693700Y-96873700D02*
X182946000Y-96873700D01*
X181410000Y-96590000D02*
X181320000Y-96500000D01*
X185900000Y-105000000D02*
X181792000Y-105000000D01*
X181410000Y-96590000D02*
X181693700Y-96873700D01*
X181320000Y-96500000D02*
X169752000Y-96500000D01*
X169202000Y-97050000D02*
X168400000Y-97050000D01*
X181792000Y-105000000D02*
X181648000Y-104856000D01*
%TO.N,Net-(Q1-G)*%
X126145532Y-65000000D02*
X127875000Y-65000000D01*
X140675000Y-85500000D02*
X140000000Y-85500000D01*
X130500000Y-64000000D02*
X129125000Y-64000000D01*
X125020532Y-63875000D02*
X126145532Y-65000000D01*
X129125000Y-64000000D02*
X129000000Y-63875000D01*
X127875000Y-65000000D02*
X129000000Y-63875000D01*
X124500000Y-63875000D02*
X125020532Y-63875000D01*
X140000000Y-85500000D02*
X139500000Y-86000000D01*
%TO.N,Net-(U1-AISEN)*%
X124678000Y-90881500D02*
X124512000Y-90715600D01*
X119388000Y-84525000D02*
X119387500Y-84525000D01*
X120500000Y-91900000D02*
X121453000Y-92852700D01*
X119387500Y-84525000D02*
X115590000Y-84525000D01*
X124678000Y-92555800D02*
X124678000Y-90881500D01*
X124381000Y-92852700D02*
X124678000Y-92555800D01*
X121453000Y-92852700D02*
X124381000Y-92852700D01*
%TO.N,Net-(U2-BISEN)*%
X132500000Y-91900000D02*
X128746000Y-88146000D01*
X129481000Y-86100000D02*
X130275000Y-86100000D01*
X128746000Y-88146000D02*
X128746000Y-86834600D01*
X128746000Y-86834600D02*
X129481000Y-86100000D01*
%TO.N,Net-(SW1-A)*%
X181124700Y-78944700D02*
X183166800Y-80986700D01*
X160223000Y-87922100D02*
X160699000Y-87922100D01*
X158700000Y-89444700D02*
X160223000Y-87922100D01*
X183166800Y-80986700D02*
X181520700Y-82632800D01*
X181000000Y-78944700D02*
X181124700Y-78944700D01*
X161001000Y-88223400D02*
X167045000Y-88223400D01*
X167045000Y-88223400D02*
X168323000Y-86944700D01*
X168323000Y-86944700D02*
X169125000Y-86944700D01*
X184039400Y-80986700D02*
X183166800Y-80986700D01*
X184052700Y-81000000D02*
X184039400Y-80986700D01*
X170451800Y-86944700D02*
X169125000Y-86944700D01*
X160699000Y-87922100D02*
X161001000Y-88223400D01*
X184665000Y-81000000D02*
X184052700Y-81000000D01*
X181520700Y-82632800D02*
X172019700Y-82632800D01*
%TO.N,Net-(U5-SDA)*%
X146493000Y-101238000D02*
X146493000Y-100522000D01*
X148577000Y-98510000D02*
X148577000Y-97251000D01*
X154454000Y-102155000D02*
X152725000Y-102155000D01*
X148328000Y-98686700D02*
X148400000Y-98686700D01*
X155399000Y-101210000D02*
X154454000Y-102155000D01*
X148577000Y-97251000D02*
X146021000Y-94695100D01*
X141202000Y-92500000D02*
X140400000Y-92500000D01*
X146773000Y-101518000D02*
X146493000Y-101238000D01*
X143397000Y-94695100D02*
X141202000Y-92500000D01*
X146493000Y-100522000D02*
X148328000Y-98686700D01*
X148400000Y-98686700D02*
X148577000Y-98510000D01*
X152088000Y-101518000D02*
X146773000Y-101518000D01*
X155900000Y-101210000D02*
X155399000Y-101210000D01*
X146021000Y-94695100D02*
X143397000Y-94695100D01*
X152725000Y-102155000D02*
X152088000Y-101518000D01*
%TO.N,Net-(U5-SCL)*%
X154630000Y-99189800D02*
X152725000Y-99189800D01*
X151627000Y-98478800D02*
X152338000Y-99189800D01*
X152338000Y-99189800D02*
X152725000Y-99189800D01*
X155900000Y-97920000D02*
X154630000Y-99189800D01*
X151627000Y-97885000D02*
X151627000Y-98478800D01*
X152725000Y-100885000D02*
X152725000Y-99189800D01*
X150825000Y-97885000D02*
X151627000Y-97885000D01*
%TO.N,Net-(U1-~{NFAULT})*%
X119387500Y-87775000D02*
X119388000Y-87775000D01*
X114027000Y-87775000D02*
X119387500Y-87775000D01*
X111500000Y-89500000D02*
X112302000Y-89500000D01*
X112302000Y-89500000D02*
X114027000Y-87775000D01*
%TO.N,unconnected-(U1-EXP-Pad17)*%
X123000000Y-87000000D02*
X121875000Y-87000000D01*
X121875000Y-85500000D02*
X121500000Y-85500000D01*
X122062000Y-85500000D02*
X122062000Y-84000000D01*
X122062000Y-84000000D02*
X121500000Y-84000000D01*
X121875000Y-85500000D02*
X121875000Y-87000000D01*
X122250000Y-85500000D02*
X122062000Y-85500000D01*
X123000000Y-85500000D02*
X122250000Y-85500000D01*
X122062000Y-85500000D02*
X121875000Y-85500000D01*
X123000000Y-84000000D02*
X122062000Y-84000000D01*
X121875000Y-87000000D02*
X121500000Y-87000000D01*
%TO.N,unconnected-(U2-EXP-Pad17)*%
X133513000Y-86250200D02*
X133513000Y-85125000D01*
X133513000Y-85125000D02*
X133513000Y-83625000D01*
X133137500Y-85125000D02*
X132388000Y-85125000D01*
X133513000Y-85125000D02*
X133137500Y-85125000D01*
X133888000Y-83625000D02*
X133513000Y-83625000D01*
X133888000Y-86625000D02*
X133138000Y-86625000D01*
X133138000Y-86625000D02*
X133513000Y-86250200D01*
X133138000Y-86625000D02*
X132388000Y-86625000D01*
X133888000Y-85125000D02*
X133513000Y-85125000D01*
X133513000Y-83625000D02*
X132388000Y-83625000D01*
%TO.N,Net-(U9-SW_4)*%
X163438000Y-78635500D02*
X163754700Y-78952200D01*
X161000000Y-89444700D02*
X160882700Y-89327400D01*
X160882700Y-89327400D02*
X159884500Y-89327400D01*
X163754700Y-78952200D02*
X165000000Y-78952200D01*
X162920000Y-78952200D02*
X163754700Y-78952200D01*
X160106100Y-78635500D02*
X163438000Y-78635500D01*
X184665000Y-79000000D02*
X183552200Y-79000000D01*
X159609300Y-79132300D02*
X160106100Y-78635500D01*
X162427500Y-79444700D02*
X162920000Y-78952200D01*
X161213100Y-89231600D02*
X181670000Y-89231600D01*
X161000000Y-89444700D02*
X161213100Y-89231600D01*
X162428000Y-79444700D02*
X162920000Y-78952200D01*
%TO.N,Net-(U9-BOOT)*%
X170678700Y-78964400D02*
X170678700Y-78623700D01*
X170678700Y-78623700D02*
X171297700Y-78004700D01*
X182950500Y-79235300D02*
X182950500Y-79350200D01*
X181719900Y-78004700D02*
X182950500Y-79235300D01*
X171297700Y-78004700D02*
X181719900Y-78004700D01*
X165000000Y-80087200D02*
X165430000Y-79657200D01*
X182950500Y-79350200D02*
X184100300Y-80500000D01*
X165430000Y-79657200D02*
X169985900Y-79657200D01*
X169985900Y-79657200D02*
X170678700Y-78964400D01*
X184100300Y-80500000D02*
X184665000Y-80500000D01*
%TO.N,Net-(C33-Pad1)*%
X162412000Y-76944700D02*
X162412500Y-76944700D01*
X162412500Y-76944700D02*
X167650000Y-76944700D01*
X167650000Y-76944700D02*
X169500000Y-78794700D01*
%TO.N,Net-(U9-SS)*%
X181320600Y-83400000D02*
X168493000Y-83400000D01*
X168493000Y-79000000D02*
X167205300Y-79000000D01*
X184965000Y-82000000D02*
X182720600Y-82000000D01*
X185565000Y-81400000D02*
X184965000Y-82000000D01*
X182720600Y-82000000D02*
X181320600Y-83400000D01*
X167205300Y-79000000D02*
X167000000Y-78794700D01*
%TO.N,VCC*%
X184233000Y-77068000D02*
X183942300Y-77068000D01*
X179707700Y-106099700D02*
X179517100Y-105909100D01*
X155680000Y-104060000D02*
X155900000Y-104280000D01*
X155900000Y-104280000D02*
X155900000Y-104500000D01*
X184665000Y-77500000D02*
X184233000Y-77068000D01*
X147775000Y-103425000D02*
X148410000Y-104060000D01*
X148410000Y-104060000D02*
X155680000Y-104060000D01*
X181500000Y-86944700D02*
X182934700Y-86944700D01*
X155900000Y-104280000D02*
X157355000Y-104280000D01*
X179517100Y-105909100D02*
X159895000Y-105909100D01*
%TO.N,Net-(U9-FSW)*%
X182344900Y-77801200D02*
X182344900Y-77158400D01*
X183700200Y-78189300D02*
X182733000Y-78189300D01*
X184665000Y-78000000D02*
X183889500Y-78000000D01*
X183889500Y-78000000D02*
X183700200Y-78189300D01*
X160650600Y-91228700D02*
X185935700Y-91228700D01*
X183641000Y-75862300D02*
X185935700Y-75862300D01*
X160587500Y-81944700D02*
X158991900Y-81944700D01*
X182733000Y-78189300D02*
X182344900Y-77801200D01*
X182344900Y-77158400D02*
X183641000Y-75862300D01*
%TO.N,Net-(R20-Pad1)*%
X162412000Y-81599700D02*
X162412000Y-81254700D01*
X160602000Y-79444800D02*
X160602400Y-79444800D01*
X160602000Y-79444900D02*
X160602000Y-79445300D01*
X160602000Y-79444900D02*
X160602000Y-79444800D01*
X161507000Y-80349800D02*
X160602000Y-79444900D01*
X160602400Y-79444800D02*
X160602500Y-79444700D01*
X162412000Y-81599700D02*
X162412000Y-81772200D01*
X162412500Y-81944700D02*
X162412000Y-81944200D01*
X162412000Y-81254700D02*
X161507000Y-80349800D01*
X162412000Y-81599700D02*
X162412000Y-81254700D01*
X160602000Y-79445300D02*
X161507000Y-80349800D01*
X162412000Y-81944200D02*
X162412000Y-81772200D01*
%TO.N,Net-(U9-COMP)*%
X186674400Y-75195500D02*
X183824500Y-75195500D01*
X160587500Y-76944700D02*
X159817500Y-76174700D01*
X188567700Y-77088800D02*
X186674400Y-75195500D01*
X188567700Y-77737700D02*
X188567700Y-77088800D01*
X159817500Y-76174700D02*
X159594100Y-76174700D01*
X188305400Y-78000000D02*
X188567700Y-77737700D01*
X187965000Y-78000000D02*
X188305400Y-78000000D01*
X174955500Y-69066000D02*
X159594100Y-69066000D01*
%TO.N,Net-(U9-ILIM)*%
X164129200Y-84627900D02*
X164257100Y-84500000D01*
X187316200Y-76466200D02*
X187965000Y-77115000D01*
X165463557Y-84500000D02*
X165474057Y-84489500D01*
X183642400Y-76466200D02*
X187316200Y-76466200D01*
X182968700Y-77139900D02*
X183642400Y-76466200D01*
X165971943Y-84489500D02*
X165982443Y-84500000D01*
X181741400Y-84500000D02*
X182675600Y-83565800D01*
X182675600Y-83565800D02*
X182675600Y-83399500D01*
X182968700Y-77530000D02*
X182968700Y-77139900D01*
X165982443Y-84500000D02*
X181741400Y-84500000D01*
X161683200Y-84627900D02*
X164129200Y-84627900D01*
X164257100Y-84500000D02*
X165463557Y-84500000D01*
X161000000Y-83944700D02*
X161683200Y-84627900D01*
X182675600Y-83399500D02*
X182943100Y-83399500D01*
X165474057Y-84489500D02*
X165971943Y-84489500D01*
X187965000Y-77115000D02*
X187965000Y-77500000D01*
%TO.N,/3V3 5V output/FB*%
X189071100Y-79221300D02*
X188349800Y-78500000D01*
X171774200Y-86944700D02*
X172175000Y-86944700D01*
X187095200Y-87797000D02*
X189071100Y-85821100D01*
X171373300Y-86944700D02*
X170370700Y-85942100D01*
X161800500Y-72745200D02*
X162500000Y-72745200D01*
X172175000Y-86944700D02*
X172976700Y-86944700D01*
X162500000Y-72745200D02*
X162500000Y-74394700D01*
X189071100Y-85821100D02*
X189071100Y-79221300D01*
X160500000Y-71444700D02*
X161800500Y-72745200D01*
X172976700Y-86944700D02*
X173829000Y-87797000D01*
X188349800Y-78500000D02*
X187965000Y-78500000D01*
X170370700Y-85942100D02*
X169658600Y-85942100D01*
X173829000Y-87797000D02*
X187095200Y-87797000D01*
X162500000Y-72745200D02*
X162814500Y-72745200D01*
X171774200Y-86944700D02*
X171373300Y-86944700D01*
%TO.N,Net-(Q4-D)*%
X114500000Y-108000000D02*
X114500000Y-107500000D01*
X113400000Y-106400000D02*
X113400000Y-105000000D01*
X116000000Y-105275000D02*
X115725000Y-105000000D01*
X114500000Y-107500000D02*
X113400000Y-106400000D01*
X115725000Y-105000000D02*
X113400000Y-105000000D01*
%TO.N,Net-(Q4-G)*%
X120350000Y-105275000D02*
X120625000Y-105000000D01*
X117900000Y-105275000D02*
X120350000Y-105275000D01*
%TO.N,/battery/5V*%
X111250000Y-73000000D02*
X111250000Y-72222400D01*
X110575000Y-66950000D02*
X110575000Y-70300000D01*
X117500000Y-74770000D02*
X117500000Y-74000000D01*
X111250000Y-72222400D02*
X111250000Y-70975000D01*
X111250000Y-70975000D02*
X110575000Y-70300000D01*
X117500000Y-74770000D02*
X116059000Y-74770000D01*
X117500000Y-63500000D02*
X119000000Y-63500000D01*
X116059000Y-74770000D02*
X113511000Y-72222400D01*
X120050000Y-74770000D02*
X117500000Y-74770000D01*
X113511000Y-72222400D02*
X111250000Y-72222400D01*
X110575000Y-66950000D02*
X110575000Y-63600000D01*
X117500000Y-74000000D02*
X117500000Y-74100000D01*
%TO.N,FAST_CHARGE_CTRL*%
X145408000Y-85978500D02*
X144930000Y-85500000D01*
X144930000Y-85500000D02*
X142500000Y-85500000D01*
%TO.N,MOTOR2_CTRL2*%
X126201000Y-87506130D02*
X125968870Y-87274000D01*
X126002806Y-88441611D02*
X125916830Y-88355635D01*
X125112000Y-87125000D02*
X125112500Y-87125000D01*
X126422000Y-106990000D02*
X137593000Y-106990000D01*
X126201000Y-88043870D02*
X126201000Y-87506130D01*
X125968870Y-87274000D02*
X125261500Y-87274000D01*
X150477000Y-108198000D02*
X158397000Y-108198000D01*
X158397000Y-108198000D02*
X159198000Y-109000000D01*
X125916830Y-88276000D02*
X125968870Y-88276000D01*
X149873000Y-107594000D02*
X150477000Y-108198000D01*
X125261500Y-87274000D02*
X125112500Y-87125000D01*
X159198000Y-109000000D02*
X160000000Y-109000000D01*
X160802000Y-109000000D02*
X160000000Y-109000000D01*
X125916830Y-88355635D02*
X125916830Y-88276000D01*
X163705000Y-112283000D02*
X160802000Y-109380000D01*
X125968870Y-88276000D02*
X126201000Y-88043870D01*
X137593000Y-106990000D02*
X138196000Y-107594000D01*
X138196000Y-107594000D02*
X149873000Y-107594000D01*
X163705000Y-113435000D02*
X163705000Y-112283000D01*
X160802000Y-109380000D02*
X160802000Y-109000000D01*
%TO.N,MOTOR2_B_OUT*%
X119336000Y-85876900D02*
X118684000Y-85876900D01*
X168785000Y-114823000D02*
X169073000Y-114823000D01*
X152870000Y-106530000D02*
X152324000Y-105985000D01*
X119387500Y-85825000D02*
X119388000Y-85825000D01*
X137148000Y-103410000D02*
X123658000Y-103410000D01*
X112302000Y-86500000D02*
X112925000Y-85876900D01*
X139723000Y-105985000D02*
X137148000Y-103410000D01*
X112925000Y-85876900D02*
X118098000Y-85876900D01*
X111500000Y-86500000D02*
X112302000Y-86500000D01*
X118735000Y-85825000D02*
X119387500Y-85825000D01*
X169982000Y-109537000D02*
X166776000Y-106332000D01*
X161089000Y-106332000D02*
X160891000Y-106530000D01*
X160891000Y-106530000D02*
X152870000Y-106530000D01*
X152324000Y-105985000D02*
X139723000Y-105985000D01*
X118098000Y-85876900D02*
X118684000Y-85876900D01*
X118684000Y-85876900D02*
X118735000Y-85825000D01*
X169982000Y-113915000D02*
X169982000Y-109537000D01*
X169073000Y-114823000D02*
X169982000Y-113915000D01*
X119388000Y-85825000D02*
X119336000Y-85876900D01*
X168785000Y-115975000D02*
X168785000Y-114823000D01*
X166776000Y-106332000D02*
X161089000Y-106332000D01*
%TO.N,MOTOR4_CTRL2*%
X158625000Y-113435000D02*
X157473000Y-113435000D01*
X146033000Y-86905700D02*
X146150000Y-86788900D01*
X136863070Y-86905700D02*
X146033000Y-86905700D01*
X136000000Y-86750000D02*
X136149000Y-86899000D01*
X157473000Y-113435000D02*
X157473000Y-113147000D01*
X153326000Y-109000000D02*
X152000000Y-109000000D01*
X157473000Y-113147000D02*
X153326000Y-109000000D01*
X136856370Y-86899000D02*
X136863070Y-86905700D01*
X136149000Y-86899000D02*
X136856370Y-86899000D01*
%TO.N,MOTOR1_CTRL2*%
X122301300Y-77500000D02*
X124500000Y-77500000D01*
X127278000Y-83875000D02*
X125112500Y-83875000D01*
X124500000Y-77500000D02*
X126520000Y-79520000D01*
X121301300Y-78500000D02*
X122301300Y-77500000D01*
X127321000Y-83832200D02*
X127322000Y-83832200D01*
X120000000Y-78500000D02*
X121301300Y-78500000D01*
X125112500Y-83875000D02*
X125112000Y-83875000D01*
X127321000Y-80605700D02*
X127321000Y-83832200D01*
X126520000Y-79520000D02*
X126520000Y-80253643D01*
X127321000Y-83832200D02*
X127278000Y-83875000D01*
X126872057Y-80605700D02*
X127321000Y-80605700D01*
X126520000Y-80253643D02*
X126872057Y-80605700D01*
%TO.N,Net-(U1-BISEN)*%
X110698000Y-90206700D02*
X110698000Y-88833700D01*
X122503000Y-90903300D02*
X111395000Y-90903300D01*
X119387600Y-86475100D02*
X119387500Y-86475000D01*
X113053000Y-86478600D02*
X119384000Y-86478600D01*
X119388000Y-86475300D02*
X119388000Y-86475100D01*
X119388000Y-86475100D02*
X119388000Y-86475000D01*
X123500000Y-91900000D02*
X122503000Y-90903300D01*
X110698000Y-88833700D02*
X113053000Y-86478600D01*
X119386000Y-86476800D02*
X119388000Y-86475300D01*
X119388000Y-86475100D02*
X119387600Y-86475100D01*
X119384000Y-86478600D02*
X119386000Y-86476800D01*
X111395000Y-90903300D02*
X110698000Y-90206700D01*
X119388000Y-86475000D02*
X119386000Y-86476800D01*
%TO.N,Net-(U2-~{NFAULT})*%
X127000000Y-78500000D02*
X127000000Y-79801700D01*
X130275000Y-87400000D02*
X130275000Y-88085400D01*
X127000000Y-79801700D02*
X127121000Y-79923000D01*
X127121000Y-79923000D02*
X127121000Y-80004700D01*
X130275000Y-88085400D02*
X130242000Y-88118700D01*
%TO.N,Net-(J3-VSET)*%
X188000000Y-103150000D02*
X168400000Y-103150000D01*
X189000000Y-100500000D02*
X188000000Y-101500000D01*
X188000000Y-101500000D02*
X188000000Y-103150000D01*
X188000000Y-103150000D02*
X188000000Y-103700000D01*
%TO.N,Net-(J2-CC2)*%
X176900000Y-94027300D02*
X176900000Y-94500000D01*
X187777000Y-92697100D02*
X176900000Y-92697100D01*
X176900000Y-92697100D02*
X176900000Y-94027300D01*
X189000000Y-93920000D02*
X187777000Y-92697100D01*
%TO.N,Net-(J2-CC1)*%
X175900000Y-92251000D02*
X175900000Y-94027300D01*
X189964000Y-96245700D02*
X189964000Y-93050000D01*
X175900000Y-94027300D02*
X175900000Y-94500000D01*
X189165000Y-92251000D02*
X175900000Y-92251000D01*
X189000000Y-97210000D02*
X189964000Y-96245700D01*
X189964000Y-93050000D02*
X189165000Y-92251000D01*
%TD*%
M02*
