%TF.GenerationSoftware,KiCad,Pcbnew,9.0.0*%
%TF.CreationDate,2025-04-16T10:09:12+02:00*%
%TF.ProjectId,EEE3088F Design project,45454533-3038-4384-9620-44657369676e,rev?*%
%TF.SameCoordinates,Original*%
%TF.FileFunction,Soldermask,Bot*%
%TF.FilePolarity,Negative*%
%FSLAX46Y46*%
G04 Gerber Fmt 4.6, Leading zero omitted, Abs format (unit mm)*
G04 Created by KiCad (PCBNEW 9.0.0) date 2025-04-16 10:09:12*
%MOMM*%
%LPD*%
G01*
G04 APERTURE LIST*
G04 Aperture macros list*
%AMRoundRect*
0 Rectangle with rounded corners*
0 $1 Rounding radius*
0 $2 $3 $4 $5 $6 $7 $8 $9 X,Y pos of 4 corners*
0 Add a 4 corners polygon primitive as box body*
4,1,4,$2,$3,$4,$5,$6,$7,$8,$9,$2,$3,0*
0 Add four circle primitives for the rounded corners*
1,1,$1+$1,$2,$3*
1,1,$1+$1,$4,$5*
1,1,$1+$1,$6,$7*
1,1,$1+$1,$8,$9*
0 Add four rect primitives between the rounded corners*
20,1,$1+$1,$2,$3,$4,$5,0*
20,1,$1+$1,$4,$5,$6,$7,0*
20,1,$1+$1,$6,$7,$8,$9,0*
20,1,$1+$1,$8,$9,$2,$3,0*%
G04 Aperture macros list end*
%ADD10C,3.000000*%
%ADD11RoundRect,0.250000X-0.625000X0.350000X-0.625000X-0.350000X0.625000X-0.350000X0.625000X0.350000X0*%
%ADD12O,1.750000X1.200000*%
%ADD13O,1.000000X1.700000*%
%ADD14R,1.700000X1.700000*%
%ADD15O,1.700000X1.700000*%
G04 APERTURE END LIST*
D10*
%TO.C,SW1*%
X161400000Y-65944700D03*
X166200000Y-65944700D03*
X171000000Y-65944700D03*
%TD*%
D11*
%TO.C,J4*%
X140500000Y-101000000D03*
D12*
X140500000Y-103000000D03*
%TD*%
D13*
%TO.C,J2*%
X172080000Y-94207300D03*
X172080000Y-98007300D03*
X180720000Y-94207300D03*
X180720000Y-98007300D03*
%TD*%
D14*
%TO.C,J1*%
X168785000Y-115975000D03*
D15*
X168785000Y-113435000D03*
X166245000Y-115975000D03*
X166245000Y-113435000D03*
X163705000Y-115975000D03*
X163705000Y-113435000D03*
X161165000Y-115975000D03*
X161165000Y-113435000D03*
X158625000Y-115975000D03*
X158625000Y-113435000D03*
X156085000Y-115975000D03*
X156085000Y-113435000D03*
X153545000Y-115975000D03*
X153545000Y-113435000D03*
X151005000Y-115975000D03*
X151005000Y-113435000D03*
X148465000Y-115975000D03*
X148465000Y-113435000D03*
X145925000Y-115975000D03*
X145925000Y-113435000D03*
X143385000Y-115975000D03*
X143385000Y-113435000D03*
X140845000Y-115975000D03*
X140845000Y-113435000D03*
X138305000Y-115975000D03*
X138305000Y-113435000D03*
X135765000Y-115975000D03*
X135765000Y-113435000D03*
X133225000Y-115975000D03*
X133225000Y-113435000D03*
X130685000Y-115975000D03*
X130685000Y-113435000D03*
%TD*%
M02*
