M48
; DRILL file {KiCad 9.0.0} date 2025-03-27T23:27:48+0200
; FORMAT={-:-/ absolute / inch / decimal}
; #@! TF.CreationDate,2025-03-27T23:27:48+02:00
; #@! TF.GenerationSoftware,Kicad,Pcbnew,9.0.0
; #@! TF.FileFunction,Plated,1,2,PTH
FMAT,2
INCH
; #@! TA.AperFunction,Plated,PTH,ComponentDrill
T1C0.0079
; #@! TA.AperFunction,Plated,PTH,ViaDrill
T2C0.0118
; #@! TA.AperFunction,Plated,PTH,ComponentDrill
T3C0.0197
; #@! TA.AperFunction,Plated,PTH,ComponentDrill
T4C0.0394
%
G90
G05
T1
X4.7799Y-4.2409
X4.7799Y-4.2882
X4.7799Y-4.3354
X4.835Y-4.2409
X4.835Y-4.2882
X4.835Y-4.3354
X6.3735Y-2.6608
X6.3735Y-2.7199
X6.3735Y-2.7789
X6.3735Y-2.9222
X6.3735Y-2.9813
X6.3735Y-3.0404
X6.4326Y-2.6608
X6.4326Y-2.7199
X6.4326Y-2.7789
X6.4326Y-2.9222
X6.4326Y-2.9813
X6.4326Y-3.0404
T2
X3.5648Y-3.3116
X3.5648Y-5.2628
X3.5885Y-3.0832
X3.5885Y-3.4292
X3.6313Y-3.443
X3.6885Y-4.1681
X3.7332Y-3.7695
X3.8015Y-3.1917
X3.8127Y-2.8184
X3.9162Y-4.5767
X3.9177Y-3.5321
X3.9244Y-3.7716
X3.9995Y-2.7583
X4.0318Y-2.7327
X4.2866Y-2.7691
X4.3103Y-3.9917
X4.3227Y-3.6443
X4.3227Y-2.9941
X4.3467Y-3.5199
X4.3541Y-5.1587
X4.378Y-4.0188
X4.4692Y-2.889
X4.4762Y-4.71
X4.4984Y-4.6319
X4.5981Y-3.0453
X4.6268Y-3.0934
X4.7268Y-3.1183
X4.7268Y-3.472
X4.7605Y-3.9791
X4.8174Y-4.0791
X4.8411Y-3.6647
X4.8411Y-4.126
X4.8767Y-4.5609
X4.9268Y-4.3948
X4.9593Y-4.1874
X4.9612Y-3.8819
X4.9909Y-3.9922
X5.0701Y-4.2659
X5.2772Y-4.1404
X5.4026Y-4.8906
X5.4268Y-2.862
X5.4517Y-2.8391
X5.4517Y-3.3891
X5.6268Y-2.7041
X5.7268Y-2.5905
X5.7268Y-2.9669
X5.7721Y-2.9701
X5.7996Y-2.9424
X5.7996Y-3.0693
X5.8268Y-3.5352
X6.0006Y-2.6562
X6.1623Y-2.7071
X6.1645Y-2.9173
X6.2129Y-2.889
X6.2151Y-2.6325
X6.2396Y-2.9437
X6.446Y-4.2042
X6.5017Y-3.1758
X6.5225Y-3.128
X6.5584Y-5.1688
X6.5668Y-2.9173
X6.5677Y-2.7183
X6.5822Y-2.9947
X6.5956Y-2.7737
X6.6636Y-4.1678
T4
X4.3268Y-5.215
X4.3268Y-5.315
X4.4268Y-5.215
X4.4268Y-5.315
X4.5268Y-5.215
X4.5268Y-5.315
X4.6268Y-5.215
X4.6268Y-5.315
X4.7268Y-5.215
X4.7268Y-5.315
X4.8268Y-5.215
X4.8268Y-5.315
X4.9268Y-5.215
X4.9268Y-5.315
X5.0268Y-5.215
X5.0268Y-5.315
X5.1268Y-5.215
X5.1268Y-5.315
X5.2268Y-5.215
X5.2268Y-5.315
X5.3268Y-5.215
X5.3268Y-5.315
X5.4268Y-5.215
X5.4268Y-5.315
X5.5268Y-5.215
X5.5268Y-5.315
X5.6268Y-5.215
X5.6268Y-5.315
X5.7268Y-5.215
X5.7268Y-5.315
X5.8268Y-5.215
X5.8268Y-5.315
T3
G00X3.5112Y-3.8148
M15
G01X3.5112Y-3.8423
M16
G05
G00X3.5112Y-3.9644
M15
G01X3.5112Y-3.9919
M16
G05
G00X3.8514Y-3.8148
M15
G01X3.8514Y-3.8423
M16
G05
G00X3.8514Y-3.9644
M15
G01X3.8514Y-3.9919
M16
G05
M30
